<?xml version="1.0" encoding="utf-8"?>
<!-- Generator: Adobe Illustrator 27.5.0, SVG Export Plug-In . SVG Version: 6.00 Build 0)  -->
<svg version="1.1" xmlns="http://www.w3.org/2000/svg" xmlns:xlink="http://www.w3.org/1999/xlink" x="0px" y="0px"
	 viewBox="0 0 3710 3710" style="enable-background:new 0 0 3710 3710;" xml:space="preserve">
<g id="Background">
	<g>
		<g>
			<rect style="fill:#FFFFFF;" width="3710" height="3710"/>
		</g>
	</g>
</g>
<g id="Illustration">
	<g>
		<path style="fill:#F4F7FA;" d="M3281.904,1606.374c-77.427-506.801-394.881-1129.442-1022.046-1194.602
			c0,0-476.173-57.919-945.575,29.863c-278.59,52.099-522.873,207.185-677.445,430.083
			c-154.574,222.898-206.206,494.692-143.544,753.815c40.699,168.302,68.201,342.488,60.653,515.429
			c-13.136,300.986-5.578,581.936,286.522,761.435c260.812,160.274,589.048,301.629,902.19,326.387
			c212.809,16.826,451.461-10.402,656.568-65.807C3444.502,2880.617,3359.332,2113.176,3281.904,1606.374z"/>
		<g>
			<g>
				<g>
					<defs>
						<path id="SVGID_1_" d="M2698.098,2273.486c13.239-114.413,15.207-283.712-63.369-454.293
							c-103.052-223.713-254.096-253.072-505.289-566.945c-158.827-198.459-267.67-338.559-231.076-493.672
							c28.677-121.554,143.234-237.774,263.017-248.878c99.596-9.232,214.466,53.127,281.655,110.16
							c54.759,46.481,80.74,91.881,136.026,94.008c56.5,2.173,76.962-43.41,125.005-47.039
							c97.43-7.36,184.978,167.141,199.127,195.344c157.395,313.723,65.932,692.423,24.045,857.133
							C2892.606,1855.49,2827.729,2052.803,2698.098,2273.486z"/>
					</defs>
					
						<linearGradient id="SVGID_00000143594700591092562010000014427642403235713938_" gradientUnits="userSpaceOnUse" x1="2031.3286" y1="559.05" x2="2467.5747" y2="1124.7322">
						<stop  offset="0.0036" style="stop-color:#E38DDD"/>
						<stop  offset="1" style="stop-color:#9571F6"/>
					</linearGradient>
					
						<use xlink:href="#SVGID_1_"  style="overflow:visible;fill:url(#SVGID_00000143594700591092562010000014427642403235713938_);"/>
					<clipPath id="SVGID_00000008830863477187936860000014381546262043912123_">
						<use xlink:href="#SVGID_1_"  style="overflow:visible;"/>
					</clipPath>
					<g style="opacity:0.5;clip-path:url(#SVGID_00000008830863477187936860000014381546262043912123_);">
						<path style="fill:#FFFFFF;" d="M2664.819,2383.211l-4.715-2.611c75.615-136.56,128.79-268.112,158.049-391.002
							c43.163-181.285,32.572-338.449-31.476-467.127c-50.157-100.767-130.49-181.071-241.673-292.217
							c-88.749-88.72-159.645-143.589-222.196-191.999c-81.663-63.2-146.164-113.121-211.819-209.106
							c-66.637-97.42-112.447-211.546-136.16-339.207l5.301-0.985c23.573,126.92,69.097,240.353,135.308,337.15
							c65.177,95.283,129.382,144.974,210.67,207.885c62.675,48.508,133.717,103.488,222.706,192.449
							c107.35,107.311,192.14,192.073,242.688,293.628c64.626,129.837,75.358,288.23,31.896,470.777
							C2794.025,2114.213,2740.671,2246.223,2664.819,2383.211z"/>
						<path style="fill:#FFFFFF;" d="M2483.124,1165.71l-2.917,0.872c-0.867,0.26-88.042,25.793-206.618,14.16
							c-69.639-6.833-136.37-24.947-198.335-53.841c-77.448-36.113-147.612-89.254-208.545-157.945l4.032-3.578
							c60.441,68.138,130.016,120.837,206.79,156.638c61.411,28.636,127.552,46.589,196.584,53.362
							c105.387,10.34,185.548-8.88,201.608-13.148c-94.235-217.025-93.128-403.894-75.524-522.657
							c19.17-129.33,61.559-208.151,61.985-208.932l4.734,2.581c-0.423,0.775-42.423,78.936-61.424,207.396
							c-17.532,118.528-18.508,305.358,76.41,522.303L2483.124,1165.71z"/>
						<path style="fill:#FFFFFF;" d="M2721.048,1405.086c-1.042,1.672-2.094,3.311-3.165,4.932l-1.079,1.635l-1.888-0.521
							c-1.399-0.387-141.629-38.783-289.752-49.756c-147.533-10.927-359.42,121.156-361.543,122.491l-2.869-4.562
							c2.138-1.345,215.531-134.362,364.811-123.304c139.267,10.316,271.558,44.784,288.885,49.42
							c76.619-118.469,63.327-349.552,38.513-522.919c-27.061-189.056-73.237-352.186-73.7-353.811l5.183-1.477
							c0.465,1.628,46.728,165.057,73.844,354.464c15.935,111.304,22.243,209.688,18.747,292.423
							C2772.789,1274.626,2753.958,1352.298,2721.048,1405.086z"/>
						<path style="fill:#FFFFFF;" d="M2991.354,1730.121c-79.366,127.308-151.169,204.852-151.948,205.688l-3.663,3.929
							l-0.959-5.285c-13.08-72.01-45.661-131.293-96.839-176.207c-41.004-35.984-93.998-62.916-157.507-80.047
							c-108.347-29.226-210.935-19.606-211.959-19.505l-0.526-5.365c1.033-0.102,104.601-9.813,213.889,19.666
							c64.313,17.347,118.03,44.667,159.659,81.2c50.843,44.619,83.653,103.12,97.576,173.951
							c17.077-19.086,91.994-105.531,168.761-235.58c80.208-135.876,178.905-348.511,193.604-589.881l28.526-468.394l5.382,0.328
							l-28.526,468.394c-14.769,242.493-113.876,456.003-194.417,592.416C3005.362,1707.36,2998.325,1718.939,2991.354,1730.121z"/>
					</g>
				</g>
			</g>
			<g>
				<g>
					<defs>
						<path id="SVGID_00000171711393433460965240000002165164007893849225_" d="M2733.143,2146.313
							c149.824-62.359,329.558-165.454,468.207-334.292c35.384-43.088,253.967-309.263,150.756-439.815
							c-36.356-45.987-81.937-36.309-131.475-97.027c-58.698-71.946-32.273-131.585-48.591-245.417
							c-9.737-67.923-38.231-266.701-179.403-323.443c-84.36-33.907-205.141-15.56-276.972,40.481
							c-105.36,82.201-84.762,229.39-45.844,478.32c34.499,220.667,72.587,262.241,94.818,421.264
							C2781.139,1764.407,2787.075,1934.036,2733.143,2146.313z"/>
					</defs>
					
						<linearGradient id="SVGID_00000093157963747972066860000008925061430799359679_" gradientUnits="userSpaceOnUse" x1="3446.4763" y1="1140.2717" x2="2866.9407" y2="1382.4923">
						<stop  offset="0" style="stop-color:#FF9085"/>
						<stop  offset="1" style="stop-color:#FB6FBB"/>
					</linearGradient>
					
						<use xlink:href="#SVGID_00000171711393433460965240000002165164007893849225_"  style="overflow:visible;fill:url(#SVGID_00000093157963747972066860000008925061430799359679_);"/>
					<clipPath id="SVGID_00000096056111965896138420000000005299657756850873_">
						<use xlink:href="#SVGID_00000171711393433460965240000002165164007893849225_"  style="overflow:visible;"/>
					</clipPath>
					<g style="opacity:0.5;clip-path:url(#SVGID_00000096056111965896138420000000005299657756850873_);">
						<path style="fill:#FFFFFF;" d="M2782.8,2069.76c-50.256,80.614-111.793,149.932-184.438,207.598
							c-131.879,104.687-293.847,168.627-481.401,190.042l-0.612-5.357c186.539-21.3,347.583-84.857,478.663-188.908
							c174.635-138.626,284.828-345.329,327.503-614.359c44.449-280.209,4.531-557.818-36.783-741.359
							c-28.637-127.229-95.077-253.314-197.472-374.752l4.121-3.476c102.958,122.107,169.781,248.964,198.611,377.044
							c41.417,184.002,81.429,462.335,36.846,743.388C2902.676,1818.243,2854.115,1955.368,2782.8,2069.76z"/>
						<path style="fill:#FFFFFF;" d="M2942.271,1292.098l-2.331-1.331c-0.692-0.394-70.069-40.32-145.966-114.086
							c-70.091-68.121-160.295-179.895-191.997-325.528l5.267-1.145c31.405,144.266,120.862,255.115,190.378,322.703
							c67.653,65.776,130.045,104.459,142.674,112.011c208.147-363.347,80.002-623.477,35.685-694.671
							c-1.265-2.033-1.789-2.879-2.037-3.41l4.881-2.287c0.148,0.303,0.917,1.539,1.732,2.848
							c44.813,71.989,174.586,335.407-36.947,702.572L2942.271,1292.098z"/>
						<path style="fill:#FFFFFF;" d="M3299.035,1416.365c-1.803,2.893-3.657,5.789-5.58,8.712
							c-32.47,49.368-75.53,92.882-127.981,129.333c-65.484,45.507-145.874,80.068-238.933,102.72l-1.386,0.338l-1.058-0.956
							c-1.825-1.648-183.787-168.02-296.737-451.496l-114.023-286.171l5.007-1.996l114.024,286.172
							c108.014,271.089,279.31,434.569,294.3,448.53c115.315-28.267,271.23-90.997,362.283-229.436
							c54.574-82.948,59.892-154.677,59.938-155.391l5.379,0.357C3354.221,1267.783,3349.169,1335.948,3299.035,1416.365z"/>
					</g>
				</g>
			</g>
		</g>
		<g>
			<g>
				<path style="fill:#97A6B7;" d="M2238.387,2740.092c-38.647-12.819-67.533-45.618-75.678-85.932l-56.25-278.397l-481.177,17.087
					l-59.219,290.028c-8.294,40.618,24.906,81.368,63.142,96.328l201.314,78.767c37.443,14.65,77.691,20.485,117.694,17.063
					l425.448-36.396c12.437-1.064,22.413-10.84,23.86-23.382c1.448-12.542,10.162-26.625-1.698-30.559L2238.387,2740.092z"/>
				
					<linearGradient id="SVGID_00000084499442444062890070000016644395886815649721_" gradientUnits="userSpaceOnUse" x1="1985.6886" y1="3245.8403" x2="1992.6161" y2="2656.9707">
					<stop  offset="0.494" style="stop-color:#EBEFF2"/>
					<stop  offset="1" style="stop-color:#FFFFFF"/>
				</linearGradient>
				<path style="fill:url(#SVGID_00000084499442444062890070000016644395886815649721_);" d="M2243.148,2723.16
					c-38.608-12.658-67.465-45.045-75.602-84.852l-56.193-274.897l-469.447,16.89l-59.16,286.382
					c-8.285,40.107,13.636,80.327,51.834,95.099l201.111,77.777c37.406,14.466,77.613,20.228,117.576,16.848l425.02-35.939
					c12.424-1.051,22.391-10.704,23.837-23.089c1.446-12.385-6.029-24.075-17.877-27.959L2243.148,2723.16z"/>
			</g>
			<g>
				<g>
					<path style="fill:#97A6B7;" d="M642.064,2560.799c-52.18,3.111-94.869-30.74-94.869-75.476V872.953
						c0-44.735,42.689-79.281,94.869-77.02l2423.593,167.783c38.309,1.66,58.865-29.266,58.865,8.781v1371.309
						c0,38.047-31.02,70.851-69.33,73.135L642.064,2560.799z"/>
					<path style="fill:#FFFFFF;" d="M663.751,2560.799c-52.18,3.111-94.869-30.74-94.869-75.476V872.953
						c0-44.735,42.688-79.281,94.869-77.02l2413.128,104.559c38.31,1.66,69.33,33.959,69.33,72.005v1371.309
						c0,38.047-31.02,70.851-69.33,73.135L663.751,2560.799z"/>
					<path style="opacity:0.3;fill:#D8DEE8;" d="M3076.88,932.763L663.752,833.491c-27.896-1.147-50.577,17.285-50.577,41.172
						v1253.999v354.227c0,23.889,22.681,41.95,50.577,40.349l2413.128-138.572c20.533-1.179,37.137-18.681,37.137-39.094v-313.476
						V971.253C3114.017,950.84,3097.413,933.608,3076.88,932.763z"/>
				</g>
				<g>
					<path style="fill:#D8DEE8;" d="M3058.948,2268.632L689.905,2385.575c-24.866,1.227-45.075-15.21-45.075-36.717V895.786
						c0-21.507,20.209-38.191,45.075-37.268l2369.043,87.936c18.592,0.69,33.631,16.272,33.631,34.805v1252.156
						C3092.579,2251.948,3077.541,2267.715,3058.948,2268.632z"/>
				</g>
				<path style="opacity:0.6;fill:#FFFFFF;" d="M2824.958,2317.138c-525.303,10.983-643.434,85.988-792.699-3.883
					c-205.105-123.492-111.697-343.166-311.532-458.397c-251.234-144.868-540.895,120.449-672.018-8.901
					c-130.58-128.814,116.093-431.985-26.703-769.928c-57.305-135.618-154.88-223.702-222.284-274.205l-135.971-5.891
					c-52.181-2.261-94.869,32.285-94.869,77.02v1612.37c0,44.736,42.688,78.587,94.869,75.477l2413.128-143.859
					c38.309-2.284,69.33-35.087,69.33-73.136v-24.38C3073.884,2316.86,2961.855,2314.276,2824.958,2317.138z"/>
			</g>
		</g>
		<g>
			
				<linearGradient id="SVGID_00000049935546795331541160000007912065429385510831_" gradientUnits="userSpaceOnUse" x1="2396.917" y1="1556.6162" x2="1884.333" y2="4014.2029">
				<stop  offset="0" style="stop-color:#FF9085"/>
				<stop  offset="1" style="stop-color:#FB6FBB"/>
			</linearGradient>
			<path style="fill:url(#SVGID_00000049935546795331541160000007912065429385510831_);" d="M2460.151,1986.037
				c-3.741,32.714-12.128,72.292-28.794,117.932c-33.731,92.334-154.386,108.674-234.193,108.817
				c-42.553,0.074-73.526-4.429-73.526-4.429s0,0-9.985-35.401c3.631-3.631,152.498-34.494,199.409-158.198
				c46.875-123.706,142.114-135.87,142.114-135.87S2467.992,1917.231,2460.151,1986.037z"/>
			
				<linearGradient id="SVGID_00000084487768574825748800000001180525316137061519_" gradientUnits="userSpaceOnUse" x1="2400.9551" y1="1754.4611" x2="2038.601" y2="3491.7693">
				<stop  offset="0" style="stop-color:#FF9085"/>
				<stop  offset="1" style="stop-color:#FB6FBB"/>
			</linearGradient>
			<path style="opacity:0.3;fill:url(#SVGID_00000084487768574825748800000001180525316137061519_);" d="M2460.151,1986.037
				c-3.741,32.714-12.582,72.292-29.248,117.932c-33.731,92.334-154.767,108.674-234.647,108.817v-0.762
				c0,0,106.658-12.743,124.812-59.038c18.155-46.294,18.382-65.356,62.86-86.234
				C2411.704,2053.718,2440.289,2007.096,2460.151,1986.037z"/>
			
				<linearGradient id="SVGID_00000137110765976570993970000003929157378583045785_" gradientUnits="userSpaceOnUse" x1="-1701.1768" y1="3079.0596" x2="-1626.7415" y2="3079.0596" gradientTransform="matrix(0.9996 0.0289 -0.0289 0.9996 4284.4863 -31.2392)">
				<stop  offset="0" style="stop-color:#444B8C"/>
				<stop  offset="0.9964" style="stop-color:#26264F"/>
			</linearGradient>
			<path style="fill:url(#SVGID_00000137110765976570993970000003929157378583045785_);" d="M2563.802,2982.197
				c4.07,3.309,4.819,11.571,5.307,16.972c0.22,2.413,0.329,3.62,0.059,4.471c-1.967,6.216-14.022,6.87-32.926,8.801
				c-29.874,3.052-38.764,5.403-41.102,0.958c-2.191-4.166,3.111-10.988,3.708-11.74c3.21-4.043,7.15-5.514,14.767-8.021
				c14.094-4.639,23.617-7.179,26.5-7.948C2558.121,2980.884,2561.128,2980.025,2563.802,2982.197z"/>
			
				<linearGradient id="SVGID_00000101064437831352715970000012632735733587344025_" gradientUnits="userSpaceOnUse" x1="2543.0459" y1="2973.9358" x2="2569.7317" y2="2973.9358">
				<stop  offset="0" style="stop-color:#FFC444"/>
				<stop  offset="0.9964" style="stop-color:#F36F56"/>
			</linearGradient>
			<path style="fill:url(#SVGID_00000101064437831352715970000012632735733587344025_);" d="M2546.036,2954.906l-2.99,34.043
				c0.849,1.644,10.967,6.575,19.004,2.346l7.681-33.462L2546.036,2954.906z"/>
			
				<linearGradient id="SVGID_00000107574354290127135700000011745486470165403071_" gradientUnits="userSpaceOnUse" x1="-1099.7104" y1="3710.2122" x2="-1020.6277" y2="3710.2122" gradientTransform="matrix(0.9642 0.2651 -0.2651 0.9642 4297.3115 -308.9189)">
				<stop  offset="0" style="stop-color:#444B8C"/>
				<stop  offset="0.9964" style="stop-color:#26264F"/>
			</linearGradient>
			<path style="fill:url(#SVGID_00000107574354290127135700000011745486470165403071_);" d="M2326.882,2977.823
				c4.879,5.387,5.99,15.308,1.748,20.195c-4.17,4.805-10.44,1.201-28.223,1.732c-19.049,0.57-24.022,5.068-36.967,1.497
				c-5.229-1.446-14.466-4.951-14.29-8.686c0.123-2.626,4.825-3.982,20.53-9.244c22.292-7.467,22.194-7.875,26.928-8.66
				C2308.5,2972.688,2320.439,2970.709,2326.882,2977.823z"/>
			
				<linearGradient id="SVGID_00000178907035791040440310000005549624694998891928_" gradientUnits="userSpaceOnUse" x1="2305.1235" y1="2965.1255" x2="2338.0828" y2="2965.1255">
				<stop  offset="0" style="stop-color:#FFC444"/>
				<stop  offset="0.9964" style="stop-color:#F36F56"/>
			</linearGradient>
			<path style="fill:url(#SVGID_00000178907035791040440310000005549624694998891928_);" d="M2314.677,2946.754l-9.554,31.78
				c0.722,1.705,10.435,7.391,18.77,3.789l14.189-30.846L2314.677,2946.754z"/>
			<path style="fill:#26264F;" d="M2399.566,2250.719c-1.369,106.805-8.657,226.896-26.145,357.367
				c-17.283,128.951-41.505,245.464-67.927,347.92c12.19,3.28,24.379,6.559,36.568,9.839c30.926-28.836,69.938-74.23,88.762-138.378
				c11.683-39.814,7.79-60.273,15.2-109.243c11.8-77.972,35.701-118.823,60.405-181.699c22.199-56.5,48.439-139.421,62.508-250.259
				C2512.481,2274.417,2456.023,2262.568,2399.566,2250.719z"/>
			<path style="fill:#26264F;" d="M2509.598,2240.528c7.461,135.839,13.597,274.206,18.247,415.024
				c3.49,105.669,6.053,209.999,7.756,312.955c12.451,1.537,24.903,3.075,37.355,4.612c12.031-22.401,28.012-56.648,38.959-100.543
				c13.296-53.312,10.217-84.971,16.048-140.225c6.542-61.971,16.045-75.472,32.879-153.648
				c34.167-158.655,51.251-237.984,13.137-287.329C2661.607,2275.353,2622.82,2235.167,2509.598,2240.528z"/>
			
				<linearGradient id="SVGID_00000020372534856627956240000014231175653269514914_" gradientUnits="userSpaceOnUse" x1="4044.4507" y1="1731.3383" x2="3795.9053" y2="2922.9905" gradientTransform="matrix(-1 0 0 1 6490.1616 0)">
				<stop  offset="0" style="stop-color:#FF9085"/>
				<stop  offset="1" style="stop-color:#FB6FBB"/>
			</linearGradient>
			<path style="fill:url(#SVGID_00000020372534856627956240000014231175653269514914_);" d="M2691.068,1899.127
				c-29.16-8.2-71.896-17.79-124.235-20.748c-74.648-4.219-111.973-6.329-138.422,11.448
				c-61.088,41.058-13.794,135.819-38.799,370.723c-3.571,33.546-4.372,67.331-6.958,100.967
				c-4.282,55.692-5.257,58.715-1.382,64.359c24.3,35.389,114.961-17.989,247.843,3.11c74.35,11.806,108.071,39.005,128.44,19.387
				c23.755-22.878,3.378-84.412-14.162-137.384c-20.134-60.804-32.571-61.586-44-107.378c-11.946-47.863-4.72-72.507-2.86-147.984
				C2697.424,2019.512,2697.234,1965.766,2691.068,1899.127z"/>
			<g style="opacity:0.3;">
				
					<linearGradient id="SVGID_00000144334485264109165280000011356376523824185005_" gradientUnits="userSpaceOnUse" x1="3830.7034" y1="2750.4827" x2="3925.032" y2="2302.4233" gradientTransform="matrix(-1 0 0 1 6490.1616 0)">
					<stop  offset="0" style="stop-color:#FF9085"/>
					<stop  offset="1" style="stop-color:#FB6FBB"/>
				</linearGradient>
				<path style="fill:url(#SVGID_00000144334485264109165280000011356376523824185005_);" d="M2510.369,2340.128
					c34.731-2.718,57.262,16.917,87.242,1.615c41.11-20.983,54.319-86.271,51.699-132.479c-3.98-70.207-44.07-88.713-37.159-134.094
					c3.737-24.542,21.259-57.126,84.17-90.415c0.839,28.017,0.679,51.898,0.212,70.871c-1.86,75.477-9.085,100.121,2.86,147.984
					c11.428,45.792,23.866,46.575,44,107.378c17.54,52.972,37.917,114.506,14.162,137.384c-20.369,19.617-54.09-7.582-128.44-19.387
					c-114.498-18.181-197.604,18.887-233.965,6.865C2439.088,2363.245,2478.941,2342.588,2510.369,2340.128z"/>
			</g>
			
				<linearGradient id="SVGID_00000183950164826307974420000009805161693866225337_" gradientUnits="userSpaceOnUse" x1="3874.1875" y1="1695.8262" x2="3625.6418" y2="2887.4792" gradientTransform="matrix(-1 0 0 1 6490.1616 0)">
				<stop  offset="0" style="stop-color:#FF9085"/>
				<stop  offset="1" style="stop-color:#FB6FBB"/>
			</linearGradient>
			<path style="fill:url(#SVGID_00000183950164826307974420000009805161693866225337_);" d="M2643.694,1903.947
				c24.804-20.381,74.68,2.69,88.012,8.856c74.349,34.391,141.104,127.064,124.563,225.001
				c-2.48,14.688-13.983,83.39-72.157,116.678c-52.491,30.036-123.369,22.311-180.158-20.23
				c-7.76-6.887-15.522-13.772-23.284-20.659c-7.635-8.253-15.272-16.506-22.906-24.76c12.002-9.983,32.395-24.385,61.036-33.627
				c37.76-12.185,65.25,9.679,82.771-6.943c12.091-11.472,12.118-31.733,9.133-44.013c-6.018-24.749-27.835-31.709-46.044-49.276
				C2621.876,2013.705,2613.994,1928.351,2643.694,1903.947z"/>
			
				<linearGradient id="SVGID_00000161596732757644383680000004225597572861380785_" gradientUnits="userSpaceOnUse" x1="2497.1243" y1="2212.0129" x2="2580.4707" y2="2212.0129">
				<stop  offset="0" style="stop-color:#FFC444"/>
				<stop  offset="0.9964" style="stop-color:#F36F56"/>
			</linearGradient>
			<path style="fill:url(#SVGID_00000161596732757644383680000004225597572861380785_);" d="M2580.241,2207.868
				c2.041-0.456-9.941-24.329-19.347-21.574c-9.404,2.755-55.407,29.416-59.588,40.394c-4.182,10.977-4.182,10.977-4.182,10.977
				s20.067,1.569,32.511-2.613C2542.081,2230.87,2563.648,2211.568,2580.241,2207.868z"/>
			<g>
				
					<linearGradient id="SVGID_00000182518448042189947590000008073818877778571939_" gradientUnits="userSpaceOnUse" x1="2559.8835" y1="1852.6896" x2="2556.9297" y2="2057.9949">
					<stop  offset="0" style="stop-color:#FFC444"/>
					<stop  offset="0.9964" style="stop-color:#F36F56"/>
				</linearGradient>
				<path style="fill:url(#SVGID_00000182518448042189947590000008073818877778571939_);" d="M2561.26,1796.822
					c-0.186,22.13,2.283,39.682,4.619,51.701c2.675,13.772,4.604,17.329,7.064,20.216c3.703,4.346,9.316,7.991,41.028,15.855
					c17.257,4.278,19.477,4.162,19.858,5.874c1.859,8.354-45.198,36.827-93.814,29.964c-29.754-4.199-56.825-21.174-55.163-30.089
					c1.673-8.971,31.393-4.157,40.251-20.387c6.162-11.29-0.745-27.319-8.91-40.593
					C2524.102,1814.546,2553.352,1811.639,2561.26,1796.822z"/>
				<g>
					<path style="fill:#26264F;" d="M2582.087,1782.022c-5.306-11.129-15.479-18.373-30.003-21.618c0-0.003,0-0.005,0-0.008
						c0,0,0.271-0.025,0.176-0.044c-1.161-0.293-2.129-0.557-3.303-0.784c-8.208-1.948-27.453-7.328-31.011-15.513
						c-4.539-10.439-53.506,48.563-11.297,64.449c1.278,0.481,2.553,0.902,3.782,1.275c5.725,3.853,12.378,3.743,20.19,13.267
						c4.945,6.027,8.218,13.295,9.032,15.157c2.113,4.834,3.448,9.295,4.323,12.899c11.261-12.212,18.163-19.512,22.571-24.104
						c3.18-3.312,6.419-4.813,8.315-9.193C2576.537,1813.932,2587.03,1792.389,2582.087,1782.022z"/>
					
						<linearGradient id="SVGID_00000067953589662173193160000005205366601977228173_" gradientUnits="userSpaceOnUse" x1="2502.7761" y1="1826.8307" x2="2574.895" y2="1826.8307">
						<stop  offset="0" style="stop-color:#FFC444"/>
						<stop  offset="0.9964" style="stop-color:#F36F56"/>
					</linearGradient>
					<path style="fill:url(#SVGID_00000067953589662173193160000005205366601977228173_);" d="M2560.043,1840.833
						c0,0-12.496,20.501-37.376,18.882c-22.276-1.45-25.539-51.405-11.311-62.006c4.747-3.536,14.253-5.005,21.983-2.839
						c4.565,1.28,6.112,3.177,13.612,5.121c6.919,1.796,8.873,1.029,10.962,2.785c2.612,2.2,4.525,7.589,0.163,22.193
						c4.25-4.303,9.351-5.954,12.967-4.248c0.576,0.274,2.105,1.313,2.967,2.89
						C2577.125,1829.317,2571.913,1836.604,2560.043,1840.833z"/>
				</g>
			</g>
		</g>
		<g>
			<g>
				<ellipse style="fill:#B7C0CE;" cx="1566.641" cy="2925.878" rx="166.302" ry="67.872"/>
				<path style="fill:#97A6B7;" d="M1400.339,2917.92c0,35.385,74.456,64.069,166.302,64.069
					c91.846,0,166.302-28.685,166.302-64.069c0-35.384-74.456-93.281-166.302-93.281
					C1474.795,2824.639,1400.339,2882.536,1400.339,2917.92z"/>
				<path style="opacity:0.3;fill:#97A6B7;" d="M1400.339,2917.919c0-35.384,74.456-93.28,166.302-93.28
					c42.408,0,81.086,12.355,110.462,29.125c2.057,4.308,3.015,8.591,2.626,12.657c-1.908,19.909-34.378,32.148-53.015,36.185
					c-46.934,10.166-69.855-17.9-108.554-16.83c-23.924,0.661-57.079,12.68-96.404,63.584
					C1408.143,2940.07,1400.339,2929.349,1400.339,2917.919z"/>
				<path style="fill:#97A6B7;" d="M1557.532,2868.98c6.644,1.654,12.843,1.589,18.677,0.107c5.29-1.343,8.921-6.24,8.921-11.697
					v-159.56h-36.979v159.337C1548.151,2862.795,1552.072,2867.621,1557.532,2868.98z"/>
				<g>
					
						<linearGradient id="SVGID_00000140014774744825939930000003112827738827384731_" gradientUnits="userSpaceOnUse" x1="1614.4105" y1="2232.4133" x2="1829.6722" y2="1719.7501">
						<stop  offset="0" style="stop-color:#311944"/>
						<stop  offset="1" style="stop-color:#893976"/>
					</linearGradient>
					<path style="fill:url(#SVGID_00000140014774744825939930000003112827738827384731_);" d="M1762.037,2651.209l-56.494-35.712
						c-2.349-13.341-3.099-483.882-111.205-527.704c-22.229-9.012-53.139-44.374-89.583-63.594
						c-8.313-4.384-16.929-7.866-25.423-10.668c-6.363-2.835-13.302-5.675-20.982-8.505c-9.506-3.502-58.733,1.291-66.023,5.748
						c-21.732,3.955-42.305,39.124-58.213,72.373c-12.877,22.927-23.066,44.28-29.849,53.712
						c-17.094,23.768,22.698,211.814,40.454,342.947c1.89,16.699,3.163,30.239,3.526,39.217c1.713,42.287-3.214,66.033,1.129,88.216
						c-3.282,22.177-6.265,36.252,1.578,55.038c12.27,29.388,40.725,45.679,62.849,54.847
						c26.446,15.359,72.496,37.243,133.317,42.574c102.445,8.978,178.927-34.969,205.228-51.783
						c11.696-3.688,20.482-13.412,22.97-25.422C1777.837,2670.317,1772.546,2657.852,1762.037,2651.209z"/>
					
						<linearGradient id="SVGID_00000064340667478053431890000007547055243023345310_" gradientUnits="userSpaceOnUse" x1="-1509.3345" y1="2972.0815" x2="-1294.1993" y2="2459.7197" gradientTransform="matrix(-1 0 0 1 230.2854 0)">
						<stop  offset="0" style="stop-color:#311944"/>
						<stop  offset="1" style="stop-color:#893976"/>
					</linearGradient>
					<path style="fill:url(#SVGID_00000064340667478053431890000007547055243023345310_);" d="M1412.434,2018.254
						c-38.023,5.009-72.718,107.175-85.326,129.286c-11.231,19.696,37.532,315.231,40.123,379.2
						c2.363,58.316-7.92,81.375,10.926,113.694c0,0,9.576,16.423,24.694,28.758c53.425,43.593,191.261,43.065,249.274-47.944
						c46.283-72.606-17.837-506.601-72.216-542.013c-20.892-13.605-32.224-40.58-102.573-66.491
						C1458.704,2005.88,1445.148,2013.944,1412.434,2018.254z"/>
					
						<linearGradient id="SVGID_00000139976365590779278500000011753569638900648342_" gradientUnits="userSpaceOnUse" x1="-1485.702" y1="2953.7104" x2="-1287.5743" y2="2481.853" gradientTransform="matrix(-1 0 0 1 230.2854 0)">
						<stop  offset="0" style="stop-color:#311944"/>
						<stop  offset="1" style="stop-color:#893976"/>
					</linearGradient>
					<path style="fill:url(#SVGID_00000139976365590779278500000011753569638900648342_);" d="M1766.145,2619.138l-56.492-35.713
						c0,0-151.318-49.749-291.324,20.395c-15.678,7.856-25.433,24.074-25.433,41.61c0,13.455,8.082,25.593,20.496,30.784
						c24.423,16.675,72.105,44.206,137.835,51.411c104.495,11.455,182.244-36.395,205.229-51.782
						c11.696-3.688,20.483-13.412,22.97-25.421C1781.946,2638.247,1776.655,2625.781,1766.145,2619.138z"/>
					<g>
						
							<linearGradient id="SVGID_00000003810372734520248720000006477638827453511860_" gradientUnits="userSpaceOnUse" x1="1346.5438" y1="2276.2991" x2="1448.1161" y2="2034.3965">
							<stop  offset="0" style="stop-color:#311944"/>
							<stop  offset="1" style="stop-color:#893976"/>
						</linearGradient>
						<path style="fill:url(#SVGID_00000003810372734520248720000006477638827453511860_);" d="M1419.725,2063.547
							c-10.411-12.283-52.526,88.693-52.526,88.693c-1.209,12.263,59.91-8.028,67.172-11.658
							C1441.632,2136.95,1430.135,2075.829,1419.725,2063.547z"/>
						
							<linearGradient id="SVGID_00000068647784712372347150000012898966515589908390_" gradientUnits="userSpaceOnUse" x1="-90.3566" y1="2517.811" x2="11.2123" y2="2275.9165" gradientTransform="matrix(-0.939 0.344 0.344 0.939 665.6721 -107.8677)">
							<stop  offset="0" style="stop-color:#311944"/>
							<stop  offset="1" style="stop-color:#893976"/>
						</linearGradient>
						<path style="fill:url(#SVGID_00000068647784712372347150000012898966515589908390_);" d="M1474.742,2050.683
							c5.549-15.115,79.833,65.208,79.833,65.208c5.354,11.099-59.015,13.074-67.082,12.163
							C1479.425,2127.142,1469.193,2065.797,1474.742,2050.683z"/>
					</g>
				</g>
			</g>
			<g>
				<g>
					
						<linearGradient id="SVGID_00000021803095620339896880000004985285226233133478_" gradientUnits="userSpaceOnUse" x1="-1801.8672" y1="3062.52" x2="-1705.4614" y2="3062.52" gradientTransform="matrix(-1 0 0 1 230.2854 0)">
						<stop  offset="0" style="stop-color:#311944"/>
						<stop  offset="1" style="stop-color:#6B3976"/>
					</linearGradient>
					<path style="fill:url(#SVGID_00000021803095620339896880000004985285226233133478_);" d="M2012.392,3062.491l-48.235-28.983
						h-21.769c0,0-7.416,27.604-6.574,28.983c9.699,15.893,54.857,27.984,83.038,28.984c4.679,0.166,11.207,0.19,12.894-3.2
						C2034.602,3082.532,2021.839,3070.485,2012.392,3062.491z"/>
					
						<linearGradient id="SVGID_00000129170231606034901500000014388715406910555285_" gradientUnits="userSpaceOnUse" x1="-1735.4417" y1="3057.0432" x2="-1655.6532" y2="2817.6768" gradientTransform="matrix(-1 0 0 1 230.2854 0)">
						<stop  offset="0" style="stop-color:#FFC444"/>
						<stop  offset="0.9964" style="stop-color:#F36F56"/>
					</linearGradient>
					<path style="fill:url(#SVGID_00000129170231606034901500000014388715406910555285_);" d="M1963.304,3001.881
						c-0.08,16.887,0.641,28.8,4.869,34.04c2.975,3.688-25.628,11.988-25.785-2.413c-0.103-9.479-1.593-25.738-3.108-30.513
						C1947.287,3002.624,1955.295,3002.253,1963.304,3001.881z"/>
				</g>
				<g>
					
						<linearGradient id="SVGID_00000076584565225580155790000013401471170177266088_" gradientUnits="userSpaceOnUse" x1="-1622.4723" y1="3103.2668" x2="-1526.0665" y2="3103.2668" gradientTransform="matrix(-1 0 0 1 230.2854 0)">
						<stop  offset="0" style="stop-color:#311944"/>
						<stop  offset="1" style="stop-color:#6B3976"/>
					</linearGradient>
					<path style="fill:url(#SVGID_00000076584565225580155790000013401471170177266088_);" d="M1832.996,3103.238l-48.235-28.983
						h-21.768c0,0-7.416,27.603-6.574,28.983c9.698,15.893,54.858,27.984,83.037,28.984c4.679,0.166,11.207,0.191,12.894-3.201
						C1855.207,3123.279,1842.444,3111.232,1832.996,3103.238z"/>
					
						<linearGradient id="SVGID_00000013161281652966633660000006308643589462646682_" gradientUnits="userSpaceOnUse" x1="-1556.0463" y1="3097.79" x2="-1476.2576" y2="2858.4231" gradientTransform="matrix(-1 0 0 1 230.2854 0)">
						<stop  offset="0" style="stop-color:#FFC444"/>
						<stop  offset="0.9964" style="stop-color:#F36F56"/>
					</linearGradient>
					<path style="fill:url(#SVGID_00000013161281652966633660000006308643589462646682_);" d="M1783.908,3042.628
						c-0.079,16.887,0.642,28.8,4.869,34.04c2.975,3.689-25.628,11.989-25.784-2.412c-0.104-9.48-1.593-25.738-3.108-30.513
						C1767.892,3043.37,1775.9,3043,1783.908,3042.628z"/>
				</g>
				
					<linearGradient id="SVGID_00000124125827701170231450000012925550145719216054_" gradientUnits="userSpaceOnUse" x1="1562.4241" y1="2700.4551" x2="1898.7513" y2="2736.5488">
					<stop  offset="0.0036" style="stop-color:#26264F"/>
					<stop  offset="1" style="stop-color:#444B8C"/>
				</linearGradient>
				<path style="fill:url(#SVGID_00000124125827701170231450000012925550145719216054_);" d="M1965.266,3015.907
					c13.649-82.367,0.316-170.339-2.793-217.649c-4.945-75.245-7.416-112.87-29.181-144.471
					c-28.506-41.392-86.849-82.778-136.152-117.755c-4.263-3.026-12.827-8.983-23.473-18.47
					c-26.521-23.634-43.377-48.491-53.548-66.003c-111.629-32.744-214.591-19.475-260.025,40.391
					c-5.25,6.92-18.393,21.925-20.936,44.049c-5.736,49.921,43.314,110.018,98.354,122.569
					c69.951,15.954,110.533-55.873,172.509-31.975c6.177,2.384,24.431,20.755,61.43,56.378
					c26.868,25.872,40.303,38.805,44.581,43.946c39.604,47.589,63.204,120.827,66.049,177.531
					c0.504,10.059,0.942,31.13,13.072,53.697c9.286,17.276,34.762,48.686,44.127,55.803
					C1947.942,3014.6,1956.604,3015.256,1965.266,3015.907z"/>
				
					<linearGradient id="SVGID_00000017512436605013468440000009401784319630566032_" gradientUnits="userSpaceOnUse" x1="1518.7981" y1="2791.47" x2="1755.3489" y2="2816.8557">
					<stop  offset="0.0036" style="stop-color:#26264F"/>
					<stop  offset="1" style="stop-color:#444B8C"/>
				</linearGradient>
				<path style="fill:url(#SVGID_00000017512436605013468440000009401784319630566032_);" d="M1756.352,3056.575
					c0,0,23.88,11.277,41.603,0c-0.585-29.86-0.63-76.595,3.189-133.752c8.359-125.089,26.059-162.917,10.349-216.336
					c-11.338-38.55-41.797-91.072-131.681-140.175l-228.257-22.388c0,0-10.76,17.521-8.141,41.769
					c4.796,44.398,55.83,71.62,98.507,93.871c84.275,43.945,102.071,23.728,129.518,53.347
					c37.102,40.036,13.998,87.125,34.268,186.142C1717.953,2978.862,1739.475,3025.635,1756.352,3056.575z"/>
				<g>
					<g>
						
							<linearGradient id="SVGID_00000137102018601102892160000011586593197101762473_" gradientUnits="userSpaceOnUse" x1="1678.5906" y1="2355.3989" x2="1750.0167" y2="2264.9568">
							<stop  offset="0.0036" style="stop-color:#E38DDD"/>
							<stop  offset="1" style="stop-color:#9571F6"/>
						</linearGradient>
						<path style="fill:url(#SVGID_00000137102018601102892160000011586593197101762473_);" d="M1785.966,2474.754
							c31.255-2.707,78.595-150.674,12.964-246.231c-48.332-70.37-149.071-99.418-166.651-78.072
							c-10.2,12.384,10.766,37.877,49.627,111.037C1761.633,2411.582,1764.911,2476.577,1785.966,2474.754z"/>
						
							<linearGradient id="SVGID_00000008832897974502993700000016263829679113125777_" gradientUnits="userSpaceOnUse" x1="1739.1099" y1="2536.1785" x2="1370.5571" y2="2184.5427">
							<stop  offset="0.0036" style="stop-color:#E38DDD"/>
							<stop  offset="1" style="stop-color:#9571F6"/>
						</linearGradient>
						<path style="fill:url(#SVGID_00000008832897974502993700000016263829679113125777_);" d="M1438.76,2157.349
							c28.191-9.043,71.144-19.647,123.834-20.27c59.042-0.698,106.244-1.257,138.726,23.627
							c78.459,60.106-9.392,208.442,35.695,316.078c4.927,11.764,19.254,49.064,6.794,90.09c-2.298,7.566-7.032,14.21-15.132,25.465
							c-47.669,66.224-182.616,76.184-244.955,21.747c-33.081-28.887-62.903-22.476-63.702-56.669
							C1416.868,2422.428,1440.052,2287.264,1438.76,2157.349z"/>
						
							<linearGradient id="SVGID_00000149371609982670525850000006095916443223591353_" gradientUnits="userSpaceOnUse" x1="1486.3759" y1="2527.8662" x2="1646.0613" y2="2325.6672">
							<stop  offset="0" style="stop-color:#AA80F9"/>
							<stop  offset="0.9964" style="stop-color:#6165D7"/>
						</linearGradient>
						<path style="fill:url(#SVGID_00000149371609982670525850000006095916443223591353_);" d="M1498.209,2328.412
							c-11.351-27.935,0.411-60.378-24.911-74.017c-9.292-5.005-32.064-19.078-33.457-6.542
							c-9.217,82.983-17.478,168.61-14.811,272.032c0.881,34.152,26.753,65.279,63.321,94.053
							c42.23,33.228,114.651,42.051,176.412,28.698c-80.953-42.719-139.056-88.064-130.717-128.739
							c9.704-47.334,104.246-63.626,100.457-96.862C1630.485,2381.798,1522.984,2389.388,1498.209,2328.412z"/>
						<g>
							
								<linearGradient id="SVGID_00000101097764034117394250000009933763664493489583_" gradientUnits="userSpaceOnUse" x1="2000.7976" y1="1755.0017" x2="2008.4631" y2="1550.8169" gradientTransform="matrix(0.917 0.3988 -0.3988 0.917 399.6047 -184.8945)">
								<stop  offset="0" style="stop-color:#FFC444"/>
								<stop  offset="0.9964" style="stop-color:#F36F56"/>
							</linearGradient>
							<path style="fill:url(#SVGID_00000101097764034117394250000009933763664493489583_);" d="M1568.12,2063.547
								c0.183,19.934-2.264,35.77-4.579,46.623c-2.653,12.438-4.565,15.665-7.006,18.295c-3.674,3.96-9.246,7.312-40.773,14.785
								c-17.192,4.074-19.405,3.996-19.786,5.549c-1.854,7.572,44.985,32.654,93.18,25.814
								c29.399-4.174,56.083-19.771,54.448-27.755c-1.647-8.035-30.955-3.354-39.705-17.845c-6.09-10.087,0.737-24.579,8.802-36.6
								C1604.889,2079.164,1575.954,2076.821,1568.12,2063.547z"/>
							<g>
								
									<linearGradient id="SVGID_00000093892576584670441600000013005250911352940699_" gradientUnits="userSpaceOnUse" x1="466.3217" y1="1911.0872" x2="413.9459" y2="1778.0623" gradientTransform="matrix(-0.9687 -0.2485 -0.2485 0.9687 2456.1904 427.3052)">
									<stop  offset="0" style="stop-color:#311944"/>
									<stop  offset="1" style="stop-color:#6B3976"/>
								</linearGradient>
								<path style="fill:url(#SVGID_00000093892576584670441600000013005250911352940699_);" d="M1629.838,2088.286
									c9.014-6.606,13.469-20.701,8.312-31.432c-4.44-9.238-14.58-12.735-20.655-14.833c-17.622-6.081-42.565-4.419-54.936,9.036
									c-7.336,7.981-2.458,29.152-1.818,32.903c0.725,4.243,3.647,6.304,5.871,9.89c3.08,4.973,7.873,12.853,15.618,25.964
									c1.737-2.96,4.123-6.569,7.353-10.337c1.243-1.449,6.182-7.089,12.414-11.28
									C1614.474,2089.803,1621.287,2094.553,1629.838,2088.286z"/>
								
									<linearGradient id="SVGID_00000033353416051149790100000007956205226725697709_" gradientUnits="userSpaceOnUse" x1="975.8323" y1="1827.5885" x2="973.489" y2="2016.3788" gradientTransform="matrix(0.982 0.1887 -0.1887 0.982 983.7829 102.0635)">
									<stop  offset="0" style="stop-color:#FFC444"/>
									<stop  offset="0.9964" style="stop-color:#F36F56"/>
								</linearGradient>
								<path style="fill:url(#SVGID_00000033353416051149790100000007956205226725697709_);" d="M1569.395,2107.359
									c0,0,6.861,20.627,31.086,24.58c21.647,3.531,37.172-39.334,26.234-51.664c-3.652-4.115-12.366-7.465-20.291-7.259
									c-4.684,0.122-6.636,1.44-14.297,1.504c-7.073,0.06-8.752-1.035-11.191,0.044c-3.051,1.351-6.23,5.644-5.695,19.355
									c-3.001-4.684-7.48-7.238-11.374-6.533c-0.622,0.113-2.349,0.689-3.569,1.881
									C1555.883,2093.58,1559.064,2101.086,1569.395,2107.359z"/>
								
									<linearGradient id="SVGID_00000043437813903644366400000005467029583182342533_" gradientUnits="userSpaceOnUse" x1="450.323" y1="1914.7722" x2="399.8286" y2="1786.5258" gradientTransform="matrix(-0.9687 -0.2485 -0.2485 0.9687 2456.1904 427.3052)">
									<stop  offset="0" style="stop-color:#311944"/>
									<stop  offset="1" style="stop-color:#6B3976"/>
								</linearGradient>
								<path style="fill:url(#SVGID_00000043437813903644366400000005467029583182342533_);" d="M1580.717,2071.734
									c0.83,0.934-3.317,3.719-4.968,8.623c-3.206,9.519,4.177,23.491,14.787,26.935c6.269,2.034,9.046-1.104,19.963,0.277
									c6.754,0.854,12.005,2.856,15.249,4.321c0.33,11.289-5.799,21.088-14.9,24.227c-9.806,3.382-19.518-2.196-23.582-4.531
									c-2.719-1.561-11.441-6.549-14.147-15.651c-2.82-9.487,3.707-13.344-0.646-20.313c-2.196-3.517-5.793-5.64-8.071-12.003
									c-0.619-1.729-0.939-3.207-1.111-4.191C1570.325,2075.356,1579.515,2070.381,1580.717,2071.734z"/>
								
									<linearGradient id="SVGID_00000122687364260155434520000013189658786889245592_" gradientUnits="userSpaceOnUse" x1="398.9102" y1="1835.6462" x2="401.7319" y2="1860.8011" gradientTransform="matrix(-0.9687 -0.2485 -0.2485 0.9687 2456.1904 427.3052)">
									<stop  offset="0" style="stop-color:#FFC444"/>
									<stop  offset="1" style="stop-color:#F36F56"/>
								</linearGradient>
								<path style="fill:url(#SVGID_00000122687364260155434520000013189658786889245592_);" d="M1616.914,2114.049
									c0,0-5.222,1.154-13.052-1.051c-0.381-0.108-0.837-0.101-0.938,0.071c-0.379,0.647,3.84,4.887,8.88,4.743
									c3.578-0.104,6.993-2.4,6.754-3.234C1618.454,2114.226,1617.689,2114.095,1616.914,2114.049z"/>
							</g>
						</g>
					</g>
				</g>
			</g>
			<g>
				<path style="fill:#B7C0CE;" d="M2191.653,3068.579c-0.106,0-0.214-0.005-0.323-0.012c-2.174-0.168-3.849-1.979-3.849-4.157
					v-618.287c0-2.303,1.865-4.168,4.168-4.168s4.168,1.865,4.168,4.168v564.139l85.413-551.39c0.353-2.276,2.48-3.829,4.758-3.482
					c2.275,0.353,3.835,2.484,3.482,4.758l-93.701,604.9C2195.453,3067.091,2193.69,3068.579,2191.653,3068.579z"/>
				<g>
					<polygon style="opacity:0.81;fill:#F4F7FA;" points="1146.802,2523.973 2174.752,2444.815 2991.635,2507.905 
						1957.324,2594.953 					"/>
					<polygon style="fill:#B7C0CE;" points="1957.324,2594.955 1146.802,2523.971 1146.802,2558.257 1957.324,2629.238 
						2991.635,2542.189 2991.635,2507.905 					"/>
				</g>
				<path style="fill:#B7C0CE;" d="M1950.329,3279.552c-2.069,0-3.845-1.532-4.127-3.61l-89.108-657.857
					c-0.31-2.281,1.289-4.383,3.571-4.691c2.285-0.321,4.381,1.289,4.691,3.571l80.809,596.58v-596.02
					c0-2.303,1.865-4.168,4.168-4.168s4.168,1.865,4.168,4.168v657.857c0,2.193-1.698,4.012-3.888,4.159
					C1950.519,3279.549,1950.423,3279.552,1950.329,3279.552z"/>
				<path style="fill:#B7C0CE;" d="M2980.333,3158.628c-2.067,0-3.844-1.528-4.127-3.606l-82.587-604.366
					c-0.312-2.28,1.285-4.383,3.567-4.695c2.291-0.323,4.383,1.285,4.695,3.567l74.288,543.631v-566.994
					c0-2.303,1.865-4.168,4.168-4.168s4.168,1.865,4.168,4.168v628.294c0,2.193-1.698,4.01-3.884,4.159
					C2980.522,3158.624,2980.427,3158.628,2980.333,3158.628z"/>
				<path style="fill:#B7C0CE;" d="M1156.539,3158.628c-0.103,0-0.204-0.005-0.308-0.012c-2.177-0.16-3.863-1.973-3.863-4.157
					v-596.2c0-2.303,1.865-4.168,4.168-4.168s4.168,1.865,4.168,4.168v539.207l79.398-539.813c0.335-2.278,2.463-3.858,4.73-3.517
					c2.278,0.335,3.853,2.452,3.517,4.73l-87.69,596.2C1160.358,3157.123,1158.588,3158.628,1156.539,3158.628z"/>
			</g>
			<g>
				
					<linearGradient id="SVGID_00000089532464472354407940000005806232413848164010_" gradientUnits="userSpaceOnUse" x1="1688.0669" y1="2589.6765" x2="1319.5157" y2="2238.0422">
					<stop  offset="0.0036" style="stop-color:#E38DDD"/>
					<stop  offset="1" style="stop-color:#9571F6"/>
				</linearGradient>
				<path style="fill:url(#SVGID_00000089532464472354407940000005806232413848164010_);" d="M1522.848,2512.303
					c6.359-7.104,12.717-14.212,19.075-21.316c-49.533-64.997-88.851-93.163-116.689-106.591
					c-19.068-9.199-18.288-15.14-19.073-17.389c-4.72-13.521,47.199-72.879,60.76-90.884c24.96-33.137,48.586-89.679,30.209-112.378
					c-19.131-23.63-80.079-6.012-112.379,9.667c-28.573,13.871-47.446,32.332-57.251,43.365
					c-30.39,34.199-88.874,126.252-51.503,209.184C1310.714,2503.002,1417.147,2547.756,1522.848,2512.303z"/>
			</g>
			
				<linearGradient id="SVGID_00000036240391689857097510000001227293278038131384_" gradientUnits="userSpaceOnUse" x1="1834.6547" y1="2575.6843" x2="1841.9049" y2="2542.6558">
				<stop  offset="0.0036" style="stop-color:#26264F"/>
				<stop  offset="1" style="stop-color:#444B8C"/>
			</linearGradient>
			<polygon style="fill:url(#SVGID_00000036240391689857097510000001227293278038131384_);" points="1662.603,2511.722 
				1662.603,2502.926 2041.215,2482.526 2041.215,2491.234 1773.668,2517.563 			"/>
			
				<linearGradient id="SVGID_00000131339242640705968230000016278567512453143941_" gradientUnits="userSpaceOnUse" x1="1662.6031" y1="2491.2346" x2="2041.2155" y2="2491.2346">
				<stop  offset="0.0036" style="stop-color:#26264F"/>
				<stop  offset="1" style="stop-color:#444B8C"/>
			</linearGradient>
			<polygon style="fill:url(#SVGID_00000131339242640705968230000016278567512453143941_);" points="1662.603,2502.926 
				1780.046,2504.42 2041.215,2482.526 1968.189,2478.049 			"/>
			<g>
				
					<linearGradient id="SVGID_00000087404938421666758460000008935668726463352457_" gradientUnits="userSpaceOnUse" x1="2035.3938" y1="2349.4756" x2="1997.3302" y2="2258.8479">
					<stop  offset="0.0036" style="stop-color:#26264F"/>
					<stop  offset="1" style="stop-color:#444B8C"/>
				</linearGradient>
				<path style="fill:url(#SVGID_00000087404938421666758460000008935668726463352457_);" d="M1712.807,2472.591l106.48-333.161
					c1.679-5.256,7.67-9.059,14.453-9.184l466.229-8.558c3.973-0.073,10.869,2.83,13.287,5.338c2.416,2.506,5.711,2.966,4.806,6.209
					l-86.928,293.177c-1.449,4.885-6.64,8.662-12.675,9.215l-497.109,45.559L1712.807,2472.591z"/>
				
					<linearGradient id="SVGID_00000060737977935408574210000014698401953722359224_" gradientUnits="userSpaceOnUse" x1="1721.3514" y1="2304.4678" x2="2321.8044" y2="2304.4678">
					<stop  offset="0.0036" style="stop-color:#26264F"/>
					<stop  offset="1" style="stop-color:#444B8C"/>
				</linearGradient>
				<path style="fill:url(#SVGID_00000060737977935408574210000014698401953722359224_);" d="M1721.351,2481.186l107.981-335.42
					c1.686-5.24,7.658-9.032,14.416-9.16l465.245-8.852c3.965-0.075,7.666,1.334,10.08,3.839c2.413,2.503,3.286,5.834,2.382,9.077
					l-81.285,291.183c-1.4,5.012-6.738,8.893-12.911,9.381L1721.351,2481.186z"/>
				
					<linearGradient id="SVGID_00000092434821429172074610000004684103960718193576_" gradientUnits="userSpaceOnUse" x1="1721.3514" y1="2412.5662" x2="2264.709" y2="2412.5662">
					<stop  offset="0.0036" style="stop-color:#26264F"/>
					<stop  offset="1" style="stop-color:#444B8C"/>
				</linearGradient>
				<path style="opacity:0.3;fill:url(#SVGID_00000092434821429172074610000004684103960718193576_);" d="M1721.351,2481.186
					l505.907-39.953c6.174-0.487,11.512-4.368,12.911-9.381l24.539-87.905c-154.184,53.906-337.384,47.991-519.027,61.662
					L1721.351,2481.186z"/>
				
					<linearGradient id="SVGID_00000169534459608691443390000017532569292828229790_" gradientUnits="userSpaceOnUse" x1="1951.9724" y1="2514.5698" x2="1985.8069" y2="2529.6746">
					<stop  offset="0" style="stop-color:#444B8C"/>
					<stop  offset="0.9964" style="stop-color:#26264F"/>
				</linearGradient>
				<path style="fill:url(#SVGID_00000169534459608691443390000017532569292828229790_);" d="M2018.689,2537.301l-19.189,6.624
					c0,0-100.89-18.946-105.283-22.038c-0.699-0.492-3.119-5.184,1.393-5.96c23.811-4.093,110.736-7.108,110.736-7.108l7.96,0.445
					L2018.689,2537.301z"/>
				
					<linearGradient id="SVGID_00000099659346102104555130000011474022300973235616_" gradientUnits="userSpaceOnUse" x1="1895.4896" y1="2520.4731" x2="2020.0665" y2="2520.4731">
					<stop  offset="0.0036" style="stop-color:#26264F"/>
					<stop  offset="1" style="stop-color:#444B8C"/>
				</linearGradient>
				<path style="fill:url(#SVGID_00000099659346102104555130000011474022300973235616_);" d="M2020.067,2531.407l-19.186,6.613
					c0,0-100.878-18.998-105.269-22.094c-4.397-3.099,112.112-13,112.112-13l7.954,0.473L2020.067,2531.407z"/>
				
					<linearGradient id="SVGID_00000061445796418760437210000001320980557019333565_" gradientUnits="userSpaceOnUse" x1="1998.3826" y1="2422.9258" x2="2153.9053" y2="2422.9258">
					<stop  offset="0" style="stop-color:#444B8C"/>
					<stop  offset="0.9964" style="stop-color:#26264F"/>
				</linearGradient>
				<path style="fill:url(#SVGID_00000061445796418760437210000001320980557019333565_);" d="M2103.484,2299.686
					c0,0,48.964,210.632,50.411,222.962c1.335,11.373-119.024,22.529-147.852,23.515c-2.405,0.082-5.575-1.576-6.542-2.238
					c-7.978-0.919,29.353-241.206,29.353-241.206l2.748,0.104L2103.484,2299.686z"/>
				
					<linearGradient id="SVGID_00000160897074140999718500000017341195893825559430_" gradientUnits="userSpaceOnUse" x1="2005.2001" y1="2422.8821" x2="2160.6138" y2="2422.8821">
					<stop  offset="0.0036" style="stop-color:#26264F"/>
					<stop  offset="1" style="stop-color:#444B8C"/>
				</linearGradient>
				<path style="fill:url(#SVGID_00000160897074140999718500000017341195893825559430_);" d="M2103.484,2299.686
					c0,0,55.676,212.764,57.119,225.084c1.441,12.307-141.65,21.713-154.166,21.294c-7.966-0.916,25.165-243.242,25.165-243.242
					L2103.484,2299.686z"/>
			</g>
			
				<linearGradient id="SVGID_00000156573021442887432730000000141737194117663656_" gradientUnits="userSpaceOnUse" x1="1529.3314" y1="2508.0061" x2="1640.8757" y2="2508.0061">
				<stop  offset="0.0036" style="stop-color:#26264F"/>
				<stop  offset="1" style="stop-color:#444B8C"/>
			</linearGradient>
			<path style="fill:url(#SVGID_00000156573021442887432730000000141737194117663656_);" d="M1541.922,2502.926
				c0,0,31.763-14.535,50.103-13.238c18.339,1.299,44.146,17.987,48.633,27.875c4.489,9.889-62.053,8.808-62.053,8.808
				S1499.286,2523.281,1541.922,2502.926z"/>
			
				<linearGradient id="SVGID_00000074421318606135977300000002371092419728618625_" gradientUnits="userSpaceOnUse" x1="1556.7616" y1="2472.4988" x2="1578.2339" y2="2546.5564">
				<stop  offset="0" style="stop-color:#FFC444"/>
				<stop  offset="0.9964" style="stop-color:#F36F56"/>
			</linearGradient>
			<path style="fill:url(#SVGID_00000074421318606135977300000002371092419728618625_);" d="M1525.459,2485.937
				c17.725-22.534,59.988-8.767,62.376-7.955c10.103,3.431,23.64,10.4,22.697,14.844c-0.915,4.303-14.533,2.062-37,5.858
				c-32.88,5.555-47.46,17.747-53.276,11.543C1515.807,2505.481,1519.64,2493.335,1525.459,2485.937z"/>
		</g>
		<g>
			<g>
				
					<linearGradient id="SVGID_00000157310221520343053780000018412509260507872686_" gradientUnits="userSpaceOnUse" x1="-5396.0957" y1="1625.0712" x2="-4912.4482" y2="1625.0712" gradientTransform="matrix(-1 0 0 1 -2267.3481 0)">
					<stop  offset="0.0036" style="stop-color:#E38DDD"/>
					<stop  offset="1" style="stop-color:#9571F6"/>
				</linearGradient>
				<path style="fill:url(#SVGID_00000157310221520343053780000018412509260507872686_);" d="M2680.139,1720.577
					c-22.235-27.845-35.039-60.537-35.039-95.506c0-101.684,108.269-184.116,241.824-184.116
					c133.555,0,241.824,82.431,241.824,184.116c0,101.684-108.269,184.116-241.824,184.116c-50.055,0-96.557-11.579-135.139-31.411
					c-25.502,4.351-65.089,11.661-85.979,15.549c-6.151,1.144-11.191-4.87-8.989-10.726L2680.139,1720.577z"/>
				<g style="opacity:0.3;">
					
						<linearGradient id="SVGID_00000178168642010368706650000005925149200194262695_" gradientUnits="userSpaceOnUse" x1="-5332.2578" y1="1497.8455" x2="-4912.5557" y2="2050.5845" gradientTransform="matrix(-1 0 0 1 -2267.3481 0)">
						<stop  offset="0.0036" style="stop-color:#E38DDD"/>
						<stop  offset="1" style="stop-color:#9571F6"/>
					</linearGradient>
					<path style="fill:url(#SVGID_00000178168642010368706650000005925149200194262695_);" d="M2754.591,1664.034
						c54.225-22.791,113.853,25.318,151.133-8.243c37.579-33.831-3.017-100.718,32.974-148.385
						c17.161-22.727,45.992-33.48,78.975-37.239c66.82,32.761,111.074,89.897,111.074,154.904
						c0,101.684-108.269,184.116-241.824,184.116c-50.055,0-96.557-11.579-135.139-31.411c-20.122,3.433-49.005,8.707-70.562,12.689
						C2697.124,1708.025,2726.373,1675.894,2754.591,1664.034z"/>
				</g>
			</g>
			<g>
				<path style="fill:#FFFFFF;" d="M2726.551,1557.783c0,5.127,4.156,9.284,9.284,9.284h293.982c5.127,0,9.284-4.156,9.284-9.284
					l0,0c0-5.127-4.156-9.284-9.284-9.284h-293.982C2730.708,1548.499,2726.551,1552.655,2726.551,1557.783L2726.551,1557.783z"/>
				<g>
					<path style="fill:#FFFFFF;" d="M2726.551,1613.485c0,5.127,4.156,9.284,9.284,9.284h293.982c5.127,0,9.284-4.156,9.284-9.284
						l0,0c0-5.127-4.156-9.284-9.284-9.284h-293.982C2730.708,1604.201,2726.551,1608.357,2726.551,1613.485L2726.551,1613.485z"/>
					<path style="fill:#FFFFFF;" d="M2865.806,1669.187c0,5.127,4.156,9.284,9.284,9.284h154.728c5.127,0,9.284-4.156,9.284-9.284
						l0,0c0-5.127-4.156-9.284-9.284-9.284h-154.728C2869.962,1659.903,2865.806,1664.059,2865.806,1669.187L2865.806,1669.187z"/>
				</g>
			</g>
		</g>
		<g>
			<g>
				
					<linearGradient id="SVGID_00000182528184759595264060000011653532726648385180_" gradientUnits="userSpaceOnUse" x1="1401.0878" y1="1549.1284" x2="2395.9556" y2="1549.1284">
					<stop  offset="0" style="stop-color:#444B8C"/>
					<stop  offset="0.9964" style="stop-color:#26264F"/>
				</linearGradient>
				<path style="fill:url(#SVGID_00000182528184759595264060000011653532726648385180_);" d="M2395.956,1552.543
					c0,261.597-214.36,477.315-485.258,481.929c-278.323,4.74-509.61-214.029-509.61-488.754s231.287-490.321,509.61-481.762
					C2181.596,1072.287,2395.956,1290.946,2395.956,1552.543z"/>
				
					<linearGradient id="SVGID_00000044145644178478690230000007154385529667430018_" gradientUnits="userSpaceOnUse" x1="1553.3523" y1="1547.9664" x2="2255.8928" y2="1547.9664">
					<stop  offset="0" style="stop-color:#444B8C"/>
					<stop  offset="0.9964" style="stop-color:#26264F"/>
				</linearGradient>
				<path style="fill:url(#SVGID_00000044145644178478690230000007154385529667430018_);" d="M2245.421,1528.67
					c-16.342-106.995-52.098-162.122-77.635-189.868c-13.918-15.12-33.515-22.758-54.088-23.14l-3.775-0.07
					c-30.109-0.558-59.793,5.424-86.114,19.664l-9.251,5.901c-28.956,15.667-61.801,24.541-95.328,24.007l-9.641-0.154l-7.431-0.118
					c-33.695-0.537-66.922-11.137-96.395-27.93l-9.452-4.93c-26.988-15.376-57.595-23.325-88.827-23.904l-3.929-0.073
					c-21.464-0.398-41.995,6.675-56.624,21.661c-26.95,27.612-64.92,83.931-82.366,194.115
					c-16.51,104.257-11.789,169.202-4.802,205.78c4.343,22.736,19.952,41.927,41.749,51.559l0.771,0.265
					c24.439,10.801,53.045,7.886,74.67-7.5l85.817-59.546c32.598-23.196,71.825-34.151,111.944-34.135l34.876,0.014l36.966,0.015
					c39.68,0.016,78.178,10.861,109.947,33.716l82.681,58.73c20.621,14.834,47.765,16.988,70.839,6.269l0.726-0.525
					c20.486-9.515,35.103-28.433,39.162-50.435C2256.434,1692.679,2260.837,1629.583,2245.421,1528.67z M1668.093,1501.495
					c-16.615-0.151-30.106-13.274-30.106-29.313c0-16.037,13.491-28.879,30.106-28.681c16.588,0.198,30.018,13.323,30.018,29.313
					C1698.11,1488.806,1684.681,1501.646,1668.093,1501.495z M1726.379,1614.473c-25.71-0.093-46.602-20.352-46.602-45.25
					c0-24.897,20.891-44.913,46.602-44.707c25.648,0.205,46.393,20.464,46.393,45.248
					C1772.772,1594.548,1752.027,1614.565,1726.379,1614.473z M1864.929,1608.59c-7.692-0.03-13.933-6.13-13.933-13.625
					c0-7.495,6.241-13.538,13.933-13.497c7.688,0.04,13.916,6.141,13.916,13.625
					C1878.845,1602.578,1872.617,1608.621,1864.929,1608.59z M1938.384,1608.879c-7.636-0.03-13.833-6.107-13.833-13.576
					c0-7.468,6.196-13.489,13.833-13.449c7.633,0.04,13.816,6.119,13.816,13.576
					C1952.2,1602.889,1946.017,1608.909,1938.384,1608.879z M2178.101,1521.814c0,7.809-6.499,15.18-14.402,15.12l-40.062-0.294
					v36.723c0,7.83-5.818,15.83-13.763,15.791l-14.553-0.071c-7.963-0.039-15.255-8.114-15.255-15.96v-36.802l-43.13-0.321
					c-8.008-0.061-14.965-7.577-14.965-15.445v-15.04c0-7.432,6.595-11.835,14.16-11.762l43.934,0.418v-39.448
					c0-7.846,7.023-13.151,14.986-13.054l14.882,0.174c7.945,0.097,13.703,5.542,13.703,13.372v39.363l40.062,0.377
					c7.903,0.076,14.402,4.909,14.402,12.717V1521.814z"/>
			</g>
			<g>
				
					<linearGradient id="SVGID_00000145744320230703711080000001755946102643661502_" gradientUnits="userSpaceOnUse" x1="1433.766" y1="1549.1366" x2="2428.6338" y2="1549.1366">
					<stop  offset="0" style="stop-color:#AA80F9"/>
					<stop  offset="0.9964" style="stop-color:#6165D7"/>
				</linearGradient>
				<path style="fill:url(#SVGID_00000145744320230703711080000001755946102643661502_);" d="M2428.634,1552.543
					c0,185.322-107.583,347.624-266.654,428.157c-65.464,33.15-139.644,52.43-218.617,53.773
					c-278.308,4.757-509.598-214.042-509.598-488.755c0-182.417,101.956-338.727,251.949-420.713
					c75.921-41.465,164.116-63.903,257.649-61.035C2214.265,1072.283,2428.634,1290.937,2428.634,1552.543z"/>
				<path style="fill:#FFFFFF;" d="M2278.097,1528.652c-16.339-106.967-52.104-162.12-77.628-189.86
					c-13.907-15.104-33.513-22.766-54.102-23.128l-3.776-0.073c-30.099-0.545-59.764,5.409-86.089,19.679l-9.258,5.882
					c-28.974,15.686-61.798,24.545-95.347,24.001l-9.623-0.145l-7.443-0.109c-8.46-0.145-16.921-0.908-25.271-2.287
					c-24.907-3.994-49.053-13.072-71.129-25.634l-9.441-4.938c-26.978-15.395-57.586-23.346-88.812-23.927l-3.959-0.073
					c-21.458-0.364-41.972,6.68-56.605,21.676c-26.941,27.632-64.92,83.946-82.385,194.108
					c-16.484,104.279-11.763,169.2-4.792,205.799c4.356,22.729,19.97,41.901,41.755,51.559l0.762,0.254
					c24.436,10.785,53.047,7.879,74.687-7.515l85.798-59.547c32.605-23.165,71.82-34.239,111.941-34.239l22.693-0.073h49.163
					c39.687,0,78.173,10.965,109.943,33.84l82.677,58.766c20.622,14.85,47.781,17.02,70.838,6.309l0.727-0.531
					c20.477-9.513,35.111-28.423,39.177-50.427C2289.097,1692.689,2293.528,1629.592,2278.097,1528.652z M1700.783,1501.493
					c-16.63-0.145-30.1-13.29-30.1-29.302c0-16.048,13.47-28.902,30.1-28.684c16.593,0.181,29.99,13.325,29.99,29.301
					C1730.773,1488.821,1717.375,1501.638,1700.783,1501.493z M1759.058,1614.486c-25.707-0.109-46.62-20.369-46.62-45.277
					c0-24.871,20.913-44.914,46.62-44.697c25.634,0.218,46.404,20.479,46.404,45.242
					C1805.462,1594.553,1784.693,1614.559,1759.058,1614.486z M1897.614,1608.605c-7.698-0.036-13.942-6.137-13.942-13.652
					c0-7.48,6.244-13.543,13.942-13.471c7.698,0.035,13.907,6.136,13.907,13.616
					C1911.521,1602.577,1905.312,1608.605,1897.614,1608.605z M1971.067,1608.895c-7.625-0.036-13.834-6.136-13.834-13.58
					c0-7.479,6.209-13.507,13.834-13.47c7.625,0.036,13.798,6.137,13.798,13.58
					C1984.866,1602.904,1978.692,1608.895,1971.067,1608.895z M2210.78,1521.826c0,7.807-6.5,15.178-14.414,15.105l-40.05-0.291
					v36.708c0,7.843-5.81,15.831-13.761,15.795l-14.559-0.073c-7.953-0.036-15.25-8.097-15.25-15.939v-36.818l-43.135-0.326
					c-7.989-0.036-14.96-7.552-14.96-15.431v-15.032c0-7.444,6.608-11.837,14.16-11.764l43.934,0.4v-39.432
					c0-7.842,7.008-13.143,14.995-13.072l14.887,0.182c7.916,0.108,13.689,5.555,13.689,13.362v39.395l40.05,0.363
					c7.914,0.073,14.414,4.902,14.414,12.708V1521.826z"/>
			</g>
			
				<linearGradient id="SVGID_00000006675059438625246070000009709509172236323259_" gradientUnits="userSpaceOnUse" x1="1433.766" y1="1579.7766" x2="2161.9802" y2="1579.7766">
				<stop  offset="0" style="stop-color:#AA80F9"/>
				<stop  offset="0.9964" style="stop-color:#6165D7"/>
			</linearGradient>
			<path style="opacity:0.2;fill:url(#SVGID_00000006675059438625246070000009709509172236323259_);" d="M2161.98,1980.7
				c-65.464,33.15-139.644,52.43-218.617,53.773c-278.308,4.757-509.598-214.042-509.598-488.755
				c0-182.417,101.956-338.727,251.949-420.713c94.148,37.071,209.612,108.383,223.845,237.607
				c1.379,12.272,1.815,25.089,1.234,38.414c-4.103,94.44,1.888,192.003,19.28,279.253
				c29.446,148.213,91.789,266.762,193.273,289.855C2137.544,1973.365,2150.361,1976.887,2161.98,1980.7z"/>
		</g>
		<g>
			
				<linearGradient id="SVGID_00000054233617647073607420000006261422627607956647_" gradientUnits="userSpaceOnUse" x1="659.3625" y1="964.0629" x2="1495.5144" y2="964.0629">
				<stop  offset="0" style="stop-color:#AB316D"/>
				<stop  offset="1" style="stop-color:#792D3D"/>
			</linearGradient>
			<path style="fill:url(#SVGID_00000054233617647073607420000006261422627607956647_);" d="M1355.667,1180.932
				c31.432,15.958,70.922,1.305,88.201-32.729c17.28-34.034,5.807-74.562-25.625-90.52c-1.627-0.828-3.29-1.522-4.956-2.187
				c5.839-18.832,10.242-37.812,13.195-56.799c1.801-0.005,3.609-0.035,5.447-0.199c35.86-3.197,64.322-36.149,63.572-73.604
				c-0.751-37.454-30.431-65.227-66.292-62.03c-1.875,0.168-3.715,0.464-5.547,0.789c-3.745-18.561-8.878-36.693-15.353-54.241
				c1.65-0.965,3.291-1.963,4.895-3.086c30.68-21.494,40.49-63.919,21.909-94.756c-18.581-30.838-58.516-38.411-89.196-16.917
				c-1.572,1.102-3.051,2.291-4.513,3.499c-12.117-13.396-25.408-25.811-39.789-37.141c1.011-1.658,2.001-3.337,2.896-5.1
				c17.28-34.034,39.861-71.211,8.183-86.676c-73.281-35.774-104.727-5.15-122.008,28.884c-0.895,1.763-1.667,3.554-2.409,5.347
				c-17.633-4.923-35.498-8.327-53.464-10.206c0.113-1.892,0.199-3.788,0.162-5.708c-0.751-37.453,10.362-57.721-25.635-58.421
				c-78.495-1.526-104.98,32.544-104.229,69.997c0.039,1.958,0.203,3.872,0.397,5.773c-17.988,5.127-35.654,11.683-52.85,19.612
				c-0.817-1.671-1.665-3.331-2.636-4.944c-18.581-30.837-58.515-38.41-89.197-16.914c-30.681,21.496-40.49,63.919-21.909,94.756
				c0.951,1.581,1.995,3.057,3.053,4.515c-13.587,13.588-26.311,28.343-38.069,44.171c-1.52-0.954-3.063-1.886-4.691-2.713
				c-31.432-15.958-70.921-1.305-88.2,32.729c-17.28,34.034-5.808,74.562,25.624,90.52c1.629,0.827,3.291,1.522,4.958,2.187
				c-5.839,18.832-10.243,37.812-13.195,56.799c-1.802,0.006-3.61,0.035-5.445,0.198c-35.863,3.198-64.324,36.15-63.573,73.606
				c0.751,37.454,30.432,65.224,66.292,62.028c1.873-0.167,3.715-0.462,5.545-0.788c3.746,18.562,8.878,36.693,15.353,54.241
				c-1.649,0.965-3.291,1.963-4.894,3.086c-30.681,21.494-40.49,63.919-21.909,94.757c18.581,30.838,80.095,45.165,110.776,23.67
				c1.572-1.102-18.529-9.045-17.067-10.252c12.119,13.396,25.409,25.811,39.788,37.141c-1.01,1.657-2.001,3.336-2.895,5.1
				c-17.281,34.034-5.808,74.562,25.624,90.52c31.432,15.959,70.921,1.306,88.201-32.728c0.895-1.763,1.667-3.554,2.408-5.348
				c17.633,4.923,35.498,8.328,53.464,10.206c-0.112,1.892-0.199,3.788-0.161,5.708c0.751,37.453,30.431,65.224,66.292,62.028
				c35.861-3.197,64.323-36.151,63.571-73.604c-0.039-1.957-0.203-3.871-0.397-5.772c17.989-5.127,35.656-11.683,52.851-19.612
				c0.817,1.67,1.666,3.331,2.636,4.942c18.581,30.837,58.515,38.412,89.196,16.916c30.681-21.496,40.49-63.919,21.91-94.758
				c-0.952-1.578-1.995-3.056-3.053-4.513c13.586-13.588,26.31-28.343,38.068-44.171
				C1352.497,1179.174,1354.038,1180.106,1355.667,1180.932z M963.838,1185.904c-114.122-57.943-155.776-205.088-93.036-328.659
				c62.739-123.572,206.114-176.774,320.236-118.831c114.123,57.942,155.777,205.087,93.037,328.658
				C1221.335,1190.644,1077.96,1243.847,963.838,1185.904z"/>
			
				<linearGradient id="SVGID_00000173845606059358443920000000563281994843460250_" gradientUnits="userSpaceOnUse" x1="993.9232" y1="1001.2266" x2="1495.5144" y2="1001.2266">
				<stop  offset="0" style="stop-color:#AB316D"/>
				<stop  offset="1" style="stop-color:#792D3D"/>
			</linearGradient>
			<path style="fill:url(#SVGID_00000173845606059358443920000000563281994843460250_);" d="M1431.928,998.498
				c35.86-3.198,64.322-36.151,63.572-73.605c-0.751-37.454-30.431-65.226-66.292-62.029c-1.874,0.167-3.715,0.464-5.547,0.789
				c-3.744-18.562-8.878-36.692-15.353-54.241c1.65-0.964,3.291-1.963,4.895-3.087c30.68-21.494,68.638-73.431,46.992-102.2
				c-41.083-54.601-83.599-30.966-114.28-9.472c-1.572,1.102-3.051,2.291-4.512,3.497c-12.118-13.396-25.409-25.809-39.79-37.14
				c1.011-1.657,2.001-3.336,2.896-5.099c9.405-18.523,10.235-38.945,4.023-56.307c-29.634,52.157-58.869,104.534-87.579,157.195
				c91.043,66.714,120.028,198.187,63.12,310.273c-48.224,94.982-144.085,148.316-237.686,141.633
				c-4.175,10.828-8.274,21.716-12.746,32.439c-12.133,29.102-25.917,57.605-39.719,86.07c8.68,1.636,17.398,2.925,26.141,3.84
				c-0.112,1.893-0.199,3.79-0.161,5.708c0.751,37.454,23.491,69.276,88.483,65.829c35.953-1.907,42.132-39.95,41.38-77.405
				c-0.039-1.957-0.202-3.87-0.396-5.772c17.989-5.127,35.655-11.684,52.85-19.613c0.817,1.671,1.666,3.331,2.637,4.942
				c18.581,30.839,83.039,43.942,113.72,22.445c30.682-21.496,15.966-69.448-2.615-100.286c-0.952-1.58-1.995-3.057-3.053-4.515
				c13.586-13.588,26.311-28.343,38.068-44.17c1.521,0.954,3.063,1.886,4.691,2.711c31.432,15.96,70.922,1.306,88.202-32.729
				c17.279-34.033,5.807-74.562-25.625-90.519c-1.628-0.828-3.291-1.522-4.957-2.186c5.839-18.832,10.242-37.814,13.195-56.798
				C1428.283,998.692,1430.091,998.661,1431.928,998.498z"/>
			
				<linearGradient id="SVGID_00000072280267521888826670000014177993440462411677_" gradientUnits="userSpaceOnUse" x1="1351.8906" y1="538.8116" x2="302.9301" y2="2400.9182">
				<stop  offset="0" style="stop-color:#FF9085"/>
				<stop  offset="1" style="stop-color:#FB6FBB"/>
			</linearGradient>
			<path style="fill:url(#SVGID_00000072280267521888826670000014177993440462411677_);" d="M1389.474,1184.776
				c31.432,15.959,70.921,1.306,88.202-32.729c17.279-34.034,5.807-74.561-25.626-90.52c-1.628-0.827-3.29-1.522-4.957-2.187
				c5.84-18.832,10.243-37.812,13.195-56.799c1.802-0.005,3.61-0.035,5.447-0.199c35.861-3.197,64.322-36.149,63.571-73.604
				c-0.75-37.455-30.43-65.226-66.291-62.029c-1.874,0.168-3.715,0.463-5.547,0.789c-3.745-18.561-8.878-36.693-15.353-54.241
				c1.65-0.965,3.291-1.962,4.895-3.086c30.68-21.494,40.489-63.919,21.909-94.757c-18.581-30.838-58.515-38.411-89.196-16.916
				c-1.572,1.102-3.051,2.292-4.513,3.498c-12.118-13.396-25.408-25.81-39.789-37.14c1.011-1.657,2.001-3.337,2.896-5.1
				c17.28-34.034,5.807-74.562-25.624-90.52c-31.432-15.959-70.921-1.305-88.201,32.729c-0.895,1.763-1.667,3.554-2.409,5.348
				c-17.633-4.923-35.497-8.328-53.463-10.206c0.112-1.893,0.198-3.788,0.161-5.708c-0.752-37.453-30.431-65.224-66.293-62.028
				c-35.86,3.196-64.322,36.151-63.572,73.603c0.04,1.958,0.203,3.871,0.397,5.772c-17.988,5.128-35.654,11.684-52.85,19.613
				c-0.817-1.671-1.665-3.331-2.636-4.944c-18.58-30.837-58.516-38.411-89.197-16.915c-30.681,21.497-40.489,63.92-21.909,94.757
				c0.952,1.579,1.995,3.057,3.054,4.515c-13.587,13.588-26.312,28.342-38.069,44.171c-1.521-0.954-3.063-1.886-4.691-2.712
				c-31.432-15.959-70.92-1.306-88.2,32.728c-17.28,34.034-5.808,74.562,25.624,90.52c1.629,0.827,3.291,1.521,4.958,2.187
				c-5.839,18.833-10.243,37.812-13.195,56.799c-1.801,0.005-3.61,0.035-5.447,0.197c-35.86,3.199-64.323,36.151-63.572,73.606
				c0.75,37.455,30.431,65.224,66.292,62.028c1.873-0.166,3.715-0.462,5.545-0.788c3.746,18.561,8.878,36.693,15.353,54.241
				c-1.649,0.964-3.291,1.962-4.894,3.086c-30.681,21.494-40.489,63.919-21.909,94.756c18.581,30.838,58.516,38.411,89.195,16.917
				c1.573-1.103,3.052-2.291,4.513-3.499c12.12,13.396,25.409,25.811,39.789,37.141c-1.01,1.658-2.001,3.337-2.896,5.1
				c-17.28,34.034-5.807,74.561,25.625,90.52c31.432,15.958,70.921,1.306,88.201-32.729c0.895-1.763,1.666-3.553,2.408-5.347
				c17.633,4.923,35.499,8.327,53.464,10.206c-0.112,1.892-0.2,3.788-0.162,5.708c0.752,37.453,30.432,65.225,66.292,62.028
				c35.861-3.197,64.323-36.151,63.572-73.604c-0.039-1.957-0.203-3.871-0.397-5.772c17.989-5.127,35.655-11.683,52.85-19.612
				c0.817,1.67,1.667,3.331,2.637,4.941c18.581,30.838,58.515,38.413,89.196,16.917c30.681-21.496,40.49-63.919,21.91-94.758
				c-0.953-1.578-1.995-3.056-3.055-4.513c13.587-13.588,26.311-28.343,38.069-44.171
				C1386.303,1183.017,1387.845,1183.949,1389.474,1184.776z M997.645,1189.748c-114.122-57.943-155.777-205.087-93.036-328.659
				c62.741-123.571,206.114-176.773,320.236-118.831c114.123,57.943,155.776,205.088,93.037,328.659
				C1255.142,1194.489,1111.768,1247.69,997.645,1189.748z"/>
		</g>
	</g>
</g>
</svg>
