<svg width="92" height="37" viewBox="0 0 92 37" fill="none" xmlns="http://www.w3.org/2000/svg">
<path d="M19.7582 8.4041C19.7582 4.15755 16.5829 1.32652 11.686 1.32652H0.897461V27.6857H12.4511C18.8783 27.6857 21.1355 23.707 21.1355 19.8813C21.1355 17.3563 19.6435 14.1044 16.0473 13.6071C18.9548 12.8037 19.7582 9.89613 19.7582 8.4041ZM7.32467 11.5029V6.91207H10.8443C12.3746 6.91207 12.9867 7.94501 12.9867 9.32227C12.9867 10.6613 12.1068 11.5029 10.7678 11.5029H7.32467ZM11.3799 16.7442C13.5223 16.7442 14.364 18.1597 14.364 19.3839C14.364 20.7229 13.4076 22.1002 11.4182 22.1002H7.32467V16.7442H11.3799Z" fill="white"/>
<path d="M24.8677 27.6857H30.9506V0.484863H24.8677V27.6857Z" fill="white"/>
<path d="M35.5528 27.6857H41.6357V9.85787H35.5528V27.6857ZM34.9024 3.92801C34.9024 5.87912 36.5857 7.40941 38.5751 7.40941C40.6027 7.40941 42.2095 5.87912 42.2095 3.92801C42.2095 1.97689 40.6027 0.484863 38.5751 0.484863C36.5857 0.484863 34.9024 1.97689 34.9024 3.92801Z" fill="white"/>
<path d="M58.8245 36.4849H64.9074V9.85787H59.1688V12.4211C58.1741 10.317 55.8022 9.39878 53.8893 9.39878C49.4898 9.39878 45.2049 12.8802 45.2049 18.6953C45.2049 24.4721 49.4898 28.03 53.8893 28.03C56.0317 28.03 57.6385 27.3031 58.8245 26.0407V36.4849ZM51.4026 18.657C51.4026 16.6294 53.0859 14.9461 55.1136 14.9461C57.1412 14.9461 58.8245 16.7442 58.8245 18.7718C58.8245 20.7994 57.1412 22.368 55.1136 22.368C53.0859 22.368 51.4026 20.6846 51.4026 18.657Z" fill="white"/>
<path d="M69.5135 27.6857H75.5964V9.85787H69.5135V27.6857ZM68.8631 3.92801C68.8631 5.87912 70.5464 7.40941 72.5358 7.40941C74.5634 7.40941 76.1702 5.87912 76.1702 3.92801C76.1702 1.97689 74.5634 0.484863 72.5358 0.484863C70.5464 0.484863 68.8631 1.97689 68.8631 3.92801Z" fill="white"/>
<path d="M87.9266 3.46892H81.9202V9.85787H78.6683V14.334H81.9202V27.6857H87.9266V14.334H91.6758V9.85787H87.9266V3.46892Z" fill="white"/>
</svg>
