<svg width="24" height="24" viewBox="0 0 24 24" fill="none" xmlns="http://www.w3.org/2000/svg">
<g clip-path="url(#clip0_309_28)">
<path fill-rule="evenodd" clip-rule="evenodd" d="M15.707 5.293C15.5195 5.10553 15.2652 5.00021 15 5.00021C14.7348 5.00021 14.4805 5.10553 14.293 5.293L8.293 11.293C8.10553 11.4805 8.00021 11.7348 8.00021 12C8.00021 12.2652 8.10553 12.5195 8.293 12.707L14.293 18.707C14.4816 18.8892 14.7342 18.99 14.9964 18.9877C15.2586 18.9854 15.5094 18.8802 15.6948 18.6948C15.8802 18.5094 15.9854 18.2586 15.9877 17.9964C15.99 17.7342 15.8892 17.4816 15.707 17.293L10.414 12L15.707 6.707C15.8945 6.51947 15.9998 6.26516 15.9998 6C15.9998 5.73484 15.8945 5.48053 15.707 5.293Z" fill="#1A1A1A"/>
</g>
<defs>
<clipPath id="clip0_309_28">
<rect width="24" height="24" fill="white" transform="matrix(-1 0 0 1 24 0)"/>
</clipPath>
</defs>
</svg>
