<svg width="24" height="24" viewBox="0 0 24 24" fill="none" xmlns="http://www.w3.org/2000/svg">
<g clip-path="url(#clip0_306_34)">
<path fill-rule="evenodd" clip-rule="evenodd" d="M8.293 5.293C8.48053 5.10553 8.73484 5.00021 9 5.00021C9.26516 5.00021 9.51947 5.10553 9.707 5.293L15.707 11.293C15.8945 11.4805 15.9998 11.7348 15.9998 12C15.9998 12.2652 15.8945 12.5195 15.707 12.707L9.707 18.707C9.5184 18.8892 9.2658 18.99 9.0036 18.9877C8.7414 18.9854 8.49059 18.8802 8.30518 18.6948C8.11977 18.5094 8.0146 18.2586 8.01233 17.9964C8.01005 17.7342 8.11084 17.4816 8.293 17.293L13.586 12L8.293 6.707C8.10553 6.51947 8.00021 6.26516 8.00021 6C8.00021 5.73484 8.10553 5.48053 8.293 5.293Z" fill="#1A1A1A"/>
</g>
<defs>
<clipPath id="clip0_306_34">
<rect width="24" height="24" fill="white"/>
</clipPath>
</defs>
</svg>
