<svg width="216" height="64" viewBox="0 0 216 64" fill="none" xmlns="http://www.w3.org/2000/svg">
<path fill-rule="evenodd" clip-rule="evenodd" d="M27.3557 16C23.5465 16 20.4365 19.0459 20.3572 22.8542L20.0851 35.9167C20.0384 38.1579 21.8425 40 24.0842 40H26V43C26 44.8778 27.2939 46.4534 29.0389 46.8838C29.2807 46.9434 29.5 46.7491 29.5 46.5C29.5 45.9477 29.9477 45.5 30.5 45.5H31C31.5523 45.5 32 45.9477 32 46.5C32 46.7749 32.2251 46.9965 32.4999 46.9923L33.0155 46.9843C33.5617 46.9758 34 46.5307 34 45.9844V45.9691C34 45.4168 34.4477 45 35 45H35.5C36.0523 45 36.5 45.4477 36.5 46C36.5 46.339 36.8436 46.5669 37.1304 46.3861C38.2537 45.6779 39 44.4261 39 43V40.4615L41.1495 40.2962C43.2976 40.131 44.9289 38.294 44.8392 36.1414L44.2795 22.7086C44.1233 18.9592 41.0382 16 37.2856 16H27.3557ZM26.6459 33.1967C28.5282 33.6963 29.843 32.9331 30.3426 31.0507C30.8421 29.1684 30.3373 26.8799 28.455 26.3803C26.5727 25.8807 24.9995 27.6178 24.4999 29.5001C24.0003 31.3824 24.7636 32.6972 26.6459 33.1967ZM37.5286 33.1713C38.9565 32.8872 39.588 31.9422 39.304 30.5142C39.0199 29.0862 37.9278 27.716 36.4999 28.0001C35.0719 28.2842 34.4996 29.6312 34.7836 31.0592C35.0677 32.4872 36.1006 33.4554 37.5286 33.1713Z" fill="white"/>
<path d="M16.2608 37.2392V22.0764C14.0187 21.68 11.8382 22.2748 9.76182 22.8411C8.81839 23.0984 7.89644 23.3499 6.99996 23.4999C5.17726 23.8048 2.7406 23.7264 1.09581 23.6011C0.621978 23.565 0.226456 24.0831 0.379103 24.5331C0.717233 25.53 1.21485 26.9492 1.99996 27.9999C3.43474 29.9202 5.413 31.5598 7.8043 33C8.43432 33.3794 8.95419 33.6658 9.37821 33.8994C10.5636 34.5524 11 34.7928 11 35.5C11 36.4601 8.99996 37.1204 7.8043 37.4385C6.64895 37.7459 5.60055 37.8565 4.74472 37.8962C4.24267 37.9196 3.95974 38.5017 4.2904 38.8802C5.05485 39.7553 6.20178 40.8835 7.8043 41.7591C8.83454 42.322 10.4137 42.6911 11.8421 42.9146C13.479 43.1707 14.826 44.5424 14.826 46.1993V48.9003C15.6231 48.5803 17.6665 47.7356 19.1304 46.5C21.0478 44.8817 21.5323 43.5117 21.8163 42.7086C21.8376 42.6483 21.8578 42.5913 21.8774 42.5375C21.9282 42.3979 21.8254 42.2392 21.6769 42.2392H21.2608C18.4994 42.2392 16.2608 40.0006 16.2608 37.2392Z" fill="white"/>
<path d="M48.7391 37.2391V22.0763C51.6868 22.0235 53.6148 22.4953 55.4734 22.9501C56.3014 23.1526 57.1156 23.3519 58 23.4998C59.5575 23.7604 61.4578 24.0154 62.9001 24.0399C63.3752 24.048 63.7735 24.583 63.6208 25.033C63.2827 26.0299 62.7851 27.4491 62 28.4998C60.5652 30.4201 59.5869 31.3409 57.1956 32.7811C56.8593 32.9836 56.5543 33.164 56.2786 33.3271C54.5943 34.3234 54 34.6749 54 35.4999C54 36.4601 56 37.1203 57.1956 37.4385C58.351 37.7459 59.3994 37.8564 60.2552 37.8962C60.7572 37.9195 61.0402 38.5017 60.7095 38.8802C59.9451 39.7552 58.7981 40.8834 57.1956 41.7591C56.1654 42.322 54.5862 42.6911 53.1578 42.9146C51.5209 43.1707 50.1739 44.5424 50.1739 46.1993V48.9003C49.3768 48.5802 47.3334 47.7355 45.8695 46.4999C43.9522 44.8816 43.4676 43.5116 43.1836 42.7085C43.1623 42.6483 43.1421 42.5912 43.1225 42.5375C43.0717 42.3979 43.1745 42.2391 43.323 42.2391H43.7391C46.5005 42.2391 48.7391 40.0005 48.7391 37.2391Z" fill="white"/>
<path d="M206.177 40.2799C205.265 40.2799 204.457 40.1119 203.753 39.7759C203.049 39.4399 202.497 38.9839 202.097 38.4079C201.713 37.8319 201.521 37.1839 201.521 36.4639C201.521 35.2959 201.993 34.3839 202.937 33.7279C203.897 33.0559 205.177 32.5839 206.777 32.3119L209.321 31.9039V31.8799C209.321 31.4639 209.281 31.1599 209.201 30.9679C209.137 30.7759 208.937 30.6799 208.601 30.6799C208.377 30.6799 208.193 30.7279 208.049 30.8239C207.921 30.9039 207.777 31.0239 207.617 31.1839C207.441 31.3599 207.217 31.4479 206.945 31.4479H202.865C202.705 31.4479 202.569 31.3999 202.457 31.3039C202.361 31.2079 202.321 31.0799 202.337 30.9199C202.353 30.6159 202.481 30.2639 202.721 29.8639C202.961 29.4479 203.329 29.0479 203.825 28.6639C204.337 28.2799 204.985 27.9599 205.769 27.7039C206.569 27.4479 207.529 27.3199 208.649 27.3199C209.737 27.3199 210.681 27.4399 211.481 27.6799C212.297 27.9039 212.969 28.2399 213.497 28.6879C214.025 29.1199 214.417 29.6639 214.673 30.3199C214.945 30.9599 215.081 31.6879 215.081 32.5039V39.3919C215.081 39.5679 215.017 39.7199 214.889 39.8479C214.761 39.9759 214.609 40.0399 214.433 40.0399H210.233C210.057 40.0399 209.905 39.9759 209.777 39.8479C209.649 39.7199 209.585 39.5679 209.585 39.3919V38.7199C209.361 39.0399 209.073 39.3199 208.721 39.5599C208.385 39.7839 208.001 39.9599 207.569 40.0879C207.137 40.2159 206.673 40.2799 206.177 40.2799ZM207.833 36.7279C208.153 36.7279 208.425 36.6639 208.649 36.5359C208.889 36.4079 209.073 36.2079 209.201 35.9359C209.329 35.6479 209.393 35.2959 209.393 34.8799V34.8559L207.977 35.1679C207.561 35.2639 207.281 35.3919 207.137 35.5519C206.993 35.7119 206.921 35.8799 206.921 36.0559C206.921 36.1679 206.953 36.2799 207.017 36.3919C207.097 36.4879 207.201 36.5679 207.329 36.6319C207.473 36.6959 207.641 36.7279 207.833 36.7279Z" fill="white"/>
<path d="M190.63 40.0401C190.454 40.0401 190.302 39.9761 190.174 39.8481C190.046 39.7201 189.982 39.5681 189.982 39.3921V28.2081C189.982 28.0321 190.046 27.8801 190.174 27.7521C190.302 27.6241 190.454 27.5601 190.63 27.5601H194.83C195.006 27.5601 195.158 27.6241 195.286 27.7521C195.414 27.8801 195.478 28.0321 195.478 28.2081V29.0481C195.99 28.6001 196.558 28.2401 197.182 27.9681C197.822 27.6961 198.502 27.5601 199.222 27.5601H200.374C200.55 27.5601 200.702 27.6241 200.83 27.7521C200.958 27.8801 201.022 28.0321 201.022 28.2081V31.9521C201.022 32.1281 200.958 32.2801 200.83 32.4081C200.702 32.5361 200.55 32.6001 200.374 32.6001H197.278C196.798 32.6001 196.438 32.7201 196.198 32.9601C195.958 33.2001 195.838 33.5601 195.838 34.0401V39.3921C195.838 39.5681 195.774 39.7201 195.646 39.8481C195.518 39.9761 195.366 40.0401 195.19 40.0401H190.63Z" fill="white"/>
<path d="M184.936 40.04C183.784 40.04 182.752 39.888 181.84 39.584C180.944 39.264 180.232 38.728 179.704 37.976C179.192 37.224 178.936 36.192 178.936 34.88V31.76H177.04C176.864 31.76 176.712 31.696 176.584 31.568C176.456 31.44 176.392 31.288 176.392 31.112V28.208C176.392 28.032 176.456 27.88 176.584 27.752C176.712 27.624 176.864 27.56 177.04 27.56H178.936V23.648C178.936 23.472 179 23.32 179.128 23.192C179.256 23.064 179.408 23 179.584 23H183.784C183.96 23 184.112 23.064 184.24 23.192C184.368 23.32 184.432 23.472 184.432 23.648V27.56H187.456C187.632 27.56 187.784 27.624 187.912 27.752C188.04 27.88 188.104 28.032 188.104 28.208V31.112C188.104 31.288 188.04 31.44 187.912 31.568C187.784 31.696 187.632 31.76 187.456 31.76H184.432V34.4C184.432 34.768 184.512 35.064 184.672 35.288C184.848 35.496 185.112 35.6 185.464 35.6H187.648C187.824 35.6 187.976 35.664 188.104 35.792C188.232 35.92 188.296 36.072 188.296 36.248V39.392C188.296 39.568 188.232 39.72 188.104 39.848C187.976 39.976 187.824 40.04 187.648 40.04H184.936Z" fill="white"/>
<path d="M170.098 40.04C169.922 40.04 169.77 39.976 169.642 39.848C169.514 39.72 169.45 39.568 169.45 39.392V23.648C169.45 23.472 169.514 23.32 169.642 23.192C169.77 23.064 169.922 23 170.098 23H174.394C174.57 23 174.722 23.064 174.85 23.192C174.978 23.32 175.042 23.472 175.042 23.648V39.392C175.042 39.568 174.978 39.72 174.85 39.848C174.722 39.976 174.57 40.04 174.394 40.04H170.098Z" fill="white"/>
<path d="M159.44 40.28C157.904 40.28 156.544 40.048 155.36 39.584C154.192 39.12 153.28 38.4 152.624 37.424C151.968 36.448 151.64 35.208 151.64 33.704V23.888C151.64 23.712 151.704 23.56 151.832 23.432C151.96 23.304 152.112 23.24 152.288 23.24H156.992C157.168 23.24 157.32 23.304 157.448 23.432C157.576 23.56 157.64 23.712 157.64 23.888V33.608C157.64 34.2 157.784 34.656 158.072 34.976C158.376 35.296 158.824 35.456 159.416 35.456C160.008 35.456 160.448 35.296 160.736 34.976C161.04 34.656 161.192 34.2 161.192 33.608V23.888C161.192 23.712 161.256 23.56 161.384 23.432C161.512 23.304 161.664 23.24 161.84 23.24H166.544C166.72 23.24 166.872 23.304 167 23.432C167.128 23.56 167.192 23.712 167.192 23.888V33.704C167.192 35.208 166.864 36.448 166.208 37.424C165.552 38.4 164.64 39.12 163.472 39.584C162.304 40.048 160.96 40.28 159.44 40.28Z" fill="white"/>
<path d="M131.309 40.04C131.133 40.04 130.981 39.976 130.853 39.848C130.725 39.72 130.661 39.568 130.661 39.392V23.648C130.661 23.472 130.725 23.32 130.853 23.192C130.981 23.064 131.133 23 131.309 23H135.989C136.165 23 136.317 23.064 136.445 23.192C136.573 23.32 136.637 23.472 136.637 23.648V28.808C137.053 28.344 137.581 27.984 138.221 27.728C138.861 27.456 139.549 27.32 140.285 27.32C141.101 27.32 141.869 27.512 142.589 27.896C143.325 28.28 143.917 28.872 144.365 29.672C144.829 30.472 145.061 31.504 145.061 32.768V39.392C145.061 39.568 144.997 39.72 144.869 39.848C144.741 39.976 144.589 40.04 144.413 40.04H139.709C139.533 40.04 139.381 39.976 139.253 39.848C139.125 39.72 139.061 39.568 139.061 39.392V32.936C139.061 32.504 138.957 32.176 138.749 31.952C138.541 31.728 138.245 31.616 137.861 31.616C137.477 31.616 137.173 31.728 136.949 31.952C136.741 32.176 136.637 32.504 136.637 32.936V39.392C136.637 39.568 136.573 39.72 136.445 39.848C136.317 39.976 136.165 40.04 135.989 40.04H131.309Z" fill="white"/>
<path d="M122.361 40.2799C121.209 40.2799 120.225 40.1679 119.409 39.9439C118.609 39.7039 117.953 39.4079 117.441 39.0559C116.945 38.6879 116.577 38.3119 116.337 37.9279C116.097 37.5279 115.969 37.1679 115.953 36.8479C115.937 36.6719 115.985 36.5199 116.097 36.3919C116.225 36.2639 116.369 36.1999 116.529 36.1999H120.705C120.721 36.1999 120.737 36.1999 120.753 36.1999C120.769 36.1999 120.785 36.1999 120.801 36.1999C121.009 36.2159 121.193 36.2879 121.353 36.4159C121.529 36.5279 121.705 36.6399 121.881 36.7519C122.073 36.8639 122.289 36.9199 122.529 36.9199C122.657 36.9199 122.777 36.8879 122.889 36.8239C123.017 36.7599 123.081 36.6719 123.081 36.5599C123.081 36.4159 123.033 36.2879 122.937 36.1759C122.857 36.0639 122.641 35.9519 122.289 35.8399C121.953 35.7119 121.385 35.5759 120.585 35.4319C119.849 35.2879 119.145 35.0639 118.473 34.7599C117.801 34.4559 117.249 34.0319 116.817 33.4879C116.401 32.9439 116.193 32.2559 116.193 31.4239C116.193 30.7359 116.425 30.0799 116.889 29.4559C117.353 28.8319 118.033 28.3199 118.929 27.9199C119.841 27.5199 120.953 27.3199 122.265 27.3199C123.257 27.3199 124.137 27.4319 124.905 27.6559C125.673 27.8799 126.321 28.1679 126.849 28.5199C127.393 28.8719 127.809 29.2479 128.097 29.6479C128.385 30.0479 128.537 30.4159 128.553 30.7519C128.569 30.9279 128.521 31.0799 128.409 31.2079C128.297 31.3359 128.169 31.3999 128.025 31.3999H124.233C124.201 31.3999 124.161 31.3999 124.113 31.3999C124.065 31.3999 124.025 31.3999 123.993 31.3999C123.769 31.3999 123.569 31.3439 123.393 31.2319C123.217 31.1039 123.041 30.9839 122.865 30.8719C122.689 30.7439 122.481 30.6799 122.241 30.6799C122.129 30.6799 122.017 30.7199 121.905 30.7999C121.809 30.8639 121.761 30.9519 121.761 31.0639C121.761 31.1919 121.809 31.3199 121.905 31.4479C122.001 31.5599 122.233 31.6719 122.601 31.7839C122.969 31.8799 123.569 31.9919 124.401 32.1199C125.553 32.2799 126.473 32.5759 127.161 33.0079C127.849 33.4399 128.337 33.9359 128.625 34.4959C128.929 35.0559 129.081 35.6079 129.081 36.1519C129.081 36.9999 128.817 37.7359 128.289 38.3599C127.777 38.9839 127.017 39.4639 126.009 39.7999C125.017 40.1199 123.801 40.2799 122.361 40.2799Z" fill="white"/>
<path d="M105.559 40.2799C104.647 40.2799 103.839 40.1119 103.135 39.7759C102.431 39.4399 101.879 38.9839 101.479 38.4079C101.095 37.8319 100.903 37.1839 100.903 36.4639C100.903 35.2959 101.375 34.3839 102.319 33.7279C103.279 33.0559 104.559 32.5839 106.159 32.3119L108.703 31.9039V31.8799C108.703 31.4639 108.663 31.1599 108.583 30.9679C108.519 30.7759 108.319 30.6799 107.983 30.6799C107.759 30.6799 107.575 30.7279 107.431 30.8239C107.303 30.9039 107.159 31.0239 106.999 31.1839C106.823 31.3599 106.599 31.4479 106.327 31.4479H102.247C102.087 31.4479 101.951 31.3999 101.839 31.3039C101.743 31.2079 101.703 31.0799 101.719 30.9199C101.735 30.6159 101.863 30.2639 102.103 29.8639C102.343 29.4479 102.711 29.0479 103.207 28.6639C103.719 28.2799 104.367 27.9599 105.151 27.7039C105.951 27.4479 106.911 27.3199 108.031 27.3199C109.119 27.3199 110.063 27.4399 110.863 27.6799C111.679 27.9039 112.351 28.2399 112.879 28.6879C113.407 29.1199 113.799 29.6639 114.055 30.3199C114.327 30.9599 114.463 31.6879 114.463 32.5039V39.3919C114.463 39.5679 114.399 39.7199 114.271 39.8479C114.143 39.9759 113.991 40.0399 113.815 40.0399H109.615C109.439 40.0399 109.287 39.9759 109.159 39.8479C109.031 39.7199 108.967 39.5679 108.967 39.3919V38.7199C108.743 39.0399 108.455 39.3199 108.103 39.5599C107.767 39.7839 107.383 39.9599 106.951 40.0879C106.519 40.2159 106.055 40.2799 105.559 40.2799ZM107.215 36.7279C107.535 36.7279 107.807 36.6639 108.031 36.5359C108.271 36.4079 108.455 36.2079 108.583 35.9359C108.711 35.6479 108.775 35.2959 108.775 34.8799V34.8559L107.359 35.1679C106.943 35.2639 106.663 35.3919 106.519 35.5519C106.375 35.7119 106.303 35.8799 106.303 36.0559C106.303 36.1679 106.335 36.2799 106.399 36.3919C106.479 36.4879 106.583 36.5679 106.711 36.6319C106.855 36.6959 107.023 36.7279 107.215 36.7279Z" fill="white"/>
<path d="M94.4656 40.04C94.2896 40.04 94.1376 39.976 94.0096 39.848C93.8816 39.72 93.8176 39.568 93.8176 39.392V23.648C93.8176 23.472 93.8816 23.32 94.0096 23.192C94.1376 23.064 94.2896 23 94.4656 23H98.7616C98.9376 23 99.0896 23.064 99.2176 23.192C99.3456 23.32 99.4096 23.472 99.4096 23.648V39.392C99.4096 39.568 99.3456 39.72 99.2176 39.848C99.0896 39.976 98.9376 40.04 98.7616 40.04H94.4656Z" fill="white"/>
<path d="M84.064 40.28C82.528 40.28 81.168 40.056 79.984 39.608C78.8 39.16 77.856 38.456 77.152 37.496C76.464 36.536 76.088 35.296 76.024 33.776C76.008 33.12 76 32.416 76 31.664C76 30.912 76.008 30.192 76.024 29.504C76.088 28.016 76.472 26.792 77.176 25.832C77.896 24.872 78.848 24.16 80.032 23.696C81.232 23.232 82.576 23 84.064 23C85.088 23 86.072 23.12 87.016 23.36C87.976 23.584 88.84 23.944 89.608 24.44C90.376 24.936 90.984 25.576 91.432 26.36C91.896 27.128 92.136 28.056 92.152 29.144C92.152 29.288 92.096 29.416 91.984 29.528C91.888 29.624 91.768 29.672 91.624 29.672H86.728C86.472 29.672 86.28 29.624 86.152 29.528C86.04 29.416 85.936 29.232 85.84 28.976C85.664 28.464 85.424 28.12 85.12 27.944C84.816 27.768 84.456 27.68 84.04 27.68C83.512 27.68 83.088 27.824 82.768 28.112C82.464 28.384 82.296 28.888 82.264 29.624C82.216 30.936 82.216 32.28 82.264 33.656C82.296 34.392 82.464 34.904 82.768 35.192C83.088 35.464 83.512 35.6 84.04 35.6C84.456 35.6 84.816 35.504 85.12 35.312C85.44 35.12 85.68 34.784 85.84 34.304C85.92 34.032 86.024 33.848 86.152 33.752C86.28 33.656 86.472 33.608 86.728 33.608H91.624C91.768 33.608 91.888 33.664 91.984 33.776C92.096 33.872 92.152 33.992 92.152 34.136C92.136 35.224 91.896 36.16 91.432 36.944C90.984 37.712 90.376 38.344 89.608 38.84C88.84 39.336 87.976 39.704 87.016 39.944C86.072 40.168 85.088 40.28 84.064 40.28Z" fill="white"/>
</svg>
