<svg width="48" height="49" viewBox="0 0 48 49" fill="none" xmlns="http://www.w3.org/2000/svg">
<path d="M24 6.63965C33.9411 6.63965 42 14.6985 42 24.6396C42 34.5808 33.9411 42.6396 24 42.6396C14.0589 42.6396 6 34.5808 6 24.6396C6 14.6985 14.0589 6.63965 24 6.63965ZM24 9.63965C15.7157 9.63965 9 16.3554 9 24.6396C9 32.9239 15.7157 39.6396 24 39.6396C32.2843 39.6396 39 32.9239 39 24.6396C39 16.3554 32.2843 9.63965 24 9.63965ZM28.2327 18.6615L28.5023 18.6374C29.2387 18.6374 29.8511 19.168 29.9781 19.8677L30.0023 20.1374L30.0007 29.2121L29.967 29.4668L29.9107 29.6592L29.805 29.886L29.6511 30.1065L29.5145 30.249L29.3142 30.4036L29.1336 30.5031L29.0195 30.5504L28.8259 30.6068L28.5696 30.6404L19.5023 30.6419C18.6739 30.6419 18.0023 29.9704 18.0023 29.1419C18.0023 28.4056 18.5329 27.7931 19.2327 27.6661L19.5023 27.6419L24.882 27.6396L18.4414 21.1977C17.9208 20.6769 17.8631 19.8686 18.2683 19.2841L18.4419 19.0764C18.9627 18.5559 19.771 18.4982 20.3555 18.9033L20.5632 19.077L27 25.5156L27.0023 20.1374C27.0023 19.401 27.5329 18.7885 28.2327 18.6615Z" fill="white"/>
</svg>
