<svg width="2500" height="2500" viewBox="0 0 2500 2500" fill="none" xmlns="http://www.w3.org/2000/svg">
<g clip-path="url(#clip0_1061_193)">
<path d="M0 1250C0 1023.33 55.835 814.167 167.5 622.5C279.167 430.833 430.835 279.167 622.5 167.5C814.167 55.8325 1023.33 0 1250 0C1476.67 0 1685.83 55.8325 1877.5 167.5C2069.17 279.167 2220.83 430.833 2332.5 622.5C2444.17 814.167 2500 1023.33 2500 1250C2500 1476.67 2444.17 1685.83 2332.5 1877.5C2220.83 2069.17 2069.17 2220.83 1877.5 2332.5C1685.83 2444.17 1476.67 2500 1250 2500C1023.33 2500 814.167 2444.17 622.5 2332.5C430.835 2220.83 279.167 2069.17 167.5 1877.5C55.835 1685.83 0 1476.67 0 1250ZM207.5 1250C207.5 1510 295 1739.17 470 1937.5C550 1780.83 676.667 1631.67 850 1490C1023.33 1348.33 1192.5 1259.17 1357.5 1222.5C1332.5 1164.17 1308.33 1111.67 1285 1065C998.335 1156.67 688.335 1202.5 355 1202.5C290 1202.5 241.667 1201.67 210 1200C210 1206.67 209.585 1215 208.75 1225C207.917 1235 207.5 1243.33 207.5 1250ZM240 992.5C276.667 995.832 330.835 997.5 402.5 997.5C680.835 997.5 945 960 1195 885C1068.33 660 929.167 472.5 777.5 322.5C645.835 389.167 532.917 481.667 438.75 600C344.585 718.333 278.335 849.167 240 992.5ZM612.5 2072.5C800.835 2219.17 1013.33 2292.5 1250 2292.5C1373.33 2292.5 1495.83 2269.17 1617.5 2222.5C1584.17 1937.5 1519.17 1661.67 1422.5 1395C1269.17 1428.33 1114.58 1512.5 958.75 1647.5C802.917 1782.5 687.5 1924.17 612.5 2072.5ZM995 242.5C1141.67 394.167 1277.5 583.333 1402.5 810C1629.17 715 1800 594.167 1915 447.5C1721.67 287.5 1500 207.5 1250 207.5C1165 207.5 1080 219.167 995 242.5ZM1492.5 987.5C1517.5 1040.83 1545.83 1108.33 1577.5 1190C1700.83 1178.33 1835 1172.5 1980 1172.5C2083.33 1172.5 2185.83 1175 2287.5 1180C2274.17 953.333 2192.5 751.667 2042.5 575C1934.17 736.667 1750.83 874.167 1492.5 987.5ZM1640 1365C1725 1611.67 1782.5 1865 1812.5 2125C1944.17 2040 2051.67 1930.83 2135 1797.5C2218.33 1664.17 2268.34 1520 2285 1365C2163.33 1356.67 2052.5 1352.5 1952.5 1352.5C1860.83 1352.5 1756.67 1356.67 1640 1365Z" fill="white"/>
</g>
<defs>
<clipPath id="clip0_1061_193">
<rect width="2500" height="2500" fill="white"/>
</clipPath>
</defs>
</svg>
