<svg width="64" height="64" viewBox="0 0 64 64" fill="none" xmlns="http://www.w3.org/2000/svg">
<g clip-path="url(#clip0_661_14)">
<g clip-path="url(#clip1_661_14)">
<path fill-rule="evenodd" clip-rule="evenodd" d="M23.1108 3.33331C17.097 3.33331 12.2219 8.20843 12.2219 14.2222C12.2219 17.8924 14.0377 21.1385 16.82 23.1111C14.0377 25.0837 12.2219 28.3298 12.2219 32C12.2219 35.6701 14.0377 38.9162 16.82 40.8888C14.0377 42.8616 12.2219 46.1074 12.2219 49.7778C12.2219 55.7914 17.097 60.6666 23.1108 60.6666C29.1245 60.6666 33.9997 55.7914 33.9997 49.7778V40.433C35.8765 41.968 38.2749 42.8888 40.8885 42.8888C46.9023 42.8888 51.7775 38.0138 51.7775 32C51.7775 28.3298 49.9618 25.0837 47.1794 23.1111C49.9618 21.1385 51.7775 17.8924 51.7775 14.2222C51.7775 8.20843 46.9023 3.33331 40.8885 3.33331H23.1108ZM29.9997 38.8888H23.1108C19.3062 38.8888 16.2219 35.8045 16.2219 32C16.2219 28.1954 19.3062 25.1111 23.1108 25.1111L29.9997 25.1111V32V38.8888ZM23.1108 21.1111H29.9997V7.33331H23.1108C19.3062 7.33331 16.2219 10.4176 16.2219 14.2222C16.2219 18.0268 19.3062 21.1111 23.1108 21.1111ZM47.7775 14.2222C47.7775 18.0244 44.6973 21.1071 40.8959 21.1111L37.4479 21.1111H33.9997V7.33331H40.8885C44.6933 7.33331 47.7775 10.4176 47.7775 14.2222ZM33.9997 31.9914C34.0042 28.1936 37.0823 25.1157 40.8802 25.1111H40.8951C44.6967 25.1147 47.7775 28.1976 47.7775 32C47.7775 35.8045 44.6933 38.8888 40.8885 38.8888C37.0869 38.8888 34.0042 35.809 33.9997 32.0085V31.9914ZM23.1108 42.8888C19.3062 42.8888 16.2219 45.973 16.2219 49.7778C16.2219 53.5824 19.3062 56.6666 23.1108 56.6666C26.9154 56.6666 29.9997 53.5824 29.9997 49.7778V42.8888H23.1108Z" fill="#E4E4E4"/>
</g>
</g>
<defs>
<clipPath id="clip0_661_14">
<rect width="64" height="64" fill="white"/>
</clipPath>
<clipPath id="clip1_661_14">
<rect width="64" height="64" fill="white"/>
</clipPath>
</defs>
</svg>
