<svg width="82" height="24" viewBox="0 0 82 24" fill="none" xmlns="http://www.w3.org/2000/svg">
<g clip-path="url(#clip0_140_22)">
<path d="M74.0572 11.6088H71.2162C69.3868 11.6088 68.4076 12.9784 68.4076 15.2608V23.5112H63.0184V11.6088H60.733C58.9036 11.6088 57.9244 12.9784 57.9244 15.2608V23.5112H52.5355V7.20636H57.9244V9.68484C58.8067 7.76076 60.0148 7.20636 61.8112 7.20636H68.4088V9.68484C69.2908 7.76076 70.4992 7.20636 72.295 7.20636H74.0584V11.6088H74.0572ZM51.3595 16.6304H40.1245C40.4185 18.4568 41.5611 19.5 43.488 19.5C44.9247 19.5 45.9373 18.9128 46.2642 17.8696L51.0326 19.2064C49.8571 22.0432 46.9501 23.772 43.488 23.772C37.6423 23.772 34.9638 19.2392 34.9638 15.3592C34.9638 11.544 37.3154 6.97836 43.1611 6.97836C49.3665 6.97836 51.4243 11.6088 51.4243 15.0328C51.4248 15.7824 51.3921 16.272 51.3595 16.6304ZM46.1337 13.4672C46.003 12.0648 44.9904 10.7608 43.1619 10.7608C41.4633 10.7608 40.4514 11.5104 40.1245 13.4672H46.1337ZM25.559 23.5112H30.2943L36.2057 7.2072H30.7846L27.9105 16.696L24.9709 7.20636H19.5818L25.559 23.5112ZM3.48191 23.5112H8.8381V11.6088H13.9331V23.5112H19.2565V7.20636H8.8381V6.19596C8.8381 5.08718 9.6217 4.4024 10.8629 4.4024H13.9331V0H9.98146C6.09473 0 3.48191 2.3808 3.48191 5.86959V7.20636H0.444458V11.6088H3.48191V23.5112Z" fill="white"/>
<path d="M77.3891 24C79.2293 24 80.7209 22.5107 80.7209 20.6736C80.7209 18.8365 79.2293 17.3472 77.3891 17.3472C75.5489 17.3472 74.0579 18.8365 74.0579 20.6736C74.0579 22.5107 75.5489 24 77.3891 24Z" fill="white"/>
</g>
<defs>
<clipPath id="clip0_140_22">
<rect width="81" height="24" fill="white" transform="translate(0.444458)"/>
</clipPath>
</defs>
</svg>
