<svg width="18" height="19" viewBox="0 0 18 19" fill="none" xmlns="http://www.w3.org/2000/svg">
<g clip-path="url(#clip0_642_192)">
<path d="M8.99888 0.484863C4.02976 0.484863 5.19353e-06 4.53036 5.19353e-06 9.52086C-0.002025 11.4149 0.591209 13.2616 1.69587 14.8001C2.80052 16.3386 4.36074 17.491 6.156 18.0945C6.606 18.1777 6.77025 17.8987 6.77025 17.6591C6.77025 17.4442 6.76238 16.8761 6.75788 16.1224C4.25476 16.668 3.726 14.9107 3.726 14.9107C3.31763 13.8667 2.727 13.5889 2.727 13.5889C1.90913 13.0286 2.78775 13.0399 2.78775 13.0399C3.69113 13.104 4.16588 13.9714 4.16588 13.9714C4.96913 15.3517 6.27301 14.9535 6.786 14.7217C6.867 14.1379 7.09988 13.7396 7.3575 13.5135C5.3595 13.2851 3.258 12.51 3.258 9.04836C3.258 8.06174 3.609 7.25511 4.185 6.62286C4.09163 6.39449 3.78338 5.47536 4.27275 4.23224C4.27275 4.23224 5.02876 3.98924 6.74776 5.15811C7.4821 4.95743 8.23986 4.85528 9.00113 4.85436C9.76243 4.85588 10.5202 4.95839 11.2545 5.15924C12.9724 3.99036 13.7273 4.23336 13.7273 4.23336C14.2178 5.47761 13.9095 6.39561 13.8173 6.62399C14.3944 7.25624 14.742 8.06286 14.742 9.04949C14.742 12.5201 12.6383 13.284 10.6335 13.5079C10.9564 13.7869 11.2444 14.3381 11.2444 15.1807C11.2444 16.389 11.2331 17.3632 11.2331 17.6591C11.2331 17.901 11.3951 18.1822 11.8519 18.0934C13.6454 17.4884 15.2037 16.3356 16.3068 14.7975C17.4099 13.2593 18.0022 11.4137 18 9.52086C18 4.53036 13.9703 0.484863 8.99888 0.484863Z" fill="white"/>
</g>
<defs>
<clipPath id="clip0_642_192">
<rect width="18" height="18" fill="white" transform="translate(0 0.484863)"/>
</clipPath>
</defs>
</svg>
