<svg width="175" height="80" viewBox="0 0 175 80" fill="none" xmlns="http://www.w3.org/2000/svg">
<path d="M173.652 14.7683H164.921C164.833 14.7683 164.755 14.7911 164.689 14.8289C164.375 14.9592 164.289 15.4169 164.609 15.6355C165.348 16.14 166.197 16.736 166.508 17.0156C167.103 17.5502 167.401 18.2673 167.401 19.1659C167.401 20.5246 166.756 22.8877 165.469 26.2526L161.314 37.0418C160.357 32.884 159.51 29.0267 158.15 25.7303C158.141 25.7085 158.132 25.687 158.123 25.6652C158.083 25.5674 158.041 25.4701 158 25.3733C156.821 22.5905 155.232 20.1658 153.225 18.1026C150.811 15.6212 147.985 14.0385 144.749 13.355C142.037 12.7831 139.368 12.8365 136.741 13.4986C135.436 13.8415 134.262 14.2646 133.201 14.7502C125.853 18.0885 123.988 24.4521 122.697 28.4717C121.223 33.0642 122.592 46.0751 131.721 49.89C135.824 51.6045 139.693 51.0795 142.888 49.5776C146.506 47.8932 149.268 44.9538 150.54 42.5777C150.729 42.2258 150.629 41.7901 150.314 41.5456C150.057 41.3473 149.718 41.3234 149.443 41.4623C149.345 41.5034 149.253 41.5627 149.174 41.6434C148.496 42.3426 147.159 43.5709 145.456 44.3846C142.599 45.7299 138.729 45.8925 135.209 40.4748C129.931 32.3523 131.062 22.4554 134.63 17.9108C135.525 16.9767 136.57 16.4121 137.717 16.3386C138.223 16.3135 138.699 16.379 139.144 16.5398C140.345 16.9552 141.467 17.8891 142.513 19.343C143.557 20.7965 154.077 38.0203 155.058 46.3735C155.17 48.4683 155.228 50.7052 155.228 53.0973C155.095 53.4668 154.964 53.8219 154.835 54.1641C154.435 55.0962 153.829 56.4442 153.096 58.0423C113.928 48.8272 56.0811 53.7086 36.2256 57.0314C35.4324 57.1722 34.6827 57.2429 33.978 57.2429C31.4039 57.2429 29.2622 56.6522 27.5525 55.4713C25.8425 54.2901 24.582 52.5272 23.7713 50.1829C27.7198 49.5133 31.0958 47.4593 33.8986 44.0221C36.7015 40.5844 38.1028 36.5389 38.1028 31.8851C38.1028 26.5438 36.3134 22.0929 32.7352 18.5319C29.1564 14.9713 24.6083 13.1907 19.0912 13.1907C13.5557 13.1907 8.99028 14.9668 5.39415 18.5187C1.79811 22.071 0 26.5265 0 31.8851C0 36.5037 1.32611 40.4787 3.9795 43.8103C6.63243 47.1421 10.1273 49.2665 14.4638 50.1829C15.7681 53.2853 17.7114 55.6386 20.2941 57.2429C22.8766 58.8468 25.8073 59.6491 29.0861 59.6491C31.1837 59.6491 33.5635 59.314 36.2256 58.6444C72.0507 49.8657 144.983 80.0002 144.983 80.0002C145.623 78.872 149.357 71.0528 152.821 63.5969C153.182 62.8309 153.98 61.1126 154.891 59.1134C156.71 55.1452 158.221 51.7565 158.814 50.2299L163.171 38.923L166.651 29.8911L168.546 24.973C170.198 20.6724 171.376 18.1519 172.081 17.4105C172.486 16.9847 173.328 16.1754 173.971 15.5643C174.274 15.2767 174.07 14.7683 173.652 14.7683ZM19.0646 48.7022C16.4649 48.7022 15.3821 47.6708 13.8661 45.6085C11.698 42.6468 10.6139 38.0988 10.6139 31.9645C10.6139 26.8524 11.3365 22.9127 12.782 20.1449C14.5096 16.8487 16.5201 15.2002 19.0646 15.2002C21.8647 15.2002 23.3037 16.8223 24.9961 20.0655C26.3532 22.6396 27.0322 26.7996 27.0322 32.5461C27.0322 38.381 25.9481 42.7527 23.7797 45.6612C22.2812 47.6888 21.3688 48.7022 19.0646 48.7022Z" fill="white"/>
<path d="M56.0667 15.8151H63.5836C67.1011 15.8151 69.9524 18.6665 69.9524 22.1838V42.4934C69.9524 45.0932 70.1953 46.7153 70.6814 47.359C70.9543 47.7209 71.8529 48.476 72.5877 49.0681C72.9284 49.3425 72.7341 49.8919 72.2966 49.8919H60.2111C59.9552 49.8919 59.7478 49.6845 59.7478 49.4285V46.5673C59.7478 46.1424 59.2273 45.945 58.9397 46.2577C57.581 47.7341 56.2223 48.8422 54.8639 49.5821C53.2358 50.4685 51.4135 50.9123 49.3969 50.9123C47.4775 50.9123 45.7706 50.3229 44.2764 49.1445C42.7821 47.9667 41.7798 46.588 41.2697 45.0081C40.7595 43.4291 40.5044 40.6712 40.5044 36.7347V23.2134C40.5044 20.6385 40.2671 19.0346 39.7933 18.4026C39.523 18.042 38.5929 17.2494 37.8447 16.6358C37.5081 16.3598 37.7041 15.8151 38.1394 15.8151H44.3403C47.8577 15.8151 50.709 18.6665 50.709 22.1838V39.104C50.709 41.534 50.8242 43.1009 51.0552 43.8054C51.2861 44.5106 51.6502 45.0445 52.1486 45.4089C52.6465 45.7734 53.224 45.9558 53.8799 45.9558C54.7545 45.9558 55.5439 45.7252 56.2488 45.2632C57.1995 44.6454 58.3361 43.4109 59.6595 41.5603C59.7161 41.4814 59.7478 41.3841 59.7478 41.2869V23.2134C59.7478 20.6385 59.5106 19.0346 59.0372 18.4026" fill="white"/>
<path d="M87.6354 49.0513C86.8373 48.4919 85.8918 47.7949 85.5875 47.4306C85.0284 46.7629 84.7493 45.2259 84.7493 42.8203V12.036V11.5121V4.90219H84.7314C84.6453 3.61404 84.1413 2.49725 83.2103 1.55575C82.1845 0.518822 80.9309 0 79.449 0C77.9901 0 76.7478 0.518822 75.722 1.55575C74.6962 2.59322 74.1835 3.84135 74.1835 5.29996C74.1835 6.75903 74.6962 8.00125 75.722 9.02708C76.7478 10.0529 77.9901 10.5658 79.449 10.5658C80.9079 10.5658 82.1558 10.0529 83.1935 9.02708C83.3249 8.89699 83.4479 8.76332 83.5628 8.62634C83.4449 10.9032 82.1455 12.9844 80.0917 14.0064C80.0622 14.0211 80.0327 14.0357 80.003 14.0501C76.7075 15.6625 74.5446 18.9284 74.5446 22.5973V22.9211V42.8203V49.4289C74.5446 49.684 74.7514 49.891 75.0067 49.891H87.3691C87.8203 49.891 88.0049 49.3103 87.6354 49.0513Z" fill="white"/>
<path d="M120.017 47.3577C119.543 46.714 119.306 45.0799 119.306 42.4555V29.1893C119.306 25.2532 119.111 22.5926 118.723 21.2077C118.237 19.3854 117.265 17.8609 115.807 16.6338C114.349 15.407 112.515 14.7932 110.304 14.7932C108.457 14.7932 106.732 15.2247 105.128 16.0869C103.768 16.8189 102.355 17.9224 100.89 19.3974C100.599 19.6899 100.099 19.4881 100.099 19.0757V16.2759C100.099 16.0207 99.8921 15.8138 99.6367 15.8138H97.2926C93.2066 15.8138 89.8942 19.1261 89.8942 23.2121V42.4555V49.4285C89.8942 49.6836 90.1011 49.8905 90.3563 49.8905H102.251C102.672 49.8905 102.874 49.3748 102.565 49.0896C101.907 48.4839 101.081 47.6924 100.81 47.3031C100.336 46.623 100.099 45.0068 100.099 42.4555V24.1961C101.897 21.2077 103.84 19.7133 105.93 19.7133C106.562 19.7133 107.139 19.9138 107.661 20.3148C108.184 20.7155 108.554 21.2802 108.773 22.0093C108.992 22.7382 109.101 24.5001 109.101 27.2939V42.4555C109.101 44.8611 108.906 46.3678 108.518 46.9748C108.187 47.5075 107.276 48.4324 106.588 49.0978C106.29 49.3863 106.496 49.8905 106.911 49.8905H121.642C122.08 49.8905 122.273 49.3404 121.931 49.0677C121.189 48.4754 120.283 47.7198 120.017 47.3577Z" fill="white"/>
</svg>
