<svg width="71" height="24" viewBox="0 0 71 24" fill="none" xmlns="http://www.w3.org/2000/svg">
<mask id="mask0_140_58" style="mask-type:luminance" maskUnits="userSpaceOnUse" x="0" y="0" width="71" height="24">
<path d="M70.0445 0H0.444458V24H70.0445V0Z" fill="white"/>
</mask>
<g mask="url(#mask0_140_58)">
<path d="M57.0031 20.8057C57.0031 19.787 57.6232 19.1137 58.8465 19.1137C60.2762 19.1137 60.6899 19.6144 61.1895 21.6863C61.3616 22.3942 61.7922 22.8259 62.9124 22.8259C64.4284 22.8259 65.2553 21.9971 65.2553 20.7712C65.2553 19.7007 64.1699 18.8374 62.0507 17.4906C59.725 16.0576 58.4501 14.6935 58.4501 12.6907C58.4501 9.58272 61.8959 7.71796 65.0485 7.71796C68.5974 7.71796 69.9582 9.2374 69.9582 10.6705C69.9582 11.6201 69.3381 12.1381 68.27 12.1381C66.9261 12.1381 66.5129 11.6029 66.0649 9.9971C65.8581 9.18561 65.4448 8.85755 64.6352 8.85755C63.3603 8.85755 62.4986 9.51367 62.4986 10.7051C62.4986 11.8446 63.6188 12.5525 66.0823 14.1065C68.4079 15.4705 69.4418 16.9727 69.4418 18.7338C69.4418 21.6345 66.3234 23.9827 62.4297 23.9827C58.5538 23.9309 57.0031 22.3424 57.0031 20.8057Z" fill="white"/>
<path d="M2.15003 7.37263C2.15003 6.69925 2.15003 4.61006 2.08112 4.19567C1.97775 3.62588 1.8227 3.59135 0.926862 3.3669C0.616763 3.29783 0.547852 3.07337 0.547852 2.83164C0.547852 2.52085 0.582307 2.48632 1.52983 2.29639C3.39043 1.86474 4.95815 1.22588 6.47419 0.34531C6.78429 0.12085 6.85319 0.12085 6.9221 0.12085C7.18051 0.12085 7.18051 0.414375 7.18051 0.79423V4.14387L7.14608 9.59998C7.14608 9.9453 7.14608 10.118 7.3011 10.118C7.33558 10.118 7.40449 10.118 7.81797 9.73814C9.2823 8.49496 10.9362 7.75253 12.8485 7.75253C14.2784 7.75253 15.5877 8.20143 16.5696 9.25466C17.431 10.1525 17.5516 11.482 17.5516 12.9496V21.4618C17.5516 22.2216 17.7067 22.5151 18.6714 22.7741C18.6714 22.7741 18.9298 22.895 19.4984 22.895C20.0669 22.895 20.2908 22.8087 20.2908 22.8087C21.3417 22.4979 21.3417 22.1007 21.3417 20.4431L21.3073 16.2993C21.3073 15.6259 21.2728 12.2762 21.2039 11.8619C21.1005 11.2921 20.9455 11.2575 20.0497 11.0331C19.7396 10.964 19.6706 10.7396 19.6706 10.4978C19.6706 10.187 19.7051 10.1525 20.6526 9.96256C22.496 9.54819 24.0637 8.90933 25.5797 8.01148C25.8898 7.78705 25.9588 7.78705 26.0277 7.78705C26.2861 7.78705 26.2861 8.08058 26.2861 8.46043V20.7021C26.2861 22.2043 26.4067 22.4805 27.492 22.7741C27.492 22.7741 27.8366 22.895 28.474 22.895C29.0942 22.895 29.4388 22.7741 29.4388 22.7741C30.7136 22.4633 30.7136 22.0144 30.7136 20.4777C30.7136 17.8014 30.7136 14.3482 30.6102 12.4317C30.5758 11.2748 30.5413 11.2575 29.0253 10.9986C28.6463 10.9295 28.6118 10.7396 28.6118 10.4806C28.6118 10.1007 28.7669 10.0662 29.3354 9.96256C30.6791 9.66903 32.7465 9.13381 34.5554 8.08058C35.1239 7.73526 35.1928 7.73526 35.279 7.73526C35.5029 7.73526 35.5029 7.99422 35.5029 8.18416V9.54819C35.5029 9.85898 35.5029 9.99709 35.658 9.99709C35.7613 9.99709 35.813 9.99709 36.037 9.77266C37.6047 8.37411 38.9657 7.70069 40.7229 7.70069C42.3079 7.70069 43.5827 8.21869 44.513 9.47913C44.9954 10.118 45.0298 10.1525 45.1504 10.1525C45.2193 10.1525 45.271 10.1525 45.8568 9.61724C46.8388 8.68486 48.4926 7.66616 50.6632 7.66616C50.9563 7.66616 53.7473 7.70068 54.8669 9.66903C55.2802 10.3943 55.5044 10.7914 55.5044 15.0216V21.3755C55.5044 21.9108 55.5044 22.4288 56.5209 22.6878C56.8999 22.7913 57.1236 22.8432 57.1236 23.2921C57.1236 23.5856 57.0546 23.7755 56.6067 23.8101H55.6592H52.1623H49.5607C49.2506 23.8101 48.8544 23.741 48.8544 23.2058C48.8544 22.895 49.0439 22.8259 49.3885 22.7223C50.0259 22.5324 50.4394 22.4288 50.4394 20.8748V17.7842C50.4394 16.8863 50.4394 12.846 50.3705 12.2935C50.3357 11.7583 50.181 9.87624 48.0447 9.87624C47.4073 9.87624 45.5295 10.3597 45.5295 12.1381V21.2892C45.5295 22.2216 45.6845 22.446 46.7009 22.6878C47.0455 22.7913 47.2694 22.8432 47.2694 23.2058C47.2694 23.741 46.9766 23.8101 46.1324 23.8101H43.3588H39.7237C39.2758 23.8101 38.9312 23.7755 38.9312 23.2748C38.9312 22.964 39.0518 22.895 39.3791 22.7913C40.5334 22.446 40.5334 21.9971 40.5334 20.564C40.5334 19.0619 40.5334 12.846 40.3784 11.8273C40.1544 10.5151 39.0346 10.1007 38.1904 10.1007C37.1051 10.1007 36.0542 10.8604 35.7441 11.672C35.6407 11.9309 35.6407 15.3151 35.6407 15.8503C35.6407 16.8 35.6407 20.9266 35.7096 21.5655C35.7786 22.4288 36.4677 22.6187 37.1395 22.7741C37.4496 22.8777 37.6219 22.895 37.6219 23.2921C37.6219 23.8101 37.2085 23.8274 36.7605 23.8274H33.1083H29.9039H26.9063H24.0809H20.4459H18.7576H17.8445H14.9502H12.1421H11.2463C10.9879 23.7928 10.9017 23.5338 10.9017 23.3093C10.9017 22.9986 11.0568 22.895 11.3496 22.8259C11.832 22.705 12.1421 22.6014 12.2799 22.2561C12.435 21.8072 12.435 20.9439 12.4695 20.2705C12.5039 17.1453 12.5039 17.0762 12.5039 13.5712C12.5039 12.2072 12.5039 9.99709 10.1093 9.99709C9.02389 9.99709 8.2314 10.6359 7.97299 10.8949C7.37001 11.4647 7.14608 11.6892 7.14608 12.8806V21.3583C7.14608 22.1525 7.24946 22.4806 8.31757 22.7568C8.61041 22.8259 8.92051 22.8777 8.92051 23.2058C8.92051 23.7755 8.50707 23.8101 7.93857 23.8101H5.3027H1.39201C0.823495 23.8101 0.565079 23.8101 0.565079 23.2921C0.565079 22.9813 0.754584 22.9122 1.09914 22.8087C2.15003 22.4288 2.15003 22.0144 2.15003 20.4431V16.5756V9.72087V7.37263Z" fill="white"/>
<path d="M23.8397 1.29495C22.272 1.29495 21.1005 2.64172 21.1005 4.07481C21.1005 5.83597 22.4959 6.75109 23.7363 6.75109C25.1662 6.75109 26.4755 5.57697 26.4755 3.93668C26.4755 2.53812 25.3557 1.29495 23.8397 1.29495Z" fill="white"/>
</g>
</svg>
