<svg width="18" height="19" viewBox="0 0 18 19" fill="none" xmlns="http://www.w3.org/2000/svg">
<path d="M9.00402 4.86989C6.44951 4.86989 4.38904 6.93036 4.38904 9.48486C4.38904 12.0394 6.44951 14.0998 9.00402 14.0998C11.5585 14.0998 13.619 12.0394 13.619 9.48486C13.619 6.93036 11.5585 4.86989 9.00402 4.86989ZM9.00402 12.4852C7.35323 12.4852 6.00368 11.1397 6.00368 9.48486C6.00368 7.83006 7.34921 6.48453 9.00402 6.48453C10.6588 6.48453 12.0044 7.83006 12.0044 9.48486C12.0044 11.1397 10.6548 12.4852 9.00402 12.4852ZM14.8842 4.68111C14.8842 5.27957 14.4022 5.75754 13.8078 5.75754C13.2093 5.75754 12.7313 5.27556 12.7313 4.68111C12.7313 4.08667 13.2133 3.60469 13.8078 3.60469C14.4022 3.60469 14.8842 4.08667 14.8842 4.68111ZM17.9408 5.77361C17.8725 4.33168 17.5431 3.05443 16.4868 2.0021C15.4345 0.949774 14.1572 0.620421 12.7153 0.548123C11.2292 0.463777 6.77485 0.463777 5.28874 0.548123C3.85083 0.616404 2.57358 0.945758 1.51724 1.99808C0.460895 3.05041 0.135557 4.32766 0.0632601 5.76959C-0.0210867 7.2557 -0.0210867 11.71 0.0632601 13.1961C0.131541 14.638 0.460895 15.9153 1.51724 16.9676C2.57358 18.02 3.84681 18.3493 5.28874 18.4216C6.77485 18.5059 11.2292 18.5059 12.7153 18.4216C14.1572 18.3533 15.4345 18.024 16.4868 16.9676C17.5391 15.9153 17.8685 14.638 17.9408 13.1961C18.0251 11.71 18.0251 7.25972 17.9408 5.77361ZM16.0209 14.7907C15.7076 15.5779 15.1011 16.1844 14.3098 16.5017C13.125 16.9716 10.3134 16.8632 9.00402 16.8632C7.69463 16.8632 4.87906 16.9676 3.6982 16.5017C2.91097 16.1884 2.30447 15.5819 1.98717 14.7907C1.51724 13.6058 1.62568 10.7942 1.62568 9.48486C1.62568 8.17548 1.52125 5.3599 1.98717 4.17905C2.30046 3.39181 2.90695 2.78532 3.6982 2.46802C4.88307 1.99808 7.69463 2.10653 9.00402 2.10653C10.3134 2.10653 13.129 2.0021 14.3098 2.46802C15.0971 2.7813 15.7036 3.3878 16.0209 4.17905C16.4908 5.36392 16.3823 8.17548 16.3823 9.48486C16.3823 10.7942 16.4908 13.6098 16.0209 14.7907Z" fill="white"/>
</svg>
