<svg width="65" height="64" viewBox="0 0 65 64" fill="none" xmlns="http://www.w3.org/2000/svg">
<path d="M56.6027 15.167L34.5312 2.36451C33.1407 1.57251 31.3192 1.57251 29.9177 2.36451L7.67367 15.167C6.23917 15.9925 5.26367 17.544 5.26367 19.2035V44.7745C5.26367 46.434 6.25967 47.986 7.69467 48.816L13.5592 52.16C16.3727 53.546 17.1522 53.546 18.4322 53.546C22.5992 53.546 24.7632 51.0265 24.7632 46.632V21.387C24.7637 21.0305 24.9862 20.5 24.6357 20.5H21.8247C21.4687 20.5 20.7637 21.0305 20.7637 21.3865V46.6315C20.7637 48.5795 18.9557 50.518 15.6627 48.8715L9.60167 45.365C9.39067 45.25 9.26367 45.0185 9.26367 44.7745V19.2035C9.26367 18.9625 9.49517 18.7205 9.70917 18.597L31.8982 5.81651C32.1057 5.69901 32.3992 5.69901 32.6057 5.81651L54.5872 18.594C54.7977 18.7205 54.7642 18.955 54.7642 19.2035V44.7745C54.7642 45.0185 54.8102 45.256 54.6027 45.3735L32.5362 58.1615C32.3472 58.275 32.1012 58.275 31.8937 58.1615L26.2352 54.787C26.0647 54.688 25.8592 54.6525 25.6952 54.744C24.1227 55.6355 23.8307 55.754 22.3557 56.2655C21.9922 56.392 21.4562 56.6115 22.5597 57.23L29.9587 61.607C30.6667 62.017 31.4722 62.23 32.2822 62.23C33.1032 62.23 33.9067 62.017 34.6152 61.607L56.6032 48.816C58.0387 47.98 58.7642 46.434 58.7642 44.7745V19.2035C58.7637 17.544 58.0382 15.9965 56.6027 15.167ZM39.1272 40.7225C33.2637 40.7225 31.9727 39.105 31.5422 36.1895C31.4912 35.8755 31.2252 35.5 30.9052 35.5H28.0402C27.6857 35.5 27.4002 35.93 27.4002 36.283C27.4002 40.016 29.4302 44.539 39.1272 44.539C46.1462 44.539 50.1712 41.8115 50.1712 36.9845C50.1712 32.1985 46.9377 30.9425 40.1302 30.0415C33.2492 29.132 32.5502 28.6725 32.5502 27.0605C32.5502 25.7315 33.1422 23.959 38.2372 23.959C42.7892 23.959 44.4672 24.936 45.1577 28.0045C45.2172 28.293 45.4807 28.5 45.7782 28.5H48.6552C48.8322 28.5 49.0007 28.4285 49.1247 28.302C49.2452 28.166 49.3082 27.9955 49.2927 27.8125C48.8462 22.528 45.3362 20.0655 38.2367 20.0655C31.9207 20.0655 28.1537 22.7325 28.1537 27.203C28.1537 32.052 31.9022 33.392 37.9647 33.9915C45.2172 34.7025 45.7812 35.7625 45.7812 37.189C45.7812 39.667 43.7922 40.7225 39.1272 40.7225Z" fill="#E4E4E4"/>
</svg>
