<svg width="18" height="19" viewBox="0 0 18 19" fill="none" xmlns="http://www.w3.org/2000/svg">
<path d="M18.0003 18.4848V11.8923C18.0003 8.65226 17.3027 6.17725 13.5227 6.17725C11.7002 6.17725 10.4852 7.16725 9.9902 8.11226H9.9452V6.46975H6.36768V18.4848H10.1027V12.5223C10.1027 10.9473 10.3952 9.43977 12.3302 9.43977C14.2427 9.43977 14.2652 11.2173 14.2652 12.6123V18.4623H18.0003V18.4848Z" fill="white"/>
<path d="M0.29248 6.46973H4.02751V18.4848H0.29248V6.46973Z" fill="white"/>
<path d="M2.16002 0.484863C0.967508 0.484863 0 1.45237 0 2.64488C0 3.83739 0.967508 4.8274 2.16002 4.8274C3.35253 4.8274 4.32004 3.83739 4.32004 2.64488C4.32004 1.45237 3.35253 0.484863 2.16002 0.484863Z" fill="white"/>
</svg>
