<svg width="256" height="256" viewBox="0 0 256 256" fill="none" xmlns="http://www.w3.org/2000/svg">
    <path d="M209.92 20.48H46.08C31.9488 20.48 20.48 31.9488 20.48 46.08V209.92C20.48 224.051 31.9488 235.52 46.08 235.52H209.92C224.051 235.52 235.52 224.051 235.52 209.92V46.08C235.52 31.9488 224.051 20.48 209.92 20.48ZM87.04 102.4V199.68H56.32V102.4H87.04ZM56.32 74.0864C56.32 66.9184 62.464 61.44 71.68 61.44C80.896 61.44 86.6816 66.9184 87.04 74.0864C87.04 81.2544 81.3056 87.04 71.68 87.04C62.464 87.04 56.32 81.2544 56.32 74.0864ZM199.68 199.68H168.96C168.96 199.68 168.96 152.269 168.96 148.48C168.96 138.24 163.84 128 151.04 127.795H150.63C138.24 127.795 133.12 138.342 133.12 148.48C133.12 153.139 133.12 199.68 133.12 199.68H102.4V102.4H133.12V115.507C133.12 115.507 143.002 102.4 162.867 102.4C183.194 102.4 199.68 116.378 199.68 144.691V199.68Z" fill="white"/>
</svg>
