<svg width="69" height="20" viewBox="0 0 69 20" fill="none" xmlns="http://www.w3.org/2000/svg">
<path d="M62.584 19.872H61V16.584H61.672C62.344 16.584 62.784 16.456 62.992 16.2C63.2 15.944 63.288 15.6 63.256 15.168L63.064 13.008C63 12.336 63.032 11.768 63.16 11.304C63.288 10.84 63.568 10.464 64 10.176C64.432 9.872 65.064 9.64 65.896 9.48V10.392C65.064 10.2 64.432 9.952 64 9.648C63.568 9.344 63.288 8.96 63.16 8.496C63.032 8.032 63 7.464 63.064 6.792L63.256 4.704C63.304 4.272 63.216 3.928 62.992 3.672C62.784 3.416 62.344 3.288 61.672 3.288H61V0H62.584C64.072 0 65.224 0.384 66.04 1.152C66.872 1.904 67.208 3.04 67.048 4.56L66.76 7.152C66.712 7.584 66.776 7.88 66.952 8.04C67.128 8.2 67.44 8.28 67.888 8.28H68.56V11.52H67.888C67.44 11.52 67.128 11.6 66.952 11.76C66.776 11.92 66.712 12.216 66.76 12.648L67.024 15.312C67.2 16.88 66.872 18.032 66.04 18.768C65.224 19.504 64.072 19.872 62.584 19.872Z" fill="white"/>
<path d="M47.312 18.76C45.968 18.76 44.728 18.536 43.592 18.088C42.472 17.64 41.488 17.016 40.64 16.216C39.808 15.416 39.16 14.472 38.696 13.384C38.232 12.296 38 11.12 38 9.856C38 8.576 38.224 7.4 38.672 6.328C39.136 5.256 39.784 4.32 40.616 3.52C41.448 2.72 42.424 2.104 43.544 1.672C44.68 1.224 45.92 1 47.264 1C48.608 1 49.84 1.224 50.96 1.672C52.096 2.104 53.08 2.72 53.912 3.52C54.744 4.32 55.384 5.264 55.832 6.352C56.296 7.424 56.528 8.6 56.528 9.88C56.528 11.144 56.296 12.32 55.832 13.408C55.384 14.48 54.744 15.424 53.912 16.24C53.08 17.04 52.104 17.664 50.984 18.112C49.864 18.544 48.64 18.76 47.312 18.76ZM47.264 14.536C48.16 14.536 48.936 14.344 49.592 13.96C50.248 13.576 50.752 13.032 51.104 12.328C51.456 11.624 51.632 10.8 51.632 9.856C51.632 9.152 51.528 8.52 51.32 7.96C51.128 7.384 50.84 6.896 50.456 6.496C50.072 6.08 49.608 5.768 49.064 5.56C48.536 5.336 47.936 5.224 47.264 5.224C46.368 5.224 45.592 5.416 44.936 5.8C44.28 6.168 43.776 6.704 43.424 7.408C43.072 8.096 42.896 8.912 42.896 9.856C42.896 10.576 42.992 11.224 43.184 11.8C43.392 12.376 43.688 12.872 44.072 13.288C44.456 13.688 44.912 14 45.44 14.224C45.984 14.432 46.592 14.536 47.264 14.536Z" fill="white"/>
<path d="M31.616 13.304C30.864 13.304 30.24 13.048 29.744 12.536C29.248 12.024 29 11.4 29 10.664C29 9.912 29.248 9.28 29.744 8.768C30.24 8.256 30.864 8 31.616 8C32.368 8 32.984 8.256 33.464 8.768C33.96 9.28 34.208 9.912 34.208 10.664C34.208 11.4 33.96 12.024 33.464 12.536C32.984 13.048 32.368 13.304 31.616 13.304Z" fill="white"/>
<path d="M12 19.088V2H16.8V19.088H12ZM15.888 19.088V15.104H25.056V19.088H15.888ZM15.888 12.32V8.432H24.168V12.32H15.888ZM15.888 5.984V2H24.912V5.984H15.888Z" fill="white"/>
<path d="M6.23992 19.872C4.75192 19.872 3.59992 19.504 2.78392 18.768C1.96792 18.032 1.63992 16.88 1.79992 15.312L2.06392 12.648C2.11192 12.216 2.04792 11.92 1.87192 11.76C1.69592 11.6 1.38392 11.52 0.935916 11.52H0.263916V8.28H0.935916C1.38392 8.28 1.69592 8.2 1.87192 8.04C2.04792 7.88 2.11192 7.584 2.06392 7.152L1.77592 4.56C1.61592 3.04 1.94392 1.904 2.75992 1.152C3.59192 0.384 4.75192 0 6.23992 0H7.82392V3.288H7.15192C6.47992 3.288 6.03192 3.416 5.80792 3.672C5.59992 3.928 5.51992 4.272 5.56792 4.704L5.75992 6.792C5.82392 7.464 5.79192 8.032 5.66392 8.496C5.53592 8.96 5.25592 9.344 4.82392 9.648C4.39192 9.952 3.75992 10.2 2.92792 10.392V9.48C3.75992 9.64 4.39192 9.872 4.82392 10.176C5.25592 10.464 5.53592 10.84 5.66392 11.304C5.79192 11.768 5.82392 12.336 5.75992 13.008L5.56792 15.168C5.53592 15.6 5.62392 15.944 5.83192 16.2C6.03992 16.456 6.47992 16.584 7.15192 16.584H7.82392V19.872H6.23992Z" fill="white"/>
</svg>
