<svg width="243" height="180" viewBox="0 0 243 180" fill="none" xmlns="http://www.w3.org/2000/svg">
<path d="M203.77 179.09C204.87 179.09 206.02 179.09 207.17 179.02V178.27C206.01 178.32 204.84 178.34 203.73 178.34H203.19V179.09H203.8H203.77ZM198.14 178.91L198.19 178.16C196.86 178.07 195.53 177.95 194.19 177.79L194.1 178.54C195.45 178.69 196.8 178.82 198.14 178.91ZM212.14 178.7C213.44 178.58 214.79 178.44 216.14 178.27L216.05 177.52C214.71 177.69 213.38 177.84 212.05 177.95L212.14 178.7ZM189.14 177.76L189.29 177.03C187.98 176.77 186.68 176.48 185.41 176.15L185.22 176.88C186.53 177.21 187.85 177.51 189.17 177.76H189.14ZM221.14 177.52C222.45 177.29 223.78 177.04 225.08 176.77L224.93 176.04C223.63 176.31 222.31 176.56 221.01 176.78L221.14 177.52ZM230 175.65C231.31 175.33 232.61 174.98 233.88 174.65L233.68 173.93C232.42 174.29 231.12 174.64 229.82 174.93L230 175.65ZM180.47 175.41L180.72 174.7C179.46 174.26 178.22 173.77 177.02 173.25L176.72 173.93C177.9 174.46 179.16 175 180.44 175.41H180.47ZM238.68 173.13C241.07 172.34 242.46 171.77 242.48 171.77L242.19 171.07C242.19 171.07 240.81 171.63 238.44 172.42L238.68 173.13ZM172.21 171.7L172.58 171.04C171.43 170.4 170.29 169.7 169.19 168.97L168.78 169.6C169.86 170.34 171 171 172.18 171.7H172.21ZM164.71 166.65L165.17 166.06C164.11 165.24 163.07 164.4 162.08 163.55L161.59 164.12C162.56 165 163.61 165.83 164.68 166.65H164.71ZM157.89 160.73L158.41 160.19C157.47 159.26 156.54 158.3 155.65 157.33L155.1 157.84C156 158.82 156.9 159.79 157.86 160.73H157.89ZM151.84 154.01L152.43 153.55C151.6 152.55 150.8 151.43 150.05 150.36L149.43 150.79C150.17 151.88 151 153 151.81 154L151.84 154.01ZM146.7 146.58L147.34 146.19C146.65 145.05 146 143.88 145.39 142.72L144.73 143.07C145.31 144.24 146 145.42 146.67 146.58H146.7ZM142.57 138.53L143.25 138.23C142.74 137.04 142.25 135.79 141.78 134.54L141.07 134.8C141.51 136.07 142 137.32 142.54 138.53H142.57ZM139.52 130.02L140.24 129.81C139.87 128.55 139.54 127.25 139.24 125.96L138.51 126.13C138.78 127.43 139.12 128.74 139.49 130L139.52 130.02ZM137.58 121.19L138.32 121.07C138.12 119.77 137.96 118.44 137.83 117.13L137.09 117.2C137.18 118.53 137.35 119.87 137.55 121.19H137.58ZM136.78 112.19H137.53C137.53 111.61 137.53 111.03 137.53 110.45C137.53 109.7 137.53 108.95 137.53 108.21H136.78C136.78 108.96 136.78 109.71 136.78 110.47C136.73 111 136.74 111.59 136.75 112.18L136.78 112.19ZM133.01 111.32C133.55 111.32 134.08 111.32 134.62 111.32V110.57C133.304 110.645 131.986 110.645 130.67 110.57L130.62 111.32C131.35 111.28 132.17 111.31 133 111.31L133.01 111.32ZM139.63 110.72C140.956 110.48 142.267 110.169 143.56 109.79L143.35 109.07C142.084 109.442 140.799 109.745 139.5 109.98L139.63 110.72ZM125.58 110.55L125.73 109.82C124.438 109.562 123.163 109.228 121.91 108.82L121.68 109.53C122.949 109.941 124.242 110.278 125.55 110.54L125.58 110.55ZM148.26 108C149.488 107.445 150.683 106.82 151.84 106.13L151.46 105.49C150.325 106.162 149.153 106.769 147.95 107.31L148.26 108ZM116.99 107.53L117.32 106.86C116.143 106.258 115.002 105.59 113.9 104.86L113.49 105.48C114.62 106.236 115.792 106.927 117 107.55L116.99 107.53ZM155.99 103.26C156.65 102.73 157.31 102.16 157.94 101.57C158.3 101.23 158.65 100.89 158.94 100.57L158.41 100.04C158.08 100.38 157.74 100.71 157.41 101.04C156.79 101.62 156.15 102.17 155.5 102.7L155.99 103.26ZM137.85 103.2C138 101.87 138.19 100.55 138.41 99.27L137.67 99.14C137.44 100.44 137.25 101.78 137.11 103.14L137.85 103.2ZM109.47 102.43L109.97 101.87C108.979 100.997 108.037 100.069 107.15 99.09L106.6 99.6C107.506 100.603 108.468 101.554 109.48 102.45L109.47 102.43ZM162.16 96.6C162.909 95.4742 163.526 94.2663 164 93L163.3 92.75C162.85 93.9737 162.266 95.1441 161.56 96.24L162.16 96.6ZM103.45 95.6L104.07 95.17C103.5 94.37 102.96 93.52 102.45 92.67C102.28 92.39 102.11 92.11 101.95 91.82L101.3 92.19C101.47 92.48 101.63 92.77 101.8 93.05C102.33 94 102.89 94.85 103.46 95.67L103.45 95.6ZM139.45 94.37C139.81 93.05 140.21 91.78 140.65 90.59L139.94 90.33C139.5 91.54 139.09 92.83 138.73 94.17L139.45 94.37ZM164.07 88H164.82C164.773 86.6241 164.475 85.2684 163.94 84L163.25 84.29C163.742 85.468 164.02 86.7244 164.07 88ZM99.07 87.8L99.75 87.51C99.25 86.33 98.75 85.08 98.32 83.81L97.61 84.05C98.07 85.3 98.56 86.56 99.08 87.75L99.07 87.8ZM142.7 86.2C143.318 85.046 144.041 83.9513 144.86 82.93L144.28 82.45C143.431 83.5089 142.681 84.6437 142.04 85.84L142.7 86.2ZM160.37 80.45L160.83 79.87C159.749 78.9987 158.505 78.3527 157.17 77.97L156.97 78.69C158.208 79.0302 159.367 79.6112 160.38 80.4L160.37 80.45ZM148.57 79.83C149.697 79.1944 150.92 78.7453 152.19 78.5L152.05 77.76C150.7 78.0265 149.4 78.5058 148.2 79.18L148.57 79.83ZM96.15 79.24L96.88 79.05C96.56 77.86 96.25 76.59 95.93 75.18L95.2 75.34C95.53 76.72 95.84 78 96.16 79.19L96.15 79.24ZM94.15 70.44L94.89 70.29L94.12 66.37L93.39 66.51L94.15 70.44ZM92.37 61.63L93.1 61.46C92.78 60.02 92.46 58.74 92.1 57.56L91.38 57.76C91.77 58.88 92.09 60.15 92.41 61.58L92.37 61.63ZM89.87 53.04L90.57 52.78C90.1233 51.4895 89.599 50.2272 89 49L88.33 49.34C88.9232 50.5302 89.4507 51.752 89.91 53L89.87 53.04ZM85.7 45.23L86.31 44.78C85.5113 43.6949 84.6393 42.6659 83.7 41.7L83.17 42.22C84.092 43.148 84.9506 44.1369 85.74 45.18L85.7 45.23ZM79.45 39L79.9 38.39C78.8105 37.5991 77.6788 36.8681 76.51 36.2L76.14 36.86C77.2994 37.5041 78.4182 38.2188 79.49 39H79.45ZM71.7 34.69L72 34C70.95 33.56 69.84 33.14 68.69 32.75L68.45 33.46C69.62 33.79 70.71 34.2 71.74 34.64L71.7 34.69Z" fill="white"/>
<path d="M70.7899 17.4399L78.4399 38.4599L62.3699 25.9099L0.949951 3.63989L70.7899 17.4399Z" fill="#F9F9FB"/>
<path opacity="0.1" d="M70.7899 17.4399L78.4399 38.4599L62.3699 25.9099L0.949951 3.63989L70.7899 17.4399Z" fill="black"/>
<path d="M60.3099 30.8099L78.4399 38.4599L62.3699 25.9099L60.3099 30.8099Z" fill="white"/>
<path d="M62.3701 25.9099L0.950134 3.63989L51.3301 52.7999L62.3701 25.9099Z" fill="#F9F9FB"/>
<path d="M70.7901 17.44L96.3101 0.959961L0.950073 3.63996L70.7901 17.44Z" fill="#F9F9FB"/>
</svg>
