<svg width="806" height="100" viewBox="0 0 806 100" fill="none" xmlns="http://www.w3.org/2000/svg">
<path fill-rule="evenodd" clip-rule="evenodd" d="M100 50C100 77.6142 77.6142 100 50 100C47.8426 100 45.7172 99.8634 43.6318 99.5983L43.5185 99.5837L43.5185 98.1481L43.5185 86.4718L43.5185 13.5282C26.1539 16.5931 12.963 31.7561 12.963 50C12.963 63.3231 19.9978 75.0032 30.5556 81.5284V96.0783C12.6003 88.4921 0 70.7175 0 50C0 22.3858 22.3858 0 50 0C77.6142 0 100 22.3858 100 50ZM56.4815 13.5282C73.8461 16.5931 87.037 31.7561 87.037 50C87.037 68.2439 73.8461 83.4069 56.4815 86.4718V13.5282Z" fill="white"/>
<path d="M795.325 75.7403V40.091C795.325 36.9779 794.224 34.3583 792.022 32.2323C789.896 30.1062 787.277 29.0432 784.164 29.0432C781.126 29.0432 778.469 30.1062 776.191 32.2323C773.989 34.2824 772.888 36.864 772.888 39.9772V75.7403H762.523V39.9772C762.523 36.7881 761.46 34.2064 759.334 32.2323C757.056 30.1062 754.361 29.0432 751.248 29.0432C748.211 29.0432 745.629 30.1062 743.503 32.2323C741.225 34.5102 740.086 37.2057 740.086 40.3188V75.7403H729.835V20.1593H740.086V24.3735C741.377 22.7789 743.047 21.4502 745.097 20.3871C747.224 19.3241 749.274 18.7926 751.248 18.7926C754.589 18.7926 757.626 19.476 760.359 20.8427C763.169 22.1335 765.599 23.9559 767.649 26.3097C769.699 23.9559 772.129 22.1335 774.938 20.8427C777.747 19.476 780.823 18.7926 784.164 18.7926C787.125 18.7926 789.896 19.3241 792.478 20.3871C795.06 21.4502 797.337 22.9688 799.312 24.943C801.286 26.9171 802.804 29.233 803.868 31.8906C805.006 34.4722 805.576 37.2057 805.576 40.091V75.7403H795.325Z" fill="white"/>
<path d="M690.553 76.3097C686.681 76.3097 682.998 75.5504 679.505 74.0318C676.013 72.5132 672.938 70.4251 670.28 67.7675C667.622 65.11 665.534 62.0348 664.016 58.542C662.497 55.0492 661.738 51.3666 661.738 47.4941C661.738 43.5458 662.497 39.7872 664.016 36.2185C665.534 32.6498 667.622 29.5366 670.28 26.8791C672.938 24.2215 676.013 22.1714 679.505 20.7287C682.998 19.2101 686.681 18.4508 690.553 18.4508C694.502 18.4508 698.26 19.2101 701.829 20.7287C705.398 22.1714 708.511 24.2215 711.168 26.8791C713.826 29.5366 715.876 32.6498 717.319 36.2185C718.837 39.7872 719.597 43.5458 719.597 47.4941C719.597 51.3666 718.837 55.0492 717.319 58.542C715.876 62.0348 713.826 65.11 711.168 67.7675C708.511 70.4251 705.398 72.5132 701.829 74.0318C698.26 75.5504 694.502 76.3097 690.553 76.3097ZM690.553 28.5875C685.466 28.5875 681.1 30.4098 677.455 34.0545C675.709 35.8009 674.342 37.851 673.355 40.2048C672.368 42.5587 671.874 44.9884 671.874 47.4941C671.874 49.9998 672.368 52.3916 673.355 54.6696C674.342 56.9475 675.709 58.9596 677.455 60.706C679.202 62.4524 681.176 63.8192 683.378 64.8063C685.656 65.7933 688.048 66.2869 690.553 66.2869C693.059 66.2869 695.489 65.7933 697.843 64.8063C700.196 63.8192 702.209 62.4524 703.879 60.706C705.55 58.9596 706.878 56.9475 707.865 54.6696C708.853 52.3916 709.346 49.9998 709.346 47.4941C709.346 44.9884 708.853 42.5587 707.865 40.2048C706.878 37.851 705.55 35.8009 703.879 34.0545C702.209 32.3081 700.196 30.9793 697.843 30.0681C695.565 29.081 693.135 28.5875 690.553 28.5875Z" fill="white"/>
<path d="M633.263 76.3093C629.391 76.3093 625.708 75.588 622.216 74.1453C618.799 72.6267 615.761 70.5386 613.104 67.881C610.522 65.2994 608.472 62.2622 606.954 58.7694C605.511 55.2007 604.79 51.4801 604.79 47.6077C604.79 43.7352 605.511 40.0526 606.954 36.5598C608.472 32.9911 610.522 29.9159 613.104 27.3343C615.761 24.6767 618.799 22.6266 622.216 21.1839C625.708 19.6653 629.391 18.906 633.263 18.906C642.223 18.906 649.816 22.7025 656.043 30.2955L647.159 35.4208C643.21 31.2447 638.579 29.1566 633.263 29.1566C630.758 29.1566 628.366 29.6501 626.088 30.6372C623.886 31.5484 621.95 32.8392 620.279 34.5097C618.609 36.1801 617.28 38.1543 616.293 40.4322C615.306 42.7102 614.812 45.102 614.812 47.6077C614.812 50.1134 615.306 52.5052 616.293 54.7831C617.28 57.061 618.609 59.0352 620.279 60.7056C621.95 62.3761 623.886 63.7049 626.088 64.692C628.366 65.6031 630.758 66.0587 633.263 66.0587C638.579 66.0587 643.21 63.9706 647.159 59.7945L656.043 64.9198C649.816 72.5128 642.223 76.3093 633.263 76.3093Z" fill="white"/>
<path d="M550.323 51.594C550.323 53.4163 550.968 55.3146 552.259 57.2888C553.626 59.263 555.182 60.9334 556.929 62.3002C560.118 64.8059 563.838 66.0587 568.09 66.0587C574.848 66.0587 580.353 62.7937 584.605 56.2637L593.261 61.389C590.3 66.1726 586.655 69.8552 582.327 72.4369C577.999 75.0185 573.254 76.3093 568.09 76.3093C564.218 76.3093 560.535 75.588 557.042 74.1453C553.55 72.6267 550.474 70.5386 547.817 67.881C545.159 65.2235 543.071 62.1483 541.553 58.6555C540.11 55.1627 539.389 51.4801 539.389 47.6077C539.389 43.7352 540.11 40.0526 541.553 36.5598C543.071 32.9911 545.159 29.8779 547.817 27.2204C550.399 24.5628 553.436 22.5127 556.929 21.07C560.497 19.6273 564.218 18.906 568.09 18.906C571.963 18.906 575.645 19.6273 579.138 21.07C582.707 22.5127 585.782 24.5628 588.364 27.2204C593.983 32.9911 596.792 39.6729 596.792 47.266C596.792 48.6327 596.678 50.0754 596.45 51.594H550.323ZM568.09 28.2454C564.977 28.2454 562.054 28.9288 559.32 30.2955C556.587 31.6623 554.385 33.4846 552.714 35.7625C551.12 37.9645 550.323 40.3183 550.323 42.824H585.858C585.858 40.3183 585.023 37.9645 583.352 35.7625C581.758 33.4846 579.594 31.6623 576.86 30.2955C574.127 28.9288 571.203 28.2454 568.09 28.2454Z" fill="white"/>
<path d="M505.488 100C501.16 100 497.136 98.8991 493.415 96.6971C489.771 94.4951 486.582 91.306 483.848 87.1299L492.732 82.0046C494.327 84.5103 496.225 86.4085 498.427 87.6993C500.629 89.0661 502.983 89.7495 505.488 89.7495C509.513 89.7495 513.005 88.2688 515.967 85.3075C517.333 83.9408 518.358 82.3463 519.042 80.5239C519.801 78.7016 520.181 76.7654 520.181 74.7153V70.7289C518.434 72.5512 516.232 74.0319 513.575 75.1708C510.917 76.2339 508.222 76.7654 505.488 76.7654C502.147 76.7654 498.996 76.1579 496.035 74.9431C493.074 73.6522 490.454 71.8679 488.176 69.59C485.822 67.3121 484 64.6925 482.709 61.7312C481.418 58.694 480.773 55.5049 480.773 52.164V18.7926H490.796V51.4806C490.796 54.1382 491.441 56.6439 492.732 58.9977C494.099 61.2756 495.883 63.0979 498.085 64.4647C500.363 65.8314 502.831 66.5148 505.488 66.5148C508.146 66.5148 510.614 65.8694 512.891 64.5786C515.169 63.2118 516.954 61.3895 518.245 59.1116C519.535 56.7577 520.181 54.2141 520.181 51.4806V18.7926H530.204V74.7153C530.204 78.1321 529.558 81.3971 528.267 84.5103C527.052 87.6234 525.306 90.3189 523.028 92.5968C520.674 94.9507 517.979 96.773 514.942 98.0638C511.98 99.3546 508.829 100 505.488 100Z" fill="white"/>
<path d="M462.155 29.7268C460.332 28.8916 458.7 28.474 457.257 28.474C454.22 28.474 451.714 29.537 449.74 31.663C447.614 33.941 446.551 36.5606 446.551 39.5218V75.7406H436.756V39.5218C436.756 35.4216 437.781 31.663 439.831 28.2462C441.957 24.8293 444.842 22.1718 448.487 20.2735C451.221 18.9827 454.144 18.3373 457.257 18.3373C459.763 18.3373 462.155 18.7929 464.432 19.704C466.71 20.6152 469.102 22.0958 471.608 24.1459L462.155 29.7268Z" fill="white"/>
<path d="M380.036 51.594C380.036 53.4163 380.681 55.3146 381.972 57.2888C383.338 59.263 384.895 60.9334 386.641 62.3002C389.831 64.8059 393.551 66.0587 397.803 66.0587C404.561 66.0587 410.066 62.7937 414.318 56.2637L422.974 61.389C420.013 66.1726 416.368 69.8552 412.04 72.4369C407.712 75.0185 402.966 76.3093 397.803 76.3093C393.931 76.3093 390.248 75.588 386.755 74.1453C383.263 72.6267 380.187 70.5386 377.53 67.881C374.872 65.2235 372.784 62.1483 371.266 58.6555C369.823 55.1627 369.102 51.4801 369.102 47.6077C369.102 43.7352 369.823 40.0526 371.266 36.5598C372.784 32.9911 374.872 29.8779 377.53 27.2204C380.111 24.5628 383.149 22.5127 386.641 21.07C390.21 19.6273 393.931 18.906 397.803 18.906C401.676 18.906 405.358 19.6273 408.851 21.07C412.42 22.5127 415.495 24.5628 418.077 27.2204C423.695 32.9911 426.505 39.6729 426.505 47.266C426.505 48.6327 426.391 50.0754 426.163 51.594H380.036ZM397.803 28.2454C394.69 28.2454 391.767 28.9288 389.033 30.2955C386.3 31.6623 384.098 33.4846 382.427 35.7625C380.833 37.9645 380.036 40.3183 380.036 42.824H415.571C415.571 40.3183 414.736 37.9645 413.065 35.7625C411.471 33.4846 409.307 31.6623 406.573 30.2955C403.84 28.9288 400.916 28.2454 397.803 28.2454Z" fill="white"/>
<path d="M354.847 29.0433V75.7405H345.166V29.0433H336.624V18.7927H345.166V0H354.847V18.7927H363.389V29.0433H354.847Z" fill="white"/>
<path d="M317.303 35.7628C317.075 34.3961 316.581 33.1052 315.822 31.8904C314.379 29.3847 311.532 28.1318 307.28 28.1318C305.002 28.1318 303.255 28.3976 302.041 28.9291C300.446 29.5365 299.231 30.4097 298.396 31.5487C297.637 32.6876 297.257 33.9405 297.257 35.3072C297.257 36.9777 297.864 38.4963 299.079 39.863C300.37 41.3057 302.458 42.065 305.344 42.1409C310.431 42.3687 314.531 42.9762 317.644 43.9633C320.833 44.9504 323.263 46.6588 324.934 49.0886C326.68 51.5183 327.553 54.9352 327.553 59.3392C327.553 63.819 325.845 67.6915 322.428 70.9565C320.757 72.551 318.783 73.8418 316.505 74.8289C314.303 75.816 311.987 76.3096 309.558 76.3096H307.849C301.775 76.3096 296.877 74.5632 293.157 71.0704C290.119 68.261 288.221 64.3126 287.462 59.2253H297.599C297.978 61.0476 298.738 62.5282 299.877 63.6672C301.623 65.3376 304.053 66.1729 307.166 66.1729C308.001 66.1729 308.609 66.1349 308.988 66.059C311.646 65.9071 313.734 65.1858 315.252 63.895C316.771 62.5282 317.53 60.8578 317.53 58.8836C317.53 56.1501 316.695 54.3657 315.025 53.5305C313.354 52.6953 310.127 52.2776 305.344 52.2776C299.345 52.2776 294.751 50.3794 291.562 46.5829C288.981 43.6975 287.69 40.0529 287.69 35.6489C287.69 34.6618 287.728 33.9025 287.804 33.371C288.411 28.4355 290.423 24.677 293.84 22.0954C297.333 19.4378 301.927 18.109 307.621 18.109C311.798 18.109 315.442 19.0202 318.555 20.8425C320.757 22.2092 322.656 24.1075 324.25 26.5373C325.769 28.967 326.756 32.0043 327.211 35.6489L326.984 35.7628H317.303Z" fill="white"/>
<path d="M269.216 75.7408V67.0848C266.787 69.8942 263.977 72.1341 260.788 73.8046C257.599 75.475 254.22 76.3103 250.651 76.3103C246.703 76.3103 242.982 75.5889 239.49 74.1463C236.073 72.7036 233.036 70.6535 230.378 67.9959C227.72 65.4143 225.632 62.3771 224.114 58.8843C222.671 55.3156 221.95 51.595 221.95 47.7225C221.95 43.8501 222.671 40.1675 224.114 36.6747C225.632 33.1059 227.72 29.9928 230.378 27.3352C233.036 24.6777 236.073 22.6276 239.49 21.1849C242.982 19.7422 246.703 19.0209 250.651 19.0209C254.296 19.0209 257.713 19.7802 260.902 21.2988C264.167 22.8174 266.938 24.9434 269.216 27.6769V20.1598H279.467V75.7408H269.216ZM250.651 29.1576C248.146 29.1576 245.716 29.6511 243.362 30.6382C241.084 31.5494 239.11 32.8402 237.439 34.5107C235.769 36.1811 234.44 38.1933 233.453 40.5471C232.542 42.825 232.086 45.2168 232.086 47.7225C232.086 50.2282 232.542 52.62 233.453 54.8979C234.44 57.1758 235.769 59.15 237.439 60.8205C239.11 62.491 241.084 63.8197 243.362 64.8068C245.716 65.718 248.146 66.1736 250.651 66.1736C253.157 66.1736 255.549 65.718 257.827 64.8068C260.105 63.8197 262.079 62.491 263.749 60.8205C265.42 59.15 266.711 57.1758 267.622 54.8979C268.609 52.62 269.102 50.2282 269.102 47.7225C269.102 45.2168 268.609 42.825 267.622 40.5471C266.711 38.1933 265.42 36.1811 263.749 34.5107C262.079 32.8402 260.105 31.5494 257.827 30.6382C255.549 29.6511 253.157 29.1576 250.651 29.1576Z" fill="white"/>
<path d="M201.49 75.7403V40.091C201.49 36.9779 200.389 34.3583 198.187 32.2323C196.061 30.1062 193.441 29.0432 190.328 29.0432C187.291 29.0432 184.633 30.1062 182.355 32.2323C180.153 34.2824 179.052 36.864 179.052 39.9772V75.7403H168.688V39.9772C168.688 36.7881 167.625 34.2064 165.499 32.2323C163.221 30.1062 160.525 29.0432 157.412 29.0432C154.375 29.0432 151.793 30.1062 149.667 32.2323C147.39 34.5102 146.251 37.2057 146.251 40.3188V75.7403H136V20.1593H146.251V24.3735C147.541 22.7789 149.212 21.4502 151.262 20.3871C153.388 19.3241 155.438 18.7926 157.412 18.7926C160.753 18.7926 163.79 19.476 166.524 20.8427C169.333 22.1335 171.763 23.9559 173.813 26.3097C175.863 23.9559 178.293 22.1335 181.103 20.8427C183.912 19.476 186.987 18.7926 190.328 18.7926C193.289 18.7926 196.061 19.3241 198.642 20.3871C201.224 21.4502 203.502 22.9688 205.476 24.943C207.45 26.9171 208.969 29.233 210.032 31.8906C211.171 34.4722 211.74 37.2057 211.74 40.091V75.7403H201.49Z" fill="white"/>
</svg>
