<svg width="21" height="19" viewBox="0 0 21 19" fill="none" xmlns="http://www.w3.org/2000/svg">
<g clip-path="url(#clip0_642_185)">
<path d="M14.1346 0.507639C14.0267 0.457286 13.9404 0.507639 13.9404 0.629924V15.225L20.3352 18.4188C20.6517 18.5771 20.9107 18.4188 20.9107 18.0592V4.01075C20.9107 3.93882 20.8747 3.87408 20.81 3.84531L14.1346 0.507639Z" fill="#D0D2D3"/>
<path d="M6.97021 11.7437L13.8254 0.601352C13.8901 0.500646 14.0268 0.457487 14.1347 0.515033L20.7597 3.82393C20.8388 3.86709 20.8748 3.96779 20.8244 4.04692L13.9405 15.2252L6.97021 11.7437Z" fill="#A6A8AB"/>
<path d="M0.769756 0.802593C0.345354 0.586796 0.201489 0.745047 0.453253 1.15506L6.97034 11.7435L13.9406 15.2323L7.0135 3.97482C6.98472 3.92446 6.94157 3.8885 6.89121 3.85972L0.769756 0.802593Z" fill="#808184"/>
<path d="M6.97026 18.0663C6.97026 18.4188 6.7113 18.5843 6.3948 18.426L0.388436 15.4192C0.172638 15.3113 0 15.0308 0 14.7934V0.845707C0 0.60833 0.172638 0.500431 0.388436 0.60833L6.88394 3.85968C6.93429 3.88845 6.97026 3.9388 6.97026 3.99635V18.0663Z" fill="white"/>
</g>
<defs>
<clipPath id="clip0_642_185">
<rect width="20.9108" height="18" fill="white" transform="translate(0 0.484863)"/>
</clipPath>
</defs>
</svg>
