<svg width="147" height="28" viewBox="0 0 147 28" fill="none" xmlns="http://www.w3.org/2000/svg">
<path d="M25.352 16.264H20.096V16.504H24.344V16.984H22.472V17.104H20.6V17.464H19.376V17.824H18.848V18.184H16.328V18.664H20.096V19.144H18.176V19.384H19.856V19.624H20.864V19.984H21.224V20.344H21.56V20.584H21.584V21.064H22.088V21.184H21.824V21.304H21.224V21.424H19.832L19.76 21.664H19.016C18.952 21.776 18.88 21.856 18.8 21.904H19.688C19.608 21.968 19.496 22 19.352 22H15.008C14.864 22 14.752 21.968 14.672 21.904H13.76C13.68 21.856 13.608 21.776 13.544 21.664H14.264C14.216 21.584 14.192 21.504 14.192 21.424H15.584V21.304H16.184V21.184H16.448V21.064H15.944V20.584H15.92V20.344H15.584V19.984H15.224V19.624H14.216V19.384H12.536V19.144H14.456V18.664H5.96V19.144H9.392V19.384H8.888V19.984H8.984V20.344H8.528V20.584H8.36V21.064H8.432V21.184H10.208V21.304H8.72V21.424H9.584C9.584 21.504 9.56 21.584 9.512 21.664H8.192C8.144 21.776 8.064 21.856 7.952 21.904H7.808C7.728 21.968 7.608 22 7.448 22H3.104C2.96 22 2.848 21.968 2.768 21.904H2.936C2.888 21.872 2.84 21.84 2.792 21.808C2.76 21.76 2.728 21.712 2.696 21.664H4.04C3.992 21.584 3.968 21.504 3.968 21.424H3.08V21.304H4.568V21.184H2.792V21.064H2.72V20.584H2.888V20.344H3.344V19.984H3.248V19.384H3.752V19.144H0.32V18.664H5.504V18.184H0.776V17.824H0.656V17.464H2.624V17.104H3.32V16.984H1.784V16.504H5.144V16.264H7.496L7.424 16.144H3.152V16.024H3.944V15.904H3.344V15.424H3.368V15.184H3.92V14.824H3.8V14.344H3.152V14.224H0.992V13.984H2.864V13.864H2.792V13.624H3.848V13.384H4.424V13.024H0.632V12.544H3.656V12.304H0.968V11.944H3.752V11.704H3.416V11.464H2.504V11.344H2.96V10.984H5.72V10.624H5.312V10.384H3.032V10.264H2.912V9.904H4.04V9.424H1.544V9.184H2.408V9.064H2.648V8.824H2.096V8.464H4.256V8.104H3.152V7.624H4.976V7.504H4.4V7.024H6.536V6.664H1.52V6.304H6.848V5.944H4.496V5.704H2.696C2.712 5.624 2.736 5.56 2.768 5.512C2.816 5.448 2.864 5.392 2.912 5.344H3.032C3.128 5.248 3.264 5.2 3.44 5.2H7.232C7.456 5.2 7.64 5.248 7.784 5.344H7.664C7.76 5.392 7.84 5.448 7.904 5.512C7.968 5.576 8.016 5.64 8.048 5.704H9.872L9.968 5.848L10.016 5.944H12.392L12.608 6.304H7.28L7.496 6.664H12.488L12.704 7.024H10.592L10.88 7.504H11.456L11.528 7.624H9.704L9.992 8.104H11.072L11.288 8.464H9.152L9.368 8.824H9.92L10.064 9.064H9.824L9.896 9.184H9.032L9.176 9.424H11.672L11.96 9.904H10.832L11.048 10.264H11.168L11.24 10.384H13.016L13.088 10.264H12.44L12.656 9.904H13.448L13.736 9.424H13.304L13.448 9.184H11.504L11.576 9.064H14L14.144 8.824H13.952L14.168 8.464H15.608L15.824 8.104H15.896L16.184 7.624H15.08L15.152 7.504H17.672L17.96 7.024H17.816L18.032 6.664H14.336L14.552 6.304H18.104L18.32 5.944H15.704L15.752 5.848C15.784 5.784 15.816 5.736 15.848 5.704H15.896C15.944 5.64 16 5.576 16.064 5.512C16.128 5.448 16.2 5.392 16.28 5.344H16.232C16.376 5.248 16.56 5.2 16.784 5.2H20.576C20.736 5.2 20.872 5.248 20.984 5.344H21.056C21.104 5.392 21.144 5.448 21.176 5.512C21.224 5.56 21.256 5.624 21.272 5.704H21.224V5.944H23.864V6.304H20.312V6.664H24.008V7.024H24.152V7.504H21.632V7.624H22.736V8.104H22.664V8.464H21.224V8.824H21.416V9.064H18.992V9.184H20.936V9.424H21.368V9.904H20.6V10.264H21.224V10.384H22.352V10.624H19.88V10.984H21.656V11.344H21.224V11.464H21.32V11.704H21.656V11.944H18.872V12.304H21.56V12.544H18.536V13.024H22.328V13.384H21.752V13.624H20.696V13.864H20.768V13.984H18.896V14.224H21.056V14.344H21.704V14.824H21.152V15.184H20.744V15.424H21.224V15.904H21.44V16.024H22.472V16.144H25.352V16.264ZM14.12 10.384H13.52L13.664 10.624H13.976L14.12 10.384ZM11.288 11.344L11.36 11.464H12.296L12.368 11.608L12.464 11.464H12.368L12.44 11.344H12.848L13.064 10.984H11.552L11.768 11.344H11.288ZM14.84 15.184H15.512V14.824H15.056L14.84 15.184ZM8.984 15.904H9.584V16.024H8.792V16.144H10.424L10.352 16.024H9.968L9.872 15.904H9.656L9.368 15.424H9.416L9.272 15.184H9.008V15.424H8.984V15.904ZM19.712 16.264V16.144H16.832V16.024H15.8V15.904H15.584V15.424H15.2L14.888 15.904H15.128L15.056 16.024H15.44L15.368 16.144H13.4V16.264H10.784V16.504H7.424V16.984H8.96V17.104H8.264V17.464H6.296V17.824H6.416V18.184H13.208V17.824H13.736V17.464H11.72C11.672 17.528 11.624 17.592 11.576 17.656C11.528 17.72 11.464 17.776 11.384 17.824H11.312C11.168 17.92 11.008 17.968 10.832 17.968H9.152C8.96 17.968 8.792 17.92 8.648 17.824H8.72C8.656 17.776 8.592 17.72 8.528 17.656C8.48 17.592 8.432 17.528 8.384 17.464H10.856L10.784 17.368L10.616 17.104H9.752L9.68 16.984H11.36L11.048 16.504H13.856L13.712 16.264H19.712ZM18.704 16.984V16.504H15.56L15.272 16.984H13.616L13.544 17.104H14.408L14.24 17.368L14.168 17.464H14.96V17.104H16.832V16.984H18.704ZM39.0427 17.824H40.9387V18.184H37.2907V18.664H39.6427V19.144H37.5787V19.624H37.8427V19.984H37.6747V20.224H37.1707V20.464H37.1467V20.704H37.6507V21.184H38.3467V21.352C38.3467 21.384 38.3387 21.408 38.3227 21.424H34.0507C34.0347 21.456 34.0267 21.496 34.0267 21.544H35.6827C35.6347 21.704 35.5467 21.824 35.4187 21.904H34.9627C34.8827 21.968 34.7707 22 34.6267 22H22.1227C21.9947 22 21.8747 21.968 21.7627 21.904H22.2187C22.1067 21.824 22.0187 21.704 21.9547 21.544H20.2747C20.2587 21.512 20.2507 21.472 20.2507 21.424H24.5467V21.184H23.8507V20.704H23.3467V20.464H23.3707V20.224H23.8747V19.984H24.0427V19.624H23.7787V19.144H25.8427V18.664H23.4907V18.184H27.1387V17.824H25.2427V17.584H25.7947V17.344H26.0347V17.104H23.3707V16.864H22.7467V16.504H24.9787V16.384H23.2027V16.144H23.7307V15.904H24.1147V15.544H24.0667V15.064H23.8267V14.584H23.4667V14.344H23.7547V13.864H23.4907V13.624H23.8747V13.264H23.9707V12.904H24.4027V12.784H23.9947V12.304H23.6347V11.944H23.7307V11.584H23.7787V11.104H24.1387V10.624H23.6107V10.144H23.6827V9.664H24.3547V9.304H23.9947V8.944H23.8027V8.824H24.8107V8.464H26.5867V8.224H25.8667V7.984H23.5387V7.864H23.8027V7.504H23.8267V7.144H23.8987V6.664H23.8747V6.064H23.8267V5.848C23.8267 5.784 23.8347 5.736 23.8507 5.704H23.6107C23.6747 5.368 23.8827 5.2 24.2347 5.2H36.5467C36.9147 5.2 37.1227 5.368 37.1707 5.704H37.4107C37.4267 5.736 37.4347 5.784 37.4347 5.848V6.064H37.4827V6.664H37.5067V7.144H37.4347V7.504H37.4107V7.864H37.1467V7.984H39.4747V8.224H40.1947V8.464H38.4187V8.824H37.4107V8.944H37.6027V9.304H37.9627C37.9307 9.464 37.8747 9.584 37.7947 9.664H37.1227C37.0107 9.808 36.8507 9.88 36.6427 9.88H29.4427V10.144H29.3707V10.624H29.8987V11.104H29.5387V11.392H36.2107C36.3867 11.392 36.5387 11.456 36.6667 11.584H36.6187C36.6987 11.664 36.7547 11.784 36.7867 11.944H36.7147V12.304H37.0747V12.784H37.4827V12.904H37.0507V13.264H36.9547V13.624H36.5707V13.864H36.8347V14.344H36.5467V14.584H36.9067V15.064H37.1467V15.16C37.1467 15.336 37.1067 15.464 37.0267 15.544H37.0747C36.9467 15.72 36.7707 15.808 36.5467 15.808H29.8747V15.904H29.4907V16.144H28.9627V16.384H30.7387V16.504H28.5067V16.864H29.1307V17.104H31.7947V17.32H39.1867C39.2667 17.32 39.3307 17.328 39.3787 17.344H39.1147C39.2747 17.392 39.3947 17.472 39.4747 17.584H38.9227C38.9867 17.68 39.0267 17.76 39.0427 17.824ZM55.7225 7.384H51.2585V7.864H52.9625V8.224H54.8105V8.584H54.7625V8.944H55.4585V9.424H52.8425V9.544H52.3385V9.712C52.3385 9.824 52.3145 9.928 52.2665 10.024H53.9705C53.8585 10.248 53.6745 10.36 53.4185 10.36H49.4345V10.384H49.6745V10.864H49.7225V11.344H49.6025V11.824H49.2905V12.184H50.4905V12.424H49.4825V12.784H48.9545V13.264H49.8665V13.504H49.6985V13.984H49.5305V14.464H49.2425V14.944H48.9785V15.304H49.8665V15.664H49.5065V16.144H49.6505V16.264H49.8185V16.504H51.0185V16.864H50.2025V17.344H50.5625V17.824H49.5545V18.304H49.9625V18.544H50.1305V18.904H50.5145V19.384H50.3705V19.744H49.7465V20.104H49.6745V20.344H49.6505V20.704H49.9145V21.064H49.6985V21.352C49.6985 21.432 49.6905 21.496 49.6745 21.544H49.4345C49.3865 21.704 49.2985 21.824 49.1705 21.904H49.2185C49.1385 21.968 49.0265 22 48.8825 22H44.0825C43.9545 22 43.8345 21.968 43.7225 21.904H43.6745C43.5625 21.824 43.4745 21.704 43.4105 21.544H43.6265C43.6105 21.496 43.6025 21.432 43.6025 21.352V21.064H43.8185V20.704H43.5545V20.344H43.5785V20.104H43.6505V19.744H44.2745V19.384H44.4185V18.904H44.0345V18.544H43.8665V18.304H43.4585V17.824H44.4665V17.344H44.1065V16.864H44.9225V16.504H43.7225V16.264H43.5545V16.144H43.4105V15.664H43.7705V15.304H42.8825V14.944H43.1465V14.464H43.4345V13.984H43.6025V13.504H43.7705V13.264H42.8585V12.784H43.3865V12.424H44.3945V12.184H43.1945V11.824H43.5065V11.344H43.6265V10.864H43.5785V10.384H43.3385V10.36H39.3545C39.1145 10.36 38.9225 10.248 38.7785 10.024H37.0745C37.0585 9.976 37.0425 9.928 37.0265 9.88C36.9945 9.832 36.9785 9.776 36.9785 9.712V9.544H37.4825V9.424H40.0985V8.944H39.4025V8.584H39.4505V8.224H37.6025V7.864H35.8985V7.384H40.3625V7.024H37.8665V6.544H38.3465V6.064H38.9705V5.944H39.3305V5.848C39.3305 5.688 39.3785 5.56 39.4745 5.464H38.9465C39.0745 5.288 39.2505 5.2 39.4745 5.2H53.5385C53.7625 5.2 53.9385 5.288 54.0665 5.464H54.5705C54.6505 5.576 54.6905 5.704 54.6905 5.848V5.944H54.3305V6.064H53.7065V6.544H53.2265V7.024H55.7225V7.384ZM71.4783 20.704L71.6463 21.184H71.2383L71.2863 21.304C71.2863 21.32 71.2863 21.344 71.2863 21.376C71.3023 21.392 71.3103 21.408 71.3103 21.424H71.1663V21.472C71.1663 21.664 71.0943 21.808 70.9503 21.904H70.9743C70.8943 21.968 70.7903 22 70.6623 22H66.2223C66.1103 22 66.0143 21.992 65.9343 21.976C65.8703 21.944 65.7983 21.92 65.7183 21.904C65.5903 21.84 65.4943 21.768 65.4303 21.688C65.3663 21.592 65.3183 21.504 65.2863 21.424H65.4063V21.4L65.3583 21.304L65.3103 21.184H65.7183L65.5503 20.704H65.0943L65.0223 20.464H66.0063L65.8383 19.984H65.5503L65.4783 19.816H60.3183L60.2703 19.984H59.9823L59.8143 20.464H59.5503L59.4543 20.704H59.3103L59.1423 21.184H59.1663L59.1183 21.304L59.0943 21.4L59.0703 21.424H58.9503C58.9183 21.504 58.8703 21.592 58.8063 21.688C58.7423 21.768 58.6463 21.84 58.5183 21.904H59.2383C59.1743 21.92 59.1023 21.944 59.0223 21.976C58.9423 21.992 58.8463 22 58.7343 22H54.2943C54.1663 22 54.0703 21.968 54.0063 21.904H53.2863C53.1263 21.792 53.0463 21.648 53.0463 21.472V21.424H53.1903C53.1903 21.376 53.1983 21.336 53.2143 21.304L53.2383 21.184H53.2143L53.3823 20.704H53.5263L53.6223 20.464H53.8863L54.0543 19.984H54.3183L54.4863 19.504H53.5503L53.6463 19.264H53.5743L53.6943 18.904H53.9343L53.9823 18.784H53.4543L53.6223 18.304H54.4383L54.5103 18.064H53.7663L53.8143 17.944H53.9343L54.1023 17.464H54.0303L54.1503 17.104H54.2463L54.4143 16.624H54.7263L54.8463 16.264L54.8943 16.144H56.0943L56.1423 16.024H56.0703L56.1903 15.664H54.8463L55.0143 15.184H55.4463L55.4943 15.064H55.2303L55.2783 14.944H56.0463L56.2143 14.464H55.2783L55.3743 14.224H55.7343L55.9023 13.744H55.6863L55.8063 13.384H56.0703L56.2383 12.904H56.1663L56.2143 12.784H55.6623L55.7583 12.544H56.2863L56.4063 12.184H56.1663L56.1903 12.064H56.6223L56.7903 11.584H56.2623L56.3823 11.224H56.1183L56.1903 10.984H54.5343L54.6063 10.744H54.2943L54.4623 10.264H54.1503L54.2943 9.904H55.2303L55.3983 9.424H57.7983L57.9183 9.064H56.7663L56.8623 8.824H57.7503L57.9183 8.344H57.1263L57.2463 7.984H57.7503L57.9183 7.504H57.8463L58.0143 7.024H57.3423L57.3663 6.904H59.6703L59.8383 6.424H59.7663L59.8143 6.304H58.9743L59.0703 5.992L59.1423 5.824H59.3823L59.5263 5.584H59.4543C59.5343 5.472 59.6463 5.384 59.7903 5.32C59.9343 5.24 60.1103 5.2 60.3183 5.2H65.5263C65.7343 5.2 65.9103 5.24 66.0543 5.32C66.1983 5.384 66.3103 5.472 66.3903 5.584H66.4863L66.6303 5.824H66.3903C66.4223 5.888 66.4383 5.944 66.4383 5.992L66.5583 6.304H67.3983L67.4223 6.424H67.4943L67.6623 6.904H65.3823L65.4303 7.024H66.1023L66.2703 7.504H66.3423L66.5103 7.984H66.0063L66.1263 8.344H66.9183L67.0863 8.824H66.1983L66.2943 9.064H67.4463L67.5663 9.424H65.1663L65.3343 9.904H64.3983L64.5183 10.264H64.8063L64.9743 10.744H64.0383L64.1343 10.984H67.9503L68.0223 11.224H67.8303L67.9503 11.584H67.4703L67.6383 12.064H67.0623L67.0863 12.184H67.9503L68.0703 12.544H68.0943L68.1903 12.784H67.3983L67.4463 12.904H68.2143L68.3823 13.384H68.6463L68.7663 13.744H68.6943L68.8623 14.224H69.2463L69.3423 14.464H68.6463L68.8143 14.944H69.2943L69.3183 15.064H69.1983L69.2463 15.184H68.8143L68.9583 15.664H70.3263L70.4463 16.024H70.5183L70.5663 16.144H69.3423L69.3903 16.264H69.4143L69.5343 16.624H69.2223L69.3903 17.104H69.2703L69.4143 17.464H69.4863L69.6543 17.944H69.5343L69.5823 18.064H70.3263L70.4223 18.304H69.5823L69.7503 18.784H70.2783L70.3263 18.904H70.0863L70.2303 19.264H70.2783L70.3743 19.504H71.3103L71.4783 19.984H71.7663L71.9343 20.464H70.9503L71.0223 20.704H71.4783ZM61.4463 11.224H61.7343L61.6143 11.584H62.5983L62.4783 11.224H62.6703L62.5983 10.984H61.5183L61.4463 11.224ZM62.2383 12.064L62.1183 11.656L61.9983 12.064H62.2383ZM60.7983 14.944L60.7503 15.064H61.0143L60.9903 15.136H63.7023L63.6783 15.064H63.7983L63.7743 14.944H63.2943L63.1503 14.464H63.8463L63.7743 14.224H63.3663L63.2223 13.744H63.2943L63.1983 13.384H62.9343L62.7903 12.904H62.0223L61.9743 12.784H62.7663L62.6943 12.544H62.6703L62.5503 12.184H61.7823L61.6863 12.544H61.1583L61.0863 12.784H61.6143L61.5903 12.904H61.6623L61.5183 13.384H61.2543L61.1343 13.744H61.3503L61.2063 14.224H60.8463L60.7743 14.464H61.7103L61.5663 14.944H60.7983ZM94.5395 16.264H89.2835V16.504H93.5315V16.984H91.6595V17.104H89.7875V17.464H88.5635V17.824H88.0355V18.184H85.5155V18.664H89.2835V19.144H87.3635V19.384H89.0435V19.624H90.0515V19.984H90.4115V20.344H90.7475V20.584H90.7715V21.064H91.2755V21.184H91.0115V21.304H90.4115V21.424H89.0195L88.9475 21.664H88.2035C88.1395 21.776 88.0675 21.856 87.9875 21.904H88.8755C88.7955 21.968 88.6835 22 88.5395 22H84.1955C84.0515 22 83.9395 21.968 83.8595 21.904H82.9475C82.8675 21.856 82.7955 21.776 82.7315 21.664H83.4515C83.4035 21.584 83.3795 21.504 83.3795 21.424H84.7715V21.304H85.3715V21.184H85.6355V21.064H85.1315V20.584H85.1075V20.344H84.7715V19.984H84.4115V19.624H83.4035V19.384H81.7235V19.144H83.6435V18.664H75.1475V19.144H78.5795V19.384H78.0755V19.984H78.1715V20.344H77.7155V20.584H77.5475V21.064H77.6195V21.184H79.3955V21.304H77.9075V21.424H78.7715C78.7715 21.504 78.7475 21.584 78.6995 21.664H77.3795C77.3315 21.776 77.2515 21.856 77.1395 21.904H76.9955C76.9155 21.968 76.7955 22 76.6355 22H72.2915C72.1475 22 72.0355 21.968 71.9555 21.904H72.1235C72.0755 21.872 72.0275 21.84 71.9795 21.808C71.9475 21.76 71.9155 21.712 71.8835 21.664H73.2275C73.1795 21.584 73.1555 21.504 73.1555 21.424H72.2675V21.304H73.7555V21.184H71.9795V21.064H71.9075V20.584H72.0755V20.344H72.5315V19.984H72.4355V19.384H72.9395V19.144H69.5075V18.664H74.6915V18.184H69.9635V17.824H69.8435V17.464H71.8115V17.104H72.5075V16.984H70.9715V16.504H74.3315V16.264H76.6835L76.6115 16.144H72.3395V16.024H73.1315V15.904H72.5315V15.424H72.5555V15.184H73.1075V14.824H72.9875V14.344H72.3395V14.224H70.1795V13.984H72.0515V13.864H71.9795V13.624H73.0355V13.384H73.6115V13.024H69.8195V12.544H72.8435V12.304H70.1555V11.944H72.9395V11.704H72.6035V11.464H71.6915V11.344H72.1475V10.984H74.9075V10.624H74.4995V10.384H72.2195V10.264H72.0995V9.904H73.2275V9.424H70.7315V9.184H71.5955V9.064H71.8355V8.824H71.2835V8.464H73.4435V8.104H72.3395V7.624H74.1635V7.504H73.5875V7.024H75.7235V6.664H70.7075V6.304H76.0355V5.944H73.6835V5.704H71.8835C71.8995 5.624 71.9235 5.56 71.9555 5.512C72.0035 5.448 72.0515 5.392 72.0995 5.344H72.2195C72.3155 5.248 72.4515 5.2 72.6275 5.2H76.4195C76.6435 5.2 76.8275 5.248 76.9715 5.344H76.8515C76.9475 5.392 77.0275 5.448 77.0915 5.512C77.1555 5.576 77.2035 5.64 77.2355 5.704H79.0595L79.1555 5.848L79.2035 5.944H81.5795L81.7955 6.304H76.4675L76.6835 6.664H81.6755L81.8915 7.024H79.7795L80.0675 7.504H80.6435L80.7155 7.624H78.8915L79.1795 8.104H80.2595L80.4755 8.464H78.3395L78.5555 8.824H79.1075L79.2515 9.064H79.0115L79.0835 9.184H78.2195L78.3635 9.424H80.8595L81.1475 9.904H80.0195L80.2355 10.264H80.3555L80.4275 10.384H82.2035L82.2755 10.264H81.6275L81.8435 9.904H82.6355L82.9235 9.424H82.4915L82.6355 9.184H80.6915L80.7635 9.064H83.1875L83.3315 8.824H83.1395L83.3555 8.464H84.7955L85.0115 8.104H85.0835L85.3715 7.624H84.2675L84.3395 7.504H86.8595L87.1475 7.024H87.0035L87.2195 6.664H83.5235L83.7395 6.304H87.2915L87.5075 5.944H84.8915L84.9395 5.848C84.9715 5.784 85.0035 5.736 85.0355 5.704H85.0835C85.1315 5.64 85.1875 5.576 85.2515 5.512C85.3155 5.448 85.3875 5.392 85.4675 5.344H85.4195C85.5635 5.248 85.7475 5.2 85.9715 5.2H89.7635C89.9235 5.2 90.0595 5.248 90.1715 5.344H90.2435C90.2915 5.392 90.3315 5.448 90.3635 5.512C90.4115 5.56 90.4435 5.624 90.4595 5.704H90.4115V5.944H93.0515V6.304H89.4995V6.664H93.1955V7.024H93.3395V7.504H90.8195V7.624H91.9235V8.104H91.8515V8.464H90.4115V8.824H90.6035V9.064H88.1795V9.184H90.1235V9.424H90.5555V9.904H89.7875V10.264H90.4115V10.384H91.5395V10.624H89.0675V10.984H90.8435V11.344H90.4115V11.464H90.5075V11.704H90.8435V11.944H88.0595V12.304H90.7475V12.544H87.7235V13.024H91.5155V13.384H90.9395V13.624H89.8835V13.864H89.9555V13.984H88.0835V14.224H90.2435V14.344H90.8915V14.824H90.3395V15.184H89.9315V15.424H90.4115V15.904H90.6275V16.024H91.6595V16.144H94.5395V16.264ZM83.3075 10.384H82.7075L82.8515 10.624H83.1635L83.3075 10.384ZM80.4755 11.344L80.5475 11.464H81.4835L81.5555 11.608L81.6515 11.464H81.5555L81.6275 11.344H82.0355L82.2515 10.984H80.7395L80.9555 11.344H80.4755ZM84.0275 15.184H84.6995V14.824H84.2435L84.0275 15.184ZM78.1715 15.904H78.7715V16.024H77.9795V16.144H79.6115L79.5395 16.024H79.1555L79.0595 15.904H78.8435L78.5555 15.424H78.6035L78.4595 15.184H78.1955V15.424H78.1715V15.904ZM88.8995 16.264V16.144H86.0195V16.024H84.9875V15.904H84.7715V15.424H84.3875L84.0755 15.904H84.3155L84.2435 16.024H84.6275L84.5555 16.144H82.5875V16.264H79.9715V16.504H76.6115V16.984H78.1475V17.104H77.4515V17.464H75.4835V17.824H75.6035V18.184H82.3955V17.824H82.9235V17.464H80.9075C80.8595 17.528 80.8115 17.592 80.7635 17.656C80.7155 17.72 80.6515 17.776 80.5715 17.824H80.4995C80.3555 17.92 80.1955 17.968 80.0195 17.968H78.3395C78.1475 17.968 77.9795 17.92 77.8355 17.824H77.9075C77.8435 17.776 77.7795 17.72 77.7155 17.656C77.6675 17.592 77.6195 17.528 77.5715 17.464H80.0435L79.9715 17.368L79.8035 17.104H78.9395L78.8675 16.984H80.5475L80.2355 16.504H83.0435L82.8995 16.264H88.8995ZM87.8915 16.984V16.504H84.7475L84.4595 16.984H82.8035L82.7315 17.104H83.5955L83.4275 17.368L83.3555 17.464H84.1475V17.104H86.0195V16.984H87.8915ZM110.15 20.704L110.318 21.184H109.91L109.958 21.304C109.958 21.32 109.958 21.344 109.958 21.376C109.974 21.392 109.982 21.408 109.982 21.424H109.838V21.472C109.838 21.664 109.766 21.808 109.622 21.904H109.646C109.566 21.968 109.462 22 109.334 22H104.894C104.782 22 104.686 21.992 104.606 21.976C104.542 21.944 104.47 21.92 104.39 21.904C104.262 21.84 104.166 21.768 104.102 21.688C104.038 21.592 103.99 21.504 103.958 21.424H104.078V21.4L104.03 21.304L103.982 21.184H104.39L104.222 20.704H103.766L103.694 20.464H104.678L104.51 19.984H104.222L104.15 19.816H98.9902L98.9422 19.984H98.6542L98.4862 20.464H98.2222L98.1262 20.704H97.9822L97.8142 21.184H97.8382L97.7902 21.304L97.7662 21.4L97.7422 21.424H97.6222C97.5902 21.504 97.5422 21.592 97.4782 21.688C97.4142 21.768 97.3182 21.84 97.1902 21.904H97.9102C97.8462 21.92 97.7742 21.944 97.6942 21.976C97.6142 21.992 97.5182 22 97.4062 22H92.9662C92.8382 22 92.7422 21.968 92.6782 21.904H91.9582C91.7982 21.792 91.7182 21.648 91.7182 21.472V21.424H91.8622C91.8622 21.376 91.8702 21.336 91.8862 21.304L91.9102 21.184H91.8862L92.0542 20.704H92.1982L92.2942 20.464H92.5582L92.7262 19.984H92.9902L93.1582 19.504H92.2222L92.3182 19.264H92.2462L92.3662 18.904H92.6062L92.6542 18.784H92.1262L92.2942 18.304H93.1102L93.1822 18.064H92.4382L92.4862 17.944H92.6062L92.7742 17.464H92.7022L92.8222 17.104H92.9182L93.0862 16.624H93.3982L93.5182 16.264L93.5662 16.144H94.7662L94.8142 16.024H94.7422L94.8622 15.664H93.5182L93.6862 15.184H94.1182L94.1662 15.064H93.9022L93.9502 14.944H94.7182L94.8862 14.464H93.9502L94.0462 14.224H94.4062L94.5742 13.744H94.3582L94.4782 13.384H94.7422L94.9102 12.904H94.8382L94.8862 12.784H94.3342L94.4302 12.544H94.9582L95.0782 12.184H94.8382L94.8622 12.064H95.2942L95.4622 11.584H94.9342L95.0542 11.224H94.7902L94.8622 10.984H93.2062L93.2782 10.744H92.9662L93.1342 10.264H92.8222L92.9662 9.904H93.9022L94.0702 9.424H96.4702L96.5902 9.064H95.4382L95.5342 8.824H96.4222L96.5902 8.344H95.7982L95.9182 7.984H96.4222L96.5902 7.504H96.5182L96.6862 7.024H96.0142L96.0382 6.904H98.3422L98.5102 6.424H98.4382L98.4862 6.304H97.6462L97.7422 5.992L97.8142 5.824H98.0542L98.1982 5.584H98.1262C98.2062 5.472 98.3182 5.384 98.4622 5.32C98.6062 5.24 98.7822 5.2 98.9902 5.2H104.198C104.406 5.2 104.582 5.24 104.726 5.32C104.87 5.384 104.982 5.472 105.062 5.584H105.158L105.302 5.824H105.062C105.094 5.888 105.11 5.944 105.11 5.992L105.23 6.304H106.07L106.094 6.424H106.166L106.334 6.904H104.054L104.102 7.024H104.774L104.942 7.504H105.014L105.182 7.984H104.678L104.798 8.344H105.59L105.758 8.824H104.87L104.966 9.064H106.118L106.238 9.424H103.838L104.006 9.904H103.07L103.19 10.264H103.478L103.646 10.744H102.71L102.806 10.984H106.622L106.694 11.224H106.502L106.622 11.584H106.142L106.31 12.064H105.734L105.758 12.184H106.622L106.742 12.544H106.766L106.862 12.784H106.07L106.118 12.904H106.886L107.054 13.384H107.318L107.438 13.744H107.366L107.534 14.224H107.918L108.014 14.464H107.318L107.486 14.944H107.966L107.99 15.064H107.87L107.918 15.184H107.486L107.63 15.664H108.998L109.118 16.024H109.19L109.238 16.144H108.014L108.062 16.264H108.086L108.206 16.624H107.894L108.062 17.104H107.942L108.086 17.464H108.158L108.326 17.944H108.206L108.254 18.064H108.998L109.094 18.304H108.254L108.422 18.784H108.95L108.998 18.904H108.758L108.902 19.264H108.95L109.046 19.504H109.982L110.15 19.984H110.438L110.606 20.464H109.622L109.694 20.704H110.15ZM100.118 11.224H100.406L100.286 11.584H101.27L101.15 11.224H101.342L101.27 10.984H100.19L100.118 11.224ZM100.91 12.064L100.79 11.656L100.67 12.064H100.91ZM99.4702 14.944L99.4222 15.064H99.6862L99.6622 15.136H102.374L102.35 15.064H102.47L102.446 14.944H101.966L101.822 14.464H102.518L102.446 14.224H102.038L101.894 13.744H101.966L101.87 13.384H101.606L101.462 12.904H100.694L100.646 12.784H101.438L101.366 12.544H101.342L101.222 12.184H100.454L100.358 12.544H99.8302L99.7582 12.784H100.286L100.262 12.904H100.334L100.19 13.384H99.9262L99.8062 13.744H100.022L99.8782 14.224H99.5182L99.4462 14.464H100.382L100.238 14.944H99.4702ZM126.467 12.424H125.291C125.275 12.488 125.259 12.552 125.243 12.616C125.227 12.664 125.203 12.72 125.171 12.784H125.843L125.771 13.024H125.195C125.147 13.168 125.083 13.328 125.003 13.504H124.643C124.579 13.664 124.491 13.824 124.379 13.984H124.427C124.363 14.064 124.307 14.144 124.259 14.224C124.211 14.304 124.155 14.384 124.091 14.464H126.683L126.371 14.824H124.235C124.171 14.904 124.091 14.984 123.995 15.064C123.899 15.144 123.811 15.224 123.731 15.304H124.043C123.979 15.368 123.899 15.432 123.803 15.496C123.723 15.544 123.643 15.6 123.563 15.664H124.355L124.259 15.736L124.475 16.144H123.899L124.163 16.624H124.235L124.307 16.744H124.283L124.523 17.224H124.763L124.907 17.464H123.059L123.251 17.824H124.931L125.075 18.064H124.547L124.739 18.424H127.115L127.379 18.904H125.795L125.987 19.264H125.243L125.627 19.984H125.795L125.939 20.224H125.867L125.939 20.344H124.811L125.075 20.824L125.123 20.944H124.379L124.499 21.208C124.547 21.272 124.571 21.344 124.571 21.424H125.075V21.472C125.075 21.648 125.003 21.792 124.859 21.904H125.507C125.427 21.968 125.323 22 125.195 22H120.275C120.179 22 120.091 21.992 120.011 21.976C119.947 21.944 119.875 21.92 119.795 21.904H119.147C119.019 21.84 118.907 21.76 118.811 21.664C118.731 21.568 118.667 21.488 118.619 21.424H118.139L118.091 21.352L117.923 20.944H118.691L118.619 20.824H116.339V20.944H115.115V21.424H117.059C117.027 21.648 116.923 21.808 116.747 21.904H116.579C116.467 21.968 116.347 22 116.219 22H111.515C111.371 22 111.259 21.968 111.179 21.904H111.371C111.195 21.808 111.091 21.648 111.059 21.424H109.139C109.139 21.408 109.139 21.4 109.139 21.4C109.123 21.384 109.115 21.368 109.115 21.352V20.944H110.339V20.824H112.739V20.344H110.171V20.224H111.683V19.984H111.179V19.624H112.019V19.264H110.651V18.904H112.499V18.424H111.443V18.064H111.419V17.944H111.275V17.824H110.627V17.464H111.443V17.224H111.227V16.744H111.251V16.624H111.179V16.144H111.755V15.664H110.939V15.304H110.627V14.824H112.739V14.464H110.147V13.984H110.099V13.504H110.459V13.024H111.011V12.784H110.339V12.424H111.515V12.184H113.243V11.944H110.867V11.824H110.987V11.704H111.203V11.584H111.227V11.344H111.179V10.984H111.275V10.504H111.155V10.264H111.275V9.904H111.179V9.784H111.251V9.544H111.227V9.424H111.131V9.304H111.347V8.944H111.539V8.584H110.411V8.104H110.675V7.624H110.531V7.264H111.179V6.904H111.419V6.544H110.987V6.304H111.155V6.184H111.203V5.824H111.251C111.251 5.648 111.323 5.488 111.467 5.344H112.763C112.859 5.248 112.995 5.2 113.171 5.2H120.275C120.963 5.2 121.603 5.248 122.195 5.344H120.923C121.563 5.44 122.171 5.6 122.747 5.824H122.699C122.971 5.92 123.235 6.04 123.491 6.184H123.443L123.659 6.304H123.467C123.547 6.336 123.611 6.376 123.659 6.424C123.723 6.472 123.787 6.512 123.851 6.544H124.283C124.363 6.608 124.443 6.672 124.523 6.736C124.603 6.784 124.675 6.84 124.739 6.904H124.499C124.579 6.968 124.643 7.032 124.691 7.096C124.755 7.144 124.819 7.2 124.883 7.264H124.235C124.299 7.328 124.355 7.392 124.403 7.456C124.451 7.504 124.499 7.56 124.547 7.624H124.667C124.795 7.784 124.907 7.944 125.003 8.104H124.763C124.811 8.168 124.851 8.248 124.883 8.344C124.931 8.424 124.979 8.504 125.027 8.584H126.155L126.299 8.944H126.107C126.123 9.008 126.139 9.072 126.155 9.136C126.187 9.184 126.211 9.24 126.227 9.304H125.987L126.035 9.424H126.131C126.147 9.456 126.155 9.496 126.155 9.544L126.227 9.784H126.299C126.299 9.832 126.307 9.872 126.323 9.904H126.347C126.363 9.968 126.371 10.032 126.371 10.096C126.387 10.144 126.395 10.2 126.395 10.264H126.083C126.083 10.296 126.083 10.336 126.083 10.384C126.083 10.432 126.091 10.472 126.107 10.504H126.251C126.251 10.584 126.251 10.664 126.251 10.744C126.267 10.824 126.275 10.904 126.275 10.984V11.224H126.419V11.344H126.275V11.584H126.035C126.035 11.6 126.027 11.616 126.011 11.632C126.011 11.648 126.011 11.672 126.011 11.704H126.251C126.251 11.72 126.243 11.736 126.227 11.752C126.227 11.768 126.227 11.792 126.227 11.824H127.355C127.339 11.856 127.331 11.896 127.331 11.944H127.643L127.619 12.184H126.515C126.483 12.28 126.467 12.36 126.467 12.424ZM116.867 11.944H119.243V12.184H117.515V12.208H119.267C119.379 12.208 119.467 12.2 119.531 12.184H120.635C120.811 12.136 120.971 12.056 121.115 11.944H120.779L120.899 11.824H119.771C119.819 11.776 119.851 11.736 119.867 11.704H119.627L119.699 11.584H119.939L120.011 11.344H120.131C120.147 11.312 120.155 11.272 120.155 11.224H120.011L120.035 10.984C120.035 10.824 120.011 10.664 119.963 10.504H119.819C119.803 10.472 119.787 10.432 119.771 10.384C119.771 10.336 119.755 10.296 119.723 10.264H120.059C119.995 10.136 119.907 10.016 119.795 9.904H119.747C119.699 9.856 119.643 9.816 119.579 9.784H119.507C119.347 9.704 119.179 9.664 119.003 9.664H117.251V9.784H117.179V9.904H117.275V10.264H117.155V10.504H117.275V10.984H117.179V11.344H117.227V11.584H117.203V11.704H116.987V11.824H116.867V11.944ZM118.763 17.464L118.667 17.224H118.403L118.211 16.768H117.227V17.224H117.443V17.464H118.763ZM116.627 17.464V17.824H117.083L116.939 17.464H116.627ZM118.811 17.944L118.763 17.824H117.275V17.944H117.419V18.064H117.443V18.424H118.499V18.904H116.651V19.264H118.019V19.624H117.179V19.984H117.683V20.224H116.171V20.344H119.555L119.483 20.224H119.555L119.435 19.984H119.243L119.099 19.624L118.931 19.264H119.699L119.531 18.904H121.091L120.875 18.424H118.499L118.355 18.064H118.883L118.811 17.944ZM143.308 19.624H142.324L142.108 19.864H145.78C145.764 19.88 145.748 19.896 145.732 19.912C145.716 19.928 145.692 19.952 145.66 19.984H139.996C139.916 20.064 139.828 20.144 139.732 20.224C139.652 20.304 139.564 20.384 139.468 20.464H141.22L140.908 20.704H144.172L143.98 20.824H142.564C142.548 20.84 142.516 20.856 142.468 20.872C142.436 20.888 142.404 20.912 142.372 20.944H140.764L140.092 21.304H141.028C140.82 21.4 140.612 21.488 140.404 21.568C140.196 21.632 139.98 21.704 139.756 21.784H138.892C138.348 21.944 137.756 22.064 137.116 22.144H137.236C136.98 22.176 136.716 22.2 136.444 22.216C136.172 22.232 135.9 22.24 135.628 22.24C135.324 22.24 135.02 22.232 134.716 22.216C134.428 22.2 134.148 22.176 133.876 22.144H133.78C133.092 22.064 132.476 21.944 131.932 21.784H132.796C132.556 21.704 132.332 21.632 132.124 21.568C131.916 21.488 131.708 21.4 131.5 21.304H130.564C130.452 21.24 130.34 21.184 130.228 21.136C130.116 21.072 130.004 21.008 129.892 20.944H131.524L131.332 20.824H132.748C132.732 20.792 132.708 20.768 132.676 20.752C132.644 20.736 132.612 20.72 132.58 20.704H129.316C129.252 20.672 129.196 20.632 129.148 20.584C129.1 20.536 129.052 20.496 129.004 20.464H127.228C127.148 20.384 127.068 20.304 126.988 20.224C126.892 20.144 126.804 20.064 126.724 19.984H132.388C132.372 19.952 132.356 19.928 132.34 19.912C132.324 19.896 132.308 19.88 132.292 19.864H128.62C128.556 19.8 128.492 19.72 128.428 19.624H129.412C129.396 19.592 129.38 19.568 129.364 19.552C129.348 19.536 129.332 19.52 129.316 19.504H132.316L132.1 19.144H130.612L130.54 19.024H127.156C127.14 18.96 127.116 18.904 127.084 18.856C127.052 18.792 127.02 18.728 126.988 18.664H128.596L128.452 18.304H127.876L127.828 18.184H128.092C128.076 18.12 128.06 18.064 128.044 18.016C128.028 17.952 128.012 17.888 127.996 17.824H127.804C127.804 17.76 127.796 17.704 127.78 17.656C127.78 17.592 127.772 17.528 127.756 17.464H127.564C127.564 17.4 127.556 17.344 127.54 17.296C127.54 17.248 127.54 17.192 127.54 17.128V17.104H127.516C127.516 17.072 127.516 17.048 127.516 17.032C127.532 17.016 127.54 17 127.54 16.984H128.092C128.172 16.728 128.34 16.6 128.596 16.6H133.156C133.412 16.6 133.604 16.632 133.732 16.696C133.86 16.76 134.004 16.856 134.164 16.984H133.612L133.636 17.008C133.668 17.024 133.692 17.04 133.708 17.056C133.74 17.072 133.764 17.088 133.78 17.104H133.804C134.012 17.264 134.268 17.384 134.572 17.464H134.788C134.996 17.528 135.276 17.56 135.628 17.56C135.836 17.56 136.028 17.552 136.204 17.536C136.38 17.52 136.532 17.496 136.66 17.464H136.588C136.956 17.384 137.188 17.264 137.284 17.104H137.236C137.268 17.04 137.284 17 137.284 16.984H137.524L137.548 16.888C137.548 16.744 137.492 16.616 137.38 16.504H137.188C137.044 16.36 136.788 16.24 136.42 16.144H136.348C136.204 16.096 136.036 16.056 135.844 16.024C135.652 15.976 135.428 15.936 135.172 15.904H135.028L134.044 15.76C133.932 15.744 133.82 15.728 133.708 15.712C133.612 15.696 133.508 15.68 133.396 15.664C132.74 15.552 132.108 15.392 131.5 15.184H131.068C130.844 15.104 130.636 15.024 130.444 14.944H130.108C130.028 14.912 129.948 14.88 129.868 14.848C129.788 14.8 129.708 14.752 129.628 14.704H127.54C127.428 14.64 127.324 14.584 127.228 14.536C127.132 14.472 127.036 14.408 126.94 14.344H131.404C131.324 14.28 131.244 14.224 131.164 14.176C131.1 14.112 131.028 14.048 130.948 13.984H126.172C126.124 13.952 126.084 13.912 126.052 13.864C126.004 13.816 125.964 13.776 125.932 13.744H127.18C127.036 13.584 126.9 13.424 126.772 13.264H127.132L126.988 13.024H124.684C124.668 12.992 124.652 12.968 124.636 12.952C124.62 12.936 124.612 12.92 124.612 12.904H130.084C130.052 12.84 130.02 12.784 129.988 12.736C129.956 12.672 129.924 12.608 129.892 12.544H125.692L125.548 12.184H128.932L128.884 12.064H127.876L127.828 11.944H128.308C128.308 11.912 128.3 11.888 128.284 11.872C128.284 11.856 128.284 11.84 128.284 11.824H128.188L128.116 11.584H127.972L127.948 11.344H127.9V11.224H127.132C127.116 11.192 127.108 11.152 127.108 11.104C127.108 11.056 127.108 11.016 127.108 10.984H126.412L126.388 10.744H129.124C129.108 10.712 129.1 10.672 129.1 10.624C129.1 10.576 129.1 10.536 129.1 10.504H129.484V10.48C129.484 10.4 129.484 10.32 129.484 10.24C129.484 10.16 129.492 10.088 129.508 10.024H128.476C128.492 9.96 128.5 9.904 128.5 9.856C128.5 9.792 128.508 9.728 128.524 9.664H130.204C130.204 9.632 130.204 9.608 130.204 9.592C130.22 9.576 130.228 9.56 130.228 9.544H128.524C128.556 9.448 128.572 9.368 128.572 9.304H128.308L128.38 9.064H127.972C128.02 8.888 128.076 8.728 128.14 8.584H128.332L128.428 8.344H128.692L128.908 7.984H128.668C128.716 7.92 128.756 7.864 128.788 7.816C128.836 7.752 128.876 7.688 128.908 7.624H128.716L129.004 7.264H129.508C129.524 7.232 129.54 7.208 129.556 7.192C129.572 7.176 129.588 7.16 129.604 7.144H128.932C128.996 7.08 129.06 7.024 129.124 6.976C129.188 6.912 129.252 6.848 129.316 6.784H129.7C129.796 6.704 129.892 6.624 129.988 6.544C130.084 6.448 130.188 6.368 130.3 6.304H130.732C130.828 6.24 130.924 6.184 131.02 6.136C131.116 6.072 131.22 6.008 131.332 5.944H131.26C131.292 5.912 131.332 5.888 131.38 5.872C131.428 5.856 131.468 5.84 131.5 5.824H131.164C131.196 5.792 131.236 5.768 131.284 5.752C131.332 5.736 131.38 5.72 131.428 5.704H131.188C131.412 5.608 131.644 5.52 131.884 5.44C132.14 5.36 132.396 5.288 132.652 5.224H133.012C133.38 5.144 133.764 5.08 134.164 5.032C134.58 4.984 135.012 4.96 135.46 4.96C136.308 4.96 137.108 5.048 137.86 5.224H137.524C138.036 5.336 138.532 5.496 139.012 5.704H139.228C139.276 5.72 139.324 5.736 139.372 5.752C139.42 5.768 139.468 5.792 139.516 5.824H139.852C139.884 5.84 139.924 5.856 139.972 5.872C140.02 5.888 140.06 5.912 140.092 5.944H140.164C140.276 6.008 140.38 6.072 140.476 6.136C140.588 6.184 140.692 6.24 140.788 6.304H140.38C140.508 6.368 140.62 6.448 140.716 6.544C140.828 6.624 140.932 6.704 141.028 6.784H140.668L141.052 7.144H141.724L141.844 7.264H141.34C141.404 7.328 141.46 7.392 141.508 7.456C141.572 7.504 141.628 7.56 141.676 7.624H141.868L142.156 7.984H142.372L142.588 8.344H142.324C142.372 8.424 142.412 8.504 142.444 8.584H142.252C142.3 8.664 142.34 8.744 142.372 8.824C142.404 8.904 142.436 8.984 142.468 9.064H142.876C142.908 9.16 142.924 9.24 142.924 9.304H143.212C143.228 9.336 143.236 9.376 143.236 9.424C143.236 9.472 143.244 9.512 143.26 9.544H144.964V9.664H143.428C143.444 9.728 143.452 9.816 143.452 9.928V10.024H142.564C142.5 10.312 142.34 10.456 142.084 10.456H137.284C137.06 10.456 136.876 10.424 136.732 10.36C136.604 10.296 136.468 10.2 136.324 10.072L136.252 10.024H137.14C137.06 9.96 136.948 9.896 136.804 9.832C136.66 9.752 136.476 9.696 136.252 9.664H135.388C135.052 9.712 134.82 9.832 134.692 10.024H135.724C135.676 10.12 135.652 10.216 135.652 10.312C135.652 10.392 135.66 10.456 135.676 10.504H135.316C135.332 10.584 135.396 10.664 135.508 10.744H132.796C132.892 10.824 133.06 10.904 133.3 10.984H133.996C134.124 11.032 134.276 11.08 134.452 11.128C134.644 11.16 134.844 11.192 135.052 11.224H135.82C135.948 11.24 136.084 11.256 136.228 11.272C136.372 11.288 136.524 11.312 136.684 11.344H136.708C136.98 11.376 137.244 11.416 137.5 11.464C137.756 11.496 137.996 11.536 138.22 11.584H138.364C138.556 11.616 138.732 11.656 138.892 11.704C139.068 11.736 139.236 11.776 139.396 11.824H139.492C139.572 11.84 139.644 11.856 139.708 11.872C139.772 11.888 139.836 11.912 139.9 11.944H139.444C139.508 11.96 139.564 11.976 139.612 11.992C139.676 12.008 139.74 12.032 139.804 12.064H140.812C140.86 12.08 140.908 12.096 140.956 12.112C141.02 12.128 141.076 12.152 141.124 12.184H137.74C138.06 12.312 138.316 12.432 138.508 12.544H142.708C142.804 12.608 142.9 12.672 142.996 12.736C143.092 12.784 143.18 12.84 143.26 12.904H137.788C137.82 12.92 137.852 12.936 137.884 12.952C137.916 12.968 137.94 12.992 137.956 13.024H140.26C140.308 13.056 140.356 13.096 140.404 13.144C140.452 13.192 140.492 13.232 140.524 13.264H140.164C140.324 13.408 140.46 13.568 140.572 13.744H139.324C139.356 13.776 139.388 13.816 139.42 13.864C139.452 13.912 139.476 13.952 139.492 13.984H144.244L144.46 14.344H139.996C140.028 14.408 140.06 14.472 140.092 14.536C140.124 14.584 140.148 14.64 140.164 14.704H142.228L142.3 14.944H142.636L142.708 15.184H143.14C143.172 15.248 143.188 15.328 143.188 15.424C143.204 15.504 143.22 15.584 143.236 15.664L143.26 15.904H143.404C143.42 15.936 143.428 15.976 143.428 16.024C143.428 16.072 143.428 16.112 143.428 16.144H143.5V16.504H143.716V16.576C143.716 16.64 143.708 16.704 143.692 16.768C143.692 16.832 143.692 16.904 143.692 16.984H143.452V17.104H143.5C143.5 17.168 143.492 17.232 143.476 17.296C143.476 17.344 143.468 17.4 143.452 17.464H143.524L143.452 17.824H143.644C143.628 17.888 143.612 17.952 143.596 18.016C143.58 18.064 143.556 18.12 143.524 18.184H143.26C143.26 18.2 143.252 18.216 143.236 18.232C143.236 18.248 143.236 18.272 143.236 18.304H143.812L143.668 18.664H142.06C142.044 18.728 142.012 18.792 141.964 18.856C141.932 18.904 141.9 18.96 141.868 19.024H145.252L145.18 19.144H146.644C146.612 19.208 146.572 19.272 146.524 19.336C146.492 19.384 146.452 19.44 146.404 19.504H143.404C143.388 19.52 143.372 19.536 143.356 19.552C143.34 19.568 143.324 19.592 143.308 19.624ZM137.068 9.664H137.788C137.74 9.648 137.684 9.64 137.62 9.64C137.572 9.64 137.516 9.64 137.452 9.64C137.388 9.64 137.324 9.64 137.26 9.64C137.196 9.64 137.132 9.648 137.068 9.664Z" fill="white"/>
</svg>
