<svg width="161" height="24" viewBox="0 0 161 24" fill="none" xmlns="http://www.w3.org/2000/svg">
<g clip-path="url(#clip0_140_33)">
<mask id="mask0_140_33" style="mask-type:luminance" maskUnits="userSpaceOnUse" x="0" y="0" width="27" height="24">
<path d="M26.7431 0H0.626953V23.3546H26.7431V0Z" fill="white"/>
</mask>
<g mask="url(#mask0_140_33)">
<path d="M0.626953 0H26.7431V21.3353C26.7431 23.133 24.5695 24.0294 23.3021 22.757L13.6826 13.1038L0.626953 0Z" fill="white"/>
<path opacity="0.9" d="M26.7431 0H0.626953V21.3353C0.626953 23.133 2.80049 24.0294 4.06798 22.757L13.6826 13.1038L26.7431 0Z" fill="#00BFFF"/>
</g>
<path d="M37.779 18.8494H34.2269V7.23292H37.6154V8.56519C37.8959 8.06655 38.3554 7.66143 38.9942 7.34979C39.6485 7.03815 40.3029 6.88232 40.9572 6.88232C42.6242 6.88232 43.7693 7.49003 44.3925 8.70543C45.2337 7.49003 46.4333 6.88232 47.9913 6.88232C49.2065 6.88232 50.2269 7.25629 51.0526 8.00423C51.8783 8.73663 52.2912 9.84295 52.2912 11.3233V18.8494H48.8559V12.1179C48.8559 11.5413 48.7001 11.0739 48.3885 10.7155C48.0769 10.3416 47.6173 10.1545 47.0097 10.1545C46.4021 10.1545 45.927 10.3493 45.5842 10.7389C45.2415 11.1285 45.0701 11.5959 45.0701 12.1413V18.8494H41.5648V12.1179C41.5648 11.5413 41.4012 11.0739 41.0741 10.7155C40.7625 10.3416 40.3029 10.1545 39.6953 10.1545C39.1033 10.1545 38.6359 10.3493 38.2931 10.7389C37.9504 11.1285 37.779 11.6037 37.779 12.1646V18.8494Z" fill="white"/>
<path d="M58.843 18.8494H55.2909V7.23294H58.843V18.8494ZM55.5948 5.15273C55.1897 4.74759 54.9872 4.25676 54.9872 3.68022C54.9872 3.10368 55.1897 2.61285 55.5948 2.20771C55.9998 1.80257 56.4828 1.60001 57.0437 1.60001C57.6201 1.60001 58.1108 1.80257 58.5159 2.20771C58.9365 2.61285 59.1469 3.10368 59.1469 3.68022C59.1469 4.25676 58.9365 4.74759 58.5159 5.15273C58.1108 5.55786 57.6201 5.76043 57.0437 5.76043C56.4828 5.76043 55.9998 5.55786 55.5948 5.15273Z" fill="white"/>
<path d="M73.3822 1.92722V16.7692C73.3822 17.4704 73.4133 18.1637 73.4757 18.8494H70.0638C70.0015 18.4754 69.9703 18.1014 69.9703 17.7275C69.6899 18.1326 69.2693 18.4677 68.7084 18.7325C68.1631 18.9818 67.5477 19.1065 66.8622 19.1065C65.2109 19.1065 63.8399 18.5377 62.7493 17.4002C61.6588 16.2472 61.1135 14.7825 61.1135 13.0061C61.1135 11.2609 61.6432 9.81959 62.7025 8.68207C63.762 7.52898 65.1096 6.95245 66.7454 6.95245C68.3345 6.95245 69.3783 7.34979 69.8769 8.14447V1.92722H73.3822ZM65.4367 10.9025C64.9382 11.4011 64.6889 12.1101 64.6889 13.0295C64.6889 13.9488 64.9382 14.6656 65.4367 15.1798C65.9509 15.6785 66.5741 15.9277 67.3062 15.9277C68.0385 15.9277 68.6539 15.6785 69.1524 15.1798C69.6665 14.6656 69.9236 13.9488 69.9236 13.0295C69.9236 12.1101 69.6665 11.4011 69.1524 10.9025C68.6539 10.4039 68.0385 10.1545 67.3062 10.1545C66.5741 10.1545 65.9509 10.4039 65.4367 10.9025Z" fill="white"/>
<path d="M88.0109 1.92722V16.7692C88.0109 17.4704 88.0421 18.1637 88.1037 18.8494H84.6925C84.6301 18.4754 84.5989 18.1014 84.5989 17.7275C84.3181 18.1326 83.8973 18.4677 83.3365 18.7325C82.7917 18.9818 82.1765 19.1065 81.4909 19.1065C79.8393 19.1065 78.4683 18.5377 77.3777 17.4002C76.2872 16.2472 75.7419 14.7825 75.7419 13.0061C75.7419 11.2609 76.2716 9.81959 77.331 8.68207C78.3904 7.52898 79.738 6.95245 81.3741 6.95245C82.9629 6.95245 84.0069 7.34979 84.5053 8.14447V1.92722H88.0109ZM80.0652 10.9025C79.5666 11.4011 79.3173 12.1101 79.3173 13.0295C79.3173 13.9488 79.5666 14.6656 80.0652 15.1798C80.5793 15.6785 81.2021 15.9277 81.9349 15.9277C82.6669 15.9277 83.2821 15.6785 83.7805 15.1798C84.2949 14.6656 84.5517 13.9488 84.5517 13.0295C84.5517 12.1101 84.2949 11.4011 83.7805 10.9025C83.2821 10.4039 82.6669 10.1545 81.9349 10.1545C81.2021 10.1545 80.5793 10.4039 80.0652 10.9025Z" fill="white"/>
<path d="M94.7637 18.8494H91.2117V1.92722H94.7637V18.8494Z" fill="white"/>
<path d="M100.585 11.6505H105.236C105.205 11.1206 104.995 10.661 104.605 10.2714C104.231 9.88191 103.663 9.68711 102.899 9.68711C102.213 9.68711 101.669 9.88967 101.264 10.2948C100.858 10.6999 100.633 11.1518 100.585 11.6505ZM105.493 14.6656L108.461 15.507C108.165 16.5822 107.549 17.4704 106.615 18.1716C105.68 18.8572 104.512 19.2 103.109 19.2C101.427 19.2 99.9933 18.639 98.8093 17.5171C97.6413 16.3952 97.0573 14.8915 97.0573 13.0061C97.0573 11.1985 97.6253 9.72607 98.7629 8.58855C99.9157 7.45108 101.279 6.88232 102.853 6.88232C104.66 6.88232 106.077 7.41212 107.105 8.47167C108.149 9.51567 108.671 10.9726 108.671 12.8425C108.671 13.4346 108.648 13.8008 108.601 13.941H100.516C100.547 14.5799 100.82 15.1175 101.333 15.5537C101.848 15.9745 102.455 16.1849 103.157 16.1849C104.356 16.1849 105.135 15.6785 105.493 14.6656Z" fill="white"/>
<path d="M115.205 3.84381V7.23292H117.472V10.3416H115.205V14.6889C115.205 15.4993 115.633 15.9044 116.49 15.9044C116.771 15.9044 117.082 15.8654 117.425 15.7875V18.7325C116.989 18.9507 116.373 19.0597 115.579 19.0597C114.38 19.0597 113.429 18.7247 112.728 18.0547C112.043 17.3847 111.7 16.4731 111.7 15.3201V10.3416H109.644V7.23292H110.228C110.82 7.23292 111.264 7.06152 111.56 6.71872C111.871 6.36032 112.027 5.90065 112.027 5.3397V3.84381H115.205Z" fill="white"/>
<path d="M127.237 7.23292V10.7389C126.909 10.661 126.536 10.6221 126.115 10.6221C125.321 10.6221 124.666 10.8791 124.153 11.3933C123.653 11.9076 123.405 12.7022 123.405 13.7774V18.8494H119.853V7.23292H123.288V8.79895C123.568 8.20679 123.997 7.7783 124.573 7.5134C125.149 7.24851 125.725 7.11606 126.302 7.11606C126.661 7.11606 126.972 7.15501 127.237 7.23292Z" fill="white"/>
<path d="M136.801 18.8494C136.74 18.569 136.709 18.1794 136.709 17.6807C136.428 18.1482 136 18.5066 135.423 18.7559C134.846 18.9897 134.239 19.1065 133.601 19.1065C132.229 19.1065 131.146 18.678 130.352 17.821C129.573 16.9484 129.184 15.8654 129.184 14.5721V7.23294H132.736V13.8242C132.736 14.4163 132.891 14.8994 133.203 15.2733C133.53 15.6473 133.997 15.8342 134.605 15.8342C135.197 15.8342 135.665 15.655 136.007 15.2966C136.365 14.9227 136.545 14.4397 136.545 13.8475V7.23294H140.097V16.7692C140.097 17.5327 140.136 18.2261 140.213 18.8494H136.801Z" fill="white"/>
<path d="M142.263 15.5537L145.277 15.0162C145.309 15.4525 145.473 15.8265 145.769 16.1381C146.08 16.4341 146.524 16.5822 147.101 16.5822C147.537 16.5822 147.872 16.4887 148.105 16.3017C148.339 16.0991 148.456 15.8576 148.456 15.5771C148.456 15.1097 148.074 14.7902 147.311 14.6189L145.979 14.315C144.795 14.0657 143.922 13.6293 143.361 13.0061C142.801 12.3673 142.521 11.6115 142.521 10.7389C142.521 9.66375 142.941 8.75215 143.782 8.00423C144.639 7.25629 145.706 6.88232 146.984 6.88232C148.495 6.88232 149.625 7.24851 150.373 7.98087C151.136 8.69767 151.557 9.48455 151.634 10.3416L148.689 10.8791C148.643 10.4584 148.479 10.1156 148.199 9.85071C147.934 9.58583 147.545 9.45335 147.03 9.45335C146.688 9.45335 146.392 9.54687 146.142 9.73383C145.893 9.92087 145.769 10.1624 145.769 10.4584C145.769 10.9259 146.073 11.2141 146.68 11.3233L148.222 11.6271C149.391 11.8608 150.279 12.3049 150.886 12.9593C151.494 13.6138 151.797 14.3851 151.797 15.2733C151.797 16.3485 151.393 17.2756 150.582 18.0547C149.773 18.8182 148.635 19.2 147.171 19.2C146.314 19.2 145.55 19.0753 144.881 18.826C144.226 18.5767 143.72 18.2573 143.361 17.8677C143.019 17.4625 142.754 17.0653 142.567 16.6757C142.396 16.2861 142.294 15.9121 142.263 15.5537Z" fill="white"/>
<path d="M158.361 3.84381V7.23292H160.627V10.3416H158.361V14.6889C158.361 15.4993 158.789 15.9044 159.645 15.9044C159.926 15.9044 160.237 15.8654 160.581 15.7875V18.7325C160.144 18.9507 159.529 19.0597 158.734 19.0597C157.534 19.0597 156.584 18.7247 155.883 18.0547C155.197 17.3847 154.855 16.4731 154.855 15.3201V10.3416H152.798V7.23292H153.383C153.975 7.23292 154.419 7.06152 154.715 6.71872C155.026 6.36032 155.182 5.90065 155.182 5.3397V3.84381H158.361Z" fill="white"/>
</g>
<defs>
<clipPath id="clip0_140_33">
<rect width="160" height="24" fill="white" transform="translate(0.626953)"/>
</clipPath>
</defs>
</svg>
