<svg width="187" height="37" viewBox="0 0 187 37" fill="none" xmlns="http://www.w3.org/2000/svg">
<g clip-path="url(#clip0_826_345)">
<path fill-rule="evenodd" clip-rule="evenodd" d="M57.2874 18.5286C57.2874 23.4079 53.579 27.0914 48.6151 27.0914C43.6486 27.0914 39.9609 23.4079 39.9609 18.5286C39.9609 13.6531 43.6486 9.96829 48.6151 9.96829C53.579 9.96829 57.2874 13.6531 57.2874 18.5286V18.5286ZM42.8401 18.5286C42.8401 21.9704 45.3226 24.4441 48.6151 24.4441C51.8921 24.4441 54.3889 21.9704 54.3889 18.5299C54.3889 15.0867 51.8921 12.631 48.6151 12.631C45.3214 12.631 42.8414 15.0867 42.8414 18.5286H42.8401ZM76.6365 18.5286C76.6365 23.4953 73.0354 27.0914 68.4474 27.0914C65.8614 27.0914 63.9498 26.0886 62.6736 24.5483V33.664H59.8629V10.3129H62.6723V12.5089C63.9511 10.9711 65.8627 9.96829 68.4474 9.96829C73.0354 9.96829 76.6365 13.5657 76.6365 18.5286ZM62.5018 18.5286C62.5018 21.9036 64.8126 24.4441 68.1219 24.4441C71.5164 24.4441 73.7419 21.7994 73.7419 18.5299C73.7419 15.2616 71.466 12.631 68.1231 12.631C64.8126 12.631 62.5018 15.1741 62.5018 18.5286V18.5286ZM94.7586 18.4771C94.7586 18.841 94.725 19.2229 94.7082 19.5314H81.8303C82.2269 22.9399 84.588 24.619 87.3974 24.619C89.3129 24.619 91.0528 23.8746 92.4517 22.6647L93.95 24.6023C91.9157 26.5039 89.641 27.0914 87.2269 27.0914C82.3638 27.0914 78.9163 23.6496 78.9163 18.5286C78.9163 13.4783 82.347 9.96829 87.0551 9.96829C91.5191 9.96829 94.725 13.4449 94.7586 18.4784V18.4771ZM81.8639 17.2506H91.8808C91.5359 14.3436 89.6591 12.4754 87.0021 12.4754C84.1088 12.4754 82.2966 14.4477 81.8639 17.2506V17.2506ZM112.392 16.5396V26.7456H109.564V17.455C109.564 14.431 107.91 12.6464 105.066 12.6464C102.427 12.6464 100.22 14.4644 100.22 17.5257V26.7443H97.4104V10.3141H100.203V12.46C101.548 10.6086 103.667 9.96957 105.566 9.96957C109.6 9.96957 112.392 12.5976 112.392 16.5409V16.5396ZM130.292 16.5396V26.7456H127.464V17.455C127.464 14.431 125.809 12.6464 122.965 12.6464C120.326 12.6464 118.12 14.4644 118.12 17.5257V26.7443H115.309V10.3141H118.103V12.46C119.446 10.6086 121.567 9.96957 123.465 9.96957C127.498 9.96957 130.292 12.5976 130.292 16.5409V16.5396ZM149.891 18.5286C149.891 23.4079 146.182 27.0914 141.219 27.0914C136.252 27.0914 132.564 23.4079 132.564 18.5286C132.564 13.6531 136.252 9.96829 141.219 9.96829C146.182 9.96829 149.891 13.6531 149.891 18.5286V18.5286ZM135.444 18.5286C135.444 21.9704 137.926 24.4441 141.217 24.4441C144.494 24.4441 146.994 21.9704 146.994 18.5299C146.994 15.0867 144.494 12.631 141.219 12.631C137.925 12.631 135.445 15.0867 135.445 18.5286H135.444ZM165.824 12.5269V3.388L168.651 3.39443V26.7456H165.824V24.5483C164.532 26.0886 162.618 27.0914 160.05 27.0914C155.445 27.0914 151.861 23.4953 151.861 18.5286C151.861 13.5657 155.445 9.96829 160.05 9.96829C162.618 9.96829 164.532 10.9711 165.824 12.5269V12.5269ZM154.741 18.5286C154.741 21.7994 157.014 24.4441 160.378 24.4441C163.687 24.4441 165.998 21.9036 165.998 18.5299C165.998 15.1741 163.687 12.631 160.378 12.631C156.964 12.631 154.74 15.2616 154.74 18.5286H154.741ZM186.462 18.4771C186.462 18.841 186.428 19.2229 186.411 19.5314H173.533C173.93 22.9399 176.291 24.619 179.101 24.619C181.016 24.619 182.756 23.8746 184.155 22.6647L185.653 24.6023C183.619 26.5039 181.344 27.0914 178.93 27.0914C174.068 27.0914 170.621 23.6496 170.621 18.5286C170.621 13.4783 174.051 9.96829 178.758 9.96829C183.222 9.96829 186.428 13.4449 186.462 18.4784V18.4771ZM173.568 17.2506H183.585C183.239 14.3436 181.361 12.4754 178.705 12.4754C175.812 12.4754 174 14.4477 173.568 17.2506Z" fill="white"/>
<path fill-rule="evenodd" clip-rule="evenodd" d="M31.528 27.4257V9.46429L16.0254 0.484863V18.445L31.528 27.4257Z" fill="white"/>
<path fill-rule="evenodd" clip-rule="evenodd" d="M31.528 9.46558L16.0254 0.484863V18.445L31.528 9.46558Z" fill="white"/>
<path fill-rule="evenodd" clip-rule="evenodd" d="M31.5283 27.4244L16.0283 18.445L31.5283 9.46558V27.4244Z" fill="white"/>
<path fill-rule="evenodd" clip-rule="evenodd" d="M31.528 27.4257L16.028 18.445L0.525391 27.4244L16.0267 36.4051L31.528 27.4257Z" fill="white"/>
<path fill-rule="evenodd" clip-rule="evenodd" d="M16.0264 36.4039V18.4463L31.5277 27.4257L16.0264 36.4039Z" fill="white"/>
<path fill-rule="evenodd" clip-rule="evenodd" d="M0.525391 27.4244L16.0267 18.445V36.4039L0.525391 27.4244Z" fill="white"/>
<path fill-rule="evenodd" clip-rule="evenodd" d="M16.0254 0.484863L0.525391 9.46429V27.4244L16.0267 18.445L16.0254 0.484863Z" fill="white"/>
<path fill-rule="evenodd" clip-rule="evenodd" d="M0.525391 9.46429V27.4244L16.0267 18.445L0.525391 9.46429Z" fill="white"/>
<path fill-rule="evenodd" clip-rule="evenodd" d="M16.0254 0.484863L0.525391 9.46429L16.0267 18.445L16.0254 0.484863Z" fill="white"/>
</g>
<defs>
<clipPath id="clip0_826_345">
<rect width="186" height="36" fill="white" transform="translate(0.525391 0.484863)"/>
</clipPath>
</defs>
</svg>
