<svg width="155" height="20" viewBox="0 0 155 20" fill="none" xmlns="http://www.w3.org/2000/svg">
<mask id="mask0_140_2" style="mask-type:luminance" maskUnits="userSpaceOnUse" x="0" y="0" width="154" height="20">
<path d="M154 0H0V20H154V0Z" fill="white"/>
</mask>
<g mask="url(#mask0_140_2)">
<path d="M66.3933 13.0133H76.5533L71.1867 4.34667L61.32 20H56.8333L68.8333 1.22C69.0949 0.845253 69.4426 0.538652 69.847 0.325884C70.2515 0.113115 70.701 0.000377124 71.158 -0.00288724C71.6151 -0.00615159 72.0662 0.100153 72.4737 0.307122C72.8811 0.51409 73.2331 0.815695 73.5 1.18667L85.5333 20H81.0467L78.9333 16.5H68.6533L66.4133 13.0133M113.033 16.5V0.186669H109.22V18.1067C109.219 18.3557 109.269 18.6023 109.367 18.8314C109.464 19.0607 109.607 19.2677 109.787 19.44C109.967 19.6247 110.183 19.7712 110.421 19.8708C110.659 19.9704 110.915 20.0212 111.173 20.02H128.507L130.767 16.52H113.013M49.9867 13.5867C51.7637 13.5867 53.4678 12.8808 54.7243 11.6243C55.9808 10.3678 56.6867 8.66362 56.6867 6.88667C56.6867 5.10972 55.9808 3.40555 54.7243 2.14906C53.4678 0.89256 51.7637 0.186669 49.9867 0.186669H33.32V20H37.1267V3.69333H49.7533C50.6038 3.69333 51.4195 4.03118 52.0208 4.63255C52.6221 5.23391 52.96 6.04955 52.96 6.9C52.96 7.75047 52.6221 8.56609 52.0208 9.16746C51.4195 9.76882 50.6038 10.1067 49.7533 10.1067H39.0133L50.3867 20H55.9133L48.2733 13.5867H49.9867ZM9.90668 20H21.42C24.002 19.933 26.4558 18.8602 28.2583 17.0103C30.0609 15.1603 31.0697 12.6795 31.0697 10.0967C31.0697 7.51376 30.0609 5.03298 28.2583 3.18305C26.4558 1.33311 24.002 0.260333 21.42 0.193335H9.90668C8.58453 0.159029 7.2689 0.389813 6.03738 0.872078C4.80585 1.35435 3.68335 2.07832 2.73609 3.00132C1.78882 3.92433 1.03597 5.02767 0.521922 6.24627C0.00787478 7.46488 -0.256958 8.77408 -0.256958 10.0967C-0.256958 11.4192 0.00787478 12.7284 0.521922 13.9471C1.03597 15.1657 1.78882 16.269 2.73609 17.192C3.68335 18.115 4.80585 18.839 6.03738 19.3212C7.2689 19.8035 8.58453 20.0343 9.90668 20ZM21.16 16.5133H10.16C8.49576 16.4597 6.91761 15.7608 5.75934 14.5645C4.60105 13.3683 3.95342 11.7684 3.95342 10.1033C3.95342 8.43821 4.60105 6.83837 5.75934 5.64212C6.91761 4.44587 8.49576 3.74701 10.16 3.69333H21.16C22.0191 3.66562 22.8751 3.81091 23.677 4.12058C24.4789 4.43023 25.2105 4.89795 25.828 5.49591C26.4456 6.09387 26.9366 6.80988 27.2719 7.60138C27.6072 8.39288 27.7801 9.24372 27.7801 10.1033C27.7801 10.9629 27.6072 11.8138 27.2719 12.6053C26.9366 13.3968 26.4456 14.1128 25.828 14.7108C25.2105 15.3088 24.4789 15.7764 23.677 16.0861C22.8751 16.3958 22.0191 16.5411 21.16 16.5133ZM93.4867 20H105.24L107.467 16.5133H93.7467C92.8876 16.5411 92.0316 16.3958 91.2297 16.0861C90.4278 15.7764 89.6962 15.3088 89.0787 14.7108C88.4611 14.1128 87.9701 13.3968 87.6348 12.6053C87.2995 11.8138 87.1266 10.9629 87.1266 10.1033C87.1266 9.24372 87.2995 8.39288 87.6348 7.60138C87.9701 6.80988 88.4611 6.09387 89.0787 5.49591C89.6962 4.89795 90.4278 4.43023 91.2297 4.12058C92.0316 3.81091 92.8876 3.66562 93.7467 3.69333H104.913L107.167 0.193335H93.4867C92.1646 0.159029 90.8489 0.389813 89.6173 0.872078C88.3859 1.35435 87.2633 2.07832 86.3161 3.00132C85.3688 3.92433 84.616 5.02767 84.1019 6.24627C83.5879 7.46488 83.323 8.77408 83.323 10.0967C83.323 11.4192 83.5879 12.7284 84.1019 13.9471C84.616 15.1657 85.3688 16.269 86.3161 17.192C87.2633 18.115 88.3859 18.839 89.6173 19.3212C90.8489 19.8035 92.1646 20.0343 93.4867 20ZM140.067 16.5133C138.67 16.5139 137.311 16.0583 136.197 15.2161C135.082 14.3738 134.273 13.1907 133.893 11.8467H150.173L152.413 8.35333H133.893C134.272 7.00877 135.081 5.82508 136.196 4.9826C137.31 4.14012 138.67 3.68503 140.067 3.68667H151.24L153.473 0.186669H139.807C137.224 0.253666 134.771 1.32645 132.968 3.17638C131.166 5.02631 130.157 7.50709 130.157 10.09C130.157 12.6729 131.166 15.1537 132.968 17.0037C134.771 18.8535 137.224 19.9263 139.807 19.9933H151.56L153.793 16.5067H140.06" fill="white"/>
</g>
</svg>
