<svg width="64" height="64" viewBox="0 0 64 64" fill="none" xmlns="http://www.w3.org/2000/svg">
<g clip-path="url(#clip0_757_13)">
<path d="M44.2777 33.9264C45.7505 33.9264 46.9444 32.7325 46.9444 31.2597C46.9444 29.787 45.7505 28.593 44.2777 28.593C42.805 28.593 41.6111 29.787 41.6111 31.2597C41.6111 32.7325 42.805 33.9264 44.2777 33.9264Z" fill="white"/>
<path fill-rule="evenodd" clip-rule="evenodd" d="M32.4758 47.0809L32.4757 42.4447C33.8627 43.0288 35.3188 43.4812 36.8283 43.7861V51.9051C36.8283 54.3352 38.7982 56.3051 41.2283 56.3051H43.2131C50.0614 56.3051 55.6131 50.7535 55.6131 43.9051V28.848C55.6131 17.5814 46.4797 8.448 35.2131 8.448H22.7543C20.6497 8.448 18.8902 9.92567 18.4567 11.9001C16.2764 11.0697 13.8593 10.8709 12.2327 10.833C9.77281 10.7757 8.04175 12.8221 8.04175 15.0504V36.4142C8.04175 44.7353 14.7873 51.4809 23.1084 51.4809H28.0758C30.5059 51.4809 32.4758 49.5109 32.4758 47.0809ZM12.1519 14.2987C14.191 14.3463 16.7136 14.6763 18.3543 15.6845V21.1767C18.3543 29.3494 22.6047 36.5294 29.0154 40.6268C29.0112 40.6761 29.0091 40.7259 29.0091 40.7763L29.0091 47.0809C29.0091 47.5963 28.5913 48.0142 28.0758 48.0142H23.1084C16.7019 48.0142 11.5084 42.8207 11.5084 36.4142V15.0504C11.5084 14.8041 11.6014 14.605 11.7229 14.4777C11.8373 14.3578 11.9793 14.2947 12.1519 14.2987ZM41.421 40.7767H44.944C45.9013 40.7767 46.6773 41.5528 46.6773 42.5101C46.6773 43.4673 45.9013 44.2434 44.944 44.2434H40.2949V51.9051C40.2949 52.4206 40.7128 52.8385 41.2283 52.8385H43.2131C48.1468 52.8385 52.1464 48.8389 52.1464 43.9051V28.848C52.1464 19.4959 44.5651 11.9147 35.2131 11.9147H22.7543C22.2389 11.9147 21.821 12.3325 21.821 12.848V21.1767C21.821 32.0015 30.5963 40.7767 41.421 40.7767Z" fill="white"/>
</g>
<defs>
<clipPath id="clip0_757_13">
<rect width="64" height="64" fill="white"/>
</clipPath>
</defs>
</svg>
