<svg width="64" height="64" viewBox="0 0 64 64" fill="none" xmlns="http://www.w3.org/2000/svg">
<g clip-path="url(#clip0_663_40)">
<path d="M18.6665 48.6667C17.5625 48.6667 16.6665 47.7707 16.6665 46.6667V39.84C16.7465 35.336 19.5972 32.6667 24.2905 32.6667H38.9305C45.0238 32.6667 48.6612 29.2374 48.6612 23.4934V16.6667C48.6612 15.5627 49.5572 14.6667 50.6612 14.6667C51.7652 14.6667 52.6612 15.5627 52.6612 16.6667V23.3334C52.6612 31.496 47.2718 36.6667 38.9305 36.6667H24.2905C21.1465 36.6667 20.6932 38.288 20.6665 39.8774V46.6667C20.6665 47.7707 19.7705 48.6667 18.6665 48.6667Z" fill="#E4E4E4"/>
<path d="M32.4505 64C29.8745 64 27.2452 63.7974 24.7412 63.3894C19.8318 62.5574 16.6665 58.7894 16.6665 53.7867V39.84C16.6665 38.736 17.5625 37.84 18.6665 37.84C19.7705 37.84 20.6665 38.736 20.6665 39.84V53.784C20.6665 56.8267 22.4345 58.9387 25.3972 59.44C30.0292 60.192 35.1172 60.1867 39.3412 59.4134C41.8398 58.9867 43.4052 58.3547 44.1465 57.4774C44.7492 56.7654 45.0052 55.6614 45.0052 53.7814V47.328H33.9945C32.8905 47.328 31.9945 46.432 31.9945 45.328C31.9945 44.224 32.8905 43.328 33.9945 43.328H47.0052C48.1092 43.328 49.0052 44.224 49.0052 45.328V53.7814C49.0052 55.7147 48.7998 58.1707 47.1972 60.0614C45.8052 61.704 43.5305 62.752 40.0372 63.3494C37.6905 63.784 35.0985 64 32.4505 64Z" fill="#E4E4E4"/>
<path d="M52.5014 47.3334H47.0081C45.9041 47.3334 45.0081 46.4374 45.0081 45.3334C45.0081 44.2294 45.9041 43.3334 47.0081 43.3334H52.5014C56.3574 43.3334 58.1894 41.968 59.0374 38.464C60.3254 33.08 60.3254 29.952 59.0347 24.5147C57.8667 19.6614 56.1201 18.6667 53.8614 18.6667H52.6614V23.3334C52.6614 24.4374 51.7654 25.4134 50.6614 25.4134C49.5574 25.4134 48.6614 24.5947 48.6614 23.4907V16.6667C48.6614 15.5627 49.5574 14.6667 50.6614 14.6667H53.8614C60.0614 14.6667 62.0027 19.7547 62.9254 23.584C64.3521 29.6 64.3521 33.44 62.9254 39.4C61.6534 44.664 58.1467 47.3334 52.5014 47.3334ZM37.3307 58C34.7574 58 32.6641 55.904 32.6641 53.328C32.6641 50.7574 34.7574 48.6667 37.3307 48.6667C39.9041 48.6667 41.9974 50.7574 41.9974 53.328C41.9707 55.9147 39.8774 58 37.3307 58ZM37.3307 52.6667C36.9627 52.6667 36.6641 52.9627 36.6641 53.328C36.6641 54.0533 37.9894 54.064 37.9974 53.3093C37.9974 52.9627 37.6961 52.6667 37.3307 52.6667Z" fill="#E4E4E4"/>
<path d="M13.3389 49.3333C12.2349 49.3333 11.3389 48.4373 11.3389 47.3333V40.6666C11.3389 32.504 16.7282 27.3333 25.0695 27.3333H39.7095C42.8535 27.3333 43.3069 25.712 43.3335 24.1253V17.3333C43.3335 16.2293 44.2295 15.3333 45.3335 15.3333C46.4375 15.3333 47.3335 16.2293 47.3335 17.3333V24.1626C47.2535 28.6666 44.4029 31.3333 39.7095 31.3333H25.0695C18.9762 31.3333 15.3389 34.7626 15.3389 40.5066V47.3333C15.3389 48.4373 14.4429 49.3333 13.3389 49.3333Z" fill="#E4E4E4"/>
<path d="M45.3335 26.1626C44.2295 26.1626 43.3335 25.2666 43.3335 24.1626V10.2133C43.3335 7.17064 41.5655 5.05864 38.6029 4.5573C33.9709 3.8053 28.8829 3.81064 24.6589 4.58397C22.1602 5.01064 20.5949 5.64264 19.8509 6.5173C19.2482 7.2293 18.9922 8.3333 18.9922 10.2133V16.6666H30.0029C31.1069 16.6666 32.0029 17.5626 32.0029 18.6666C32.0029 19.7706 31.1069 20.6666 30.0029 20.6666H16.9922C15.8882 20.6666 14.9922 19.7706 14.9922 18.6666V10.2133C14.9922 8.27997 15.1975 5.82397 16.8002 3.9333C18.1922 2.29064 20.4669 1.24264 23.9602 0.645303C28.6002 -0.197363 34.1815 -0.213363 39.2589 0.613303C44.1709 1.4453 47.3362 5.2133 47.3362 10.216V24.1626C47.3335 25.2666 46.4402 26.1626 45.3335 26.1626Z" fill="#E4E4E4"/>
<path d="M13.3389 49.3333H10.1389C3.93888 49.3333 1.99755 44.2453 1.07488 40.416C-0.351784 34.4 -0.351784 30.56 1.07488 24.6C2.34688 19.336 5.85355 16.6667 11.4989 16.6667H16.9922C18.0962 16.6667 18.9922 17.5627 18.9922 18.6667C18.9922 19.7707 18.0962 20.6667 16.9922 20.6667H11.4989C7.64288 20.6667 5.81088 22.032 4.96288 25.536C3.67488 30.92 3.67488 34.048 4.96555 39.4853C6.13355 44.3387 7.88022 45.3333 10.1389 45.3333H11.3389V40.6667C11.3389 39.5627 12.2349 38.5867 13.3389 38.5867C14.4429 38.5867 15.3389 39.4053 15.3389 40.5093V47.336C15.3389 48.4373 14.4429 49.3333 13.3389 49.3333ZM26.6696 15.3333C24.0962 15.3333 22.0029 13.2427 22.0029 10.672C22.0269 8.08533 24.1202 6 26.6696 6C29.2429 6 31.3362 8.096 31.3362 10.672C31.3362 13.2427 29.2429 15.3333 26.6696 15.3333ZM26.6696 10C26.2989 10 26.0056 10.304 26.0029 10.6907C26.0029 11.384 27.3362 11.4027 27.3362 10.672C27.3362 10.3147 27.0269 10 26.6696 10Z" fill="#E4E4E4"/>
</g>
<defs>
<clipPath id="clip0_663_40">
<rect width="64" height="64" fill="white"/>
</clipPath>
</defs>
</svg>
