<svg width="154" height="24" viewBox="0 0 154 24" fill="none" xmlns="http://www.w3.org/2000/svg">
<g clip-path="url(#clip0_140_8)">
<path d="M12.0389 14.9599C10.4149 14.9599 9.09967 13.6416 9.09967 12.0175C9.09967 10.3936 10.4149 9.07358 12.0389 9.07358C13.6629 9.07358 14.9781 10.392 14.9781 12.0175C14.9781 13.6432 13.6629 14.9599 12.0389 14.9599Z" fill="white"/>
<path d="M24.0268 23.4464V24H11.142C10.422 23.9472 9.71964 23.8288 9.04123 23.6544V18.8944C9.78843 19.2224 10.5996 19.4304 11.4508 19.4976C11.646 19.512 11.8428 19.52 12.0428 19.52C12.2428 19.52 12.4396 19.512 12.6348 19.4976C16.4973 19.1952 19.5372 15.9616 19.5372 12.016C19.5372 7.872 16.182 4.512 12.0444 4.512C7.90683 4.512 4.56283 7.8592 4.55163 11.9936H4.54683V21.3984C1.80283 19.1968 0.0444336 15.8112 0.0444336 12.016C0.0444336 5.3792 5.41723 0 12.0444 0C18.6717 0 24.0444 5.3792 24.0444 12.016C24.0444 14.9296 23.0076 17.6032 21.2844 19.6832C22.8765 20.1904 24.03 21.6832 24.03 23.4464H24.0268Z" fill="white"/>
<path d="M12.0451 9.07358C10.421 9.07358 9.10583 10.392 9.10583 12.0175C9.10583 13.6432 10.421 14.9599 12.0451 14.9599C13.669 14.9599 14.9842 13.6416 14.9842 12.0175C14.9842 10.3936 13.669 9.07358 12.0451 9.07358Z" fill="white"/>
<path d="M14.9781 12.0161C14.9781 13.6416 13.6629 14.9585 12.0389 14.9585C10.4149 14.9585 9.09967 13.64 9.09967 12.0161C9.09967 10.392 10.4149 9.07202 12.0389 9.07202C13.6629 9.07202 14.9781 10.3904 14.9781 12.0161Z" fill="white"/>
<path d="M14.9781 12.0161C14.9781 13.6416 13.6629 14.9585 12.0389 14.9585C10.4149 14.9585 9.09967 13.64 9.09967 12.0161C9.09967 10.392 10.4149 9.07202 12.0389 9.07202C13.6629 9.07202 14.9781 10.3904 14.9781 12.0161Z" fill="white"/>
<path d="M39.8436 17.3928C39.1692 18.6624 37.7436 19.7784 35.6964 19.7784C32.6364 19.7784 30.0444 17.5752 30.0444 12.804V12.5976C30.0444 7.87918 32.61 5.51999 35.6964 5.51999C37.8228 5.51999 39.0924 6.37439 39.8436 7.74959V5.88238H44.9508V23.9496H39.8436V17.3904V17.3928ZM39.9732 12.7008V12.4944C39.9732 10.4472 39.1428 9.30719 37.614 9.30719C36.0852 9.30719 35.2284 10.344 35.2284 12.5208V12.7272C35.2284 14.8272 36.0828 15.8904 37.5876 15.8904C39.0924 15.8904 39.9732 14.8008 39.9732 12.7032V12.7008Z" fill="white"/>
<path d="M47.5388 14.7768V5.88476H52.646V13.8935C52.646 15.2663 53.1644 15.9672 54.3572 15.9672C55.6268 15.9672 56.378 15.2159 56.378 13.6079V5.88235H61.4852V19.4399H56.378V17.3399C55.6268 18.7919 54.3572 19.7759 52.0748 19.7759C49.4828 19.7759 47.5388 18.1415 47.5388 14.7719V14.7768Z" fill="white"/>
<path d="M64.0672 15.6816C64.0672 12.4944 66.6592 11.2488 71.3512 11.2488H72.5176V11.016C72.5176 9.87599 72.3112 9.0456 70.936 9.0456C69.7696 9.0456 69.4072 9.79679 69.328 10.4976H64.5592C64.7656 7.17839 67.3576 5.49359 71.248 5.49359C75.1384 5.49359 77.572 7.10159 77.572 10.6776V19.44H72.6472V17.8848C72.076 18.8184 70.8856 19.7784 68.68 19.7784C66.244 19.7784 64.0672 18.5856 64.0672 15.6816ZM72.5176 14.6976V13.9968H71.428C69.7168 13.9968 69.0952 14.3328 69.0952 15.2928C69.0952 15.9408 69.5872 16.356 70.5208 16.356C71.6872 16.356 72.5176 15.708 72.5176 14.6976Z" fill="white"/>
<path d="M80.1505 12.8064V12.6C80.1505 7.8816 82.7162 5.5224 85.8026 5.5224C87.9289 5.5224 89.1985 6.3768 89.9497 7.752V0H95.0569V19.4424H89.9497V17.2656C89.2753 18.6648 87.8498 19.7808 85.8026 19.7808C82.7426 19.7808 80.1505 17.5776 80.1505 12.8064ZM90.0793 12.7032V12.4968C90.0793 10.4496 89.2489 9.3096 87.7201 9.3096C86.1913 9.3096 85.3346 10.3464 85.3346 12.5232V12.7296C85.3346 14.8296 86.1889 15.8928 87.6937 15.8928C89.1985 15.8928 90.0793 14.8032 90.0793 12.7056V12.7032Z" fill="white"/>
<path d="M97.6443 5.8848H102.751V7.8552C103.503 6.5856 104.852 5.5224 106.899 5.5224C109.983 5.5224 112.575 7.8288 112.575 12.5736V12.78C112.575 17.5248 109.956 19.7784 106.872 19.7784C104.876 19.7784 103.423 18.8184 102.751 17.496V23.9496H97.6443V5.8824V5.8848ZM107.391 12.7272V12.5208C107.391 10.344 106.51 9.3072 104.979 9.3072C103.448 9.3072 102.619 10.4472 102.619 12.5208V12.7272C102.619 14.8272 103.45 15.8904 105.005 15.8904C106.56 15.8904 107.391 14.8008 107.391 12.7272Z" fill="white"/>
<path d="M115.158 0H120.239V19.4424H115.158V0Z" fill="white"/>
<path d="M122.821 15.6816C122.821 12.4944 125.413 11.2488 130.105 11.2488H131.272V11.016C131.272 9.87599 131.065 9.0456 129.69 9.0456C128.524 9.0456 128.161 9.79679 128.082 10.4976H123.313C123.52 7.17839 126.112 5.49359 130.002 5.49359C133.892 5.49359 136.326 7.10159 136.326 10.6776V19.44H131.401V17.8848C130.83 18.8184 129.64 19.7784 127.434 19.7784C124.998 19.7784 122.821 18.5856 122.821 15.6816ZM131.272 14.6976V13.9968H130.182C128.471 13.9968 127.849 14.3328 127.849 15.2928C127.849 15.9408 128.341 16.356 129.275 16.356C130.441 16.356 131.272 15.708 131.272 14.6976Z" fill="white"/>
<path d="M138.913 5.8848H144.02V8.0616C144.772 6.636 146.224 5.5224 148.506 5.5224C151.072 5.5224 152.862 7.1544 152.862 10.5264V19.4448H147.755V11.6688C147.755 10.296 147.263 9.5952 146.044 9.5952C144.824 9.5952 144.023 10.3464 144.023 11.9544V19.4448H138.916V5.8872L138.913 5.8848Z" fill="white"/>
</g>
<defs>
<clipPath id="clip0_140_8">
<rect width="153.6" height="24" fill="white" transform="translate(0.0444336)"/>
</clipPath>
</defs>
</svg>
