<svg width="80" height="37" viewBox="0 0 80 37" fill="none" xmlns="http://www.w3.org/2000/svg">
<path d="M78.6688 7.13062H74.7398C74.7002 7.13062 74.6651 7.14088 74.6354 7.15789C74.4941 7.21653 74.4554 7.42249 74.5994 7.52086C74.932 7.74789 75.314 8.01609 75.454 8.14191C75.7217 8.38248 75.8558 8.70517 75.8558 9.10954C75.8558 9.72096 75.5656 10.7844 74.9864 12.2986L73.1167 17.1537C72.686 15.2827 72.3049 13.5469 71.6929 12.0635C71.6888 12.0537 71.6848 12.044 71.6807 12.0342C71.6627 11.9902 71.6438 11.9464 71.6254 11.9029C71.0948 10.6506 70.3798 9.5595 69.4766 8.63106C68.3903 7.51443 67.1186 6.80221 65.6624 6.49464C64.442 6.23728 63.241 6.26131 62.0588 6.55926C61.4716 6.71356 60.9433 6.90396 60.4658 7.12248C57.1592 8.62471 56.32 11.4883 55.739 13.2972C55.0757 15.3638 55.6918 21.2187 59.7998 22.9354C61.6462 23.7069 63.3872 23.4707 64.825 22.7948C66.4531 22.0368 67.696 20.7141 68.2684 19.6449C68.3534 19.4865 68.3084 19.2904 68.1667 19.1804C68.051 19.0912 67.8985 19.0804 67.7747 19.1429C67.7306 19.1614 67.6892 19.1881 67.6537 19.2244C67.3486 19.5391 66.7469 20.0918 65.9806 20.458C64.6949 21.0633 62.9534 21.1365 61.3694 18.6985C58.9943 15.0434 59.5033 10.5898 61.1089 8.54475C61.5116 8.1244 61.9819 7.87033 62.498 7.83726C62.7257 7.82596 62.9399 7.85544 63.1402 7.9278C63.6806 8.11473 64.1855 8.53498 64.6562 9.18924C65.126 9.84331 69.86 17.594 70.3015 21.353C70.3519 22.2956 70.378 23.3022 70.378 24.3787C70.3181 24.5449 70.2592 24.7047 70.2011 24.8587C70.0211 25.2782 69.7484 25.8848 69.4186 26.6039C51.793 22.4571 25.7619 24.6538 16.8269 26.149C16.47 26.2124 16.1326 26.2442 15.8155 26.2442C14.6571 26.2442 13.6934 25.9784 12.924 25.447C12.1545 24.9154 11.5873 24.1221 11.2225 23.0672C12.9993 22.7659 14.5185 21.8416 15.7798 20.2948C17.0411 18.7479 17.6716 16.9274 17.6716 14.8332C17.6716 12.4296 16.8664 10.4267 15.2562 8.82424C13.6458 7.22197 11.5991 6.4207 9.11643 6.4207C6.62545 6.4207 4.57102 7.21995 2.95276 8.8183C1.33454 10.4168 0.525391 12.4218 0.525391 14.8332C0.525391 16.9116 1.12214 18.7003 2.31617 20.1995C3.50998 21.6988 5.08268 22.6548 7.0341 23.0672C7.62103 24.4633 8.49552 25.5223 9.65773 26.2442C10.8199 26.9659 12.1387 27.327 13.6141 27.327C14.5581 27.327 15.629 27.1762 16.8269 26.8749C32.9482 22.9245 65.7677 36.485 65.7677 36.485C66.0557 35.9773 67.736 32.4586 69.2948 29.1035C69.4573 28.7588 69.8164 27.9856 70.2263 27.0859C71.0449 25.3002 71.7248 23.7753 71.9917 23.0883L73.9523 18.0002L75.5183 13.9359L76.3711 11.7227C77.1145 9.78747 77.6446 8.65324 77.9618 8.31961C78.1441 8.128 78.523 7.76382 78.8123 7.48882C78.9487 7.3594 78.8569 7.13062 78.6688 7.13062ZM9.10446 22.4009C7.93459 22.4009 7.44733 21.9367 6.76513 21.0087C5.78949 19.6759 5.30164 17.6293 5.30164 14.8689C5.30164 12.5685 5.62681 10.7956 6.27729 9.55009C7.05471 8.0668 7.95943 7.32498 9.10446 7.32498C10.3645 7.32498 11.0121 8.05492 11.7736 9.51436C12.3843 10.6727 12.6899 12.5447 12.6899 15.1306C12.6899 17.7563 12.202 19.7236 11.2263 21.0324C10.5519 21.9448 10.1413 22.4009 9.10446 22.4009Z" fill="white"/>
<path d="M25.755 7.60168H29.1376C30.7205 7.60168 32.0036 8.88481 32.0036 10.4676V19.6069C32.0036 20.7768 32.1129 21.5068 32.3317 21.7964C32.4545 21.9593 32.8588 22.2991 33.1895 22.5655C33.3428 22.689 33.2554 22.9362 33.0585 22.9362H27.62C27.5049 22.9362 27.4115 22.8429 27.4115 22.7277V21.4402C27.4115 21.249 27.1773 21.1601 27.0479 21.3009C26.4365 21.9652 25.8251 22.4639 25.2138 22.7968C24.4811 23.1957 23.6611 23.3954 22.7536 23.3954C21.8899 23.3954 21.1218 23.1302 20.4494 22.5999C19.777 22.0699 19.3259 21.4495 19.0964 20.7385C18.8668 20.028 18.752 18.7869 18.752 17.0155V10.9309C18.752 9.77221 18.6452 9.05046 18.432 8.76606C18.3104 8.60379 17.8918 8.24712 17.5551 7.971C17.4037 7.8468 17.4919 7.60168 17.6878 7.60168H20.4782C22.061 7.60168 23.3441 8.88481 23.3441 10.4676V18.0817C23.3441 19.1752 23.3959 19.8803 23.4999 20.1973C23.6038 20.5147 23.7676 20.7549 23.9919 20.9189C24.2159 21.0829 24.4758 21.165 24.771 21.165C25.1645 21.165 25.5198 21.0612 25.837 20.8533C26.2648 20.5753 26.7763 20.0198 27.3718 19.187C27.3973 19.1515 27.4115 19.1077 27.4115 19.064V10.9309C27.4115 9.77221 27.3048 9.05046 27.0918 8.76606" fill="white"/>
<path d="M39.9616 22.558C39.6024 22.3062 39.1769 21.9926 39.04 21.8286C38.7884 21.5282 38.6628 20.8365 38.6628 19.754V5.90106V5.66531V2.69085H38.6548C38.616 2.11118 38.3892 1.60863 37.9703 1.18495C37.5087 0.718333 36.9445 0.484863 36.2777 0.484863C35.6212 0.484863 35.0621 0.718333 34.6005 1.18495C34.1389 1.65181 33.9082 2.21347 33.9082 2.86985C33.9082 3.52643 34.1389 4.08543 34.6005 4.54705C35.0621 5.00867 35.6212 5.23947 36.2777 5.23947C36.9342 5.23947 37.4957 5.00867 37.9627 4.54705C38.0218 4.48851 38.0772 4.42836 38.1289 4.36672C38.0758 5.3913 37.4911 6.32784 36.5669 6.78774C36.5536 6.79436 36.5403 6.80093 36.527 6.80741C35.044 7.53299 34.0707 9.00264 34.0707 10.6536V10.7994V19.754V22.7279C34.0707 22.8427 34.1638 22.9358 34.2786 22.9358H39.8417C40.0448 22.9358 40.1278 22.6745 39.9616 22.558Z" fill="white"/>
<path d="M54.5328 21.7958C54.3195 21.5061 54.2128 20.7708 54.2128 19.5898V13.62C54.2128 11.8488 54.1251 10.6515 53.9505 10.0283C53.7318 9.20828 53.2944 8.52225 52.6383 7.97006C51.9822 7.418 51.1569 7.14178 50.1619 7.14178C49.3308 7.14178 48.5545 7.33596 47.8327 7.72395C47.2207 8.05335 46.5849 8.54992 45.9256 9.21367C45.7947 9.3453 45.5697 9.25449 45.5697 9.06891V7.809C45.5697 7.69416 45.4766 7.60105 45.3617 7.60105H44.3068C42.4681 7.60105 40.9775 9.09159 40.9775 10.9303V19.5898V22.7277C40.9775 22.8425 41.0706 22.9356 41.1855 22.9356H46.5381C46.7275 22.9356 46.8184 22.7035 46.6794 22.5752C46.3833 22.3026 46.0116 21.9464 45.8896 21.7712C45.6763 21.4652 45.5697 20.7379 45.5697 19.5898V11.3731C46.3788 10.0283 47.2531 9.35583 48.1936 9.35583C48.478 9.35583 48.7377 9.44605 48.9726 9.6265C49.2079 9.80682 49.3744 10.0609 49.473 10.389C49.5715 10.717 49.6206 11.5099 49.6206 12.7671V19.5898C49.6206 20.6723 49.5328 21.3504 49.3582 21.6235C49.2093 21.8632 48.7993 22.2794 48.4897 22.5789C48.3556 22.7087 48.4483 22.9356 48.6351 22.9356H55.264C55.4611 22.9356 55.548 22.688 55.3941 22.5653C55.0602 22.2988 54.6525 21.9588 54.5328 21.7958Z" fill="white"/>
</svg>
