<svg width="41" height="33" viewBox="0 0 41 33" fill="none" xmlns="http://www.w3.org/2000/svg">
<path opacity="0.3" fill-rule="evenodd" clip-rule="evenodd" d="M30.4197 0.119629C26.2204 0.119629 22.8096 3.41425 22.8096 7.47729C22.8096 11.5378 26.2204 14.8349 30.4197 14.8349C37.6342 14.8349 33.4536 27.6117 24.3546 28.9426C23.9253 29.0038 23.5335 29.2073 23.2501 29.5164C22.9667 29.8254 22.8104 30.2196 22.8096 30.6275C22.8096 31.6722 23.804 32.4983 24.9052 32.3401C41.4432 29.9847 47.3239 0.12214 30.4197 0.12214V0.119629ZM8.49289 0.119629C4.28823 0.119629 0.880127 3.41174 0.880127 7.47729C0.880127 11.5353 4.28823 14.8299 8.49289 14.8299C15.7047 14.8299 11.5241 27.6117 2.42513 28.9426C1.99627 29.0037 1.60482 29.2069 1.32148 29.5154C1.03814 29.824 0.881599 30.2175 0.880127 30.625C0.880127 31.6697 1.87449 32.4958 2.9731 32.3376C19.5164 29.9822 25.3971 0.119629 8.49289 0.119629Z" fill="white"/>
</svg>
