<svg width="133" height="24" viewBox="0 0 133 24" fill="none" xmlns="http://www.w3.org/2000/svg">
<path d="M97.9653 15.7441C97.9653 14.4001 99.0693 13.2961 100.413 13.2961C101.757 13.2961 102.885 14.4001 102.885 15.7441C102.885 17.0641 101.757 18.2161 100.413 18.2161C99.0693 18.2161 97.9653 17.0641 97.9653 15.7441Z" fill="white"/>
<path d="M87.4839 10.992V18H83.8359V0.624023H87.4839V6.84002C88.2279 6.09602 89.4759 5.76002 90.5319 5.76002C93.6519 5.76002 95.0439 7.89602 95.0439 10.512V18H91.3959V11.136C91.3959 9.96002 90.7719 9.07202 89.4519 9.07202C88.2999 9.07202 87.5559 9.88802 87.4839 10.992Z" fill="white"/>
<path d="M75.8788 9.07191C74.3668 9.07191 73.1428 10.1279 73.1428 12.0479C73.1428 13.9439 74.4148 14.9999 75.9268 14.9999C77.3428 14.9999 78.1348 14.1119 78.3988 13.2239L81.6148 14.2079C81.0868 16.2959 79.1188 18.3599 75.9268 18.3599C72.3748 18.3599 69.5188 15.7439 69.5188 12.0479C69.5188 8.32791 72.3028 5.71191 75.8068 5.71191C79.0948 5.71191 81.0148 7.72791 81.5428 9.86391L78.2788 10.8479C78.0148 9.93591 77.2948 9.07191 75.8788 9.07191Z" fill="white"/>
<path d="M68.3106 6.0719V9.6719C67.9026 9.5759 67.5186 9.5519 67.1586 9.5519C65.6946 9.5519 64.3746 10.4159 64.3746 12.7919V17.9999H60.7266V6.0719H64.2546V7.6799C64.8786 6.3359 66.3906 5.9519 67.3506 5.9519C67.7106 5.9519 68.0706 5.9999 68.3106 6.0719Z" fill="white"/>
<path d="M46.905 14.7119C46.905 12.5999 48.465 11.3999 50.433 11.1119L53.241 10.6799C53.889 10.5839 54.105 10.2719 54.105 9.86391C54.105 9.16791 53.505 8.56791 52.353 8.56791C51.081 8.56791 50.385 9.43191 50.313 10.3199L47.145 9.67191C47.289 7.96791 48.873 5.71191 52.377 5.71191C56.241 5.71191 57.657 7.87191 57.657 10.3199V16.1519C57.657 17.0879 57.777 17.8799 57.801 17.9999H54.513C54.489 17.9039 54.393 17.4719 54.393 16.6559C53.769 17.6639 52.617 18.3359 51.033 18.3359C48.417 18.3359 46.905 16.6079 46.905 14.7119ZM51.921 15.6959C53.001 15.6959 54.105 15.1679 54.105 13.3199V12.7919L51.849 13.1519C51.081 13.2719 50.505 13.6319 50.505 14.4719C50.505 15.0959 50.913 15.6959 51.921 15.6959Z" fill="white"/>
<path d="M36.9787 10.6079H41.7547C41.7067 9.69591 41.0827 8.59191 39.3547 8.59191C37.8187 8.59191 37.0507 9.71991 36.9787 10.6079ZM42.0187 13.7039L45.0667 14.5679C44.4907 16.6319 42.5947 18.3599 39.5707 18.3599C36.2827 18.3599 33.3547 16.0079 33.3547 11.9999C33.3547 8.15991 36.2107 5.71191 39.3067 5.71191C43.0027 5.71191 45.2827 7.99191 45.2827 11.8319C45.2827 12.3359 45.2347 12.8879 45.2107 12.9599H36.9067C36.9787 14.3039 38.2027 15.2639 39.6187 15.2639C40.9387 15.2639 41.6827 14.6399 42.0187 13.7039Z" fill="white"/>
<path d="M22.0786 14.6159L25.1746 14.0639C25.2226 14.8799 25.7986 15.6719 27.0466 15.6719C27.9826 15.6719 28.4386 15.1679 28.4386 14.6399C28.4386 14.2079 28.1506 13.8479 27.2626 13.6559L25.8946 13.3439C23.3506 12.7919 22.3426 11.3519 22.3426 9.67191C22.3426 7.48791 24.2626 5.71191 26.9266 5.71191C30.3826 5.71191 31.5826 7.87191 31.7026 9.26391L28.6786 9.81591C28.5826 9.02391 28.0786 8.35191 26.9746 8.35191C26.2786 8.35191 25.6786 8.75991 25.6786 9.38391C25.6786 9.88791 26.0866 10.1759 26.6146 10.2719L28.1986 10.5839C30.6706 11.0879 31.8706 12.5759 31.8706 14.3279C31.8706 16.3679 30.3106 18.3599 27.1186 18.3599C23.3746 18.3599 22.1746 15.9359 22.0786 14.6159Z" fill="white"/>
<path d="M12.4162 10.6079H17.1922C17.1442 9.69591 16.5202 8.59191 14.7922 8.59191C13.2562 8.59191 12.4882 9.71991 12.4162 10.6079ZM17.4562 13.7039L20.5042 14.5679C19.9282 16.6319 18.0322 18.3599 15.0082 18.3599C11.7202 18.3599 8.79224 16.0079 8.79224 11.9999C8.79224 8.15991 11.6482 5.71191 14.7442 5.71191C18.4402 5.71191 20.7202 7.99191 20.7202 11.8319C20.7202 12.3359 20.6722 12.8879 20.6482 12.9599H12.3442C12.4162 14.3039 13.6402 15.2639 15.0562 15.2639C16.3762 15.2639 17.1202 14.6399 17.4562 13.7039Z" fill="white"/>
<path d="M7.584 6.0719V9.6719C7.176 9.5759 6.792 9.5519 6.432 9.5519C4.968 9.5519 3.648 10.4159 3.648 12.7919V17.9999H0V6.0719H3.528V7.6799C4.152 6.3359 5.664 5.9519 6.624 5.9519C6.984 5.9519 7.344 5.9999 7.584 6.0719Z" fill="white"/>
<path fill-rule="evenodd" clip-rule="evenodd" d="M109.142 12C109.142 8.54822 111.94 5.75 115.392 5.75C116.798 5.75 118.099 6.21566 119.143 7.00063C119.695 7.4153 119.807 8.19889 119.392 8.75083C118.977 9.30277 118.194 9.41405 117.642 8.99937C117.015 8.52852 116.238 8.25 115.392 8.25C113.321 8.25 111.642 9.92894 111.642 12C111.642 14.071 113.321 15.75 115.392 15.75C115.927 15.75 116.298 15.6545 116.58 15.5169C116.863 15.3788 117.126 15.165 117.398 14.8325C117.899 14.222 118.311 13.3869 118.896 12.2033C119.014 11.9638 119.14 11.7101 119.274 11.441C119.386 11.2172 119.496 10.9924 119.606 10.7685C120.185 9.59022 120.753 8.43621 121.452 7.58252C121.897 7.03999 122.431 6.56632 123.109 6.23567C123.789 5.9045 124.546 5.75 125.392 5.75C128.844 5.75 131.642 8.54822 131.642 12C131.642 15.4518 128.844 18.25 125.392 18.25C123.986 18.25 122.686 17.7841 121.641 16.9994C121.089 16.5848 120.978 15.8012 121.393 15.2492C121.807 14.6973 122.591 14.5859 123.143 15.0006C123.77 15.4715 124.547 15.75 125.392 15.75C127.463 15.75 129.142 14.071 129.142 12C129.142 9.92894 127.463 8.25 125.392 8.25C124.858 8.25 124.487 8.3455 124.204 8.48308C123.921 8.62118 123.658 8.83501 123.386 9.16748C122.885 9.77801 122.473 10.6131 121.888 11.7967C121.77 12.0362 121.645 12.29 121.51 12.559C121.398 12.7828 121.288 13.0076 121.178 13.2316C120.599 14.4098 120.032 15.5638 119.332 16.4175C118.887 16.96 118.353 17.4337 117.675 17.7643C116.995 18.0955 116.238 18.25 115.392 18.25C111.94 18.25 109.142 15.4518 109.142 12Z" fill="white"/>
</svg>
