<svg width="64" height="64" viewBox="0 0 64 64" fill="none" xmlns="http://www.w3.org/2000/svg">
<path d="M32 45.3334C14.056 45.3334 0 39.4774 0 32C0 24.5227 14.056 18.6667 32 18.6667C49.944 18.6667 64 24.5227 64 32C64 39.4774 49.944 45.3334 32 45.3334ZM32 21.3334C14.7147 21.3334 2.66667 26.9547 2.66667 32C2.66667 37.0454 14.7147 42.6667 32 42.6667C49.2853 42.6667 61.3333 37.0454 61.3333 32C61.3333 26.9547 49.2853 21.3334 32 21.3334Z" fill="#E4E4E4"/>
<path d="M20.456 61.336C19.1787 61.336 18.0294 61.0214 17.0187 60.392C10.6667 56.44 12.832 40.8774 21.944 24.968C28.6374 13.28 37.264 4.64536 43.9227 2.96536C46.144 2.41069 48.064 2.62403 49.648 3.60536C56 7.56003 53.8347 23.1227 44.7227 39.032C38.0294 50.72 29.4027 59.3547 22.744 61.0347C21.9965 61.228 21.2281 61.3292 20.456 61.336ZM18.4267 58.128C19.3707 58.7174 20.6027 58.8214 22.0907 58.448C27.9894 56.96 36.1547 48.624 42.4054 37.7094C51.232 22.3014 52.5627 8.5627 48.24 5.87469C47.296 5.28536 46.064 5.17869 44.576 5.55469C38.6774 7.04269 30.512 15.3787 24.2614 26.2934C15.4347 41.7014 14.104 55.4374 18.4267 58.128Z" fill="#E4E4E4"/>
<path d="M43.5442 61.336C42.8215 61.336 42.0589 61.2347 41.2562 61.0347C34.5975 59.3547 25.9709 50.72 19.2775 39.032C10.1655 23.1227 8.00019 7.55999 14.3522 3.60799C15.9335 2.62665 17.8589 2.41332 20.0775 2.96799C26.7362 4.64799 35.3629 13.2827 42.0562 24.9707C51.1682 40.88 53.3335 56.4427 46.9842 60.3947C45.9709 61.0213 44.8215 61.336 43.5442 61.336ZM17.8055 5.33332C17.0864 5.31496 16.377 5.5018 15.7602 5.87199C11.4375 8.56265 12.7682 22.2987 21.5949 37.7067C27.8455 48.624 36.0109 56.96 41.9095 58.4453C43.3975 58.8187 44.6295 58.7147 45.5735 58.1253C49.8962 55.4347 48.5655 41.6987 39.7389 26.2907C33.4882 15.3733 25.3229 7.03732 19.4242 5.55199C18.8957 5.41252 18.352 5.33907 17.8055 5.33332Z" fill="#E4E4E4"/>
<path d="M32.0002 38.6666C28.3255 38.6666 25.3335 35.6773 25.3335 32C25.3335 28.3226 28.3255 25.3333 32.0002 25.3333C35.6748 25.3333 38.6668 28.3226 38.6668 32C38.6668 35.6773 35.6748 38.6666 32.0002 38.6666ZM32.0002 28C29.7948 28 28.0002 29.7946 28.0002 32C28.0002 34.2053 29.7948 36 32.0002 36C34.2055 36 36.0002 34.2053 36.0002 32C36.0002 29.7946 34.2055 28 32.0002 28Z" fill="#E4E4E4"/>
</svg>
