<svg width="256" height="256" viewBox="0 0 256 256" fill="none" xmlns="http://www.w3.org/2000/svg">
<g clip-path="url(#clip0_757_12)">
<path d="M179.61 176.589C188.754 175.677 195.84 168.018 195.84 158.71C195.84 158.341 195.83 157.972 195.809 157.604V157.655C195.328 147.794 187.269 139.981 177.367 139.878H176.702C166.789 140.247 158.894 148.367 158.894 158.331C158.894 158.556 158.894 158.781 158.904 159.017V158.986C159.171 163.83 161.157 168.171 164.25 171.448L164.239 171.438C152.085 194.109 133.509 211.988 110.95 222.956L110.244 223.263C98.0378 230.021 83.4765 233.994 67.9834 233.994C64.0615 233.994 60.1908 233.738 56.4122 233.247L56.8628 233.298C42.9261 231.956 30.9249 224.655 23.3063 214.006L23.2141 213.862C17.7153 206.131 14.4282 196.506 14.4282 186.102C14.4282 177.531 16.6605 169.482 20.5825 162.499L20.4596 162.744C26.0609 152.136 33.6999 143.309 42.9261 136.509L43.1412 136.366C41.3901 131.727 39.8234 126.136 38.7175 120.392L38.6049 119.716C-9.34906 154.01 -4.48506 200.919 10.0762 223.089C22.8045 239.329 42.4244 249.672 64.4609 249.672C65.4644 249.672 66.4577 249.651 67.4509 249.61H67.3076C67.666 249.62 68.0961 249.62 68.5261 249.62C75.1514 249.62 81.5924 248.852 87.7773 247.409L87.2039 247.521C128.246 240.005 161.854 213.555 179.098 177.746L179.425 176.988L179.61 176.589Z" fill="white"/>
<path d="M237.363 136.182C212.757 108.124 176.845 90.5113 136.806 90.5113C135.588 90.5113 134.359 90.5318 133.151 90.5625H133.335H127.826C124.928 84.7564 119.02 80.8345 112.2 80.8345C111.995 80.8345 111.8 80.8345 111.596 80.8447H111.626H111.227C101.335 80.9881 93.3684 89.0367 93.3684 98.949C93.3684 99.246 93.3786 99.5327 93.3889 99.8194V99.7785C93.8497 109.64 101.909 117.473 111.821 117.576H112.63C119.941 117.289 126.116 112.742 128.778 106.373L128.819 106.25H134.81C160.963 106.281 185.231 114.309 205.302 128.041L204.872 127.764C220.549 137.8 232.653 152.218 239.606 169.288L239.821 169.882C242.483 175.432 244.03 181.944 244.03 188.815C244.03 196.086 242.299 202.946 239.217 209.009L239.329 208.753C231.373 224.993 214.968 235.97 196.004 235.97C195.308 235.97 194.622 235.96 193.935 235.93H194.038C182.395 235.684 171.407 233.124 161.444 228.69L161.976 228.905C158.095 232.141 151.624 237.466 146.924 240.712C159.355 246.815 173.937 250.532 189.348 250.89H189.471C190.075 250.911 190.782 250.921 191.488 250.921C217.621 250.921 240.507 237.046 253.194 216.269L253.379 215.951C256.881 207.647 258.908 198.001 258.908 187.873C258.908 167.598 250.757 149.227 237.558 135.864L237.568 135.874L237.414 136.202L237.363 136.182Z" fill="white"/>
<path d="M70.0826 182.436C70.5332 192.307 78.6126 200.161 88.5454 200.233H89.2007C99.113 199.895 107.029 191.765 107.029 181.801C107.029 171.663 98.8468 163.431 88.7194 163.359H88.0334C87.931 163.349 87.8081 163.349 87.6954 163.349C86.9479 163.349 86.2311 163.461 85.5553 163.687L85.6065 163.676C74.6497 145.848 68.1678 124.252 68.1678 101.141C68.1678 97.4132 68.3316 93.7268 68.6695 90.0916L68.6388 90.5627C69.5706 71.0452 76.7386 53.3608 88.1665 39.291L88.0436 39.4548C98.1914 28.4878 112.486 21.5041 128.43 20.9921H128.522C163.461 20.3368 178.033 63.8772 179.159 81.1828L195.359 86.0264C191.59 32.9729 158.597 5.12012 127.048 5.12012C94.9761 6.78924 68.3623 28.3649 59.2385 57.6616L59.0951 58.194C54.61 71.1169 52.009 86.0059 52.009 101.499C52.009 128 59.5969 152.73 72.7041 173.63L72.3764 173.066C70.9121 175.278 70.0417 177.992 70.0417 180.91C70.0417 181.453 70.0724 181.985 70.1338 182.508L70.1236 182.446L70.0826 182.436Z" fill="white"/>
</g>
<defs>
<clipPath id="clip0_757_12">
<rect width="256" height="256" fill="white"/>
</clipPath>
</defs>
</svg>
