<svg width="209" height="45" viewBox="0 0 209 45" fill="none" xmlns="http://www.w3.org/2000/svg">
<g clip-path="url(#clip0_3555_504)">
<path d="M52.3799 13.68V31.68" stroke="white"/>
<path d="M68.3945 22.6656H68.3484V30.6605C68.3484 30.8602 68.2487 30.96 68.0489 30.96H66.1826V14.9933C66.1826 14.6246 66.3133 14.3097 66.5743 14.0486C66.8353 13.7875 67.1503 13.657 67.5189 13.657H74.7535C75.8749 13.657 76.804 13.9949 77.5413 14.6707C78.2941 15.3312 78.6703 16.2298 78.6703 17.3664V19.6013C78.6703 20.5536 78.3783 21.3293 77.7948 21.9283C77.2112 22.512 76.4584 22.9267 75.5368 23.1725L79.2232 30.96H77.2188C77.0344 30.96 76.8962 30.8678 76.804 30.6835L73.302 23.2877H70.3529H69.6847C68.978 23.2877 68.5482 23.0803 68.3945 22.6656ZM68.7861 21.3062H74.7535C75.2449 21.3062 75.6596 21.1373 75.9976 20.7994C76.3357 20.4461 76.5045 20.0314 76.5045 19.5552V17.3894C76.5045 16.9133 76.3357 16.5062 75.9976 16.1683C75.6596 15.815 75.2449 15.6384 74.7535 15.6384H68.7861C68.6634 15.6384 68.5557 15.6845 68.4636 15.7766C68.3869 15.8534 68.3484 15.9533 68.3484 16.0762V20.8685C68.3484 20.9913 68.3869 21.0989 68.4636 21.191C68.5557 21.2678 68.6634 21.3062 68.7861 21.3062Z" fill="white"/>
<path d="M91.9061 15.6384C91.4147 15.6384 91 15.815 90.6619 16.1683C90.3239 16.5062 90.155 16.9133 90.155 17.3894V21.767C90.416 21.4598 90.7926 21.3062 91.284 21.3062H98.8642V22.9882C98.8642 23.1878 98.7645 23.2877 98.5647 23.2877H90.155V27.2275C90.155 27.719 90.3239 28.1337 90.6619 28.4717C91 28.8096 91.4147 28.9786 91.9061 28.9786H99.3711C99.5709 28.9786 99.6706 29.0784 99.6706 29.2781V30.96H91.9061C90.8308 30.96 89.9092 30.576 89.1413 29.808C88.3734 29.04 87.9893 28.1184 87.9893 27.0432V17.5738C87.9893 16.4832 88.3734 15.5616 89.1413 14.809C89.9092 14.041 90.8308 13.657 91.9061 13.657H99.6706V15.3389C99.6706 15.5386 99.5709 15.6384 99.3711 15.6384H91.9061Z" fill="white"/>
<path d="M118.279 23.7024L120.376 27.8266C120.314 27.289 120.26 26.7513 120.214 26.2138C120.183 25.6762 120.153 25.0925 120.122 24.4627C120.091 23.8176 120.061 23.3107 120.03 22.9421V13.9565C120.03 13.7568 120.13 13.657 120.329 13.657H122.196V30.96H120.191C119.991 30.96 119.846 30.8678 119.753 30.6835L111.874 16.007C111.736 15.7613 111.528 15.6384 111.251 15.6384H110.86V30.6605C110.86 30.8602 110.76 30.96 110.56 30.96H108.694V13.9565C108.694 13.7568 108.794 13.657 108.993 13.657H111.62C111.989 13.657 112.365 13.7722 112.749 14.0026C113.133 14.233 113.41 14.5094 113.578 14.832L118.279 23.7024Z" fill="white"/>
<path d="M131.227 13.657H143.485V15.3389C143.485 15.5386 143.385 15.6384 143.185 15.6384H138.255V30.6605C138.255 30.8602 138.155 30.96 137.955 30.96H136.089V15.6384H130.928V13.9565C130.928 13.7568 131.028 13.657 131.227 13.657Z" fill="white"/>
<path d="M158.532 28.0339L163.417 13.9334C163.509 13.7491 163.639 13.657 163.808 13.657H165.813L159.822 30.6605C159.761 30.8602 159.63 30.96 159.431 30.96H157.611C157.411 30.96 157.28 30.8602 157.219 30.6605L151.229 13.657H153.233C153.432 13.657 153.563 13.7491 153.624 13.9334L158.532 28.0339Z" fill="white"/>
<path d="M178.279 15.6384C177.788 15.6384 177.373 15.815 177.035 16.1683C176.697 16.5062 176.528 16.9133 176.528 17.3894V21.767C176.789 21.4598 177.166 21.3062 177.657 21.3062H185.237V22.9882C185.237 23.1878 185.137 23.2877 184.938 23.2877H176.528V27.2275C176.528 27.719 176.697 28.1337 177.035 28.4717C177.373 28.8096 177.788 28.9786 178.279 28.9786H185.744C185.944 28.9786 186.044 29.0784 186.044 29.2781V30.96H178.279C177.204 30.96 176.282 30.576 175.514 29.808C174.746 29.04 174.362 28.1184 174.362 27.0432V17.5738C174.362 16.4832 174.746 15.5616 175.514 14.809C176.282 14.041 177.204 13.657 178.279 13.657H186.044V15.3389C186.044 15.5386 185.944 15.6384 185.744 15.6384H178.279Z" fill="white"/>
<path d="M195.067 27.0432V17.5738C195.067 16.4832 195.451 15.5616 196.219 14.809C196.987 14.041 197.909 13.657 198.984 13.657H206.587V15.3389C206.587 15.5386 206.487 15.6384 206.288 15.6384H198.984C198.492 15.6384 198.078 15.815 197.74 16.1683C197.402 16.5062 197.233 16.9133 197.233 17.3894V27.2275C197.233 27.719 197.402 28.1337 197.74 28.4717C198.078 28.8096 198.492 28.9786 198.984 28.9786H206.288C206.487 28.9786 206.587 29.0784 206.587 29.2781V30.96H198.984C197.909 30.96 196.987 30.576 196.219 29.808C195.451 29.04 195.067 28.1184 195.067 27.0432Z" fill="white"/>
<path fill-rule="evenodd" clip-rule="evenodd" d="M77.2181 30.96C77.0337 30.96 76.8955 30.8678 76.8033 30.6835L73.3013 23.2877H69.684C69.4475 23.2877 69.2423 23.2645 69.0677 23.218C68.7206 23.1257 68.496 22.9416 68.3938 22.6656H68.3477V30.6605C68.3477 30.8602 68.248 30.96 68.0482 30.96H66.1819V14.9933C66.1819 14.6246 66.3126 14.3097 66.5736 14.0486C66.8346 13.7875 67.1496 13.657 67.5182 13.657H74.7528C75.8742 13.657 76.8033 13.9949 77.5406 14.6707C78.2934 15.3312 78.6696 16.2298 78.6696 17.3664V19.6013C78.6696 20.5536 78.3776 21.3293 77.7941 21.9283C77.3631 22.3592 76.8401 22.6981 76.2248 22.9448C76.007 23.0323 75.7774 23.1081 75.5362 23.1725L79.2225 30.96H77.2181ZM76.5333 23.5966L80.3601 31.68H77.2181C76.9999 31.68 76.7771 31.6234 76.5769 31.4899C76.3811 31.3595 76.2482 31.1831 76.1593 31.0055L76.1561 30.9986L72.8455 24.0077H69.684C69.4784 24.0077 69.2696 23.9918 69.0677 23.9539V30.6605C69.0677 30.8713 69.0144 31.1617 68.7818 31.3942C68.5493 31.6268 68.2591 31.68 68.0482 31.68H65.4619V14.9933C65.4619 14.4333 65.6686 13.9354 66.0646 13.5395C66.4602 13.1436 66.9584 12.937 67.5182 12.937H74.7528C76.0279 12.937 77.136 13.3257 78.0212 14.1347C78.9479 14.9507 79.3896 16.0564 79.3896 17.3664V19.6013C79.3896 20.7131 79.0429 21.6784 78.3096 22.4308L78.3063 22.4341L78.3031 22.4374C77.8059 22.9345 77.2123 23.3187 76.5333 23.5966ZM75.997 16.1683C75.6589 15.815 75.2442 15.6384 74.7528 15.6384H68.7854C68.6627 15.6384 68.555 15.6845 68.4629 15.7766C68.3862 15.8534 68.3477 15.9533 68.3477 16.0762V20.8685C68.3477 20.9913 68.3862 21.0989 68.4629 21.191C68.555 21.2678 68.6627 21.3062 68.7854 21.3062H74.7528C75.2442 21.3062 75.6589 21.1373 75.997 20.7994C76.335 20.4461 76.5038 20.0314 76.5038 19.5552V17.3894C76.5038 16.9133 76.335 16.5062 75.997 16.1683ZM75.4821 20.2958C75.6917 20.0742 75.7838 19.838 75.7838 19.5552V17.3894C75.7838 17.105 75.6913 16.8809 75.4879 16.6774L75.4821 16.6718L75.4767 16.666C75.2755 16.4556 75.0491 16.3584 74.7528 16.3584H69.0677V20.5862H74.7528C75.0566 20.5862 75.2849 20.4907 75.4821 20.2958ZM91.1763 16.6718L91.1706 16.6774C90.9672 16.8809 90.8747 17.105 90.8747 17.3894V20.6159C91.0079 20.5958 91.1443 20.5862 91.2836 20.5862H99.5838V22.9882C99.5838 23.199 99.5305 23.4893 99.2979 23.7219C99.0654 23.9545 98.7752 24.0077 98.5643 24.0077H90.8747V27.2275C90.8747 27.5342 90.9719 27.7639 91.1706 27.9626C91.3693 28.1612 91.599 28.2586 91.9057 28.2586H99.3707C99.5816 28.2586 99.8718 28.3118 100.104 28.5443C100.337 28.7769 100.39 29.0673 100.39 29.2781V31.68H91.9057C90.6374 31.68 89.5333 31.2186 88.6319 30.3171C87.7304 29.4156 87.2689 28.3115 87.2689 27.0432V17.5738C87.2689 16.294 87.7279 15.187 88.6344 14.2972C89.5355 13.3974 90.6385 12.937 91.9057 12.937H100.39V15.3389C100.39 15.5497 100.337 15.8401 100.104 16.0726C99.8718 16.3052 99.5816 16.3584 99.3707 16.3584H91.9057C91.6094 16.3584 91.383 16.4556 91.1817 16.666L91.1763 16.6718ZM89.1409 14.809C88.373 15.5616 87.9889 16.4832 87.9889 17.5738V27.0432C87.9889 28.1184 88.373 29.04 89.1409 29.808C89.9088 30.576 90.8304 30.96 91.9057 30.96H99.6702V29.2781C99.6702 29.0784 99.5705 28.9786 99.3707 28.9786H91.9057C91.4143 28.9786 90.9996 28.8096 90.6615 28.4717C90.3235 28.1337 90.1547 27.719 90.1547 27.2275V23.2877H98.5643C98.764 23.2877 98.8638 23.1878 98.8638 22.9882V21.3062H91.2836C91.1371 21.3062 91.0007 21.3199 90.8747 21.3472C90.578 21.4115 90.3379 21.5514 90.1547 21.767V17.3894C90.1547 16.9133 90.3235 16.5062 90.6615 16.1683C90.9996 15.815 91.4143 15.6384 91.9057 15.6384H99.3707C99.5705 15.6384 99.6702 15.5386 99.6702 15.3389V13.657H91.9057C90.8304 13.657 89.9088 14.041 89.1409 14.809ZM118.917 23.3707L119.393 24.3063C119.365 23.7558 119.338 23.3219 119.311 23.0019L119.309 22.972V13.9565C119.309 13.7457 119.362 13.4553 119.595 13.2227C119.827 12.9902 120.118 12.937 120.328 12.937H122.915V31.68H120.19C119.976 31.68 119.752 31.6292 119.547 31.4996C119.347 31.3734 119.207 31.1991 119.114 31.0164L111.579 16.982V30.6605C111.579 30.8713 111.526 31.1617 111.293 31.3942C111.061 31.6268 110.77 31.68 110.559 31.68H107.974V13.9565C107.974 13.7457 108.026 13.4553 108.259 13.2227C108.492 12.9902 108.782 12.937 108.993 12.937H111.619C112.144 12.937 112.647 13.102 113.119 13.3852C113.59 13.6677 113.972 14.0332 114.215 14.4965C114.215 14.497 114.215 14.4974 114.216 14.4979L118.917 23.3707ZM113.578 14.832C113.409 14.5094 113.132 14.233 112.748 14.0026C112.364 13.7722 111.988 13.657 111.619 13.657H108.993C108.793 13.657 108.694 13.7568 108.694 13.9565V30.96H110.559C110.759 30.96 110.859 30.8602 110.859 30.6605V15.6384H111.251C111.374 15.6384 111.484 15.6628 111.579 15.7115C111.698 15.7722 111.796 15.8707 111.873 16.007L119.753 30.6835C119.845 30.8678 119.991 30.96 120.19 30.96H122.195V13.657H120.328C120.129 13.657 120.029 13.7568 120.029 13.9565V22.9421C120.06 23.3107 120.09 23.8176 120.121 24.4627C120.146 24.9659 120.17 25.4398 120.195 25.8841C120.201 25.9958 120.207 26.1057 120.214 26.2138C120.259 26.7513 120.313 27.289 120.375 27.8266L118.278 23.7024L113.578 14.832ZM144.205 12.937V15.3389C144.205 15.5497 144.151 15.8401 143.919 16.0726C143.686 16.3052 143.396 16.3584 143.185 16.3584H138.975V30.6605C138.975 30.8713 138.921 31.1617 138.689 31.3942C138.456 31.6268 138.166 31.68 137.955 31.68H135.369V16.3584H130.208V13.9565C130.208 13.7457 130.261 13.4553 130.493 13.2227C130.726 12.9902 131.016 12.937 131.227 12.937H144.205ZM136.089 15.6384V30.96H137.955C138.155 30.96 138.255 30.8602 138.255 30.6605V15.6384H143.185C143.385 15.6384 143.485 15.5386 143.485 15.3389V13.657H131.227C131.028 13.657 130.928 13.7568 130.928 13.9565V15.6384H136.089ZM159.822 30.6605C159.76 30.8602 159.63 30.96 159.43 30.96H157.61C157.41 30.96 157.279 30.8602 157.218 30.6605L151.228 13.657H153.232C153.432 13.657 153.562 13.7491 153.624 13.9334L158.532 28.0339L163.416 13.9334C163.508 13.7491 163.639 13.657 163.807 13.657H165.812L159.822 30.6605ZM158.53 25.8389L162.751 13.6534L162.772 13.6114C162.856 13.4429 162.981 13.2694 163.168 13.1379C163.362 13.001 163.583 12.937 163.807 12.937H166.829L160.505 30.8885C160.441 31.0878 160.323 31.2984 160.115 31.457C159.899 31.6222 159.653 31.68 159.43 31.68H157.61C157.387 31.68 157.141 31.6222 156.925 31.457C156.717 31.2984 156.599 31.0878 156.535 30.8885L150.211 12.937H153.232C153.443 12.937 153.681 12.9867 153.895 13.1379C154.109 13.2888 154.236 13.4964 154.305 13.7004C154.306 13.7022 154.306 13.704 154.307 13.7057L158.53 25.8389ZM177.549 16.6718L177.544 16.6774C177.34 16.8809 177.248 17.105 177.248 17.3894V20.6159C177.381 20.5958 177.517 20.5862 177.657 20.5862H185.957V22.9882C185.957 23.199 185.903 23.4893 185.671 23.7219C185.438 23.9545 185.148 24.0077 184.937 24.0077H177.248V27.2275C177.248 27.5342 177.345 27.7639 177.544 27.9626C177.742 28.1612 177.972 28.2586 178.279 28.2586H185.744C185.955 28.2586 186.245 28.3118 186.477 28.5443C186.71 28.7769 186.763 29.0673 186.763 29.2781V31.68H178.279C177.01 31.68 175.906 31.2186 175.005 30.3171C174.103 29.4156 173.642 28.3115 173.642 27.0432V17.5738C173.642 16.2939 174.101 15.1868 175.008 14.297C175.908 13.3974 177.012 12.937 178.279 12.937H186.763V15.3389C186.763 15.5497 186.71 15.8401 186.477 16.0726C186.245 16.3052 185.955 16.3584 185.744 16.3584H178.279C177.982 16.3584 177.756 16.4556 177.555 16.666L177.549 16.6718ZM176.528 23.2877H184.937C185.137 23.2877 185.237 23.1878 185.237 22.9882V21.3062H177.657C177.51 21.3062 177.374 21.3199 177.248 21.3472C176.951 21.4115 176.711 21.5514 176.528 21.767V17.3894C176.528 16.9133 176.696 16.5062 177.034 16.1683C177.373 15.815 177.787 15.6384 178.279 15.6384H185.744C185.943 15.6384 186.043 15.5386 186.043 15.3389V13.657H178.279C177.203 13.657 176.282 14.041 175.514 14.809C174.746 15.5616 174.362 16.4832 174.362 17.5738V27.0432C174.362 28.1184 174.746 29.04 175.514 29.808C176.282 30.576 177.203 30.96 178.279 30.96H186.043V29.2781C186.043 29.0784 185.943 28.9786 185.744 28.9786H178.279C177.787 28.9786 177.373 28.8096 177.034 28.4717C176.696 28.1337 176.528 27.719 176.528 27.2275V23.2877ZM207.307 12.937V15.3389C207.307 15.5497 207.253 15.8401 207.021 16.0726C206.788 16.3052 206.498 16.3584 206.287 16.3584H198.983C198.687 16.3584 198.461 16.4556 198.259 16.666L198.254 16.6718L198.248 16.6774C198.045 16.8809 197.952 17.105 197.952 17.3894V27.2275C197.952 27.5342 198.049 27.7639 198.248 27.9626C198.447 28.1612 198.677 28.2586 198.983 28.2586H206.287C206.498 28.2586 206.788 28.3118 207.021 28.5443C207.253 28.7769 207.307 29.0673 207.307 29.2781V31.68H198.983C197.715 31.68 196.611 31.2186 195.709 30.3171C194.808 29.4156 194.347 28.3115 194.347 27.0432V17.5738C194.347 16.2939 194.805 15.1868 195.712 14.297C196.613 13.3974 197.716 12.937 198.983 12.937H207.307ZM195.067 17.5738V27.0432C195.067 28.1184 195.45 29.04 196.219 29.808C196.986 30.576 197.908 30.96 198.983 30.96H206.587V29.2781C206.587 29.0784 206.486 28.9786 206.287 28.9786H198.983C198.492 28.9786 198.077 28.8096 197.739 28.4717C197.401 28.1337 197.232 27.719 197.232 27.2275V17.3894C197.232 16.9133 197.401 16.5062 197.739 16.1683C198.077 15.815 198.492 15.6384 198.983 15.6384H206.287C206.486 15.6384 206.587 15.5386 206.587 15.3389V13.657H198.983C197.908 13.657 196.986 14.041 196.219 14.809C195.45 15.5616 195.067 16.4832 195.067 17.5738Z" fill="white"/>
<path fill-rule="evenodd" clip-rule="evenodd" d="M1.8 0C0.805888 0 0 0.805889 0 1.8V42.7162C0 43.8786 1.08507 44.7361 2.21588 44.4676L16.6159 41.0479C17.4272 40.8553 18 40.1306 18 39.2969V1.8C18 0.805889 17.1941 0 16.2 0H1.8ZM21.6 0H25.2H27H36C37.697 0 38.5455 0 39.0729 0.527209C39.6 1.05441 39.6 1.90294 39.6 3.6V16.0613C39.6 17.3587 39.6 18.0074 39.2411 18.487C38.8821 18.9665 38.2597 19.1494 37.0152 19.5153L27 22.4586V23.156L36.9723 25.9535C38.2367 26.3082 38.8688 26.4855 39.2346 26.9678C39.6 27.45 39.6 28.1066 39.6 29.4197V40.8765C39.6 43.0805 39.6 44.1828 38.8785 44.7228C38.1571 45.2628 37.0998 44.9518 34.9849 44.3304L24.1849 41.1563C22.9402 40.7905 22.3178 40.6076 21.9589 40.1281C21.6277 39.6857 21.6021 39.0992 21.6002 37.9922H21.6V37.7024V26.3899V19.2354V3.6V0Z" fill="white"/>
</g>
<defs>
<clipPath id="clip0_3555_504">
<rect width="208.08" height="45" fill="white"/>
</clipPath>
</defs>
</svg>
