<svg width="1220" height="41" viewBox="0 0 1220 41" fill="none" xmlns="http://www.w3.org/2000/svg">
<g opacity="0.3">
<path d="M513.929 11.0831L515 4.18011L516.071 11.0831C516.773 15.6019 520.318 19.1472 524.837 19.8486L531.74 20.9199L524.837 21.9913C520.318 22.6926 516.773 26.2379 516.071 30.7567L515 37.6597L513.929 30.7567C513.227 26.2379 509.682 22.6926 505.163 21.9913L498.26 20.9199L505.163 19.8486C509.682 19.1472 513.227 15.6019 513.929 11.0831Z" fill="white" stroke="white"/>
<path d="M608.929 11.0831L610 4.18011L611.071 11.0831C611.773 15.6019 615.318 19.1472 619.837 19.8486L626.74 20.9199L619.837 21.9913C615.318 22.6926 611.773 26.2379 611.071 30.7567L610 37.6597L608.929 30.7567C608.227 26.2379 604.682 22.6926 600.163 21.9913L593.26 20.9199L600.163 19.8486C604.682 19.1472 608.227 15.6019 608.929 11.0831Z" fill="white" stroke="white"/>
<path d="M703.929 11.0831L705 4.18011L706.071 11.0831C706.773 15.6019 710.318 19.1472 714.837 19.8486L721.74 20.9199L714.837 21.9913C710.318 22.6926 706.773 26.2379 706.071 30.7567L705 37.6597L703.929 30.7567C703.227 26.2379 699.682 22.6926 695.163 21.9913L688.26 20.9199L695.163 19.8486C699.682 19.1472 703.227 15.6019 703.929 11.0831Z" fill="white" stroke="white"/>
</g>
<path opacity="0.3" d="M0 20.9199H480" stroke="white"/>
<path opacity="0.3" d="M740 20.9199H1220" stroke="white"/>
</svg>
