<svg width="164" height="36" viewBox="0 0 164 36" fill="none" xmlns="http://www.w3.org/2000/svg">
<g clip-path="url(#clip0_374_296)">
<path d="M159.616 28.4952C155.872 28.4952 154.979 26.7384 154.979 24.1176V17.2344H152.358V12.828H154.979V8.8248L160.48 8.364V12.828H163.331V17.2344H160.48V23.0808C160.48 23.8872 160.94 24.0888 161.602 24.0888H163.331V28.4952H159.616Z" fill="white"/>
<path d="M143.841 28.7832C138.715 28.7832 135.777 25.5864 135.777 20.8056C135.777 15.6792 138.917 12.54 143.64 12.54C149.313 12.54 151.992 16.5432 151.416 21.9576H141.192C141.134 23.7144 142.229 24.6936 143.841 24.6936C144.993 24.6936 145.915 24.1752 146.145 23.3976H151.301C150.955 26.6232 147.96 28.7832 143.841 28.7832ZM143.64 16.6008C142.257 16.6008 141.336 17.436 141.221 18.6744H146.001C145.915 17.3496 144.965 16.6008 143.64 16.6008Z" fill="white"/>
<path d="M117.797 28.4952V7.5H123.298V15.3912H123.528C124.277 13.4904 126.091 12.54 128.165 12.54C131.246 12.54 133.637 14.268 133.637 18.9048V28.4952H128.136V20.1144C128.136 18.0408 127.502 16.9752 125.861 16.9752C124.133 16.9752 123.298 18.3576 123.298 19.6248V28.4952H117.797Z" fill="white"/>
<path d="M108.121 28.7832C103.282 28.7832 100.143 25.5576 100.143 20.6328C100.143 15.708 103.311 12.54 108.265 12.54C112.527 12.54 115.551 15.1032 115.609 18.8184H110.252C110.05 17.5512 109.244 16.9752 108.149 16.9752C106.45 16.9752 105.73 18.3864 105.73 20.6616C105.73 23.2536 106.681 24.348 108.121 24.348C109.474 24.348 110.165 23.5704 110.309 22.5048H115.637C115.522 26.3064 112.412 28.7832 108.121 28.7832Z" fill="white"/>
<path d="M90.375 28.7832C85.5654 28.7832 82.3398 25.8456 82.3398 20.6616C82.3398 15.7944 85.2198 12.54 90.375 12.54C95.1846 12.54 98.4102 15.4776 98.4102 20.6616C98.4102 25.5288 95.5302 28.7832 90.375 28.7832ZM90.375 24.3768C91.8726 24.3768 92.8518 23.34 92.8518 20.6616C92.8518 17.9832 91.8726 16.9464 90.375 16.9464C88.8774 16.9464 87.8982 17.9832 87.8982 20.6616C87.8982 23.34 88.8774 24.3768 90.375 24.3768Z" fill="white"/>
<path d="M73.4986 28.7832C68.6602 28.7832 65.521 25.5576 65.521 20.6328C65.521 15.708 68.689 12.54 73.6426 12.54C77.905 12.54 80.929 15.1032 80.9866 18.8184H75.6298C75.4282 17.5512 74.6218 16.9752 73.5274 16.9752C71.8282 16.9752 71.1082 18.3864 71.1082 20.6616C71.1082 23.2536 72.0586 24.348 73.4986 24.348C74.8522 24.348 75.5434 23.5704 75.6874 22.5048H81.0154C80.9002 26.3064 77.7898 28.7832 73.4986 28.7832Z" fill="white"/>
<path d="M57.75 11.1864V7.5H63.2508V11.1864H57.75ZM57.75 28.4952V12.828H63.2508V28.4952H57.75Z" fill="white"/>
<path d="M45.6001 28.4952V12.828H50.5825L50.7841 15.1032H50.9857C51.6769 13.116 53.2033 12.6264 55.0465 12.6264H55.9105V17.7816H54.9313C51.9361 17.7816 51.1009 18.9624 51.1009 21.0936V28.4952H45.6001Z" fill="white"/>
<path fill-rule="evenodd" clip-rule="evenodd" d="M24.0068 7.83223C22.2689 6.74605 20.2087 6.11719 18 6.11719C13.7304 6.11719 10.021 8.47327 8.11143 11.9332L14.3634 19.4933L24.0068 7.83223ZM2.97623 14.3267C1.14946 15.9525 0 18.3066 0 20.9268C0 25.8361 4.0275 29.8125 9 29.8125H28.5C32.64 29.8125 36 26.4952 36 22.4077C36 18.498 32.9175 15.3287 29.0325 15.0548C28.8017 13.902 28.39 12.8133 27.8279 11.8187L15.4926 26.7349C14.8695 27.4884 13.8575 27.4884 13.2343 26.7349L2.97623 14.3267Z" fill="white"/>
</g>
<defs>
<clipPath id="clip0_374_296">
<rect width="163.5" height="36" fill="white"/>
</clipPath>
</defs>
</svg>
