<svg width="152" height="25" viewBox="0 0 152 25" fill="none" xmlns="http://www.w3.org/2000/svg">
<path d="M12 18.4849L4.94658 22.1931L6.29366 14.339L0.587322 8.77666L8.47329 7.63076L12 0.484863L15.5267 7.63076L23.4127 8.77666L17.7063 14.339L19.0534 22.1931L12 18.4849Z" fill="#F6D021"/>
<path d="M44 18.4849L36.9466 22.1931L38.2937 14.339L32.5873 8.77666L40.4733 7.63076L44 0.484863L47.5267 7.63076L55.4127 8.77666L49.7063 14.339L51.0534 22.1931L44 18.4849Z" fill="#F6D021"/>
<path d="M76 18.4849L68.9466 22.1931L70.2937 14.339L64.5873 8.77666L72.4733 7.63076L76 0.484863L79.5267 7.63076L87.4127 8.77666L81.7063 14.339L83.0534 22.1931L76 18.4849Z" fill="#F6D021"/>
<path d="M108 18.4849L100.947 22.1931L102.294 14.339L96.5873 8.77666L104.473 7.63076L108 0.484863L111.527 7.63076L119.413 8.77666L113.706 14.339L115.053 22.1931L108 18.4849Z" fill="#F6D021"/>
<path d="M140 18.4849L132.947 22.1931L134.294 14.339L128.587 8.77666L136.473 7.63076L140 0.484863L143.527 7.63076L151.413 8.77666L145.706 14.339L147.053 22.1931L140 18.4849Z" fill="#F6D021"/>
</svg>
