<svg width="597" height="120" viewBox="0 0 597 120" fill="none" xmlns="http://www.w3.org/2000/svg">
<path d="M105.338 39.6485C115.991 35.2114 123.998 25.6892 126.348 14.1131C126.82 11.8287 127.062 9.47831 127.062 7.05107V0H0V7.06205C0 9.47831 0.241625 11.8396 0.713893 14.1241C3.06425 25.6892 11.0708 35.2114 21.7243 39.6595C22.592 40.022 23.4706 40.3515 24.3822 40.637C25.2828 40.9336 26.2054 41.1862 27.1389 41.4058L25.9088 44.0088L24.6787 46.6008L1.47172 95.2993C1.0324 96.2987 0.691927 97.3421 0.450302 98.4294C0.153762 99.6925 0.010983 101.01 0.010983 102.35C0.010983 103.558 0.131796 104.734 0.362438 105.876C0.768808 107.864 1.49368 109.72 2.5151 111.411C5.59033 116.551 11.2136 120 17.6606 120H35.3103C44.0637 120 52.2899 116.584 59.4179 110.588C60.1428 109.995 60.8347 109.368 61.5266 108.71C62.2186 108.072 62.8885 107.392 63.5475 106.7C64.1955 107.392 64.8764 108.062 65.5574 108.699C66.2493 109.357 66.9522 109.984 67.6661 110.577C74.7941 116.573 83.0203 119.989 91.7847 119.989H109.434C115.87 119.989 121.494 116.54 124.58 111.4C125.601 109.709 126.326 107.853 126.733 105.865C126.963 104.723 127.084 103.548 127.084 102.339C127.084 100.988 126.941 99.6815 126.645 98.4184C126.403 97.3311 126.063 96.2768 125.623 95.2883L102.416 46.5788L101.186 43.9868L99.9561 41.3839C100.89 41.1642 101.812 40.9116 102.713 40.615C103.613 40.3295 104.503 39.989 105.371 39.6376L105.338 39.6485ZM53.0917 97.6936C52.3998 98.3855 51.6969 99.0335 50.972 99.6376C46.2493 103.635 40.9226 105.876 35.2993 105.876H17.6496C17.6496 105.876 17.6167 105.876 17.5947 105.876C14.9588 105.876 13.2784 103.042 14.4097 100.67L36.9577 53.6189L39.5607 48.1933L42.3613 42.3504V45.8759C42.3613 46.8534 42.3723 47.8309 42.4053 48.7974C42.4492 50.7853 42.548 52.7512 42.7128 54.6842C43.7562 67.9187 47.1279 80.0769 52.1911 90.2361C52.6524 91.1587 53.1247 92.0593 53.6079 92.9489C54.0912 93.8276 54.5854 94.6952 55.1016 95.5519C54.4536 96.3097 53.7836 97.0236 53.1027 97.6936H53.0917ZM91.7628 28.2372H70.5876V45.8869C70.5876 56.0132 69.1159 65.5354 66.5129 73.9044C68.6766 80.3185 71.5321 85.8979 74.8819 90.2471C79.9451 80.0988 83.3169 67.9407 84.3602 54.7172C84.514 52.7732 84.6128 50.8072 84.6678 48.8193C84.7007 47.8528 84.7117 46.8753 84.7117 45.8979V42.3723L87.5124 48.2153L90.1153 53.6299L112.674 100.736C113.817 103.13 112.081 105.898 109.423 105.909H91.7737C86.1395 105.909 80.8127 103.668 76.0901 99.6595C75.3652 99.0555 74.6623 98.4075 73.9703 97.7155C73.2894 97.0456 72.6304 96.3317 71.9824 95.5848C68.7315 91.8506 65.8869 87.2158 63.5365 81.9001C63.0093 80.7029 62.5041 79.4838 62.0209 78.2208C61.4937 76.8259 60.9995 75.4091 60.5491 73.9374C57.9462 65.5684 56.4745 56.0461 56.4745 45.9198V28.2702H35.2993C26.0846 28.2702 18.2427 22.3833 15.3322 14.1571H111.73C108.83 22.3833 100.988 28.2702 91.7628 28.2702V28.2372Z" fill="white"/>
<path d="M157.969 111.631V113.817H154.146V93.7837H157.969V102.197C158.737 100.879 160.341 99.7145 162.373 99.7145C165.744 99.7145 168.38 102.219 168.38 106.777V106.985C168.38 111.543 165.799 114.102 162.373 114.102C160.242 114.102 158.682 113.048 157.969 111.62V111.631ZM164.503 107.018V106.81C164.503 104.02 163.131 102.647 161.209 102.647C159.287 102.647 157.837 104.042 157.837 106.81V107.018C157.837 109.786 159.155 111.126 161.241 111.126C163.328 111.126 164.514 109.698 164.514 107.018H164.503Z" fill="white"/>
<path d="M174.707 112.422L169.227 100.033H173.334L176.684 108.314L179.77 100.033H183.439L175.981 118.518H172.291L174.718 112.433L174.707 112.422Z" fill="white"/>
<path d="M191.917 109.731V102.746H190.148V100.033H191.917V97.0566H195.717V100.033H198.616V102.746H195.717V109.391C195.717 110.5 196.266 111.027 197.243 111.027C197.826 111.027 198.243 110.95 198.693 110.763V113.718C198.166 113.905 197.397 114.091 196.376 114.091C193.476 114.091 191.917 112.62 191.917 109.742V109.731Z" fill="white"/>
<path d="M200.429 107.095V106.886C200.429 102.537 203.515 99.7144 207.524 99.7144C211.082 99.7144 214.245 101.801 214.245 106.721V107.776H204.306C204.416 110.071 205.646 111.389 207.732 111.389C209.501 111.389 210.368 110.62 210.61 109.467H214.223C213.773 112.444 211.401 114.102 207.634 114.102C203.471 114.102 200.44 111.488 200.44 107.095H200.429ZM210.522 105.436C210.39 103.35 209.336 102.35 207.513 102.35C205.799 102.35 204.635 103.482 204.35 105.436H210.522Z" fill="white"/>
<path d="M215.882 109.489H219.44C219.594 110.73 220.209 111.444 221.868 111.444C223.339 111.444 224.031 110.895 224.031 109.94C224.031 108.984 223.218 108.6 221.242 108.303C217.573 107.754 216.156 106.7 216.156 104.009C216.156 101.131 218.792 99.7144 221.615 99.7144C224.668 99.7144 226.964 100.824 227.304 103.987H223.801C223.592 102.855 222.955 102.328 221.637 102.328C220.396 102.328 219.682 102.91 219.682 103.756C219.682 104.602 220.341 104.964 222.34 105.261C225.788 105.766 227.689 106.634 227.689 109.588C227.689 112.542 225.525 114.124 221.89 114.124C218.254 114.124 216.014 112.488 215.882 109.511V109.489Z" fill="white"/>
<path d="M230.687 109.731V102.746H228.919V100.033H230.687V97.0566H234.487V100.033H237.387V102.746H234.487V109.391C234.487 110.5 235.036 111.027 236.014 111.027C236.596 111.027 237.013 110.95 237.464 110.763V113.718C236.937 113.905 236.168 114.091 235.146 114.091C232.247 114.091 230.687 112.62 230.687 109.742V109.731Z" fill="white"/>
<path d="M245.053 107.095V106.886C245.053 102.537 248.139 99.7144 252.148 99.7144C255.706 99.7144 258.869 101.801 258.869 106.721V107.776H248.93C249.04 110.071 250.27 111.389 252.356 111.389C254.125 111.389 254.992 110.62 255.234 109.467H258.847C258.397 112.444 256.025 114.102 252.258 114.102C248.095 114.102 245.064 111.488 245.064 107.095H245.053ZM255.146 105.436C255.014 103.35 253.96 102.35 252.137 102.35C250.423 102.35 249.259 103.482 248.974 105.436H255.146Z" fill="white"/>
<path d="M264.196 106.777L259.791 100.033H264.163L266.744 104.174L269.27 100.033H273.224L268.819 106.491L273.674 113.817H269.27L266.37 109.182L263.394 113.817H259.462L264.185 106.777H264.196Z" fill="white"/>
<path d="M276.288 109.731V102.746H274.52V100.033H276.288V97.0566H280.088V100.033H282.987V102.746H280.088V109.391C280.088 110.5 280.637 111.027 281.615 111.027C282.197 111.027 282.614 110.95 283.064 110.763V113.718C282.537 113.905 281.768 114.091 280.747 114.091C277.847 114.091 276.288 112.62 276.288 109.742V109.731Z" fill="white"/>
<path d="M285.646 100.033H289.468V102.669C290.335 100.824 291.686 99.8462 293.927 99.8242V103.383C291.104 103.361 289.468 104.283 289.468 106.919V113.828H285.646V100.044V100.033Z" fill="white"/>
<path d="M295.267 109.995C295.267 106.777 298.221 105.569 302.438 105.569H303.998V105.019C303.998 103.383 303.493 102.493 301.758 102.493C300.253 102.493 299.572 103.262 299.407 104.448H295.794C296.035 101.175 298.616 99.7256 301.988 99.7256C305.36 99.7256 307.765 101.098 307.765 104.844V113.828H304.053V112.169C303.262 113.279 302.054 114.124 299.89 114.124C297.386 114.124 295.278 112.916 295.278 110.017L295.267 109.995ZM303.998 108.995V107.831H302.526C300.308 107.831 299.023 108.303 299.023 109.786C299.023 110.785 299.627 111.444 301.022 111.444C302.713 111.444 303.998 110.522 303.998 108.995Z" fill="white"/>
<path d="M310.192 107.073V106.865C310.192 102.537 313.334 99.7256 317.463 99.7256C321.593 99.7256 324.712 102.493 324.712 106.788V106.996C324.712 111.346 321.571 114.113 317.441 114.113C313.312 114.113 310.192 111.368 310.192 107.073ZM320.846 107.018V106.832C320.846 104.196 319.605 102.614 317.474 102.614C315.343 102.614 314.102 104.141 314.102 106.777V106.985C314.102 109.621 315.31 111.203 317.474 111.203C319.638 111.203 320.846 109.621 320.846 107.007V107.018Z" fill="white"/>
<path d="M327.271 100.033H331.094V102.669C331.961 100.824 333.312 99.8462 335.553 99.8242V103.383C332.73 103.361 331.094 104.283 331.094 106.919V113.828H327.271V100.044V100.033Z" fill="white"/>
<path d="M336.969 107.117V106.908C336.969 102.372 339.583 99.7145 343.031 99.7145C345.25 99.7145 346.612 100.692 347.381 102.087V93.7837H351.181V113.817H347.381V111.521C346.667 112.916 344.986 114.102 342.954 114.102C339.605 114.102 336.969 111.708 336.969 107.117ZM347.49 106.985V106.777C347.49 104.031 346.282 102.636 344.196 102.636C342.109 102.636 340.879 104.086 340.879 106.831V107.04C340.879 109.786 342.197 111.126 344.097 111.126C346.096 111.126 347.501 109.786 347.501 106.985H347.49Z" fill="white"/>
<path d="M354.399 96.079C354.399 94.8928 355.344 93.9922 356.563 93.9922C357.782 93.9922 358.749 94.8928 358.749 96.079C358.749 97.2651 357.804 98.1657 356.563 98.1657C355.322 98.1657 354.399 97.2651 354.399 96.079ZM354.685 100.033H358.485V113.816H354.685V100.033Z" fill="white"/>
<path d="M361.989 100.033H365.811V102.218C366.492 100.846 367.996 99.7144 370.292 99.7144C373.004 99.7144 374.926 101.351 374.926 105.041V113.816H371.104V105.59C371.104 103.723 370.369 102.823 368.677 102.823C366.986 102.823 365.8 103.822 365.8 105.854V113.816H361.978V100.033H361.989Z" fill="white"/>
<path d="M377.299 109.995C377.299 106.777 380.253 105.569 384.471 105.569H386.03V105.019C386.03 103.383 385.525 102.493 383.79 102.493C382.285 102.493 381.604 103.262 381.439 104.448H377.826C378.068 101.175 380.649 99.7256 384.02 99.7256C387.392 99.7256 389.797 101.098 389.797 104.844V113.828H386.085V112.169C385.294 113.279 384.086 114.124 381.923 114.124C379.419 114.124 377.31 112.916 377.31 110.017L377.299 109.995ZM386.03 108.995V107.831H384.559C382.34 107.831 381.055 108.303 381.055 109.786C381.055 110.785 381.659 111.444 383.054 111.444C384.745 111.444 386.03 110.522 386.03 108.995Z" fill="white"/>
<path d="M392.884 96.079C392.884 94.8928 393.828 93.9922 395.047 93.9922C396.267 93.9922 397.233 94.8928 397.233 96.079C397.233 97.2651 396.289 98.1657 395.047 98.1657C393.806 98.1657 392.884 97.2651 392.884 96.079ZM393.169 100.033H396.969V113.816H393.169V100.033Z" fill="white"/>
<path d="M400.473 100.033H404.295V102.669C405.162 100.824 406.513 99.8462 408.754 99.8242V103.383C405.931 103.361 404.295 104.283 404.295 106.919V113.828H400.473V100.044V100.033Z" fill="white"/>
<path d="M410.148 107.095V106.886C410.148 102.537 413.235 99.7144 417.243 99.7144C420.802 99.7144 423.965 101.801 423.965 106.721V107.776H414.025C414.135 110.071 415.365 111.389 417.452 111.389C419.22 111.389 420.088 110.62 420.33 109.467H423.943C423.493 112.444 421.12 114.102 417.353 114.102C413.191 114.102 410.159 111.488 410.159 107.095H410.148ZM420.242 105.436C420.11 103.35 419.056 102.35 417.232 102.35C415.519 102.35 414.355 103.482 414.069 105.436H420.242Z" fill="white"/>
<path d="M161.022 50.6425V25.2059H154.146V11.8946H161.022V0H180.561V11.8946H191.807V25.2059H180.561V48.7864C180.561 52.9379 182.636 54.7941 186.349 54.7941C188.534 54.7941 190.171 54.4646 191.917 53.8166V68.6656C189.402 69.3245 185.701 70.302 181.11 70.302C168.227 70.302 161.022 64.0857 161.022 50.6535V50.6425Z" fill="white"/>
<path d="M197.804 41.1532V40.2856C197.804 21.944 211.445 10.3789 228.688 10.3789C244.295 10.3789 257.716 19.33 257.716 39.8462V44.9753H217.551C218.1 52.5096 222.461 56.8698 229.446 56.8698C235.882 56.8698 238.617 53.9264 239.375 50.1043H257.716C255.97 62.9874 246.041 70.302 228.787 70.302C211.533 70.302 197.793 59.8243 197.793 41.1642L197.804 41.1532ZM238.738 33.9484C238.408 27.073 235.025 23.251 228.699 23.251C222.801 23.251 218.77 27.073 217.782 33.9484H238.738Z" fill="white"/>
<path d="M262.845 50.8624H280.857C281.516 55.014 283.372 57.2984 288.929 57.2984C293.729 57.2984 295.914 55.4423 295.914 52.6087C295.914 49.7751 293.191 48.567 285.327 47.4796C270.05 45.5137 263.603 41.0436 263.603 29.1381C263.603 16.4747 274.849 10.3682 288.051 10.3682C302.131 10.3682 311.95 15.1677 313.268 28.8196H295.585C294.816 24.9975 292.751 23.1414 288.27 23.1414C283.789 23.1414 281.834 24.9975 281.834 27.6114C281.834 30.2254 284.448 31.4335 291.444 32.3012C307.271 34.2671 314.915 38.4187 314.915 50.6427C314.915 64.1738 304.877 70.2913 289.05 70.2913C273.224 70.2913 263.295 63.5258 262.856 50.8624H262.845Z" fill="white"/>
<path d="M325.492 50.6425V25.2059H318.616V11.8946H325.492V0H345.03V11.8946H356.277V25.2059H345.03V48.7864C345.03 52.9379 347.106 54.7941 350.818 54.7941C353.004 54.7941 354.64 54.4646 356.387 53.8166V68.6656C353.872 69.3245 350.17 70.302 345.579 70.302C332.696 70.302 325.492 64.0857 325.492 50.6535V50.6425Z" fill="white"/>
<path d="M365.107 30.4556H395.673V45.1947H365.107V30.4556Z" fill="white"/>
<path d="M403.745 53.1576C403.745 39.7364 415.102 34.4975 434.091 34.4975H439.55V33.1905C439.55 27.732 438.243 24.1296 432.016 24.1296C426.667 24.1296 424.701 27.2927 424.262 30.8951H405.92C406.799 17.1444 417.595 10.3789 433.202 10.3789C448.808 10.3789 458.957 16.8149 458.957 31.9934V68.995H439.967V62.3394C437.243 66.4909 432.213 70.313 423.053 70.313C412.795 70.313 403.734 65.2938 403.734 53.1796L403.745 53.1576ZM439.55 49.006V45.5134H434.421C426.568 45.5134 423.075 47.0401 423.075 51.7298C423.075 55.0027 425.261 57.0785 429.841 57.0785C435.409 57.0785 439.55 53.9154 439.55 49.006Z" fill="white"/>
<path d="M467.04 41.1532V40.2855C467.04 21.296 480.681 10.3789 497.496 10.3789C511.466 10.3789 524.349 16.4964 525.437 33.8495H507.095C506.217 28.5008 503.603 25.5574 497.924 25.5574C491.049 25.5574 487.007 30.4668 487.007 40.0769V40.9555C487.007 50.8841 490.829 56.0132 498.254 56.0132C503.712 56.0132 507.535 52.7402 508.183 46.5129H525.755C525.206 60.9226 515.497 70.313 497.046 70.313C480.022 70.313 467.029 60.3844 467.029 41.1752L467.04 41.1532Z" fill="white"/>
<path d="M530.665 41.1532V40.2856C530.665 21.944 544.306 10.3789 561.549 10.3789C577.156 10.3789 590.588 19.33 590.588 39.8462V44.9753H550.423C550.973 52.5096 555.333 56.8698 562.318 56.8698C568.754 56.8698 571.489 53.9264 572.247 50.1043H590.588C588.842 62.9874 578.913 70.302 561.659 70.302C544.405 70.302 530.665 59.8243 530.665 41.1642V41.1532ZM571.599 33.9484C571.269 27.073 567.886 23.251 561.56 23.251C555.662 23.251 551.632 27.073 550.643 33.9484H571.599Z" fill="white"/>
</svg>
