<svg width="101" height="20" viewBox="0 0 101 20" fill="none" xmlns="http://www.w3.org/2000/svg">
<path d="M96.3481 3.41357H100.615L95.7721 14.4216C94.2147 17.9629 92.8067 19.2216 89.8201 19.2216H88.4547V15.8296H89.5641C91.0787 15.8296 91.5267 15.4242 92.0601 13.9949L87.3027 3.41357H91.6121L94.0654 9.77091L96.3481 3.41357Z" fill="white"/>
<path d="M83.0925 3.41335H86.0579V14.9334H82.9859L82.6445 14.1227C81.7059 14.8907 80.5112 15.3174 79.1672 15.3174C75.6472 15.3174 73.1299 12.7574 73.1299 9.17335C73.1299 5.61069 75.6472 3.07202 79.1672 3.07202C80.5325 3.07202 81.7485 3.52002 82.6872 4.30935L83.0925 3.41335ZM79.7005 11.8187C81.1939 11.8187 82.2819 10.688 82.2819 9.17335C82.2819 7.68002 81.1939 6.57069 79.7005 6.57069C78.2072 6.57069 77.1192 7.68002 77.1192 9.17335C77.1192 10.688 78.2072 11.8187 79.7005 11.8187Z" fill="white"/>
<path d="M66.6523 0C69.8309 0 72.1989 2.28267 72.1989 5.39733C72.1989 8.53333 69.8309 10.816 66.6523 10.816H64.4123V14.9333H60.2949V0H66.6523ZM66.1616 7.232C67.2496 7.232 67.9536 6.48533 67.9536 5.41867C67.9536 4.352 67.2496 3.60533 66.1616 3.60533H64.4123V7.232H66.1616Z" fill="white"/>
<path d="M56.7287 11.4773H58.2434V14.9333H55.5127C52.974 14.9333 51.4167 13.376 51.4167 10.816V6.4853H49.3047V5.54663L54.4674 0.0639648H55.2994V3.4133H58.1794V6.4853H55.3847V10.1546C55.3847 10.9653 55.8967 11.4773 56.7287 11.4773Z" fill="white"/>
<path d="M42.7157 15.3174C39.0251 15.3174 36.3584 12.736 36.3584 9.17335C36.3584 5.61069 39.0037 3.07202 42.7371 3.07202C45.9797 3.07202 48.3904 5.09869 48.8384 8.17069H44.9557C44.6357 7.23202 43.7611 6.61336 42.7157 6.61336C41.3291 6.61336 40.3264 7.68002 40.3264 9.17335C40.3264 10.688 41.3291 11.776 42.7157 11.776C43.7824 11.776 44.6571 11.1147 44.9771 10.0907H48.8811C48.4331 13.2054 45.9584 15.3174 42.7157 15.3174Z" fill="white"/>
<path d="M31.5506 3.41335H34.5161V14.9334H31.4439L31.1026 14.1227C30.1639 14.8907 28.9693 15.3174 27.6252 15.3174C24.1052 15.3174 21.5879 12.7574 21.5879 9.17335C21.5879 5.61069 24.1052 3.07202 27.6252 3.07202C28.9906 3.07202 30.2066 3.52002 31.1453 4.30935L31.5506 3.41335ZM28.1586 11.8187C29.6519 11.8187 30.7399 10.688 30.7399 9.17335C30.7399 7.68002 29.6519 6.57069 28.1586 6.57069C26.6653 6.57069 25.5773 7.68002 25.5773 9.17335C25.5773 10.688 26.6653 11.8187 28.1586 11.8187Z" fill="white"/>
<path d="M19.8792 3.37061H20.9459V6.99727H19.3885C18.0019 6.99727 17.4045 7.61594 17.4045 9.08794V14.9333H13.4365V3.41327H16.1032L16.7219 4.69327C17.5325 3.75461 18.5139 3.37061 19.8792 3.37061Z" fill="white"/>
<path d="M12.2453 0V3.712H8.192V9.32267V14.9333H4.05333V3.712H0V0H12.2453Z" fill="white"/>
</svg>
