<svg width="181" height="24" viewBox="0 0 181 24" fill="none" xmlns="http://www.w3.org/2000/svg">
<path d="M51.1084 3.54851V7.02502H53.4335V10.2138H51.1084V14.6733C51.1084 15.5045 51.548 15.9201 52.4268 15.9201C52.7144 15.9201 53.0341 15.8801 53.3855 15.8002V18.8212C52.9383 19.0449 52.3069 19.1568 51.492 19.1568C50.2616 19.1568 49.2868 18.8132 48.5677 18.1259C47.8647 17.4385 47.513 16.5035 47.513 15.3207V10.2138H45.4037V7.02502H46.003C46.6104 7.02502 47.0658 6.8492 47.3692 6.49755C47.689 6.12993 47.8486 5.65839 47.8486 5.08297V3.54851H51.1084ZM63.4493 7.02502V10.6214C63.1137 10.5415 62.7302 10.5015 62.2988 10.5015C61.4838 10.5015 60.8127 10.7653 60.2854 11.2927C59.7741 11.8202 59.5183 12.6354 59.5183 13.7383V18.941H55.875V7.02502H59.3985V8.6314C59.6861 8.02402 60.1257 7.58445 60.7168 7.31273C61.3081 7.04101 61.8994 6.90514 62.4905 6.90514C62.8582 6.90514 63.1777 6.94511 63.4493 7.02502ZM65.0339 15.6563C65.0339 14.6494 65.3616 13.8422 66.0167 13.2348C66.6717 12.6114 67.5188 12.2198 68.5574 12.06L71.3618 11.6284C71.9371 11.5485 72.2247 11.2767 72.2247 10.8132C72.2247 10.4456 72.0648 10.1419 71.7453 9.90213C71.4416 9.64637 71.0183 9.51851 70.475 9.51851C69.8678 9.51851 69.3803 9.69433 69.0128 10.046C68.6612 10.3816 68.4694 10.7892 68.4376 11.2688L65.2736 10.6214C65.3534 9.63041 65.841 8.72731 66.7357 7.91213C67.6466 7.08095 68.9009 6.66538 70.4989 6.66538C72.3045 6.66538 73.631 7.09695 74.4778 7.96008C75.3407 8.82321 75.7722 9.9261 75.7722 11.2688V17.0949C75.7722 17.8461 75.8201 18.4615 75.916 18.941H72.6322C72.5524 18.6214 72.5123 18.1738 72.5123 17.5984C71.8251 18.7173 70.7067 19.2767 69.1566 19.2767C67.8942 19.2767 66.8875 18.925 66.1365 18.2218C65.4014 17.5025 65.0339 16.6473 65.0339 15.6563ZM70.0435 16.6394C70.6667 16.6394 71.1861 16.4555 71.6015 16.0879C72.0169 15.7203 72.2247 15.1129 72.2247 14.2657V13.7383L69.9716 14.0979C69.0768 14.2418 68.6293 14.6813 68.6293 15.4166C68.6293 15.7522 68.7412 16.04 68.9649 16.2797C69.2046 16.5195 69.5641 16.6394 70.0435 16.6394ZM90.2312 7.02502L85.701 18.941H82.0337L77.1439 7.02502H81.0989L83.8554 14.4336L86.3961 7.02502H90.2312ZM103.831 7.02502L99.3007 18.941H95.6334L90.7437 7.02502H94.6986L97.4551 14.4336L99.9958 7.02502H103.831ZM108.092 11.5565H112.862C112.83 11.013 112.614 10.5415 112.214 10.1419C111.831 9.74228 111.248 9.54249 110.465 9.54249C109.762 9.54249 109.202 9.75029 108.787 10.1659C108.371 10.5814 108.14 11.045 108.092 11.5565ZM113.125 14.6494L116.169 15.5125C115.866 16.6154 115.235 17.5265 114.276 18.2457C113.317 18.949 112.119 19.3007 110.68 19.3007C108.955 19.3007 107.485 18.7253 106.27 17.5744C105.072 16.4236 104.472 14.8811 104.472 12.9471C104.472 11.0929 105.056 9.58245 106.222 8.41562C107.405 7.24878 108.803 6.66538 110.417 6.66538C112.27 6.66538 113.725 7.20884 114.779 8.29574C115.85 9.36667 116.385 10.8612 116.385 12.7792C116.385 13.3866 116.361 13.7622 116.313 13.9061H108.02C108.052 14.5614 108.331 15.1129 108.859 15.5604C109.386 15.992 110.009 16.2078 110.728 16.2078C111.959 16.2078 112.758 15.6883 113.125 14.6494ZM122.368 18.941H118.724V1.58249H122.368V18.941ZM129.106 18.941H125.583V1.58249H129.154V8.15189C129.426 7.75228 129.873 7.41662 130.497 7.1449C131.12 6.87318 131.823 6.73731 132.606 6.73731C134.3 6.73731 135.642 7.32071 136.633 8.48755C137.639 9.63839 138.143 11.1249 138.143 12.9471C138.143 14.7692 137.607 16.2717 136.537 17.4545C135.482 18.6214 134.124 19.2048 132.462 19.2048C131.695 19.2048 131.016 19.0609 130.425 18.7732C129.833 18.4695 129.394 18.0779 129.106 17.5984V18.941ZM134.499 12.971C134.499 12.012 134.244 11.2847 133.732 10.7892C133.221 10.2778 132.582 10.022 131.815 10.022C131.048 10.022 130.401 10.2778 129.873 10.7892C129.362 11.2847 129.106 12.012 129.106 12.971C129.106 13.9141 129.37 14.6494 129.897 15.1768C130.425 15.6883 131.064 15.9441 131.815 15.9441C132.566 15.9441 133.197 15.6883 133.708 15.1768C134.236 14.6494 134.499 13.9141 134.499 12.971ZM139.774 15.6563C139.774 14.6494 140.102 13.8422 140.757 13.2348C141.412 12.6114 142.259 12.2198 143.298 12.06L146.102 11.6284C146.678 11.5485 146.965 11.2767 146.965 10.8132C146.965 10.4456 146.805 10.1419 146.486 9.90213C146.182 9.64637 145.759 9.51851 145.215 9.51851C144.608 9.51851 144.121 9.69433 143.753 10.046C143.402 10.3816 143.21 10.7892 143.178 11.2688L140.014 10.6214C140.094 9.63041 140.581 8.72731 141.476 7.91213C142.387 7.08095 143.641 6.66538 145.239 6.66538C147.045 6.66538 148.371 7.09695 149.218 7.96008C150.081 8.82321 150.513 9.9261 150.513 11.2688V17.0949C150.513 17.8461 150.561 18.4615 150.656 18.941H147.373C147.293 18.6214 147.253 18.1738 147.253 17.5984C146.566 18.7173 145.447 19.2767 143.897 19.2767C142.635 19.2767 141.628 18.925 140.877 18.2218C140.142 17.5025 139.774 16.6473 139.774 15.6563ZM144.784 16.6394C145.407 16.6394 145.926 16.4555 146.342 16.0879C146.757 15.7203 146.965 15.1129 146.965 14.2657V13.7383L144.712 14.0979C143.817 14.2418 143.37 14.6813 143.37 15.4166C143.37 15.7522 143.481 16.04 143.705 16.2797C143.945 16.5195 144.305 16.6394 144.784 16.6394ZM157.102 18.941H153.578V1.58249H157.15V8.15189C157.421 7.75228 157.869 7.41662 158.492 7.1449C159.115 6.87318 159.818 6.73731 160.601 6.73731C162.295 6.73731 163.637 7.32071 164.628 8.48755C165.635 9.63839 166.138 11.1249 166.138 12.9471C166.138 14.7692 165.603 16.2717 164.532 17.4545C163.477 18.6214 162.119 19.2048 160.457 19.2048C159.69 19.2048 159.011 19.0609 158.42 18.7732C157.829 18.4695 157.389 18.0779 157.102 17.5984V18.941ZM162.495 12.971C162.495 12.012 162.239 11.2847 161.728 10.7892C161.216 10.2778 160.577 10.022 159.81 10.022C159.043 10.022 158.396 10.2778 157.869 10.7892C157.357 11.2847 157.102 12.012 157.102 12.971C157.102 13.9141 157.365 14.6494 157.893 15.1768C158.42 15.6883 159.059 15.9441 159.81 15.9441C160.561 15.9441 161.192 15.6883 161.704 15.1768C162.231 14.6494 162.495 13.9141 162.495 12.971ZM172.554 23.5204H168.719L171.428 17.3347L166.418 7.02502H170.493L173.393 13.4026L176.03 7.02502H179.889L172.554 23.5204Z" fill="white"/>
<path d="M51.1086 3.54854H51.588V3.06902H51.1086V3.54854ZM51.1086 7.02505H50.6292V7.50456H51.1086V7.02505ZM53.4336 7.02505H53.913V6.54553H53.4336V7.02505ZM53.4336 10.2138V10.6934H53.913V10.2138H53.4336ZM51.1086 10.2138V9.73432H50.6292V10.2138H51.1086ZM53.3857 15.8002H53.8651V15.1995L53.2795 15.3326L53.3857 15.8002ZM53.3857 18.8212L53.6002 19.2501L53.8651 19.1175V18.8212H53.3857ZM48.5678 18.1259L48.2327 18.4688L48.2347 18.4707L48.2368 18.4726L48.5678 18.1259ZM47.5132 10.2138H47.9926V9.73432H47.5132V10.2138ZM45.4039 10.2138H44.9245V10.6934H45.4039V10.2138ZM45.4039 7.02505V6.54553H44.9245V7.02505H45.4039ZM47.3694 6.49758L47.0077 6.18292L47.0067 6.18416L47.3694 6.49758ZM47.8488 3.54854V3.06902H47.3694V3.54854H47.8488ZM50.6292 3.54854V7.02505H51.588V3.54854H50.6292ZM51.1086 7.50456H53.4336V6.54553H51.1086V7.50456ZM52.9542 7.02505V10.2138H53.913V7.02505H52.9542ZM53.4336 9.73432H51.1086V10.6934H53.4336V9.73432ZM50.6292 10.2138V14.6734H51.588V10.2138H50.6292ZM50.6292 14.6734C50.6292 15.1699 50.7618 15.6287 51.1088 15.9569C51.4509 16.2803 51.9202 16.3996 52.4269 16.3996V15.4406C52.0549 15.4406 51.8651 15.3521 51.7675 15.26C51.6752 15.1726 51.588 15.0079 51.588 14.6734H50.6292ZM52.4269 16.3996C52.7579 16.3996 53.1139 16.3538 53.4921 16.2678L53.2795 15.3326C52.9545 15.4065 52.6712 15.4406 52.4269 15.4406V16.3996ZM52.9063 15.8002V18.8212H53.8651V15.8002H52.9063ZM53.1714 18.3923C52.8198 18.5682 52.2742 18.6773 51.4921 18.6773V19.6364C52.3401 19.6364 53.0571 19.5218 53.6002 19.2501L53.1714 18.3923ZM51.4921 18.6773C50.3543 18.6773 49.5089 18.3621 48.8991 17.7792L48.2368 18.4726C49.065 19.2643 50.1692 19.6364 51.4921 19.6364V18.6773ZM48.9029 17.7829C48.3104 17.2038 47.9926 16.4025 47.9926 15.3207H47.0338C47.0338 16.6045 47.4192 17.6734 48.2327 18.4688L48.9029 17.7829ZM47.9926 15.3207V10.2138H47.0338V15.3207H47.9926ZM47.5132 9.73432H45.4039V10.6934H47.5132V9.73432ZM45.8833 10.2138V7.02505H44.9245V10.2138H45.8833ZM45.4039 7.50456H46.0031V6.54553H45.4039V7.50456ZM46.0031 7.50456C46.7042 7.50456 47.3114 7.29832 47.7323 6.81099L47.0067 6.18416C46.8202 6.40011 46.5168 6.54553 46.0031 6.54553V7.50456ZM47.7311 6.81224C48.14 6.342 48.3281 5.752 48.3281 5.083H47.3694C47.3694 5.56484 47.238 5.91789 47.0077 6.18292L47.7311 6.81224ZM48.3281 5.083V3.54854H47.3694V5.083H48.3281ZM47.8488 4.02806H51.1086V3.06902H47.8488V4.02806ZM63.4494 7.02505H63.9288V6.66625L63.5849 6.56502L63.4494 7.02505ZM63.4494 10.6214L63.3385 11.0879L63.9288 11.2285V10.6214H63.4494ZM60.2855 11.2928L59.9466 10.9537L59.9439 10.9563L59.9413 10.9589L60.2855 11.2928ZM59.5185 18.9411V19.4206H59.9979V18.9411H59.5185ZM55.8751 18.9411H55.3957V19.4206H55.8751V18.9411ZM55.8751 7.02505V6.54553H55.3957V7.02505H55.8751ZM59.3986 7.02505H59.878V6.54553H59.3986V7.02505ZM59.3986 8.63143H58.9192L59.832 8.83671L59.3986 8.63143ZM60.7169 7.31276L60.9171 7.74849L60.7169 7.31276ZM62.9701 7.02505V10.6214H63.9288V7.02505H62.9701ZM63.5604 10.155C63.1807 10.0645 62.7589 10.022 62.2989 10.022V10.9811C62.7018 10.9811 63.047 11.0185 63.3385 11.0879L63.5604 10.155ZM62.2989 10.022C61.3699 10.022 60.5726 10.3275 59.9466 10.9537L60.6244 11.6318C61.0532 11.2031 61.598 10.9811 62.2989 10.9811V10.022ZM59.9413 10.9589C59.3083 11.6119 59.0391 12.5722 59.0391 13.7383H59.9979C59.9979 12.6986 60.2399 12.0285 60.6297 11.6266L59.9413 10.9589ZM59.0391 13.7383V18.9411H59.9979V13.7383H59.0391ZM59.5185 18.4616H55.8751V19.4206H59.5185V18.4616ZM56.3545 18.9411V7.02505H55.3957V18.9411H56.3545ZM55.8751 7.50456H59.3986V6.54553H55.8751V7.50456ZM58.9192 7.02505V8.63143H59.878V7.02505H58.9192ZM59.832 8.83671C60.0731 8.32751 60.4319 7.97152 60.9171 7.74849L60.5168 6.87702C59.8198 7.19743 59.2996 7.72056 58.9655 8.42615L59.832 8.83671ZM60.9171 7.74849C61.4521 7.50267 61.9753 7.38468 62.4907 7.38468V6.42565C61.8236 6.42565 61.1644 6.57938 60.5168 6.87702L60.9171 7.74849ZM62.4907 7.38468C62.8253 7.38468 63.0973 7.42127 63.3143 7.48507L63.5849 6.56502C63.2584 6.469 62.8912 6.42565 62.4907 6.42565V7.38468ZM66.0168 13.2348L66.3428 13.5865L66.3449 13.5844L66.3473 13.5822L66.0168 13.2348ZM68.5576 12.06L68.6304 12.5339L68.5576 12.06ZM71.362 11.6284L71.296 11.1535L71.2927 11.1539L71.2891 11.1545L71.362 11.6284ZM71.7455 9.90215L71.4367 10.2689L71.4471 10.2777L71.4578 10.2858L71.7455 9.90215ZM69.013 10.046L69.344 10.3929L69.3445 10.3925L69.013 10.046ZM68.4377 11.2688L68.3416 11.7386L68.8795 11.8486L68.9161 11.3007L68.4377 11.2688ZM65.2737 10.6214L64.796 10.5829L64.7618 11.0061L65.1776 11.0912L65.2737 10.6214ZM66.7359 7.91215L67.0587 8.26669L67.059 8.2664L66.7359 7.91215ZM74.478 7.96011L74.1359 8.29598L74.1374 8.29759L74.139 8.29917L74.478 7.96011ZM75.9161 18.9411V19.4206H76.501L76.3862 18.847L75.9161 18.9411ZM72.6323 18.9411L72.1673 19.0574L72.2582 19.4206H72.6323V18.9411ZM72.5125 17.5984H72.9919V15.9017L72.1041 17.3474L72.5125 17.5984ZM66.1366 18.2218L65.8016 18.5646L65.8052 18.5682L65.809 18.5718L66.1366 18.2218ZM71.6017 16.0879L71.2841 15.7288L71.6017 16.0879ZM72.2249 13.7383H72.7042V13.1762L72.1494 13.2648L72.2249 13.7383ZM69.9717 14.0979L69.8962 13.6244L69.8958 13.6245L69.9717 14.0979ZM68.965 16.2797L68.6146 16.6069L68.6203 16.613L68.6261 16.6188L68.965 16.2797ZM65.5134 15.6564C65.5134 14.7642 65.7984 14.0912 66.3428 13.5865L65.6911 12.8831C64.925 13.5932 64.5547 14.5346 64.5547 15.6564H65.5134ZM66.3473 13.5822C66.9204 13.0368 67.6724 12.6814 68.6304 12.5339L68.4847 11.5861C67.3656 11.7583 66.4236 12.1861 65.6865 12.8874L66.3473 13.5822ZM68.6304 12.5339L71.4348 12.1024L71.2891 11.1545L68.4847 11.5861L68.6304 12.5339ZM71.4279 12.1034C71.7704 12.0558 72.0954 11.9429 72.3382 11.7133C72.5945 11.4712 72.7042 11.1523 72.7042 10.8132H71.7455C71.7455 10.9377 71.7114 10.9864 71.68 11.0161C71.6354 11.0582 71.529 11.1211 71.296 11.1535L71.4279 12.1034ZM72.7042 10.8132C72.7042 10.2801 72.4612 9.83974 72.0331 9.51854L71.4578 10.2858C71.669 10.4441 71.7455 10.6111 71.7455 10.8132H72.7042ZM72.0542 9.53537C71.6371 9.18388 71.0899 9.03902 70.4751 9.03902V9.99806C70.9471 9.99806 71.2467 10.1089 71.4367 10.2689L72.0542 9.53537ZM70.4751 9.03902C69.7699 9.03902 69.1553 9.24634 68.6817 9.69949L69.3445 10.3925C69.6057 10.1424 69.966 9.99806 70.4751 9.99806V9.03902ZM68.6819 9.69915C68.2447 10.1166 67.9995 10.6361 67.9595 11.2369L68.9161 11.3007C68.9399 10.9424 69.0782 10.6468 69.344 10.3929L68.6819 9.69915ZM68.5338 10.799L65.3699 10.1516L65.1776 11.0912L68.3416 11.7386L68.5338 10.799ZM65.7517 10.66C65.8198 9.81536 66.233 9.01879 67.0587 8.26669L66.413 7.55762C65.449 8.43588 64.8876 9.44549 64.796 10.5829L65.7517 10.66ZM67.059 8.2664C67.8579 7.53741 68.9842 7.14492 70.4991 7.14492V6.18589C68.8181 6.18589 67.4355 6.62458 66.4128 7.55791L67.059 8.2664ZM70.4991 7.14492C72.2392 7.14492 73.4154 7.56165 74.1359 8.29598L74.8203 7.62423C73.8469 6.6323 72.3704 6.18589 70.4991 6.18589V7.14492ZM74.139 8.29917C74.9027 9.06297 75.2929 10.0393 75.2929 11.2688H76.2517C76.2517 9.81292 75.7793 8.5835 74.8169 7.62104L74.139 8.29917ZM75.2929 11.2688V17.0949H76.2517V11.2688H75.2929ZM75.2929 17.0949C75.2929 17.8629 75.3416 18.5128 75.4461 19.0351L76.3862 18.847C76.2989 18.4103 76.2517 17.8295 76.2517 17.0949H75.2929ZM75.9161 18.4616H72.6323V19.4206H75.9161V18.4616ZM73.0973 18.8248C73.0317 18.5612 72.9919 18.1591 72.9919 17.5984H72.0331C72.0331 18.1886 72.0734 18.6816 72.1673 19.0574L73.0973 18.8248ZM72.1041 17.3474C71.5211 18.2966 70.5755 18.7972 69.1568 18.7972V19.7563C70.8382 19.7563 72.1297 19.1379 72.9209 17.8494L72.1041 17.3474ZM69.1568 18.7972C67.9871 18.7972 67.1074 18.4739 66.4643 17.8717L65.809 18.5718C66.668 19.3762 67.8018 19.7563 69.1568 19.7563V18.7972ZM66.472 17.879C65.825 17.2461 65.5134 16.513 65.5134 15.6564H64.5547C64.5547 16.7818 64.9782 17.7589 65.8016 18.5646L66.472 17.879ZM70.0436 17.1189C70.7685 17.1189 71.4053 16.902 71.9192 16.4471L71.2841 15.7288C70.9672 16.0092 70.5655 16.1599 70.0436 16.1599V17.1189ZM71.9192 16.4471C72.4816 15.9495 72.7042 15.1779 72.7042 14.2658H71.7455C71.7455 15.0479 71.5528 15.4911 71.2841 15.7288L71.9192 16.4471ZM72.7042 14.2658V13.7383H71.7455V14.2658H72.7042ZM72.1494 13.2648L69.8962 13.6244L70.0472 14.5715L72.3004 14.2118L72.1494 13.2648ZM69.8958 13.6245C69.3919 13.7055 68.949 13.8792 68.6292 14.1934C68.298 14.5188 68.1501 14.9442 68.1501 15.4166H69.1088C69.1088 15.1537 69.1848 14.9917 69.3011 14.8776C69.4286 14.7523 69.6568 14.6343 70.048 14.5714L69.8958 13.6245ZM68.1501 15.4166C68.1501 15.8706 68.3059 16.2761 68.6146 16.6069L69.3155 15.9526C69.1767 15.8039 69.1088 15.634 69.1088 15.4166H68.1501ZM68.6261 16.6188C68.9873 16.9802 69.4904 17.1189 70.0436 17.1189V16.1599C69.6381 16.1599 69.4221 16.0588 69.304 15.9407L68.6261 16.6188ZM90.2313 7.02505L90.6793 7.19549L90.9265 6.54553H90.2313V7.02505ZM85.7011 18.9411V19.4206H86.0317L86.1491 19.1115L85.7011 18.9411ZM82.0338 18.9411L81.5904 19.123L81.7124 19.4206H82.0338V18.9411ZM77.1441 7.02505V6.54553H76.4291L76.7007 7.20712L77.1441 7.02505ZM81.099 7.02505L81.5482 6.85779L81.432 6.54553H81.099V7.02505ZM83.8555 14.4336L83.4061 14.6009L83.874 15.8578L84.309 14.5892L83.8555 14.4336ZM86.3963 7.02505V6.54553H86.0537L85.9428 6.86944L86.3963 7.02505ZM89.7831 6.8546L85.2529 18.7706L86.1491 19.1115L90.6793 7.19549L89.7831 6.8546ZM85.7011 18.4616H82.0338V19.4206H85.7011V18.4616ZM82.4773 18.759L77.5875 6.84297L76.7007 7.20712L81.5904 19.123L82.4773 18.759ZM77.1441 7.50456H81.099V6.54553H77.1441V7.50456ZM80.6496 7.1923L83.4061 14.6009L84.3047 14.2663L81.5482 6.85779L80.6496 7.1923ZM84.309 14.5892L86.8498 7.18065L85.9428 6.86944L83.402 14.278L84.309 14.5892ZM86.3963 7.50456H90.2313V6.54553H86.3963V7.50456ZM103.831 7.02505L104.279 7.19549L104.526 6.54553H103.831V7.02505ZM99.3009 18.9411V19.4206H99.6314L99.7489 19.1115L99.3009 18.9411ZM95.6336 18.9411L95.1901 19.123L95.3121 19.4206H95.6336V18.9411ZM90.7438 7.02505V6.54553H90.0288L90.3004 7.20712L90.7438 7.02505ZM94.6988 7.02505L95.1479 6.85779L95.0319 6.54553H94.6988V7.02505ZM97.4552 14.4336L97.006 14.6009L97.4737 15.8578L97.9087 14.5892L97.4552 14.4336ZM99.996 7.02505V6.54553H99.6537L99.5425 6.86944L99.996 7.02505ZM103.383 6.8546L98.8529 18.7706L99.7489 19.1115L104.279 7.19549L103.383 6.8546ZM99.3009 18.4616H95.6336V19.4206H99.3009V18.4616ZM96.077 18.759L91.1872 6.84297L90.3004 7.20712L95.1901 19.123L96.077 18.759ZM90.7438 7.50456H94.6988V6.54553H90.7438V7.50456ZM94.2496 7.1923L97.006 14.6009L97.9044 14.2663L95.1479 6.85779L94.2496 7.1923ZM97.9087 14.5892L100.449 7.18065L99.5425 6.86944L97.0017 14.278L97.9087 14.5892ZM99.996 7.50456H103.831V6.54553H99.996V7.50456ZM108.092 11.5565L107.615 11.5117L107.565 12.036H108.092V11.5565ZM112.862 11.5565V12.036H113.37L113.34 11.5283L112.862 11.5565ZM112.215 10.1419L111.869 10.474L111.872 10.4775L111.876 10.481L112.215 10.1419ZM108.787 10.1659L108.448 9.82682L108.787 10.1659ZM113.125 14.6494L113.256 14.188L112.823 14.0654L112.673 14.4894L113.125 14.6494ZM116.17 15.5125L116.632 15.6398L116.758 15.181L116.3 15.0512L116.17 15.5125ZM114.276 18.2458L114.559 18.6325L114.561 18.6309L114.564 18.6294L114.276 18.2458ZM106.27 17.5744L105.938 17.9204L105.94 17.9226L106.27 17.5744ZM106.222 8.41565L105.885 8.07428L105.883 8.07658L106.222 8.41565ZM114.779 8.29577L114.435 8.62973L114.438 8.63232L114.44 8.63484L114.779 8.29577ZM116.313 13.9061V14.3856H116.659L116.768 14.0578L116.313 13.9061ZM108.02 13.9061V13.4266H107.517L107.541 13.9295L108.02 13.9061ZM108.859 15.5605L108.549 15.9261L108.552 15.9289L108.555 15.9316L108.859 15.5605ZM108.092 12.036H112.862V11.077H108.092V12.036ZM113.34 11.5283C113.301 10.8628 113.033 10.282 112.554 9.80285L111.876 10.481C112.195 10.801 112.358 11.1632 112.383 11.5846L113.34 11.5283ZM112.56 9.80982C112.054 9.28262 111.323 9.063 110.465 9.063V10.022C111.172 10.022 111.608 10.202 111.869 10.474L112.56 9.80982ZM110.465 9.063C109.661 9.063 108.971 9.30398 108.448 9.82682L109.126 10.505C109.434 10.1966 109.862 10.022 110.465 10.022V9.063ZM108.448 9.82682C107.966 10.3094 107.674 10.8732 107.615 11.5117L108.569 11.6013C108.605 11.2168 108.777 10.8536 109.126 10.505L108.448 9.82682ZM112.995 15.1107L116.039 15.9739L116.3 15.0512L113.256 14.188L112.995 15.1107ZM115.707 15.3852C115.433 16.3805 114.867 17.2033 113.988 17.8622L114.564 18.6294C115.603 17.8496 116.298 16.8503 116.632 15.6398L115.707 15.3852ZM113.992 17.8591C113.132 18.4903 112.039 18.8212 110.681 18.8212V19.7802C112.199 19.7802 113.502 19.4079 114.559 18.6325L113.992 17.8591ZM110.681 18.8212C109.073 18.8212 107.722 18.2899 106.6 17.2263L105.94 17.9226C107.247 19.1607 108.836 19.7802 110.681 19.7802V18.8212ZM106.602 17.2285C105.513 16.1831 104.952 14.7738 104.952 12.9471H103.993C103.993 14.9885 104.63 16.6642 105.938 17.9204L106.602 17.2285ZM104.952 12.9471C104.952 11.203 105.496 9.82016 106.561 8.75471L105.883 8.07658C104.615 9.34479 103.993 10.9829 103.993 12.9471H104.952ZM106.559 8.75702C107.655 7.67582 108.933 7.14492 110.417 7.14492V6.18589C108.673 6.18589 107.155 6.82183 105.885 8.07428L106.559 8.75702ZM110.417 7.14492C112.172 7.14492 113.49 7.65602 114.435 8.62973L115.123 7.96178C113.959 6.76169 112.369 6.18589 110.417 6.18589V7.14492ZM114.44 8.63484C115.399 9.59344 115.906 10.9527 115.906 12.7793H116.865C116.865 10.7697 116.301 9.13996 115.118 7.9567L114.44 8.63484ZM115.906 12.7793C115.906 13.0781 115.9 13.3126 115.889 13.486C115.883 13.5727 115.877 13.6396 115.87 13.689C115.862 13.7425 115.857 13.7595 115.859 13.7545L116.768 14.0578C116.814 13.9201 116.834 13.7331 116.846 13.5471C116.859 13.3449 116.865 13.0878 116.865 12.7793H115.906ZM116.313 13.4266H108.02V14.3856H116.313V13.4266ZM107.541 13.9295C107.58 14.7252 107.926 15.398 108.549 15.9261L109.169 15.1948C108.737 14.8279 108.524 14.3977 108.499 13.8828L107.541 13.9295ZM108.555 15.9316C109.173 16.4373 109.905 16.6873 110.728 16.6873V15.7283C110.113 15.7283 109.599 15.5467 109.162 15.1893L108.555 15.9316ZM110.728 16.6873C111.41 16.6873 112.015 16.5434 112.512 16.2203C113.013 15.8943 113.364 15.4121 113.577 14.8094L112.673 14.4894C112.519 14.9256 112.287 15.2226 111.989 15.4162C111.687 15.6125 111.278 15.7283 110.728 15.7283V16.6873ZM122.368 18.9411V19.4206H122.847V18.9411H122.368ZM118.724 18.9411H118.245V19.4206H118.724V18.9411ZM118.724 1.58251V1.103H118.245V1.58251H118.724ZM122.368 1.58251H122.847V1.103H122.368V1.58251ZM122.368 18.4616H118.724V19.4206H122.368V18.4616ZM119.204 18.9411V1.58251H118.245V18.9411H119.204ZM118.724 2.06203H122.368V1.103H118.724V2.06203ZM121.888 1.58251V18.9411H122.847V1.58251H121.888ZM129.106 18.9411V19.4206H129.586V18.9411H129.106ZM125.583 18.9411H125.104V19.4206H125.583V18.9411ZM125.583 1.58251V1.103H125.104V1.58251H125.583ZM129.154 1.58251H129.634V1.103H129.154V1.58251ZM129.154 8.15191H128.675V9.70984L129.551 8.42155L129.154 8.15191ZM130.497 7.14492L130.305 6.70535L130.497 7.14492ZM136.633 8.48758L136.267 8.79799L136.27 8.80068L136.272 8.80334L136.633 8.48758ZM136.537 17.4546L136.182 17.1327L136.181 17.133L136.537 17.4546ZM130.425 18.7732L130.206 19.1998L130.21 19.2022L130.215 19.2043L130.425 18.7732ZM129.106 17.5984L129.518 17.3517L128.627 15.8672V17.5984H129.106ZM133.733 10.7893L133.393 11.1283L133.396 11.131L133.399 11.1337L133.733 10.7893ZM129.874 10.7893L130.207 11.1337L130.207 11.1335L129.874 10.7893ZM129.897 15.1769L129.558 15.5159L129.561 15.5185L129.564 15.5211L129.897 15.1769ZM133.709 15.1769L134.048 15.5159L133.709 15.1769ZM129.106 18.4616H125.583V19.4206H129.106V18.4616ZM126.062 18.9411V1.58251H125.104V18.9411H126.062ZM125.583 2.06203H129.154V1.103H125.583V2.06203ZM128.675 1.58251V8.15191H129.634V1.58251H128.675ZM129.551 8.42155C129.755 8.12139 130.116 7.83414 130.688 7.5845L130.305 6.70535C129.631 6.99918 129.097 7.38322 128.758 7.88228L129.551 8.42155ZM130.688 7.5845C131.242 7.34282 131.879 7.21685 132.606 7.21685V6.25782C131.767 6.25782 130.997 6.40357 130.305 6.70535L130.688 7.5845ZM132.606 7.21685C134.176 7.21685 135.378 7.7507 136.267 8.79799L136.998 8.17716C135.906 6.8908 134.424 6.25782 132.606 6.25782V7.21685ZM136.272 8.80334C137.188 9.85063 137.664 11.2177 137.664 12.9471H138.622C138.622 11.0322 138.091 9.42621 136.994 8.17181L136.272 8.80334ZM137.664 12.9471C137.664 14.6684 137.161 16.0506 136.182 17.1327L136.892 17.7764C138.054 16.4929 138.622 14.8701 138.622 12.9471H137.664ZM136.181 17.133C135.223 18.193 133.997 18.7253 132.462 18.7253V19.6843C134.251 19.6843 135.741 19.0499 136.892 17.7762L136.181 17.133ZM132.462 18.7253C131.756 18.7253 131.15 18.5931 130.634 18.342L130.215 19.2043C130.882 19.5287 131.635 19.6843 132.462 19.6843V18.7253ZM130.644 18.3467C130.117 18.076 129.751 17.7411 129.518 17.3517L128.695 17.8451C129.037 18.4148 129.55 18.8631 130.206 19.1998L130.644 18.3467ZM128.627 17.5984V18.9411H129.586V17.5984H128.627ZM134.979 12.9711C134.979 11.9288 134.699 11.0586 134.066 10.4448L133.399 11.1337C133.788 11.5109 134.02 12.0953 134.02 12.9711H134.979ZM134.071 10.4502C133.464 9.84291 132.7 9.54251 131.815 9.54251V10.5016C132.463 10.5016 132.978 10.7127 133.393 11.1283L134.071 10.4502ZM131.815 9.54251C130.929 9.54251 130.161 9.84262 129.54 10.445L130.207 11.1335C130.641 10.7129 131.166 10.5016 131.815 10.5016V9.54251ZM129.54 10.4448C128.906 11.0586 128.627 11.9288 128.627 12.9711H129.586C129.586 12.0953 129.818 11.5109 130.207 11.1337L129.54 10.4448ZM128.627 12.9711C128.627 14.0059 128.919 14.8763 129.558 15.5159L130.236 14.8378C129.821 14.4225 129.586 13.8223 129.586 12.9711H128.627ZM129.564 15.5211C130.183 16.1215 130.942 16.4236 131.815 16.4236V15.4646C131.185 15.4646 130.667 15.2552 130.231 14.8326L129.564 15.5211ZM131.815 16.4236C132.688 16.4236 133.442 16.1211 134.048 15.5159L133.369 14.8378C132.952 15.2555 132.444 15.4646 131.815 15.4646V16.4236ZM134.048 15.5159C134.687 14.8763 134.979 14.0059 134.979 12.9711H134.02C134.02 13.8223 133.785 14.4225 133.369 14.8378L134.048 15.5159ZM140.757 13.2348L141.083 13.5865L141.085 13.5844L141.088 13.5822L140.757 13.2348ZM143.298 12.06L143.371 12.5339L143.298 12.06ZM146.102 11.6284L146.036 11.1535L146.033 11.1539L146.029 11.1545L146.102 11.6284ZM146.486 9.90215L146.177 10.2689L146.187 10.2777L146.198 10.2858L146.486 9.90215ZM143.753 10.046L144.084 10.3929L144.085 10.3925L143.753 10.046ZM143.178 11.2688L143.082 11.7386L143.62 11.8486L143.656 11.3007L143.178 11.2688ZM140.014 10.6214L139.536 10.5829L139.502 11.0061L139.918 11.0912L140.014 10.6214ZM141.476 7.91215L141.799 8.26669L141.799 8.2664L141.476 7.91215ZM149.218 7.96011L148.876 8.29598L148.878 8.29759L148.879 8.29917L149.218 7.96011ZM150.657 18.9411V19.4206H151.241L151.127 18.847L150.657 18.9411ZM147.373 18.9411L146.908 19.0574L146.998 19.4206H147.373V18.9411ZM147.253 17.5984H147.732V15.9017L146.844 17.3474L147.253 17.5984ZM140.877 18.2218L140.542 18.5646L140.546 18.5682L140.549 18.5718L140.877 18.2218ZM146.342 16.0879L146.024 15.7288L146.342 16.0879ZM146.965 13.7383H147.445V13.1762L146.89 13.2648L146.965 13.7383ZM144.712 14.0979L144.636 13.6244L144.636 13.6245L144.712 14.0979ZM143.705 16.2797L143.355 16.6069L143.361 16.613L143.366 16.6188L143.705 16.2797ZM140.254 15.6564C140.254 14.7642 140.539 14.0912 141.083 13.5865L140.431 12.8831C139.665 13.5932 139.295 14.5346 139.295 15.6564H140.254ZM141.088 13.5822C141.661 13.0368 142.413 12.6814 143.371 12.5339L143.225 11.5861C142.106 11.7583 141.164 12.1861 140.427 12.8874L141.088 13.5822ZM143.371 12.5339L146.175 12.1024L146.029 11.1545L143.225 11.5861L143.371 12.5339ZM146.168 12.1034C146.511 12.0558 146.836 11.9429 147.079 11.7133C147.335 11.4712 147.445 11.1523 147.445 10.8132H146.486C146.486 10.9377 146.452 10.9864 146.42 11.0161C146.376 11.0582 146.269 11.1211 146.036 11.1535L146.168 12.1034ZM147.445 10.8132C147.445 10.2801 147.202 9.83974 146.774 9.51854L146.198 10.2858C146.409 10.4441 146.486 10.6111 146.486 10.8132H147.445ZM146.795 9.53537C146.377 9.18388 145.83 9.03902 145.216 9.03902V9.99806C145.687 9.99806 145.987 10.1089 146.177 10.2689L146.795 9.53537ZM145.216 9.03902C144.51 9.03902 143.896 9.24634 143.422 9.69949L144.085 10.3925C144.346 10.1424 144.706 9.99806 145.216 9.99806V9.03902ZM143.422 9.69915C142.985 10.1166 142.74 10.6361 142.7 11.2369L143.656 11.3007C143.68 10.9424 143.818 10.6468 144.084 10.3929L143.422 9.69915ZM143.274 10.799L140.11 10.1516L139.918 11.0912L143.082 11.7386L143.274 10.799ZM140.492 10.66C140.56 9.81536 140.973 9.01879 141.799 8.26669L141.153 7.55762C140.189 8.43588 139.628 9.44549 139.536 10.5829L140.492 10.66ZM141.799 8.2664C142.598 7.53741 143.725 7.14492 145.24 7.14492V6.18589C143.558 6.18589 142.176 6.62458 141.153 7.55791L141.799 8.2664ZM145.24 7.14492C146.979 7.14492 148.156 7.56165 148.876 8.29598L149.56 7.62423C148.587 6.6323 147.111 6.18589 145.24 6.18589V7.14492ZM148.879 8.29917C149.643 9.06297 150.033 10.0393 150.033 11.2688H150.992C150.992 9.81292 150.519 8.5835 149.557 7.62104L148.879 8.29917ZM150.033 11.2688V17.0949H150.992V11.2688H150.033ZM150.033 17.0949C150.033 17.8629 150.082 18.5128 150.186 19.0351L151.127 18.847C151.039 18.4103 150.992 17.8295 150.992 17.0949H150.033ZM150.657 18.4616H147.373V19.4206H150.657V18.4616ZM147.838 18.8248C147.772 18.5612 147.732 18.1591 147.732 17.5984H146.774C146.774 18.1886 146.814 18.6816 146.908 19.0574L147.838 18.8248ZM146.844 17.3474C146.262 18.2966 145.316 18.7972 143.897 18.7972V19.7563C145.578 19.7563 146.87 19.1379 147.661 17.8494L146.844 17.3474ZM143.897 18.7972C142.727 18.7972 141.848 18.4739 141.205 17.8717L140.549 18.5718C141.409 19.3762 142.542 19.7563 143.897 19.7563V18.7972ZM141.212 17.879C140.566 17.2461 140.254 16.513 140.254 15.6564H139.295C139.295 16.7818 139.718 17.7589 140.542 18.5646L141.212 17.879ZM144.784 17.1189C145.509 17.1189 146.146 16.902 146.66 16.4471L146.024 15.7288C145.707 16.0092 145.306 16.1599 144.784 16.1599V17.1189ZM146.66 16.4471C147.222 15.9495 147.445 15.1779 147.445 14.2658H146.486C146.486 15.0479 146.293 15.4911 146.024 15.7288L146.66 16.4471ZM147.445 14.2658V13.7383H146.486V14.2658H147.445ZM146.89 13.2648L144.636 13.6244L144.788 14.5715L147.041 14.2118L146.89 13.2648ZM144.636 13.6245C144.132 13.7055 143.689 13.8792 143.369 14.1934C143.038 14.5188 142.891 14.9442 142.891 15.4166H143.849C143.849 15.1537 143.925 14.9917 144.041 14.8776C144.169 14.7523 144.397 14.6343 144.788 14.5714L144.636 13.6245ZM142.891 15.4166C142.891 15.8706 143.046 16.2761 143.355 16.6069L144.056 15.9526C143.917 15.8039 143.849 15.634 143.849 15.4166H142.891ZM143.366 16.6188C143.728 16.9802 144.231 17.1189 144.784 17.1189V16.1599C144.379 16.1599 144.162 16.0588 144.044 15.9407L143.366 16.6188ZM157.102 18.9411V19.4206H157.581V18.9411H157.102ZM153.578 18.9411H153.099V19.4206H153.578V18.9411ZM153.578 1.58251V1.103H153.099V1.58251H153.578ZM157.15 1.58251H157.629V1.103H157.15V1.58251ZM157.15 8.15191H156.67V9.70984L157.546 8.42155L157.15 8.15191ZM158.492 7.14492L158.3 6.70535L158.492 7.14492ZM164.628 8.48758L164.263 8.79799L164.265 8.80068L164.267 8.80334L164.628 8.48758ZM164.532 17.4546L164.177 17.1327L164.177 17.133L164.532 17.4546ZM158.42 18.7732L158.201 19.1998L158.206 19.2022L158.21 19.2043L158.42 18.7732ZM157.102 17.5984L157.513 17.3517L156.622 15.8672V17.5984H157.102ZM161.728 10.7893L161.389 11.1283L161.392 11.131L161.394 11.1337L161.728 10.7893ZM157.869 10.7893L158.202 11.1337L158.203 11.1335L157.869 10.7893ZM157.893 15.1769L157.554 15.5159L157.556 15.5185L157.559 15.5211L157.893 15.1769ZM161.704 15.1769L162.043 15.5159L161.704 15.1769ZM157.102 18.4616H153.578V19.4206H157.102V18.4616ZM154.058 18.9411V1.58251H153.099V18.9411H154.058ZM153.578 2.06203H157.15V1.103H153.578V2.06203ZM156.67 1.58251V8.15191H157.629V1.58251H156.67ZM157.546 8.42155C157.75 8.12139 158.111 7.83414 158.684 7.5845L158.3 6.70535C157.627 6.99918 157.093 7.38322 156.753 7.88228L157.546 8.42155ZM158.684 7.5845C159.238 7.34282 159.874 7.21685 160.601 7.21685V6.25782C159.762 6.25782 158.993 6.40357 158.3 6.70535L158.684 7.5845ZM160.601 7.21685C162.171 7.21685 163.374 7.7507 164.263 8.79799L164.994 8.17716C163.901 6.8908 162.419 6.25782 160.601 6.25782V7.21685ZM164.267 8.80334C165.183 9.85063 165.659 11.2177 165.659 12.9471H166.618C166.618 11.0322 166.086 9.42621 164.989 8.17181L164.267 8.80334ZM165.659 12.9471C165.659 14.6684 165.156 16.0506 164.177 17.1327L164.888 17.7764C166.049 16.4929 166.618 14.8701 166.618 12.9471H165.659ZM164.177 17.133C163.219 18.193 161.993 18.7253 160.457 18.7253V19.6843C162.246 19.6843 163.737 19.0499 164.888 17.7762L164.177 17.133ZM160.457 18.7253C159.751 18.7253 159.146 18.5931 158.63 18.342L158.21 19.2043C158.877 19.5287 159.63 19.6843 160.457 19.6843V18.7253ZM158.639 18.3467C158.112 18.076 157.746 17.7411 157.513 17.3517L156.691 17.8451C157.032 18.4148 157.546 18.8631 158.201 19.1998L158.639 18.3467ZM156.622 17.5984V18.9411H157.581V17.5984H156.622ZM162.974 12.9711C162.974 11.9288 162.695 11.0586 162.061 10.4448L161.394 11.1337C161.784 11.5109 162.015 12.0953 162.015 12.9711H162.974ZM162.067 10.4502C161.46 9.84291 160.696 9.54251 159.81 9.54251V10.5016C160.459 10.5016 160.973 10.7127 161.389 11.1283L162.067 10.4502ZM159.81 9.54251C158.925 9.54251 158.156 9.84262 157.535 10.445L158.203 11.1335C158.636 10.7129 159.162 10.5016 159.81 10.5016V9.54251ZM157.535 10.4448C156.902 11.0586 156.622 11.9288 156.622 12.9711H157.581C157.581 12.0953 157.813 11.5109 158.202 11.1337L157.535 10.4448ZM156.622 12.9711C156.622 14.0059 156.914 14.8763 157.554 15.5159L158.232 14.8378C157.816 14.4225 157.581 13.8223 157.581 12.9711H156.622ZM157.559 15.5211C158.178 16.1215 158.938 16.4236 159.81 16.4236V15.4646C159.181 15.4646 158.662 15.2552 158.227 14.8326L157.559 15.5211ZM159.81 16.4236C160.683 16.4236 161.438 16.1211 162.043 15.5159L161.365 14.8378C160.947 15.2555 160.44 15.4646 159.81 15.4646V16.4236ZM162.043 15.5159C162.682 14.8763 162.974 14.0059 162.974 12.9711H162.015C162.015 13.8223 161.78 14.4225 161.365 14.8378L162.043 15.5159ZM172.554 23.5205V24H172.866L172.992 23.7154L172.554 23.5205ZM168.719 23.5205L168.28 23.3282L167.986 24H168.719V23.5205ZM171.428 17.3347L171.867 17.5271L171.956 17.3242L171.859 17.1251L171.428 17.3347ZM166.418 7.02505V6.54553H165.652L165.987 7.23467L166.418 7.02505ZM170.493 7.02505L170.929 6.8265L170.802 6.54553H170.493V7.02505ZM173.393 13.4026L172.957 13.6012L173.414 14.6068L173.836 13.5859L173.393 13.4026ZM176.03 7.02505V6.54553H175.709L175.587 6.8418L176.03 7.02505ZM179.889 7.02505L180.327 7.21992L180.627 6.54553H179.889V7.02505ZM172.554 23.041H168.719V24H172.554V23.041ZM169.158 23.7128L171.867 17.5271L170.989 17.1423L168.28 23.3282L169.158 23.7128ZM171.859 17.1251L166.849 6.81542L165.987 7.23467L170.997 17.5443L171.859 17.1251ZM166.418 7.50456H170.493V6.54553H166.418V7.50456ZM170.057 7.22359L172.957 13.6012L173.83 13.2041L170.929 6.8265L170.057 7.22359ZM173.836 13.5859L176.473 7.20829L175.587 6.8418L172.95 13.2194L173.836 13.5859ZM176.03 7.50456H179.889V6.54553H176.03V7.50456ZM179.451 6.83017L172.116 23.3255L172.992 23.7154L180.327 7.21992L179.451 6.83017Z" fill="white"/>
<mask id="mask0_141_85" style="mask-type:alpha" maskUnits="userSpaceOnUse" x="0" y="0" width="38" height="24">
<path d="M37.9493 0H0.644409V23.9759H37.9493V0Z" fill="white"/>
<path fill-rule="evenodd" clip-rule="evenodd" d="M13.5498 21.6347C13.673 21.7425 13.8262 21.7963 13.9801 21.7963C14.1339 21.7963 14.2871 21.7425 14.4103 21.6347C15.3615 20.8027 16.2661 20.0314 17.1171 19.3059L17.2509 19.1918C17.9712 18.5778 18.6551 17.995 19.2969 17.4342C19.9387 17.995 20.6227 18.5779 21.343 19.192L21.4767 19.3059C22.3277 20.0314 23.2323 20.8027 24.1835 21.6347C24.3067 21.7425 24.4599 21.7963 24.6137 21.7963C24.7676 21.7963 24.9208 21.7425 25.044 21.6347C25.9951 20.8027 26.8997 20.0314 27.7508 19.3059L27.8846 19.1918C32.613 15.1615 35.7703 12.4704 35.7703 8.56654C35.7703 4.92544 33.1974 2.17963 29.8434 2.17963C27.1998 2.17963 25.503 4.02699 24.6137 5.69044C24.4099 5.30911 24.1635 4.91808 23.8731 4.54188C23.5324 4.07825 23.1316 3.67066 22.6813 3.33035C21.8115 2.65027 20.7184 2.17963 19.3841 2.17963C19.355 2.17963 19.3259 2.17984 19.2969 2.18025C19.2679 2.17984 19.2388 2.17963 19.2097 2.17963C17.8754 2.17963 16.7823 2.65027 15.9125 3.33035C15.4622 3.67066 15.0614 4.07825 14.7207 4.54188C14.4302 4.91808 14.1839 5.30911 13.9801 5.69044C13.0908 4.02699 11.3939 2.17963 8.75039 2.17963C5.39629 2.17963 2.82343 4.92544 2.82343 8.56654C2.82343 12.4704 5.98083 15.1616 10.7094 19.192L10.843 19.3059C11.694 20.0314 12.5986 20.8027 13.5498 21.6347ZM14.7207 4.54188C13.9245 5.62523 13.4571 7.01456 13.4571 8.56654C13.4571 11.8756 15.7257 14.3135 19.2969 17.4342C22.8681 14.3135 25.1367 11.8757 25.1367 8.56654C25.1367 7.01456 24.6693 5.62523 23.8731 4.54188C23.5361 4.10535 23.1397 3.68877 22.6813 3.33035C21.7368 2.61637 20.5752 2.19842 19.2969 2.18025C18.0186 2.19842 16.857 2.61637 15.9125 3.33035C15.454 3.68877 15.0577 4.10535 14.7207 4.54188Z" fill="black"/>
</mask>
<g mask="url(#mask0_141_85)">
<path d="M13.5498 21.6347L14.9855 19.9952L14.9849 19.9945L14.9843 19.994L13.5498 21.6347ZM14.4103 21.6347L12.9759 19.994L12.9753 19.9945L12.9747 19.9952L14.4103 21.6347ZM17.1171 19.3059L15.7038 17.6469L15.7037 17.647L17.1171 19.3059ZM17.2509 19.1918L15.8376 17.5328V17.5328L17.2509 19.1918ZM21.3431 19.192L22.7564 17.533L22.7563 17.5329L21.3431 19.192ZM21.4767 19.3059L22.8901 17.647L22.89 17.6469L21.4767 19.3059ZM24.1835 21.6347L25.619 19.9952L25.6185 19.9945L25.6178 19.994L24.1835 21.6347ZM25.044 21.6347L23.6095 19.994L23.6089 19.9945L23.6083 19.9952L25.044 21.6347ZM27.7509 19.3059L26.3374 17.6469V17.647L27.7509 19.3059ZM27.8846 19.1918L26.4714 17.5328V17.5328L27.8846 19.1918ZM24.6137 5.69044L22.6922 6.71826L24.6137 10.3127L26.5354 6.71826L24.6137 5.69044ZM13.9801 5.69044L12.0585 6.71826L13.9801 10.3127L15.9016 6.71826L13.9801 5.69044ZM10.7094 19.192L12.1227 17.533L12.1227 17.5329L10.7094 19.192ZM10.843 19.3059L12.2564 17.647L12.2564 17.6469L10.843 19.3059ZM13.9801 19.6166C14.3342 19.6166 14.6964 19.7418 14.9855 19.9952L12.1141 23.2744C12.6496 23.7436 13.3182 23.9759 13.9801 23.9759V19.6166ZM12.9747 19.9952C13.2637 19.7418 13.6259 19.6166 13.9801 19.6166V23.9759C14.6419 23.9759 15.3106 23.7436 15.846 23.2744L12.9747 19.9952ZM15.7037 17.647C14.8536 18.3717 13.939 19.1515 12.9759 19.994L15.8448 23.2756C16.7841 22.4539 17.6787 21.691 18.5305 20.9648L15.7037 17.647ZM15.8376 17.5328L15.7038 17.6469L18.5304 20.9648L18.6641 20.8509L15.8376 17.5328ZM17.8633 15.7927C17.2334 16.343 16.5602 16.9169 15.8376 17.5328L18.6641 20.8509C19.3823 20.2388 20.0767 19.6468 20.7305 19.0755L17.8633 15.7927ZM22.7563 17.5329C22.0337 16.917 21.3604 16.3431 20.7305 15.7927L17.8633 19.0755C18.5171 19.6471 19.2117 20.2388 19.9298 20.8509L22.7563 17.5329ZM22.89 17.6469L22.7564 17.533L19.9298 20.8509L20.0634 20.9648L22.89 17.6469ZM25.6178 19.994C24.6547 19.1515 23.7402 18.3717 22.8901 17.647L20.0633 20.9648C20.9151 21.691 21.8097 22.4539 22.749 23.2756L25.6178 19.994ZM24.6137 19.6166C24.9678 19.6166 25.3299 19.7418 25.619 19.9952L22.7478 23.2744C23.2833 23.7436 23.9519 23.9759 24.6137 23.9759V19.6166ZM23.6083 19.9952C23.8974 19.7418 24.2596 19.6166 24.6137 19.6166V23.9759C25.2755 23.9759 25.9443 23.7436 26.4798 23.2744L23.6083 19.9952ZM26.3374 17.647C25.4872 18.3717 24.5726 19.1515 23.6095 19.994L26.4786 23.2756C27.4177 22.4539 28.3122 21.691 29.1641 20.9648L26.3374 17.647ZM26.4714 17.5328L26.3374 17.6469L29.1641 20.9648L29.2978 20.8509L26.4714 17.5328ZM33.5912 8.56654C33.5912 9.84494 33.1037 11.0172 31.9234 12.4402C30.69 13.9278 28.8853 15.4752 26.4714 17.5328L29.2978 20.8509C31.6123 18.8782 33.7506 17.0649 35.2777 15.2234C36.8585 13.3173 37.9493 11.192 37.9493 8.56654H33.5912ZM29.8434 4.35925C31.8498 4.35925 33.5912 5.97971 33.5912 8.56654H37.9493C37.9493 3.87115 34.5452 0 29.8434 0V4.35925ZM26.5354 6.71826C27.2528 5.376 28.3642 4.35925 29.8434 4.35925V0C26.0354 0 23.7532 2.67797 22.6922 4.66262L26.5354 6.71826ZM22.1485 5.874C22.3578 6.14512 22.5396 6.43274 22.6922 6.71826L26.5354 4.66262C26.2801 4.18545 25.9695 3.69104 25.5977 3.2097L22.1485 5.874ZM21.3676 5.0693C21.6461 5.27988 21.899 5.53565 22.1174 5.83281L25.6288 3.25092C25.1658 2.62083 24.6169 2.06145 23.9951 1.59142L21.3676 5.0693ZM19.3841 4.35925C20.1667 4.35925 20.7979 4.62426 21.3394 5.04762L24.0233 1.61307C22.8251 0.676264 21.27 0 19.3841 0V4.35925ZM19.3279 4.35966C19.3465 4.35939 19.3653 4.35925 19.3841 4.35925V0C19.3446 0 19.3052 0.000287707 19.2659 0.000839153L19.3279 4.35966ZM19.2097 4.35925C19.2285 4.35925 19.2473 4.35939 19.2659 4.35966L19.3279 0.000839153C19.2886 0.000287707 19.2492 0 19.2097 0V4.35925ZM17.2544 5.04762C17.7959 4.62426 18.4271 4.35925 19.2097 4.35925V0C17.3238 0 15.7687 0.676264 14.5705 1.61307L17.2544 5.04762ZM16.4764 5.83281C16.6948 5.53565 16.9477 5.27988 17.2262 5.0693L14.5987 1.59142C13.9769 2.06145 13.428 2.62083 12.9649 3.25092L16.4764 5.83281ZM15.9016 6.71826C16.0542 6.43274 16.2361 6.14512 16.4453 5.874L12.996 3.2097C12.6244 3.69104 12.3136 4.18545 12.0585 4.66262L15.9016 6.71826ZM8.75041 4.35925C10.2295 4.35925 11.341 5.376 12.0585 6.71826L15.9016 4.66262C14.8407 2.67797 12.5584 0 8.75041 0V4.35925ZM5.00247 8.56654C5.00247 5.97971 6.74396 4.35925 8.75041 4.35925V0C4.04865 0 0.644409 3.87115 0.644409 8.56654H5.00247ZM12.1227 17.5329C9.70851 15.4753 7.90398 13.9279 6.67035 12.4402C5.49017 11.0172 5.00247 9.84494 5.00247 8.56654H0.644409C0.644409 11.192 1.73538 13.3173 3.31608 15.2234C4.84329 17.065 6.98173 18.8783 9.29612 20.8509L12.1227 17.5329ZM12.2564 17.6469L12.1227 17.533L9.29612 20.8509L9.42972 20.9648L12.2564 17.6469ZM14.9843 19.994C14.0212 19.1515 13.1065 18.3717 12.2564 17.647L9.42965 20.9648C10.2815 21.691 11.1761 22.4539 12.1153 23.2756L14.9843 19.994ZM15.6361 8.56654C15.6361 7.45612 15.9685 6.52394 16.4764 5.83281L12.9649 3.25092C11.8806 4.72651 11.2781 6.57302 11.2781 8.56654H15.6361ZM20.7305 15.7927C17.0639 12.5886 15.6361 10.7595 15.6361 8.56654H11.2781C11.2781 12.9918 14.3876 16.0383 17.8633 19.0755L20.7305 15.7927ZM22.9577 8.56654C22.9577 10.7596 21.5299 12.5886 17.8633 15.7927L20.7305 19.0755C24.2062 16.0383 27.3158 12.9918 27.3158 8.56654H22.9577ZM22.1174 5.83281C22.6253 6.52394 22.9577 7.45612 22.9577 8.56654H27.3158C27.3158 6.57302 26.7132 4.72651 25.6288 3.25092L22.1174 5.83281ZM21.3394 5.04762C21.6339 5.27794 21.9052 5.55893 22.1485 5.874L25.5977 3.2097C25.167 2.65178 24.6454 2.09959 24.0233 1.61307L21.3394 5.04762ZM19.2659 4.35966C20.0765 4.37119 20.7895 4.63231 21.3676 5.0693L23.9951 1.59142C22.6841 0.600405 21.074 0.0256782 19.3279 0.000839153L19.2659 4.35966ZM17.2262 5.0693C17.8043 4.63231 18.5174 4.37119 19.3279 4.35966L19.2659 0.000839153C17.5199 0.0256782 15.9097 0.600405 14.5987 1.59142L17.2262 5.0693ZM16.4453 5.874C16.6886 5.55893 16.9599 5.27794 17.2544 5.04762L14.5705 1.61307C13.9483 2.09959 13.4267 2.65178 12.996 3.2097L16.4453 5.874Z" fill="white"/>
</g>
</svg>
