<svg xmlns="http://www.w3.org/2000/svg" width="267" height="267" fill-rule="evenodd" stroke-linejoin="round" stroke-miterlimit="2" clip-rule="evenodd" id="trust"><path d="M133.329,238.812L133.329,238.812L133.328,238.813L133.455,238.81C133.455,238.81 133.34,238.813 133.34,238.813C133.541,238.813 133.741,238.793 133.937,238.755C184.796,228.857 220.27,188.287 220.27,135.989L220.271,66.384C220.271,66.384 217.146,69.488 217.146,69.488L217.471,63.255C186.249,59.991 158.791,50.519 135.468,28.697C134.267,27.573 132.4,27.573 131.198,28.697C107.875,50.519 80.417,59.991 49.196,63.255C47.605,63.421 46.396,64.763 46.396,66.363C46.396,66.363 46.396,135.989 46.396,135.989C46.396,188.287 81.871,228.858 132.732,238.755C132.928,238.794 133.128,238.813 133.328,238.813L133.329,238.812ZM133.704,234.916C133.648,236.601 133.359,238.604 133.331,238.798L133.33,238.797L133.704,234.916ZM132.822,232.604C132.717,232.621 132.62,232.644 132.528,232.671C132.599,232.651 132.671,232.634 132.743,232.62L132.822,232.604ZM214.021,69.161L214.02,135.989C214.02,184.987 180.863,222.995 133.333,232.502C85.804,222.996 52.646,184.988 52.646,135.989L52.646,69.161C83.163,65.586 110.142,56 133.334,35.215C156.524,56 183.502,65.586 214.021,69.161Z"></path><path d="M133.328,257.291L133.328,257.291L133.328,257.292L133.456,257.289C133.456,257.289 133.341,257.291 133.341,257.291C133.542,257.291 133.742,257.272 133.938,257.234C193.707,245.601 235.402,197.928 235.402,136.469L235.402,54.298C235.402,54.298 232.277,57.398 232.277,57.398L232.602,51.165C195.618,47.298 163.096,36.068 135.468,10.218C134.267,9.094 132.4,9.094 131.198,10.218C103.571,36.068 71.049,47.298 34.065,51.165C32.474,51.331 31.265,52.672 31.265,54.273C31.265,54.273 31.265,136.469 31.265,136.469C31.265,197.929 72.96,245.603 132.731,257.234C132.927,257.272 133.127,257.292 133.328,257.292L133.328,257.291ZM133.705,253.376C133.65,255.057 133.361,257.064 133.33,257.274L133.329,257.273L133.705,253.376ZM132.824,251.083C132.719,251.1 132.621,251.122 132.529,251.149C132.6,251.13 132.672,251.113 132.744,251.099L132.824,251.083ZM229.152,57.072L229.152,136.469C229.152,194.626 189.778,239.736 133.333,250.981C76.89,239.737 37.515,194.627 37.515,136.469C37.515,136.469 37.515,57.073 37.515,57.073C73.792,52.894 105.835,41.547 133.334,16.743C160.832,41.548 192.875,52.894 229.152,57.072Z"></path><path d="M133.333,102.894C128.594,99.471 122.303,97.704 115.991,97.694C108.675,97.683 101.389,100.032 96.512,104.563C87.027,113.373 86.401,130.988 95.882,148.609C102.17,161.085 118.227,173.685 131.688,182.021C132.696,182.646 133.97,182.646 134.978,182.021C148.449,173.679 164.519,161.067 170.813,148.554C180.265,130.969 179.634,113.368 170.155,104.563C165.277,100.032 157.991,97.683 150.676,97.694C144.363,97.704 138.073,99.471 133.333,102.894ZM131.195,109.211C132.397,110.339 134.269,110.339 135.471,109.211C139.267,105.65 144.991,103.953 150.685,103.944C156.38,103.936 162.104,105.615 165.901,109.142C165.901,109.142 165.901,109.142 165.901,109.142C168.862,111.892 170.582,115.769 171.174,120.279C172.144,127.664 170.124,136.65 165.276,145.656C165.262,145.682 165.248,145.708 165.235,145.734C159.635,156.882 145.53,167.936 133.334,175.676C121.136,167.936 107.032,156.882 101.431,145.734C101.418,145.708 101.404,145.682 101.39,145.656C96.543,136.65 94.523,127.664 95.492,120.279C96.084,115.769 97.805,111.892 100.765,109.142C104.562,105.615 110.286,103.936 115.981,103.944C121.675,103.953 127.399,105.65 131.195,109.211Z"></path></svg>