<svg width="20" height="19" viewBox="0 0 20 19" fill="none" xmlns="http://www.w3.org/2000/svg">
<path d="M19.0853 4.84716C18.8672 4.01571 18.2246 3.36089 17.4088 3.13867C15.93 2.73486 10.0001 2.73486 10.0001 2.73486C10.0001 2.73486 4.07019 2.73486 2.59133 3.13867C1.77547 3.36093 1.1329 4.01571 0.914805 4.84716C0.518555 6.3542 0.518555 9.4985 0.518555 9.4985C0.518555 9.4985 0.518555 12.6428 0.914805 14.1499C1.1329 14.9813 1.77547 15.6088 2.59133 15.8311C4.07019 16.2349 10.0001 16.2349 10.0001 16.2349C10.0001 16.2349 15.9299 16.2349 17.4088 15.8311C18.2246 15.6088 18.8672 14.9813 19.0853 14.1499C19.4816 12.6428 19.4816 9.4985 19.4816 9.4985C19.4816 9.4985 19.4816 6.3542 19.0853 4.84716ZM8.06064 12.3533V6.64371L13.0169 9.49857L8.06064 12.3533Z" fill="white"/>
</svg>
